<?xml version="1.0" encoding="UTF-8"?>
<svg width="536px" height="206px" viewBox="0 0 536 206" version="1.1" xmlns="http://www.w3.org/2000/svg" xmlns:xlink="http://www.w3.org/1999/xlink">
    <!-- Generator: Sketch 50 (54983) - http://www.bohemiancoding.com/sketch -->
    <title>1x2_white</title>
    <desc>Created with Sketch.</desc>
    <defs></defs>
    <g id="Page-1" stroke="none" stroke-width="1" fill="none" fill-rule="evenodd">
        <g id="1x2_white" fill="#FFFFFF">
            <g id="Group">
                <path d="M62.4075306,144.652598 C64.0028165,144.842546 65.0380125,144.965611 66.3596105,145.123455 C65.7995206,146.008319 65.4180974,146.664442 64.9878252,147.286455 C57.1325144,158.644546 49.2350462,169.973208 41.4499975,181.379455 C40.2033458,183.206033 39.4833258,183.743773 37.5507815,182.022871 C17.2443446,163.942358 4.05178527,141.818092 0.799650437,114.674247 C-2.74691635,85.0811435 5.53933583,58.6823773 24.9845593,36.0016435 C39.83196,18.6835981 58.6515156,7.76426039 80.8657378,2.87577338 C98.7832609,-1.06698636 116.520779,0.347591558 133.988624,5.76913701 C142.422092,8.38627338 150.486851,11.7645396 157.921258,16.6175786 C159.820345,17.8569227 159.837074,18.6448058 158.54425,20.3730656 C149.005993,33.1310201 139.550712,45.9525136 130.124874,58.7947409 C129.125813,60.1564812 128.165563,61.1577214 126.340754,60.8045786 C123.962547,60.3437539 122.534552,61.4413058 121.155406,63.3829227 C114.973673,72.0897669 108.617288,80.6728773 102.12038,89.5790331 C95.8436255,80.7196955 89.6966891,72.1720331 83.7197203,63.5059877 C82.3827316,61.5670461 81.0457428,60.6775006 78.6053034,60.7651175 C72.9321348,60.9684422 67.2462522,60.8299942 61.5088439,60.8299942 C61.4385818,62.3268383 62.5346717,63.0993383 63.1958052,64.0450656 C72.0608839,76.7368058 80.9186017,89.4352344 89.9155056,102.033338 C91.263201,103.919442 91.1802247,105.051773 89.8398901,106.873669 C80.7352509,119.248384 71.7691286,131.72476 62.4075306,144.652598 Z M55.1238192,105.75846 L54.9056719,105.75846 C54.9056719,95.5166487 55.0522187,85.2728305 54.8554846,75.034363 C54.7162986,67.7862396 50.2723835,63.1652851 43.0701763,61.9466747 C37.6379066,61.0270318 32.1755246,61.4831747 26.7298717,61.481837 C20.6364684,61.4798305 21.3745558,60.103376 21.2387156,67.25385 C21.2012424,69.2369344 21.980818,69.6041227 23.7808679,69.6335513 C31.9045134,69.7679864 33.3726582,71.3497721 33.3733273,79.5636877 C33.3733273,98.3799149 33.4174921,117.196142 33.3204634,136.011032 C33.3070801,138.505772 33.9862811,139.281616 36.510366,139.18798 C41.849622,138.990675 47.2022612,139.052207 52.5475396,139.144506 C54.5483386,139.178616 55.2001039,138.585363 55.1766831,136.485233 C55.0602487,126.24409 55.1238192,116.000941 55.1238192,105.75846 Z" id="Fill-1"></path>
                <path d="M104.737344,116.956834 C111.123172,125.963315 117.301559,134.537062 123.295926,143.237218 C124.602802,145.134023 125.985964,145.818906 128.226323,145.764062 C133.892131,145.623607 139.563961,145.717912 145.93306,145.717912 C142.677579,141.046127 139.737944,136.795036 136.766188,132.568023 C130.170243,123.184321 123.593035,113.787244 116.920805,104.458386 C115.703597,102.756211 115.627312,101.597795 116.947572,99.8113474 C125.352935,88.4378734 133.607067,76.9540422 141.904695,65.5016461 C142.678917,64.4328539 143.407636,63.331289 144.209964,62.1688604 C143.178113,61.15625 141.922763,61.9448019 140.999986,61.3689383 C140.630608,60.7455877 141.150548,60.3523149 141.432935,59.9429903 C149.472935,48.3080032 157.566468,36.7091331 165.534867,25.0253214 C166.839067,23.1131331 167.715002,23.0623019 169.379212,24.5497825 C186.883192,40.1944123 199.339671,59.0514383 204.403232,82.0799643 C210.190158,108.39914 206.18053,133.455562 192.06051,156.56301 C176.757409,181.605386 154.553224,197.546308 125.925739,203.58251 C99.699212,209.111068 74.5814891,205.199744 51.2678312,191.409782 C48.8829323,189.999218 48.6333343,188.952497 50.2701084,186.604899 C59.1853743,173.816847 67.9333493,160.910412 76.6712869,147.998627 C77.6984529,146.481049 78.7282956,145.374802 80.677569,145.748679 C83.1454442,146.220873 84.4904629,144.87786 85.8187526,143.021854 C91.9697039,134.420016 98.2310672,125.897769 104.737344,116.956834 Z M148.493079,94.5369448 C152.487316,91.6750162 155.805029,89.0986786 159.322821,86.8313409 C163.212,84.3238929 166.487556,81.65325 165.289753,76.3240032 C165.198747,75.9186916 165.377413,75.4451591 165.462397,75.00975 C166.041223,72.0515097 167.837928,70.6790682 170.857194,70.6783994 C173.959436,70.6770617 177.070377,71.1278539 177.6037,74.6900487 C178.687745,81.9234578 178.557258,88.9314708 171.721753,93.9189448 C167.142667,97.2604253 162.785743,100.905555 158.30837,104.388159 C151.944624,109.339516 147.423086,115.103503 148.402072,123.89462 C148.843051,127.855438 148.629588,131.913906 148.421478,135.913516 C148.290322,138.424977 149.069898,139.111198 151.581268,139.084445 C163.838337,138.95536 176.098082,139.026256 188.356489,139.026256 C194.611161,139.026256 194.490712,139.024919 194.557628,132.606815 C194.586402,129.910088 193.86839,128.911523 191.006377,128.979075 C183.321034,129.159659 175.62833,128.968373 167.94031,129.06201 C165.918097,129.086088 165.287076,128.482133 165.234881,126.427484 C165.095695,121.011958 166.754552,116.413075 170.592205,112.567295 C175.255605,107.894172 180.888624,104.446347 185.970921,100.304945 C190.475061,96.6343994 194.375615,92.5919838 194.534876,86.2969448 C194.611161,83.2912175 194.644619,80.2788019 194.526846,77.27575 C194.237768,69.8931916 191.770562,66.199237 184.991266,64.0937565 C176.433333,61.4358214 167.7322,61.0993994 159.122072,64.0583084 C152.678027,66.2734773 148.735316,71.5385162 148.524529,78.3599253 C148.366607,83.4751461 148.493079,88.5997305 148.493079,94.5369448 Z" id="Fill-4"></path>
                <path d="M276.175907,78.7540006 C276.252192,84.7139552 276.312416,90.6745786 276.417475,96.6345331 C276.438219,97.8243838 276.105645,99.0764357 276.842394,100.188033 C277.609255,92.0838058 282.636681,87.5484617 289.793385,84.8637734 C294.526379,83.0886955 299.476182,82.2660331 304.508292,82.294124 C307.110669,82.3088383 306.959438,81.0942409 306.192576,79.4823578 C305.206898,77.4089812 303.390119,76.4358318 301.151098,76.1174682 C295.684032,75.341624 290.511398,76.3582474 285.631857,78.7974747 C283.973001,79.6261565 283.006729,79.8535591 282.759807,77.6009357 C282.664117,76.732124 282.282694,75.8947474 282.035772,75.0419877 C280.009545,68.0466825 279.996831,68.0032084 286.862449,65.8622799 C293.220172,63.8798643 299.767937,63.3427929 306.333101,64.2182929 C316.53383,65.5793643 322.732961,72.4054552 323.57343,83.1783188 C323.936786,87.8313773 323.730014,92.5279097 323.800277,97.2043773 C323.887937,103.098786 323.457665,109.01928 324.454719,114.873559 C324.810714,116.960981 324.159617,117.660579 322.032347,117.49404 C319.707003,117.311449 317.355563,117.456585 315.015498,117.451234 C311.814219,117.443208 307.927048,118.514007 308.568776,112.730624 C296.935368,122.902877 279.335697,119.022988 276.863807,105.00228 C275.647268,107.783949 277.187013,110.925449 275.730244,113.676351 C275.730261,113.674874 275.730219,113.675445 275.730177,113.676017 C275.010157,126.569744 270.03961,134.05129 259.497608,137.517842 C252.931775,139.677497 246.117014,139.642718 239.31965,138.778588 C236.006622,138.357894 232.797983,137.483062 229.68035,136.220309 C228.131236,135.592945 227.66416,134.807738 228.138597,133.19853 C229.018547,130.215543 229.917233,127.221186 230.492714,124.171984 C230.88016,122.122017 231.634976,122.272504 233.110482,123.042997 C236.402097,124.763231 239.965393,125.569173 243.645793,125.989868 C253.893363,127.16166 259.279461,122.285212 259.027855,111.685575 C256.828315,113.060023 255.01622,114.794971 252.673478,115.659101 C242.965923,119.239355 231.600849,115.235062 226.902652,105.901523 C221.445623,95.060439 222.065268,84.2441013 228.542102,73.8457831 C234.6877,63.9811922 251.288979,59.4632377 260.801808,69.7886532 C262.231141,64.9630364 262.231141,64.9382896 267.659396,64.9730688 C270.426387,64.9904584 274.119501,64.0607831 275.718132,65.4653286 C277.603835,67.1213545 276.105578,70.8922247 276.232719,73.7414455 C276.306327,75.4081727 276.200599,77.082926 276.17584,78.7543351 Z M372.147945,72.3900721 C376.633348,66.4976695 382.283096,63.6056435 389.34411,63.8725071 C398.550462,64.2196305 404.824539,70.3033188 406.02435,80.6387669 C407.376729,92.289137 406.380345,104.02378 406.635296,115.718293 C406.663401,117.025858 406.113348,117.475312 404.853313,117.464611 C400.504419,117.427156 396.152849,117.368968 391.806632,117.484676 C389.515416,117.54554 390.036025,116.024618 390.033348,114.794637 C390.011935,106.658306 390.037363,98.5213058 390.013273,90.3849747 C390.005913,87.7123253 389.772375,85.0824812 388.954657,82.4847409 C387.946896,79.2810396 385.88788,77.6323708 382.587566,77.6825331 C379.5596,77.7286825 376.555725,80.2628838 375.942102,83.3227864 C375.572724,85.1660851 375.407441,87.0769357 375.396065,88.9590266 C375.340524,97.5414682 375.29636,106.125247 375.423501,114.706351 C375.454951,116.886741 374.898207,117.615767 372.661863,117.502066 C368.990831,117.316799 365.295041,117.297403 361.626687,117.506079 C359.166172,117.646533 358.686382,116.703481 358.719171,114.458884 C358.84029,106.212864 358.796125,97.9635006 358.746607,89.7154747 C358.734562,87.721689 358.692404,85.6790786 358.265478,83.7468253 C357.366122,79.6729747 355.006652,77.5902344 351.833478,77.6738383 C348.368549,77.7647994 345.198052,80.6053253 344.55231,84.3708448 C344.289998,85.8971175 344.267246,87.4775656 344.262562,89.0332669 C344.236464,97.5040136 344.181593,105.976767 344.296689,114.446176 C344.326801,116.671377 343.885823,117.649877 341.397873,117.508085 C337.617768,117.29339 333.815581,117.382345 330.026777,117.484007 C328.359221,117.528819 327.682027,117.139559 327.68002,115.295592 C327.667975,99.2469877 328.023301,83.1930331 327.198891,67.1537929 C327.10387,65.3104942 327.778387,64.8677279 329.478062,64.9312669 C332.485283,65.0442994 335.508564,65.1098448 338.507755,64.9165526 C340.956894,64.7587084 342.319311,65.303137 342.020195,68.0821305 C341.929858,68.9168318 342.274477,69.7983513 342.500654,71.1326695 C346.731775,66.242176 351.747825,63.6979422 357.85595,63.8236825 C364.066457,63.9514292 369.060424,66.4274422 372.147945,72.3900721 Z M517.865467,111.418712 C510.868693,117.754549 503.193387,118.490264 495.314656,114.913355 C486.787505,111.04216 483.132533,103.581348 482.400468,94.6002831 C481.604164,84.8299974 483.874636,76.0770039 491.454251,69.2308481 C498.200758,63.1377961 512.120698,61.0670948 519.418596,69.8140688 C519.569158,69.718426 519.833477,69.6395039 519.851545,69.5224584 C520.534761,64.9630364 520.532084,64.9356143 525.202176,64.9724 C528.412823,64.9971468 532.744988,63.8741792 534.540354,65.5041208 C536.632828,67.404939 534.988024,71.7704 534.961927,75.062387 C534.856199,88.2009065 534.852184,101.34277 534.483475,114.473932 C534.14287,126.601179 528.057497,134.725471 517.552299,137.741231 C511.133013,139.58453 504.586586,139.617303 498.025437,138.757855 C494.605342,138.310406 491.277592,137.464335 488.108433,136.012971 C486.906616,135.462523 486.434186,135.016413 486.873827,133.555686 C487.986646,129.845679 488.851205,126.062101 489.870341,122.093257 C494.652853,124.703705 499.571874,126.063439 504.73514,126.186504 C513.552039,126.397855 517.957812,121.547491 517.865467,111.418712 Z M446.398265,71.4606643 C450.911104,66.2732097 456.200173,63.7189435 462.739908,63.9710929 C471.561491,64.3121968 477.494295,68.9772942 479.891908,77.5470279 C480.676168,80.3500994 481.061606,83.2033331 481.060937,86.1147552 C481.058929,95.6917487 481.016103,105.268742 481.116477,114.844398 C481.136552,116.815444 480.737731,117.603327 478.572987,117.50434 C474.57072,117.32108 470.550385,117.349171 466.544103,117.495645 C464.574755,117.567879 464.110355,116.860924 464.132437,115.013612 C464.221436,107.553469 464.200692,100.091989 464.150505,92.6311773 C464.135114,90.3009695 463.987898,87.9634045 463.751014,85.6445669 C463.196947,80.2317162 460.550405,77.5383331 456.174745,77.7951643 C451.759603,78.0540019 448.352223,81.7111708 448.303374,86.5635409 C448.212368,95.5827292 448.089241,104.608606 448.354899,113.620437 C448.452597,116.955229 447.46625,117.790599 444.31449,117.519054 C440.885696,117.224099 437.408053,117.351846 433.959853,117.490963 C431.99452,117.569885 431.245726,117.077625 431.256432,114.938034 C431.335394,99.1268656 431.48261,83.3123526 430.834859,67.5085409 C430.749876,65.4378396 431.32201,64.7777032 433.408462,64.9168201 C436.180807,65.1027552 439.005346,65.2164565 441.753601,64.8960864 C444.920083,64.5275604 446.25841,65.6491903 446.1306,68.76795 C446.100487,69.5029955 446.270455,70.2467357 446.398265,71.4606643 Z M410.247775,90.9612396 C410.247775,83.1693565 410.310677,75.3761357 410.205618,67.5855903 C410.178182,65.5877916 410.653288,64.8279994 412.78792,64.9136097 C416.901268,65.0794799 421.029338,65.0406877 425.147371,64.9263175 C426.942067,64.876824 427.405798,65.5255903 427.399775,67.2377981 C427.346911,83.155311 427.342227,99.0734929 427.405129,114.991675 C427.41182,116.838318 426.950097,117.555973 424.992125,117.493103 C420.8761,117.361344 416.749368,117.362681 412.632674,117.492434 C410.691431,117.553967 410.188889,116.869753 410.209633,115.004382 C410.299301,106.991116 410.247775,98.9758435 410.247775,90.9612396 Z M517.913179,90.1428578 C517.822172,88.2560851 517.941283,86.3298513 517.594657,84.4912344 C516.966312,81.1597864 515.331546,78.4757669 511.83182,77.3969422 C508.394327,76.3381825 505.458037,77.2337474 503.029643,79.7913578 C498.377618,84.6898773 498.010916,95.7342864 502.370517,100.907027 C504.611546,103.564962 507.496979,104.781566 510.995366,103.940176 C514.591451,103.075377 516.714707,100.805364 517.414652,97.126124 C517.85563,94.804611 517.826856,92.4810916 517.913179,90.1428578 Z M258.769759,90.4638968 L258.863442,90.4638968 C258.863442,88.5744487 259.05683,86.6602539 258.821284,84.8009032 C258.389674,81.3978903 256.731487,78.7031695 253.348865,77.4959292 C249.850478,76.2472214 246.768311,77.1360981 244.228166,79.790689 C239.598892,84.6296825 239.255611,95.8239097 243.60919,100.908364 C245.963976,103.658598 248.925694,104.84176 252.550553,103.853228 C256.324635,102.824566 258.310043,100.211442 258.730278,96.456624 C258.951771,94.4822344 258.769759,92.4630331 258.769759,90.4638968 Z M304.397746,93.4908929 C301.684288,93.4099643 299.187638,93.9115877 296.897761,95.1362175 C293.896562,96.7420812 292.656602,100.092925 293.834999,103.093971 C294.857481,105.699737 298.256832,106.949114 301.535064,105.924464 C305.646405,104.638971 307.212248,101.850614 307.340058,96.2518279 C307.394929,93.8888474 307.077077,92.4622305 304.397746,93.4908929 Z" id="Combined-Shape"></path>
                <path d="M418.762614,59.6003481 C413.561205,59.6070364 409.977166,56.1826208 409.981181,51.2078545 C409.985196,46.3615039 413.828871,42.6775818 418.795403,42.7625234 C424.24574,42.8561597 427.796991,46.2865948 427.738104,51.4024844 C427.682564,56.3150494 424.093171,59.5936597 418.762614,59.6003481" id="Fill-18"></path>
            </g>
        </g>
    </g>
</svg>