<?xml version="1.0" encoding="UTF-8"?>
<!DOCTYPE svg PUBLIC "-//W3C//DTD SVG 1.1//EN" "http://www.w3.org/Graphics/SVG/1.1/DTD/svg11.dtd">
<!-- Creator: CorelDRAW X7 -->
<svg xmlns="http://www.w3.org/2000/svg" xml:space="preserve" width="600px" height="181px" version="1.1" style="shape-rendering:geometricPrecision; text-rendering:geometricPrecision; image-rendering:optimizeQuality; fill-rule:evenodd; clip-rule:evenodd"
viewBox="0 0 592 179"
 xmlns:xlink="http://www.w3.org/1999/xlink">
 <defs>
  <style type="text/css">
   <![CDATA[
    .fil1 {fill:white}
    .fil0 {fill:white;fill-rule:nonzero}
   ]]>
  </style>
 </defs>
 <g id="Layer_x0020_1">
  <metadata id="CorelCorpID_0Corel-Layer"/>
  <g id="_359090070768">
   <path class="fil0" d="M74 82l-40 0 -6 19c-2,4 -3,8 -3,10 0,2 1,4 2,5 2,1 5,2 10,3l0 3 -32 0 0 -3c4,-1 7,-2 8,-4 3,-3 6,-8 9,-17l35 -98 3 0 35 99c2,8 5,13 7,16 3,2 6,3 10,4l0 3 -40 0 0 -3c4,-1 7,-1 8,-3 2,-1 2,-3 2,-5 0,-2 -1,-6 -3,-12l-5 -17zm-3 -6l-17 -48 -17 48 34 0z"/>
   <path class="fil0" d="M160 32l24 66 23 -66 25 0 0 3c-3,0 -5,1 -6,1 -2,1 -3,2 -4,4 -1,1 -1,3 -1,5 0,2 0,5 0,7l0 50c0,2 0,4 0,6 0,2 0,4 1,5 1,2 2,3 3,4 2,1 4,1 7,1l0 4 -35 0 0 -4c3,0 5,0 6,-1 1,-1 2,-3 3,-4 1,-2 1,-4 1,-6 0,-2 0,-5 0,-7l0 -55 0 0 -26 77 -3 0 -25 -73 -1 0 0 54c0,4 0,6 1,8 0,2 1,4 2,5 1,1 2,1 4,2 2,0 4,0 6,0l0 4 -29 0 0 -4c3,0 5,0 7,-1 1,-1 2,-2 3,-3 1,-2 1,-3 1,-5 0,-2 0,-3 0,-5l0 -48c0,-3 0,-6 0,-9 0,-3 0,-5 -1,-7 -1,-1 -2,-3 -3,-4 -2,0 -4,-1 -7,-1l0 -3 24 0zm99 90l0 -4c1,0 2,0 3,0 1,0 2,-1 3,-2 1,-1 2,-3 3,-5 1,-2 3,-5 4,-9l25 -73 2 0 28 78c1,3 2,5 3,6 1,2 2,3 3,4 1,0 2,1 3,1 1,0 2,0 3,0l0 4 -31 0 0 -4c0,0 1,0 2,0 0,0 1,0 2,0 1,-1 1,-1 2,-2 0,0 1,-1 1,-2 0,-1 0,-3 -1,-4 0,-1 -1,-3 -1,-4l-5 -12 -27 0 -4 12c0,1 -1,2 -1,3 0,1 0,2 0,3 0,1 0,2 1,3 0,1 1,2 2,2 0,0 1,1 2,1 1,0 1,0 2,0l0 4 -24 0zm24 -34l23 0 -12 -33 -11 33zm135 -56l1 21 -3 0c0,-3 -1,-6 -1,-8 -1,-2 -2,-3 -3,-5 -2,-1 -3,-1 -4,-2 -2,0 -4,0 -5,0l-12 0 0 65c0,2 0,4 1,6 0,2 0,4 1,5 1,1 2,2 4,3 1,1 3,1 6,1l0 4 -37 0 0 -4c3,0 5,0 7,-1 1,-1 2,-2 3,-3 1,-1 1,-3 1,-5 1,-2 1,-4 1,-6l0 -65 -11 0c-3,0 -5,0 -7,1 -2,0 -3,1 -4,3 -1,1 -2,3 -2,5 -1,2 -1,4 -1,6l-3 0 1 -21 67 0zm67 90l-36 0 0 -4c3,0 5,0 6,-1 2,0 3,-1 3,-3 1,-1 2,-2 2,-4 0,-2 0,-4 0,-7l0 -53c0,-2 0,-3 0,-5 0,-2 0,-4 -1,-5 -1,-2 -2,-3 -3,-4 -2,0 -4,-1 -7,-1l0 -3 36 0 0 3c-3,0 -5,1 -7,1 -1,1 -2,2 -3,4 -1,1 -1,3 -1,5 0,2 0,3 0,5l0 53c0,3 0,5 0,7 0,2 1,3 1,4 1,2 2,3 4,3 1,1 3,1 6,1l0 4zm105 -61l-3 0c0,-1 -1,-2 -1,-4 0,-1 -1,-2 -2,-4 0,-1 -1,-2 -2,-4 0,-1 -1,-2 -2,-4 -2,-1 -3,-3 -5,-4 -2,-1 -3,-3 -5,-3 -2,-1 -4,-2 -6,-3 -2,0 -4,0 -6,0 -3,0 -7,1 -10,3 -3,2 -6,4 -8,8 -3,4 -5,8 -6,13 -1,5 -2,11 -2,17 0,6 1,11 2,16 0,4 2,8 3,11 2,3 3,5 5,7 2,2 4,4 6,5 2,1 4,2 6,2 2,1 4,1 6,1 3,0 6,0 9,-2 3,-1 7,-3 10,-6 1,-1 2,-3 3,-4 1,-1 1,-2 2,-3 1,-2 2,-3 2,-4 1,-2 1,-3 2,-5l3 2c-1,1 -1,3 -2,4 -1,2 -2,4 -3,6 -1,2 -2,4 -4,6 -2,3 -4,4 -6,6 -3,2 -6,3 -9,4 -3,2 -6,2 -10,2 -6,0 -10,-1 -15,-3 -5,-3 -9,-6 -13,-10 -3,-4 -6,-9 -9,-14 -2,-6 -3,-12 -3,-19 0,-7 1,-13 3,-19 2,-6 5,-11 9,-16 3,-4 8,-7 12,-10 5,-2 10,-4 16,-4 4,0 7,1 10,2 2,1 4,2 6,3 1,0 2,1 3,1 1,1 2,1 2,1 1,0 1,0 1,0 0,0 1,1 1,1 0,0 0,-1 1,-1 0,0 1,0 1,-1 1,0 1,-1 1,-2 1,-1 1,-2 1,-4l3 0 3 32z"/>
   <path class="fil0" d="M1 149l5 0 0 29 -5 0 0 -29zm59 0l3 0 7 20 0 0c0,-1 0,-1 0,-2 0,0 0,-1 0,-2 0,0 0,-1 0,-2 0,-1 0,-2 0,-3l0 -11 4 0 0 29 -4 0 -7 -18 0 0c0,0 0,1 0,1 0,1 0,1 0,2 1,1 1,2 1,3 0,1 0,2 0,4l0 8 -4 0 0 -29zm68 0l4 0c1,0 2,0 3,1 0,0 1,0 2,0 0,0 1,0 2,1 0,0 1,1 1,2 1,0 1,1 2,2 0,2 0,3 0,5l0 8c0,2 0,3 0,4 -1,2 -1,3 -2,3 0,1 -1,2 -1,2 -1,0 -2,1 -2,1 -1,0 -2,0 -2,0 -1,0 -2,0 -3,0l-4 0 0 -29zm5 26c1,0 2,0 2,0 1,0 1,-1 2,-1 0,-1 0,-1 0,-2 0,-1 0,-2 0,-3l0 -9c0,-2 0,-3 0,-4 0,-1 0,-1 0,-2 -1,0 -1,-1 -2,-1 0,0 -1,0 -2,0l-1 0 0 22 1 0zm62 -26l4 0 0 22c0,1 0,1 0,2 0,1 1,1 1,1 0,1 0,1 1,1 0,0 0,0 1,0 0,0 0,0 1,0 0,0 0,0 1,-1 0,0 0,0 0,-1 0,-1 0,-1 0,-2l0 -22 5 0 0 21c0,1 -1,2 -1,3 0,1 0,2 -1,3 0,0 0,1 -1,1 0,1 -1,1 -1,1 -1,0 -1,1 -2,1 0,0 -1,0 -1,0 -1,0 -1,0 -2,0 0,0 -1,-1 -1,-1 -1,0 -1,0 -2,-1 0,0 -1,-1 -1,-1 0,-1 -1,-2 -1,-3 0,-1 0,-2 0,-3l0 -21zm66 24c0,-1 0,-2 0,-2 0,-1 1,-1 1,-2l3 0 0 2c0,0 0,1 0,2 0,0 1,1 1,1 0,1 0,1 1,1 0,0 0,0 1,0 1,0 1,0 2,0 0,-1 1,-1 1,-2 0,-1 0,-1 -1,-2 0,0 0,0 0,-1 0,0 0,0 0,-1 -1,0 -1,-1 -1,-1l-5 -6c-1,-1 -1,-2 -2,-3 0,-1 -1,-2 -1,-3 0,-1 1,-2 1,-3 0,-1 1,-1 1,-2 1,-1 1,-1 2,-1 1,-1 2,-1 3,-1 1,0 2,0 3,1 1,0 2,1 2,1 1,1 1,1 1,2 1,1 1,2 1,2 0,1 0,2 0,2 -1,1 -1,1 -1,2l-3 0 0 -2c0,-1 0,-2 -1,-3 0,-1 -1,-1 -2,-1 -1,0 -1,0 -2,0 0,1 0,1 0,2 0,1 0,1 0,1 0,1 0,1 0,1 0,0 0,1 0,1 1,0 1,1 1,1l5 6c1,1 2,2 2,3 1,2 1,3 1,4 0,1 0,2 -1,3 0,1 0,1 -1,2 -1,0 -1,1 -2,1 -1,1 -2,1 -3,1 -1,0 -2,0 -3,-1 -1,0 -2,-1 -2,-1 -1,-1 -1,-1 -1,-2 -1,-1 -1,-2 -1,-2zm69 -20l-4 0 0 -4 13 0 0 4 -4 0 0 25 -5 0 0 -25zm61 -4l5 0c1,0 1,0 2,1 1,0 1,0 2,0 0,0 1,0 2,1 0,0 1,0 1,1 1,1 1,1 1,2 1,1 1,2 1,4l0 0c0,3 0,4 -1,6 -1,1 -2,2 -3,3l5 11 -5 0 -4 -10 -1 0 0 10 -5 0 0 -29zm5 15c1,0 2,0 2,0 1,0 1,0 2,-1 0,0 0,-1 0,-1 0,-1 0,-2 0,-3l0 -2c0,-1 0,-1 0,-2 0,0 0,-1 0,-1 -1,-1 -1,-1 -2,-1 0,0 -1,0 -2,0l0 0 0 11 0 0zm62 -15l4 0 0 29 -4 0 0 -29zm58 0l11 0 0 4 -6 0 0 9 5 0 0 3 -5 0 0 10 6 0 0 3 -11 0 0 -29zm62 24c0,-1 0,-2 1,-2 0,-1 0,-1 0,-2l3 0 0 2c0,0 0,1 0,2 0,0 1,1 1,1 0,1 0,1 1,1 0,0 1,0 1,0 1,0 2,0 2,0 0,-1 1,-1 1,-2 0,-1 0,-1 0,-2 0,0 -1,0 -1,-1 0,0 0,0 0,-1 -1,0 -1,-1 -1,-1l-5 -6c-1,-1 -1,-2 -2,-3 0,-1 0,-2 0,-3 0,-1 0,-2 0,-3 0,-1 1,-1 1,-2 1,-1 2,-1 2,-1 1,-1 2,-1 3,-1 1,0 3,0 3,1 1,0 2,1 2,1 1,1 1,1 2,2 0,1 0,2 0,2 0,1 0,2 0,2 0,1 -1,1 -1,2l-3 0 0 -2c0,-1 0,-2 -1,-3 0,-1 -1,-1 -2,-1 -1,0 -1,0 -2,0 0,1 0,1 0,2 0,1 0,1 0,1 0,1 0,1 0,1 0,0 0,1 0,1 1,0 1,1 1,1l5 6c1,1 2,2 2,3 1,2 1,3 1,4 0,1 0,2 0,3 -1,1 -1,1 -2,2 0,0 -1,1 -2,1 -1,1 -2,1 -3,1 -1,0 -2,0 -3,-1 -1,0 -2,-1 -2,-1 -1,-1 -1,-1 -1,-2 0,-1 -1,-2 -1,-2z"/>
   <polygon class="fil1" points="0,133 592,133 592,137 0,137 "/>
  </g>
 </g>
</svg>
