<svg xmlns="http://www.w3.org/2000/svg" width="277.4" height="36.71" viewBox="0 0 277.4 36.71"><title>belatra_white</title><path d="M136.43.51Zm2,.62Zm-1.39,0-7.94,7.94a.92.92,0,0,0-.28.68,1,1,0,0,0,.28.71L137,18.4a1,1,0,0,0,.68.28,1.12,1.12,0,0,0,.71-.28l7.94-7.94a1,1,0,0,0,.28-.71.92.92,0,0,0-.28-.68l-7.94-7.94a1,1,0,0,0-.71-.28A.92.92,0,0,0,137,1.13Zm2-.62,3.17,3.2a50.33,50.33,0,0,1,4.25-3l.17-.11.14.11c.06,0,17,10.66,17,20.81a9.12,9.12,0,0,1-2.55,6.35,8.54,8.54,0,0,1-6.18,2.64,9.31,9.31,0,0,1-5-1.45,8.64,8.64,0,0,1-2.72-2.64c.77,5.78,6.94,6.12,7.65,6.12h.06v.57H138.16v-.57h.06c.71,0,6.86-.34,7.65-6.12a9.28,9.28,0,0,1-2.72,2.64,9.38,9.38,0,0,1-5,1.45A8.54,8.54,0,0,1,132,27.86a9,9,0,0,1-2.55-6.35,11.37,11.37,0,0,1,.71-3.8,17.55,17.55,0,0,1,1.67-3.34l-3.34-3.32a1.89,1.89,0,0,1-.51-1.3,1.82,1.82,0,0,1,.51-1.28l8-8A1.82,1.82,0,0,1,137.71,0,1.89,1.89,0,0,1,139,.51ZM0,31.1V11.76H10.94a8.82,8.82,0,0,1,3.74.6,4.29,4.29,0,0,1,2,2.24,5.17,5.17,0,0,1,.51,2.24,5.53,5.53,0,0,1-.79,2.81,4.1,4.1,0,0,1-2,1.79A4.63,4.63,0,0,1,17.21,26a5.38,5.38,0,0,1-.88,3.17,4,4,0,0,1-2,1.53,13,13,0,0,1-3.66.4ZM4.11,19.7H9.72A6.63,6.63,0,0,0,11,19.62a1.61,1.61,0,0,0,.77-.37,2.23,2.23,0,0,0,.91-1.93,1.94,1.94,0,0,0-.85-1.73,3.91,3.91,0,0,0-2-.4H4.11Zm0,8H9.72A6.63,6.63,0,0,0,11,27.58a1.66,1.66,0,0,0,.77-.4,2.18,2.18,0,0,0,.91-1.9,1.9,1.9,0,0,0-.85-1.73,3.91,3.91,0,0,0-2-.4H4.11Zm30-15.9v3.43H28.69a11.16,11.16,0,0,0-3.06.31A3.13,3.13,0,0,0,24,16.61a3.78,3.78,0,0,0-.6,1.16,13.26,13.26,0,0,0-.26,2H34.07v3.43H23.19a4.77,4.77,0,0,0,1.45,3.49,7,7,0,0,0,4.25,1h5.19V31.1H28.69a25.42,25.42,0,0,1-3.83-.26,6.58,6.58,0,0,1-4.17-2.3,11.05,11.05,0,0,1-2.18-7.23c0-3.37,1-6,3.09-7.85a6.45,6.45,0,0,1,2.27-1.33,11.25,11.25,0,0,1,3.23-.37Zm2.3,0h4.11V22.62a24.82,24.82,0,0,0,.2,2.75,2.18,2.18,0,0,0,1.25,1.81,10.45,10.45,0,0,0,3.77.48h3.94V31.1H45.27a18,18,0,0,1-4.51-.34,5.54,5.54,0,0,1-4.05-4.08,16.7,16.7,0,0,1-.34-4.05ZM50.06,31.1l8-19.33h4.76l8,19.33H66l-1.87-4.48H56.75L54.88,31.1ZM60.43,16.41h0l-2.75,6.77h5.5Zm13.72-1.22H68V11.76H84.67v3.43H78.26V31.1H74.15Zm16,8.56V31.1H86.06V11.76H95.5c2.72,0,4.62.34,5.7,1a4.76,4.76,0,0,1,1.7,1.81,5.43,5.43,0,0,1,.6,2.52,6,6,0,0,1-1.42,4.25,5.43,5.43,0,0,1-2.3,1.39,6.58,6.58,0,0,1,1.73.82,4.29,4.29,0,0,1,1,1.33,7.09,7.09,0,0,1,.51,1.33,15.85,15.85,0,0,1,.23,1.9,12.6,12.6,0,0,0,.48,2.92H99.16a17,17,0,0,1-.43-2.75,7.28,7.28,0,0,0-.62-2.58,3.13,3.13,0,0,0-1.36-1.42,7,7,0,0,0-3.26-.6Zm0-3.46H96A3.76,3.76,0,0,0,98,19.87a2.49,2.49,0,0,0,.91-2.24,2.09,2.09,0,0,0-1.39-2.24,4.29,4.29,0,0,0-1.59-.2H90.17Zm14.06,10.8,8-19.33H117l8,19.33h-4.82l-1.87-4.48h-7.37L109,31.1ZM114.6,16.41h0l-2.75,6.77h5.5Zm59.61,15.08a1.66,1.66,0,0,0,.71,1.3,3.57,3.57,0,0,0,2.1.57,3.21,3.21,0,0,0,.71-.09,3.36,3.36,0,0,0,.79-.28,3.84,3.84,0,0,0,1.39-1.13,5.92,5.92,0,0,0,.94-2.44l.23-1a5,5,0,0,1-1.28.74,10.16,10.16,0,0,1-1.59.45c-.31.06-.62.11-.94.14s-.62.06-.91.06h-.31a6.69,6.69,0,0,1-4.68-1.7c-1.25-1.13-1.87-2.92-1.87-5.3a11.18,11.18,0,0,1,2.38-7.06,7.82,7.82,0,0,1,6.55-3h1a5.39,5.39,0,0,1,.71.09,8.51,8.51,0,0,1,2.32.6,4.06,4.06,0,0,1,1.79,1.45l.34-1.64h5.1L186.4,28.6c-.09.37-.2.91-.4,1.59a8.85,8.85,0,0,1-.88,2.15,8.51,8.51,0,0,1-2.83,3,9.93,9.93,0,0,1-5.64,1.36l-.31,0-1.45-.09a7.46,7.46,0,0,1-1.9-.26A6.47,6.47,0,0,1,170.22,35a4,4,0,0,1-1.28-3.29v-.28l.31,0Zm6.86-6.38h0a7.65,7.65,0,0,0,1.45-2.49,8.52,8.52,0,0,0,.37-1.59,7.84,7.84,0,0,0,.11-1.3,3.43,3.43,0,0,0-.91-2.64,3.25,3.25,0,0,0-2.24-.88,4.16,4.16,0,0,0-3.43,2,7.85,7.85,0,0,0-1.33,4.62c0,.06,0,.28,0,.62a4.69,4.69,0,0,0,.31,1.11,3.36,3.36,0,0,0,1,1.16,2.78,2.78,0,0,0,1.87.57A3.64,3.64,0,0,0,181.08,25.11Zm10.63-6.46c.06-.2.11-.43.17-.65a6.92,6.92,0,0,1,.28-.68A7.89,7.89,0,0,1,195,14.14c1.36-.94,3.49-1.42,6.35-1.42h.31c2.52,0,4.28.37,5.19,1.13a4.08,4.08,0,0,1,1.56,2.52v.34a1.27,1.27,0,0,1,0,.31,5.62,5.62,0,0,1-.09,1c-.06.34-.11.62-.17.88l-1.7,7.77-.09.34a1.38,1.38,0,0,1-.11.31c0,.14-.06.31-.09.48a4.4,4.4,0,0,0,0,.65v.62a.42.42,0,0,0,0,.2.88.88,0,0,0,.17.37,1.57,1.57,0,0,0,.37.4v.11h-5.64l-.11-1.47a5.48,5.48,0,0,1-.79.62,6.75,6.75,0,0,1-.85.51,7.93,7.93,0,0,1-2.44.74c-.77.09-1.28.11-1.53.11l-.31,0a5.46,5.46,0,0,0-.68,0c-.23,0-.48,0-.71-.06a6.28,6.28,0,0,1-2.72-1,3.53,3.53,0,0,1-1.22-3.06A4.56,4.56,0,0,1,192,22.11a16.28,16.28,0,0,1,5-1.62c.37-.06.74-.11,1.11-.14s.71-.11,1.08-.14a2.22,2.22,0,0,1,.4-.06,1.91,1.91,0,0,0,.4-.06,6.35,6.35,0,0,0,2.32-.6c.48-.28.74-.94.74-2a1.25,1.25,0,0,0-.43-1,2.39,2.39,0,0,0-.94-.45l-.4-.09c-.14,0-.26,0-.4,0a3.72,3.72,0,0,0-2.27.68A3.5,3.5,0,0,0,197.52,18c0,.09-.09.2-.11.31l-.09.34h-5.61Zm10.43,3.57h0c-.2.09-.37.14-.54.2a2.79,2.79,0,0,1-.45.14.91.91,0,0,1-.4.09,3.53,3.53,0,0,0-.45.11,2,2,0,0,0-.37.06c-.14,0-.28,0-.45.06s-.48.09-.74.14-.54.11-.85.2a5.41,5.41,0,0,0-1.7.88,2.2,2.2,0,0,0-.77,1.84,1.31,1.31,0,0,0,.6,1.19,2.8,2.8,0,0,0,1.42.45,8.42,8.42,0,0,0,.94-.17,3.86,3.86,0,0,0,1.16-.54,5.47,5.47,0,0,0,1.36-1.33,6.12,6.12,0,0,0,1-2.41Zm15.42-9.07-.48,2.1A8.29,8.29,0,0,1,220.51,13a11.39,11.39,0,0,1,2.21-.4H223a4.51,4.51,0,0,1,3,.85,3.82,3.82,0,0,1,1.22,1.81v.06l0,0a11.57,11.57,0,0,1,2.92-2,7.46,7.46,0,0,1,3.37-.77h.31c1.73,0,2.89.43,3.49,1.25a5.17,5.17,0,0,1,1.08,2.72c0,.11,0,.23,0,.34v.34c0,.37,0,.74-.06,1.08s-.11.68-.17,1c0,.09,0,.17-.06.26s0,.17,0,.26L236,30.16h-5.41l2.15-10c.06-.2.09-.43.14-.71a8,8,0,0,0,.06-.82,3,3,0,0,0-.34-1.45,1.65,1.65,0,0,0-1.47-.68,2.13,2.13,0,0,0-.68.11,4.32,4.32,0,0,0-.71.26A4.27,4.27,0,0,0,228.33,18a6.21,6.21,0,0,0-1,2.38l-2.1,9.75h-5.39l2.13-10c.06-.28.11-.57.14-.85a3.88,3.88,0,0,0,.06-.82,2.73,2.73,0,0,0-.34-1.39,1.65,1.65,0,0,0-1.39-.6l-.17,0h-.2a3.9,3.9,0,0,0-2.1,1.11,5.16,5.16,0,0,0-1.39,2.78l-2.07,9.75h-5.39l3.57-17h4.85Zm40.19,12.1a10.56,10.56,0,0,1-.51,1,6.19,6.19,0,0,1-1.08,1.56,9.91,9.91,0,0,1-2.83,2,11.2,11.2,0,0,1-4.88.88l-.31,0c-2.83,0-4.82-.62-6-1.84a7.34,7.34,0,0,1-2-4.08,2.8,2.8,0,0,1-.09-.68,6.17,6.17,0,0,1,0-.71,10.51,10.51,0,0,1,.09-1.33c.06-.45.14-.91.23-1.39a11.6,11.6,0,0,1,3.23-5.53q2.51-2.55,7.23-2.55h.31a9.61,9.61,0,0,1,5.7,1.59c1.5,1,2.24,2.83,2.24,5.33a9.85,9.85,0,0,1-.11,1.56,11.94,11.94,0,0,1-.31,1.64h-13a5.63,5.63,0,0,1-.06.62,3,3,0,0,0-.06.71v.34a1.17,1.17,0,0,1,0,.34,3.66,3.66,0,0,0,.79,1.87,3,3,0,0,0,2.38.91,4.89,4.89,0,0,0,2.18-.65,3.08,3.08,0,0,0,1.39-1.62h5.47Zm-4.11-5.19h0a.38.38,0,0,1,0-.14.87.87,0,0,1,0-.26,1.06,1.06,0,0,1,0-.28v-.28a.78.78,0,0,0,0-.26V18.6a2.29,2.29,0,0,0-.91-2.1,3.92,3.92,0,0,0-2.21-.65,4.06,4.06,0,0,0-1.84.48,5,5,0,0,0-1.47,1.28,7.7,7.7,0,0,0-1.13,2.47Zm11.54,4.73v.11a.26.26,0,0,0,0,.14v.28a2.06,2.06,0,0,0,.6,1.45,3.21,3.21,0,0,0,2.32.74,4,4,0,0,0,2-.65,1.78,1.78,0,0,0,.88-1.56,1.42,1.42,0,0,0-.77-1.42,9.52,9.52,0,0,0-1.73-.57.1.1,0,0,1-.09,0h-.06c-.26-.06-.48-.11-.68-.14S267.19,23,267,23a14.75,14.75,0,0,1-3.8-1.33,3,3,0,0,1-1.5-3,5.73,5.73,0,0,1,.09-.94,4.65,4.65,0,0,1,.26-1,6.35,6.35,0,0,1,2.44-2.86,9.88,9.88,0,0,1,5.61-1.3h.31a9.48,9.48,0,0,1,5,1,4.26,4.26,0,0,1,1.84,2.21,1.85,1.85,0,0,1,.14.57,4.19,4.19,0,0,1,0,.6,2.75,2.75,0,0,1,0,.48,2.19,2.19,0,0,1-.06.43h-4.93a.87.87,0,0,0,0-.26v-.26a1.29,1.29,0,0,0-.51-1.19,2.51,2.51,0,0,0-1.11-.43c-.09,0-.2,0-.34,0l-.34,0a3.63,3.63,0,0,0-2.35.68A1.92,1.92,0,0,0,267,17.8a1.36,1.36,0,0,0,.48,1.16,4,4,0,0,0,1,.51c.14,0,.26,0,.37.06a1.42,1.42,0,0,0,.34.06l.82.14c.28,0,.54.09.79.11a18.59,18.59,0,0,1,4,1.08,2.91,2.91,0,0,1,1.67,3c0,.37-.06.82-.11,1.36a5.56,5.56,0,0,1-.62,1.73,6.93,6.93,0,0,1-2.58,2.55,10.94,10.94,0,0,1-5.61,1.13l-.31,0c-2.61,0-4.48-.43-5.58-1.19a4.69,4.69,0,0,1-2-2.55c-.06-.23-.11-.43-.14-.6s0-.4,0-.57,0-.34,0-.54.06-.34.09-.48h5.5Z" style="fill:#fff"/></svg>