<?xml version="1.0" encoding="UTF-8"?>
<svg width="417px" height="77px" viewBox="0 0 417 77" version="1.1" xmlns="http://www.w3.org/2000/svg" xmlns:xlink="http://www.w3.org/1999/xlink">
    <!-- Generator: Sketch 48.2 (47327) - http://www.bohemiancoding.com/sketch -->
    <title>bgaming_white</title>
    <desc>Created with Sketch.</desc>
    <defs></defs>
    <g id="Page-1" stroke="none" stroke-width="1" fill="none" fill-rule="evenodd">
        <g id="bgaming_white" transform="translate(0.565744, -0.256002)" fill="#FFFFFF">
            <g id="Group-3" transform="translate(0.000000, 0.167700)">
                <path d="M43.7739,60.9668 C40.9509,63.5368 36.8619,64.8228 31.5079,64.8228 L15.2569,64.8228 C14.5579,64.8228 13.9909,64.2658 13.9909,63.5788 L13.9909,14.0838 C13.9909,13.3968 14.5579,12.8398 15.2569,12.8398 L30.3449,12.8398 C35.8689,12.8398 40.0669,14.0488 42.9379,16.4638 C45.8089,18.8798 47.2449,22.4208 47.2449,27.0848 C47.2449,29.7268 46.6499,32.0008 45.4639,33.9048 C44.4669,35.5028 43.1629,36.7398 41.5529,37.6168 C41.2209,37.7978 41.2559,38.2828 41.6079,38.4198 C43.4949,39.1568 44.9859,40.3838 46.0819,42.0978 C47.3649,44.1098 48.0079,46.5908 48.0079,49.5418 C48.0079,54.5888 46.5959,58.3958 43.7739,60.9668 M60.9999,0.8318 L0.9999,0.8318 C0.4479,0.8318 -0.0001,1.2798 -0.0001,1.8318 L-0.0001,75.8318 C-0.0001,76.3848 0.4479,76.8318 0.9999,76.8318 L60.9999,76.8318 C61.5519,76.8318 61.9999,76.3848 61.9999,75.8318 L61.9999,1.8318 C61.9999,1.2798 61.5519,0.8318 60.9999,0.8318 M32.1989,42.2228 L25.9419,42.2228 C25.2429,42.2228 24.6759,42.7798 24.6759,43.4668 L24.6759,54.8668 C24.6759,55.5538 25.2429,56.1118 25.9419,56.1118 L31.5079,56.1118 C33.4219,56.1118 34.8759,55.5288 35.8689,54.3618 C36.8619,53.1958 37.3589,51.5408 37.3589,49.3998 C37.3589,44.7348 35.6389,42.3418 32.1989,42.2228 M25.9419,34.5828 L30.2359,34.5828 C34.4269,34.5828 36.5239,32.4528 36.5239,28.1918 C36.5239,25.8358 36.0389,24.1458 35.0699,23.1218 C34.0999,22.0988 32.5249,21.5868 30.3449,21.5868 L25.9419,21.5868 C25.2429,21.5868 24.6759,22.1438 24.6759,22.8308 L24.6759,33.3388 C24.6759,34.0258 25.2429,34.5828 25.9419,34.5828" id="Fill-1"></path>
            </g>
            <path d="M369.2334,1.1677 L366.7664,1.1677 C366.6194,1.1677 366.5004,1.2867 366.5004,1.4347 L366.5004,76.9007 C366.5004,77.0487 366.6194,77.1677 366.7664,77.1677 L369.2334,77.1677 C369.3804,77.1677 369.5004,77.0487 369.5004,76.9007 L369.5004,1.4347 C369.5004,1.2867 369.3804,1.1677 369.2334,1.1677 M307.2334,1.1677 L304.7664,1.1677 C304.6194,1.1677 304.5004,1.2867 304.5004,1.4347 L304.5004,76.9007 C304.5004,77.0487 304.6194,77.1677 304.7664,77.1677 L307.2334,77.1677 C307.3804,77.1677 307.5004,77.0487 307.5004,76.9007 L307.5004,1.4347 C307.5004,1.2867 307.3804,1.1677 307.2334,1.1677 M245.2334,1.1677 L242.7664,1.1677 C242.6194,1.1677 242.5004,1.2867 242.5004,1.4347 L242.5004,76.9007 C242.5004,77.0487 242.6194,77.1677 242.7664,77.1677 L245.2334,77.1677 C245.3804,77.1677 245.5004,77.0487 245.5004,76.9007 L245.5004,1.4347 C245.5004,1.2867 245.3804,1.1677 245.2334,1.1677 M183.2334,1.1677 L180.7664,1.1677 C180.6194,1.1677 180.5004,1.2867 180.5004,1.4347 L180.5004,76.9007 C180.5004,77.0487 180.6194,77.1677 180.7664,77.1677 L183.2334,77.1677 C183.3804,77.1677 183.5004,77.0487 183.5004,76.9007 L183.5004,1.4347 C183.5004,1.2867 183.3804,1.1677 183.2334,1.1677 M121.2334,1.1677 L118.7664,1.1677 C118.6194,1.1677 118.5004,1.2867 118.5004,1.4347 L118.5004,76.9007 C118.5004,77.0487 118.6194,77.1677 118.7664,77.1677 L121.2334,77.1677 C121.3804,77.1677 121.5004,77.0487 121.5004,76.9007 L121.5004,1.4347 C121.5004,1.2867 121.3804,1.1677 121.2334,1.1677" id="Fill-4" opacity="0.200000003"></path>
            <path d="M415.3965,39.2741 L401.0875,39.2741 C400.5765,39.2741 400.1625,39.6821 400.1625,40.1851 L400.1625,43.9251 C400.1625,44.4291 400.5765,44.8361 401.0875,44.8361 L408.8105,44.8361 C409.3215,44.8361 409.7355,45.2451 409.7355,45.7481 L409.7355,56.2881 C409.7355,56.5431 409.6275,56.7851 409.4375,56.9581 L408.7645,57.5681 C406.9165,59.2621 404.2165,60.1081 400.6665,60.1081 C396.8985,60.1081 394.0075,58.7211 391.9925,55.9451 C389.9765,53.1701 388.9685,49.1831 388.9685,43.9861 L388.9685,33.4631 C389.0415,28.1481 389.9525,24.2801 391.7045,21.8591 C393.4555,19.4381 396.2145,18.2271 399.9825,18.2271 C403.1255,18.2271 405.4705,19.1301 407.0185,20.9381 C408.4315,22.5881 409.3095,24.8251 409.6525,27.6471 C409.7085,28.1101 410.0955,28.4671 410.5685,28.4671 L415.3215,28.4671 C415.8615,28.4671 416.2975,28.0101 416.2495,27.4811 C415.8245,22.8801 414.2945,19.3061 411.6615,16.7561 C408.8415,14.0281 404.9365,12.6641 399.9465,12.6641 C394.0915,12.6641 389.6945,14.4651 386.7555,18.0671 C383.8165,21.6701 382.3465,27.0851 382.3465,34.3141 L382.3465,44.4471 C382.4185,51.2031 384.0675,56.4291 387.2955,60.1261 C390.5225,63.8231 394.9675,65.6711 400.6295,65.6711 C407.0125,65.6711 411.8595,63.7701 415.1705,59.9661 L416.1195,58.7991 C416.2505,58.6371 416.3215,58.4361 416.3215,58.2291 L416.3215,40.1851 C416.3215,39.6821 415.9075,39.2741 415.3965,39.2741 Z M353.5135,13.6721 L348.8465,13.6721 C348.3395,13.6721 347.9275,14.0831 347.9275,14.5901 L347.9275,50.1521 C347.9275,51.1141 346.6365,51.4291 346.1925,50.5751 L327.2765,14.1671 C327.1185,13.8631 326.8045,13.6721 326.4605,13.6721 L321.3625,13.6721 C320.8545,13.6721 320.4435,14.0831 320.4435,14.5901 L320.4435,64.7451 C320.4435,65.2521 320.8545,65.6631 321.3625,65.6631 L326.1005,65.6631 C326.6075,65.6631 327.0195,65.2521 327.0195,64.7451 L327.0195,29.3571 C327.0195,28.3961 328.3105,28.0811 328.7545,28.9341 L347.5985,65.1681 C347.7575,65.4721 348.0715,65.6631 348.4145,65.6631 L353.5135,65.6631 C354.0215,65.6631 354.4325,65.2521 354.4325,64.7451 L354.4325,14.5901 C354.4325,14.0831 354.0215,13.6721 353.5135,13.6721 Z M277.6545,13.6721 L272.7055,13.6721 C272.1705,13.6721 271.7375,14.0831 271.7375,14.5901 L271.7375,64.7451 C271.7375,65.2521 272.1705,65.6631 272.7055,65.6631 L277.6545,65.6631 C278.1885,65.6631 278.6215,65.2521 278.6215,64.7451 L278.6215,14.5901 C278.6215,14.0831 278.1885,13.6721 277.6545,13.6721 Z M234.5225,13.6721 L227.6845,13.6721 C227.2855,13.6721 226.9315,13.9301 226.8105,14.3111 L214.3205,53.3581 C214.0475,54.2101 212.8435,54.2101 212.5705,53.3581 L200.0815,14.3111 C199.9595,13.9301 199.6055,13.6721 199.2065,13.6721 L192.3685,13.6721 C191.8605,13.6721 191.4495,14.0831 191.4495,14.5901 L191.4495,64.7451 C191.4495,65.2521 191.8605,65.6631 192.3685,65.6631 L197.0655,65.6631 C197.5735,65.6631 197.9845,65.2521 197.9845,64.7451 L197.9845,45.4171 L197.4935,29.1311 C197.4735,28.4771 198.3945,28.3121 198.6025,28.9331 L210.7005,65.0361 C210.8255,65.4111 211.1765,65.6631 211.5705,65.6631 L215.2495,65.6631 C215.6435,65.6631 215.9945,65.4111 216.1195,65.0371 L228.2905,28.7811 C228.4985,28.1601 229.4185,28.3241 229.3985,28.9791 L228.9065,45.4171 L228.9065,64.7451 C228.9065,65.2521 229.3175,65.6631 229.8255,65.6631 L234.5225,65.6631 C235.0295,65.6631 235.4405,65.2521 235.4405,64.7451 L235.4405,14.5901 C235.4405,14.0831 235.0295,13.6721 234.5225,13.6721 Z M157.7465,46.4521 L145.9675,46.4521 C145.3485,46.4521 144.9045,45.8591 145.0825,45.2711 L150.9565,25.7481 C151.2195,24.8751 152.4625,24.8741 152.7265,25.7461 L158.6305,45.2691 C158.8095,45.8581 158.3655,46.4521 157.7465,46.4521 Z M154.8845,14.3081 C154.7605,13.9291 154.4055,13.6721 154.0045,13.6721 L149.7105,13.6721 C149.3095,13.6721 148.9545,13.9291 148.8315,14.3091 L132.5775,64.4631 C132.3855,65.0561 132.8305,65.6631 133.4575,65.6631 L138.2525,65.6631 C138.6625,65.6631 139.0225,65.3961 139.1385,65.0061 L142.8065,52.7151 C142.9225,52.3251 143.2825,52.0581 143.6915,52.0581 L159.9905,52.0581 C160.3975,52.0581 160.7575,52.3231 160.8755,52.7111 L164.6095,65.0101 C164.7275,65.3981 165.0865,65.6631 165.4945,65.6631 L170.2925,65.6631 C170.9195,65.6631 171.3645,65.0561 171.1715,64.4621 L154.8845,14.3081 Z M105.3965,39.2741 L91.0875,39.2741 C90.5765,39.2741 90.1625,39.6821 90.1625,40.1851 L90.1625,43.9251 C90.1625,44.4291 90.5765,44.8361 91.0875,44.8361 L98.8105,44.8361 C99.3215,44.8361 99.7355,45.2451 99.7355,45.7481 L99.7355,56.2881 C99.7355,56.5421 99.6275,56.7851 99.4375,56.9581 L98.7635,57.5681 C96.9165,59.2621 94.2165,60.1081 90.6665,60.1081 C86.8985,60.1081 84.0075,58.7211 81.9925,55.9451 C79.9765,53.1701 78.9685,49.1831 78.9685,43.9861 L78.9685,33.4631 C79.0415,28.1481 79.9525,24.2801 81.7045,21.8591 C83.4555,19.4381 86.2145,18.2271 89.9815,18.2271 C93.1255,18.2271 95.4705,19.1301 97.0185,20.9381 C98.4315,22.5881 99.3095,24.8251 99.6525,27.6471 C99.7085,28.1101 100.0955,28.4671 100.5685,28.4671 L105.3215,28.4671 C105.8605,28.4671 106.2975,28.0101 106.2485,27.4811 C105.8245,22.8801 104.2945,19.3061 101.6615,16.7561 C98.8415,14.0281 94.9365,12.6641 89.9465,12.6641 C84.0915,12.6641 79.6945,14.4651 76.7555,18.0671 C73.8155,21.6701 72.3465,27.0851 72.3465,34.3141 L72.3465,44.4471 C72.4185,51.2031 74.0675,56.4291 77.2955,60.1261 C80.5215,63.8231 84.9665,65.6711 90.6295,65.6711 C97.0125,65.6711 101.8585,63.7701 105.1705,59.9661 L106.1195,58.7981 C106.2505,58.6371 106.3215,58.4361 106.3215,58.2301 L106.3215,40.1851 C106.3215,39.6821 105.9075,39.2741 105.3965,39.2741 Z" id="Fill-6"></path>
        </g>
    </g>
</svg>