<?xml version="1.0" encoding="UTF-8"?>
<svg width="86px" height="26px" viewBox="0 0 86 26" version="1.1" xmlns="http://www.w3.org/2000/svg" xmlns:xlink="http://www.w3.org/1999/xlink">
    <!-- Generator: Sketch 48.2 (47327) - http://www.bohemiancoding.com/sketch -->
    <title>bitcoin white</title>
    <desc>Created with Sketch.</desc>
    <defs></defs>
    <g id="Page-1" stroke="none" stroke-width="1" fill="none" fill-rule="evenodd">
        <g id="bitcoin-white" fill="#FFFFFF">
            <path d="M13,26 C5.82029825,26 0,20.1797017 0,13 C0,5.82029825 5.82029825,0 13,0 C20.1797017,0 26,5.82029825 26,13 C26,20.1797017 20.1797017,26 13,26 Z M18.1594962,12.9477975 C17.6174223,12.5395342 16.8452269,12.3762437 16.8452269,12.3762437 C16.8452269,12.3762437 17.4986858,11.997386 17.7657129,11.6188996 C18.033037,11.2402647 18.1666249,10.6536368 18.1889761,10.3492586 C18.2111789,10.0447318 18.2632328,8.76788786 17.2682673,8.0329693 C16.4986708,7.46431148 15.616724,7.23857111 14.4324039,7.16513124 L14.4324039,4.58827521 L12.8436075,4.58827521 L12.8436075,7.13468599 L11.6334461,7.13468599 L11.6334461,4.58827521 L10.0447982,4.58827521 L10.0447982,7.13468599 L6.91918518,7.13468599 L6.91918518,8.78459562 L7.83788908,8.78459562 C8.08835693,8.78459562 8.53382288,8.81244188 8.72310321,9.02429625 C8.9124578,9.23577933 8.94587331,9.34723864 8.94587331,9.7590663 L8.94594757,16.3333833 C8.94594757,16.4892481 8.91624489,16.682167 8.78250857,16.8084777 C8.64899502,16.9347883 8.51540722,16.9642682 8.19602915,16.9642682 L7.24584041,16.9642682 L6.91918518,18.8725169 L10.0447982,18.8725169 L10.0447982,21.4117248 L11.6335203,21.4117248 L11.6335203,18.8725169 L12.8436818,18.8725169 L12.8436818,21.4117248 L14.4324781,21.4117248 L14.4324781,18.8306361 C14.843192,18.8066512 15.2261338,18.7755377 15.4494979,18.7462805 C15.9024638,18.6870237 16.9269092,18.568213 17.8848207,17.8999769 C18.8424351,17.2316666 19.0575567,16.1847956 19.079908,15.1306475 C19.102482,14.0764251 18.7010503,13.3561351 18.1594962,12.9477975 Z M11.6334461,8.93140112 C11.6334461,8.93140112 12.1382431,8.88692135 12.6356888,8.89419851 C13.1332829,8.90154992 13.5711004,8.91647552 14.2246336,9.11696861 C14.8778698,9.31753596 15.2636334,9.80755593 15.2787818,10.3866839 C15.2935588,10.9658119 15.0408633,11.351724 14.5956201,11.5967711 C14.1502284,11.841744 13.5343434,11.975406 12.9549926,11.9974603 C12.3760131,12.0198116 11.6334461,11.9974603 11.6334461,11.9974603 L11.6334461,8.93140112 Z M15.1895995,16.5263022 C14.8258159,16.7268695 14.0981745,16.9050114 13.3930329,16.9568425 C12.6876685,17.0088965 11.6334461,16.9866195 11.6334461,16.9866195 L11.6334461,13.5787567 C11.6334461,13.5787567 12.6431887,13.5269255 13.4302355,13.5787567 C14.2171337,13.6309592 14.8778698,13.8312295 15.1746739,13.9799657 C15.4716264,14.1283306 15.9914976,14.4549115 15.9914976,15.2346069 C15.9914976,16.0140052 15.5531603,16.3258834 15.1895995,16.5263022 Z" id="Oval"></path>
            <text id="Bitcoin" font-family="Rubik-Regular, Rubik" font-size="16" font-weight="normal" line-spacing="26">
                <tspan x="34" y="15">Bitcoin</tspan>
            </text>
        </g>
    </g>
</svg>