<?xml version="1.0" encoding="UTF-8"?>
<svg width="127px" height="26px" viewBox="0 0 127 26" version="1.1" xmlns="http://www.w3.org/2000/svg" xmlns:xlink="http://www.w3.org/1999/xlink">
    <!-- Generator: Sketch 48.2 (47327) - http://www.bohemiancoding.com/sketch -->
    <title>bitcoin cash white</title>
    <desc>Created with Sketch.</desc>
    <defs></defs>
    <g id="Page-1" stroke="none" stroke-width="1" fill="none" fill-rule="evenodd">
        <g id="bitcoin-cash-white" fill="#FFFFFF">
            <path d="M13,26 C5.82029825,26 0,20.1797017 0,13 C0,5.82029825 5.82029825,0 13,0 C20.1797017,0 26,5.82029825 26,13 C26,20.1797017 20.1797017,26 13,26 Z M13.0220064,3.71907092 C12.2558092,3.71774233 11.4769903,3.81207214 10.7002972,4.01016476 L10.7002972,4.00976618 C5.73004594,5.27870149 2.73009208,10.3321224 4.00009026,15.2970594 C5.2702213,20.2619963 10.3290895,23.2586287 15.2996065,21.9898262 C20.2701235,20.7212895 23.2698116,15.6678685 21.9999463,10.7029316 C20.9281736,6.51389064 17.1593653,3.72597958 13.0220064,3.71907092 Z M12.7524357,6.82225614 L13.2127918,8.62182987 C14.0537886,8.46173491 14.7105101,8.46213348 15.3500928,8.72200548 C16.1770066,9.05760705 16.3685891,9.95865608 16.4076496,10.1752161 C16.4463116,10.3917761 16.4577374,10.8254275 16.3384302,11.1371145 C16.2193886,11.4493329 15.8303777,11.8305051 15.8303777,11.8305051 C15.8303777,11.8305051 16.398881,11.8067233 16.8511326,11.9952501 C17.3024543,12.1839097 17.7119254,12.614904 17.8845091,13.3551937 C18.0576243,14.0950849 18.093629,14.8646037 17.5438589,15.5020606 C17.0072418,16.1237074 16.3331158,16.3920824 16.0162473,16.5182983 L15.9924656,16.5275984 C15.8415379,16.5880492 15.5795402,16.6781276 15.2966836,16.768073 L15.7575711,18.570304 L14.6470036,18.8539577 L14.1932904,17.0808229 L13.3473778,17.2967186 L13.8009581,19.0698534 L12.6903906,19.3535072 L12.2368103,17.5801066 L10.0516801,18.1377154 L9.93928146,16.7468156 L10.6035759,16.5774205 C10.8267789,16.5201583 10.9147315,16.4759163 10.9855453,16.364182 C11.0563591,16.2520491 11.0426746,16.111883 11.0147742,16.0026729 L9.84070016,11.4119995 C9.76709634,11.12436 9.72378434,11.0526162 9.55372495,10.9386233 C9.38339985,10.8244975 9.06706282,10.884284 8.89168907,10.929456 L8.24971489,11.0930053 L7.954901,9.94085299 L10.1401641,9.3832442 L9.68485668,7.60519361 L10.795557,7.32180558 L11.250333,9.1001219 L12.0962456,8.88422619 L11.6413368,7.10590988 L12.7524357,6.82225614 Z M13.2394964,10.017114 C12.8455698,10.0155197 12.5712162,10.0765019 12.2656407,10.1497072 C11.9166204,10.2334083 11.571453,10.3547084 11.571453,10.3547084 L12.1189645,12.4958624 C12.1189645,12.4958624 12.6421628,12.3788137 13.0429981,12.259905 C13.4439663,12.1408634 13.8510459,11.9381208 14.118358,11.6875489 C14.3860687,11.4368442 14.4935515,11.1221014 14.3799572,10.7203361 C14.2656985,10.3185708 13.9087067,10.0454129 13.4161988,10.0217641 C13.3573379,10.0189547 13.2984236,10.0174043 13.2394964,10.017114 Z M14.4253949,13.2059932 C14.1678815,13.2079354 13.9110423,13.2326101 13.6578691,13.2797299 C13.0981346,13.3838913 12.4015554,13.6001855 12.4015554,13.6001855 L13.0103148,15.9796884 C13.0103148,15.9796884 13.7515346,15.8075032 14.235141,15.6451497 C14.7188802,15.4830618 15.1955779,15.2289027 15.4142637,15.0239015 C15.6325508,14.8190331 15.8831227,14.5228906 15.7438866,13.9787005 C15.6046505,13.4342448 15.1830892,13.2989944 14.9489918,13.2482423 C14.8319431,13.2228663 14.6489964,13.2046646 14.4253949,13.2059932 Z" id="Oval"></path>
            <text id="Bitcoin-Cash" font-family="Rubik-Regular, Rubik" font-size="16" font-weight="normal" line-spacing="26">
                <tspan x="34" y="15">Bitcoin Cash</tspan>
            </text>
        </g>
    </g>
</svg>