<svg width="260" height="80" viewBox="0 0 260 80" fill="none" xmlns="http://www.w3.org/2000/svg">
<path d="M82.2437 55.2644H91.5705V66.2911C90.223 67.2648 88.7962 67.9885 87.277 68.4227C85.7578 68.8701 84.1725 69.0806 82.5212 69.0806C80.3678 69.0806 78.3994 68.7385 76.6292 68.0674C74.859 67.3964 73.3398 66.4621 72.0848 65.2779C70.8297 64.0936 69.8521 62.6857 69.1652 61.054C68.4782 59.4224 68.1348 57.646 68.1348 55.7381C68.1348 53.7906 68.465 52.0011 69.1124 50.3695C69.7597 48.7378 70.6844 47.3299 71.8866 46.1456C73.0888 44.9614 74.5551 44.0403 76.2593 43.3824C77.9635 42.7245 79.879 42.3955 81.9927 42.3955C83.0892 42.3955 84.1064 42.4876 85.0708 42.6587C86.0352 42.8429 86.9203 43.0797 87.7262 43.3955C88.532 43.7113 89.2718 44.0798 89.9456 44.5008C90.6193 44.9351 91.2138 45.3956 91.7422 45.8956L89.9852 48.5668C89.7078 48.9878 89.3511 49.2378 88.9151 49.3431C88.4792 49.4352 88.0036 49.33 87.5016 49.0142C87.026 48.7247 86.5636 48.4747 86.1409 48.2641C85.7181 48.0536 85.2822 47.8825 84.833 47.751C84.3839 47.6194 83.9215 47.5273 83.4327 47.4615C82.9439 47.3957 82.3891 47.3694 81.7814 47.3694C80.6453 47.3694 79.6148 47.5667 78.7033 47.9746C77.7918 48.3694 77.0123 48.9352 76.3782 49.6721C75.7309 50.3958 75.2421 51.2774 74.8986 52.3037C74.5551 53.3301 74.3834 54.4617 74.3834 55.7118C74.3834 57.0934 74.5816 58.3303 74.9647 59.4092C75.3478 60.4882 75.8894 61.3962 76.5896 62.133C77.2897 62.8699 78.1352 63.4357 79.1128 63.8305C80.0904 64.212 81.1737 64.4094 82.3626 64.4094C83.0892 64.4094 83.763 64.3436 84.3574 64.1989C84.9519 64.0541 85.5332 63.8699 86.088 63.6199V59.6593H83.4988C83.1156 59.6593 82.8118 59.554 82.6004 59.3566C82.3891 59.1592 82.2702 58.8961 82.2702 58.5803V55.2644H82.2437Z" fill="white"/>
<path d="M118.771 68.7915H114.055C113.526 68.7915 113.104 68.673 112.773 68.423C112.443 68.173 112.205 67.8704 112.034 67.4756L110.488 62.9228H100.514L98.9816 67.4888C98.8495 67.8177 98.6117 68.1204 98.2682 68.3967C97.9247 68.6599 97.502 68.8046 97 68.8046H92.2441L102.39 42.6853H108.625L118.771 68.7915ZM109.114 58.8174L106.683 51.6725C106.498 51.2251 106.313 50.6856 106.102 50.0671C105.904 49.4487 105.693 48.7908 105.494 48.0671C105.309 48.7908 105.125 49.475 104.913 50.0935C104.715 50.7119 104.517 51.2514 104.332 51.7119L101.941 58.8174H109.114Z" fill="white"/>
<path d="M150.318 42.6853V68.8046H144.955V53.7778C144.955 53.4357 144.968 53.0541 144.981 52.6462C144.994 52.2383 145.034 51.8304 145.074 51.4093L138.112 64.8308C137.9 65.2519 137.61 65.5677 137.24 65.7782C136.87 65.9887 136.46 66.1072 135.985 66.1072H135.152C134.69 66.1072 134.267 66.0019 133.897 65.7782C133.527 65.5677 133.237 65.2519 133.025 64.8308L126.063 51.3698C126.103 51.804 126.13 52.2251 126.156 52.633C126.182 53.0409 126.196 53.4225 126.196 53.7646V68.7783H120.832V42.6853H125.469C125.733 42.6853 125.958 42.6853 126.156 42.6985C126.354 42.7116 126.526 42.7511 126.684 42.8037C126.843 42.8564 126.975 42.9616 127.107 43.0801C127.239 43.2116 127.358 43.3827 127.477 43.6064L134.254 56.8568C134.492 57.3174 134.73 57.7779 134.941 58.2779C135.166 58.7648 135.377 59.2648 135.575 59.778C135.773 59.2517 135.998 58.7385 136.209 58.2385C136.434 57.7385 136.672 57.2648 136.923 56.8042L143.647 43.6064C143.766 43.3827 143.885 43.1985 144.017 43.0801C144.149 42.9485 144.281 42.8564 144.439 42.8037C144.598 42.7379 144.77 42.7116 144.968 42.6985C145.166 42.6853 145.391 42.6853 145.655 42.6853H150.318Z" fill="white"/>
<path d="M161.507 47.3434V53.4357H169.751V57.9227H161.507V64.1466H172.274V68.8046H155.391V42.6853H172.274V47.3434H161.507V47.3434Z" fill="white"/>
<path d="M190.505 47.988C190.32 48.2775 190.135 48.488 189.937 48.6328C189.739 48.7775 189.488 48.8433 189.171 48.8433C188.893 48.8433 188.603 48.7512 188.286 48.5801C187.969 48.4091 187.612 48.2117 187.202 48.0012C186.806 47.7906 186.344 47.5933 185.828 47.4222C185.313 47.2512 184.719 47.159 184.058 47.159C182.922 47.159 182.063 47.3959 181.509 47.8828C180.954 48.3696 180.676 49.0144 180.676 49.8433C180.676 50.3697 180.848 50.8039 181.178 51.146C181.509 51.4881 181.958 51.7908 182.499 52.0408C183.041 52.2908 183.675 52.5277 184.375 52.725C185.075 52.9356 185.789 53.1724 186.529 53.4224C187.255 53.6856 187.982 53.9751 188.682 54.3303C189.382 54.6725 190.003 55.1198 190.558 55.6593C191.1 56.1988 191.549 56.8567 191.879 57.6199C192.209 58.3963 192.381 59.3174 192.381 60.4095C192.381 61.6201 192.17 62.7517 191.747 63.7912C191.324 64.8439 190.716 65.7649 189.924 66.5413C189.131 67.3176 188.14 67.9361 186.978 68.3835C185.802 68.8308 184.481 69.0545 182.988 69.0545C182.169 69.0545 181.337 68.9756 180.491 68.8045C179.646 68.6335 178.827 68.3966 178.034 68.094C177.242 67.7913 176.502 67.4229 175.802 67.015C175.101 66.5939 174.494 66.1334 173.979 65.6202L175.775 62.7912C175.92 62.5938 176.105 62.4227 176.343 62.278C176.581 62.1464 176.832 62.0675 177.109 62.0675C177.466 62.0675 177.836 62.1859 178.193 62.4096C178.563 62.6333 178.972 62.8833 179.435 63.1596C179.897 63.4359 180.425 63.6859 181.033 63.9096C181.627 64.1333 182.341 64.2517 183.16 64.2517C184.27 64.2517 185.115 64.0149 185.736 63.528C186.344 63.0412 186.648 62.278 186.648 61.2253C186.648 60.62 186.476 60.12 186.146 59.7384C185.815 59.3568 185.366 59.041 184.824 58.791C184.283 58.541 183.662 58.3173 182.962 58.1331C182.262 57.9357 181.548 57.7252 180.822 57.5015C180.095 57.2647 179.382 56.9883 178.682 56.6462C177.981 56.3041 177.36 55.8567 176.819 55.3041C176.277 54.7514 175.828 54.054 175.498 53.225C175.167 52.3961 174.996 51.3697 174.996 50.146C174.996 49.1723 175.194 48.2117 175.59 47.2775C175.987 46.3432 176.568 45.5143 177.334 44.7905C178.1 44.0668 179.038 43.4747 180.161 43.0405C181.271 42.6063 182.552 42.3826 183.992 42.3826C184.798 42.3826 185.577 42.4484 186.344 42.5668C187.11 42.6852 187.823 42.8826 188.51 43.1194C189.197 43.3694 189.831 43.6589 190.426 44.001C191.02 44.3432 191.549 44.7248 192.024 45.159L190.505 47.988Z" fill="white"/>
<path d="M50.6438 10.2764C52.4536 10.2764 53.9993 10.4474 55.2675 10.7764C56.5357 11.1053 57.5794 11.579 58.3852 12.1975C59.1911 12.8159 59.7723 13.5528 60.1422 14.4212C60.5121 15.2897 60.6971 16.2634 60.6971 17.3424C60.6971 17.9345 60.6178 18.4872 60.4461 19.0398C60.2743 19.5793 60.0101 20.0925 59.6534 20.5662C59.2967 21.0399 58.8344 21.4741 58.2663 21.8689C57.6983 22.2636 57.0245 22.6057 56.2319 22.8952C57.9625 23.3163 59.2307 23.9874 60.063 24.9216C60.8952 25.8558 61.3048 27.0664 61.3048 28.5402C61.3048 29.6455 61.0934 30.685 60.6574 31.6455C60.2215 32.6061 59.5874 33.4351 58.7551 34.1456C57.9228 34.8562 56.8924 35.4088 55.6638 35.8167C54.4352 36.2115 53.0481 36.422 51.476 36.422H41V10.2764H50.6438ZM47.0769 14.816V21.2636H50.2475C50.9212 21.2636 51.5289 21.211 52.0705 21.1188C52.6122 21.0267 53.0745 20.8557 53.4444 20.6188C53.8275 20.382 54.105 20.053 54.3031 19.632C54.5013 19.2109 54.5938 18.6846 54.5938 18.0529C54.5938 17.4345 54.5145 16.9213 54.356 16.5003C54.1974 16.0924 53.9596 15.7502 53.6426 15.5002C53.3123 15.2502 52.9028 15.066 52.414 14.9607C51.912 14.8555 51.3307 14.8028 50.6438 14.8028H47.0769V14.816ZM51.3571 31.8297C52.163 31.8297 52.8235 31.7245 53.3255 31.5271C53.8407 31.3297 54.2371 31.0666 54.5277 30.7376C54.8183 30.4086 55.0165 30.0534 55.1222 29.6455C55.2279 29.2375 55.2807 28.8296 55.2807 28.4086C55.2807 27.9349 55.2147 27.5006 55.0958 27.1191C54.9637 26.7375 54.7523 26.4085 54.4484 26.1453C54.1446 25.8822 53.7351 25.6848 53.2331 25.5401C52.7311 25.3953 52.0969 25.3295 51.3307 25.3295H47.0769V31.8297H51.3571V31.8297Z" fill="white"/>
<path d="M153.184 10.2764V36.3957H147.821V21.382C147.821 21.0399 147.834 20.6583 147.847 20.2504C147.861 19.8425 147.9 19.4346 147.94 19.0135L140.978 32.435C140.766 32.8561 140.476 33.1719 140.106 33.3824C139.736 33.593 139.326 33.7114 138.851 33.7114H138.019C137.556 33.7114 137.133 33.6061 136.764 33.3824C136.394 33.1719 136.103 32.8561 135.892 32.435L128.93 18.974C128.969 19.4083 128.996 19.8293 129.022 20.2372C129.049 20.6451 129.062 21.0267 129.062 21.3689V36.3825H123.698V10.2764H128.335C128.599 10.2764 128.824 10.2764 129.022 10.2895C129.22 10.3027 129.392 10.3422 129.551 10.3948C129.709 10.4606 129.841 10.5527 129.973 10.6711C130.105 10.8027 130.224 10.9738 130.343 11.1975L137.094 24.4479C137.332 24.9085 137.569 25.369 137.781 25.869C138.005 26.3559 138.217 26.8559 138.415 27.3691C138.613 26.8427 138.838 26.3296 139.049 25.8295C139.274 25.3295 139.511 24.8558 139.762 24.3953L146.487 11.1975C146.606 10.9738 146.724 10.7895 146.857 10.6711C146.989 10.5395 147.121 10.4474 147.279 10.3948C147.438 10.329 147.61 10.3027 147.808 10.2895C148.006 10.2764 148.23 10.2764 148.495 10.2764H153.184V10.2764Z" fill="white"/>
<path d="M164.387 36.3957H158.271V10.2764H164.387V36.3957Z" fill="white"/>
<path d="M192.341 10.2764V36.3957H189.17C188.708 36.3957 188.312 36.3167 187.995 36.172C187.678 36.0273 187.36 35.7641 187.043 35.3957L174.678 19.8162C174.731 20.2767 174.757 20.7373 174.771 21.1715C174.784 21.6057 174.797 22.0136 174.797 22.3952V36.3957H169.434V10.2764H172.631C172.895 10.2764 173.119 10.2895 173.291 10.3158C173.476 10.3422 173.635 10.3816 173.78 10.4474C173.925 10.5132 174.057 10.6053 174.189 10.7238C174.322 10.8422 174.467 11.0001 174.639 11.2106L187.109 26.8954C187.043 26.3953 187.004 25.9085 186.977 25.4348C186.951 24.9611 186.938 24.5137 186.938 24.1058V10.2895H192.341V10.2764Z" fill="white"/>
<path d="M210.017 22.8689H219.344V33.8956C217.996 34.8693 216.57 35.593 215.05 36.0272C213.531 36.4746 211.946 36.6851 210.295 36.6851C208.141 36.6851 206.173 36.343 204.403 35.6719C202.632 35.0009 201.113 34.0666 199.858 32.8824C198.603 31.6981 197.626 30.2902 196.939 28.6585C196.252 27.0269 195.908 25.2505 195.908 23.3426C195.908 21.3951 196.238 19.6056 196.886 17.974C197.533 16.3423 198.458 14.9344 199.66 13.7501C200.862 12.5659 202.329 11.6448 204.033 10.9869C205.737 10.329 207.652 10 209.766 10C210.863 10 211.88 10.0921 212.844 10.2632C213.809 10.4474 214.694 10.6842 215.5 11C216.305 11.3158 217.045 11.6843 217.719 12.1053C218.393 12.5396 218.987 13.0001 219.516 13.5001L217.759 16.1844C217.481 16.6055 217.125 16.8555 216.689 16.9608C216.253 17.0529 215.777 16.9476 215.275 16.6318C214.799 16.3423 214.337 16.0923 213.914 15.8818C213.492 15.6712 213.056 15.5002 212.606 15.3686C212.157 15.237 211.695 15.1449 211.206 15.0791C210.717 15.0133 210.162 14.987 209.555 14.987C208.419 14.987 207.388 15.1844 206.477 15.5923C205.565 15.987 204.786 16.5529 204.152 17.2897C203.504 18.0134 203.016 18.895 202.672 19.9214C202.329 20.9477 202.157 22.0794 202.157 23.3294C202.157 24.711 202.355 25.9479 202.738 27.0269C203.121 28.1059 203.663 29.0138 204.363 29.7507C205.063 30.4875 205.909 31.0534 206.886 31.4481C207.864 31.8297 208.947 32.0271 210.136 32.0271C210.863 32.0271 211.536 31.9613 212.131 31.8165C212.725 31.6718 213.307 31.4876 213.861 31.2376V27.2769H211.272C210.889 27.2769 210.585 27.1716 210.374 26.9743C210.162 26.7769 210.044 26.5137 210.044 26.1979V22.8689H210.017Z" fill="white"/>
<path d="M114.807 24.6321C114.068 28.6191 110.58 31.5007 106.511 31.5007C106.445 31.5007 106.379 31.5007 106.326 31.5007C105.732 31.4876 105.097 31.5007 103.512 30.8297C101.94 30.1586 101.597 29.7638 100.447 28.8691C99.7868 28.3559 98.8356 27.369 97.8977 26.54C96.9729 27.5401 94.8724 29.8559 94.6875 30.0402C95.4934 30.9086 97.4617 32.6192 98.2544 33.2245L98.1355 33.1192C99.8793 34.5666 102.006 35.5798 104.344 35.9614C105.071 36.0798 105.705 36.1325 106.313 36.1325C106.973 36.1325 107.515 36.1062 108.096 36.0404C113.315 35.4088 117.687 31.7113 119.114 26.6453L114.807 24.6321Z" fill="white"/>
<path d="M100.144 17.5793C101.69 15.8029 103.962 14.6844 106.498 14.6844C108.48 14.6844 110.342 15.3687 111.822 16.5661L109.814 18.0003L119.075 22.2373L118.124 12.1317L115.732 13.816C113.315 11.408 110.025 10.0396 106.511 10.0396C102.456 10.0396 98.836 11.8817 96.4317 14.7766C96.4317 14.7766 96.4317 14.7766 96.4317 14.7897C96.3392 14.9081 89.0866 23.7374 86.101 26.6585C85.9424 26.8164 85.7707 26.9612 85.599 27.1059C85.5725 27.1322 85.5329 27.1586 85.5065 27.1849C85.2951 27.3691 85.0837 27.5533 84.8724 27.7244C84.8327 27.7638 84.7799 27.8033 84.7403 27.8296C84.5421 27.9875 84.3439 28.1454 84.159 28.2902C84.1062 28.3296 84.0533 28.3691 84.0137 28.4086C83.8816 28.5139 83.7495 28.606 83.6306 28.6981C83.5777 28.7376 83.5249 28.777 83.4853 28.8165C83.4324 28.856 83.3796 28.8955 83.3267 28.9218C83.155 29.0402 82.9833 29.1586 82.8247 29.277C82.7719 29.3165 82.7323 29.3428 82.6794 29.3692C82.5209 29.4744 82.3624 29.5797 82.2038 29.685C82.1642 29.7113 82.1246 29.7376 82.0717 29.7639C81.9264 29.856 81.7943 29.935 81.6622 30.0139C81.6093 30.0402 81.5565 30.0797 81.5037 30.106C81.3716 30.185 81.2527 30.2508 81.1338 30.3166C80.2619 30.7903 79.5353 31.0929 78.9276 31.2771C78.3199 31.4613 77.8443 31.5534 76.8799 31.5534C72.2034 31.3298 68.5044 27.3033 68.8611 22.5268C69.1649 18.3951 72.5601 15.0529 76.7082 14.7766C79.3635 14.6055 81.7018 15.7371 83.4456 17.4345C83.7363 17.7109 86.101 20.2504 86.603 20.8689C87.5013 19.9083 89.6546 17.3819 89.7339 17.2898C89.3112 16.7371 87.5277 14.8687 87.4088 14.7371C84.8724 11.908 81.213 10.0659 77.1045 10.1185C70.2746 10.2106 64.5676 15.645 64.1977 22.4347C63.8014 29.6718 69.3499 35.7246 76.4044 36.1983C76.6554 36.2115 77.7783 36.251 78.3727 36.1852C78.9804 36.1194 79.5221 35.9878 79.9844 35.8825C80.7242 35.7115 81.4772 35.3167 81.4905 35.3167C81.5301 35.3036 81.5697 35.2773 81.6093 35.2641C81.7547 35.1983 81.9132 35.1325 82.0717 35.0536C82.1378 35.0272 82.217 34.9878 82.2831 34.9483C82.4416 34.8693 82.6134 34.7904 82.7851 34.6983C82.8511 34.672 82.904 34.6325 82.97 34.6062C83.4324 34.3562 83.9344 34.0798 84.4364 33.764C84.5025 33.7246 84.5817 33.6719 84.6478 33.6325C84.8327 33.514 85.0177 33.3956 85.2159 33.264C85.2951 33.2114 85.3876 33.1456 85.4801 33.093C85.665 32.9614 85.8632 32.8298 86.0613 32.6851C86.1406 32.6193 86.2199 32.5666 86.3123 32.5008C86.5105 32.3561 86.7087 32.1982 86.9068 32.0535C86.9597 32.014 87.0125 31.9745 87.0521 31.935C87.0918 31.9087 87.1182 31.8824 87.1578 31.8561C87.4485 31.6324 87.7391 31.3824 88.0429 31.1324C88.109 31.0797 88.1882 31.0139 88.2543 30.9482C88.4789 30.7508 88.7167 30.5534 88.9545 30.3429C89.0602 30.2508 89.1526 30.1587 89.2583 30.0797C89.2979 30.0402 89.3508 30.0008 89.3904 29.9613C89.5622 29.8034 89.7339 29.6455 89.9188 29.4744C90.0245 29.3823 92.6667 26.8033 94.4501 24.6453C96.2335 22.4873 98.1623 19.9083 100.144 17.5793Z" fill="white"/>
</svg>
