<?xml version="1.0" encoding="UTF-8"?>
<!DOCTYPE svg PUBLIC "-//W3C//DTD SVG 1.1//EN" "http://www.w3.org/Graphics/SVG/1.1/DTD/svg11.dtd">
<!-- Creator: CorelDRAW X7 -->
<svg xmlns="http://www.w3.org/2000/svg" xml:space="preserve" width="600px" height="226px" version="1.1" style="shape-rendering:geometricPrecision; text-rendering:geometricPrecision; image-rendering:optimizeQuality; fill-rule:evenodd; clip-rule:evenodd"
viewBox="0 0 600 226"
 xmlns:xlink="http://www.w3.org/1999/xlink">
 <defs>
  <style type="text/css">
   <![CDATA[
    .fil0 {fill:white}
   ]]>
  </style>
 </defs>
 <g id="Layer_x0020_1">
  <metadata id="CorelCorpID_0Corel-Layer"/>
  <path class="fil0" d="M66 0l534 0 -59 226 -534 0 30 -116 -19 15 -18 14 5 -19 14 -52 5 -20 10 14 12 16 20 -78zm-39 68l19 26 -33 26 14 -52zm227 -58l334 0 -44 168 -333 0 20 -80 33 0 2 -8 -32 0 20 -80zm30 88l33 0 -18 69 236 0 39 -147 -237 0 -18 70 -32 0 -3 8zm-120 -88l86 0 -21 80 -24 0 -2 8 24 0 -21 80 -86 0 21 -80 21 0 2 -8 -21 0 21 -80zm-91 0l86 0 -20 80 -25 0c2,2 3,5 3,8l19 0 -20 80 -87 0 21 -80 19 0 2 -8 -19 0 21 -80zm277 58l-32 26 19 26 13 -52zm163 -20l15 0 -29 109 14 0 29 -109 15 0 4 -18 -43 0 -5 18zm-26 0l23 0 5 -18 -38 0 -33 127 14 0 14 -52 18 0 5 -18 -18 0 10 -39zm-87 79c-5,20 -1,32 13,32 14,0 25,-12 30,-32l17 -66c6,-20 1,-32 -13,-32 -14,0 -24,12 -30,32l-17 66zm32 -67c2,-10 6,-13 11,-13 4,0 6,3 4,13l-18 68c-3,9 -6,13 -11,13 -4,0 -6,-4 -4,-13l18 -68zm-63 1c-10,36 17,41 10,67 -2,9 -6,12 -11,12 -4,0 -6,-3 -4,-12l3 -10 -13 0 -3 9c-5,20 -1,32 13,32 14,0 24,-12 29,-32 10,-36 -16,-41 -10,-67 3,-10 6,-13 11,-13 4,0 6,3 3,13l-1 6 13 0 1 -5c6,-20 2,-32 -12,-32 -14,0 -24,12 -29,32zm-80 145l1 -3 9 0 -2 6c-2,2 -4,3 -6,4 -2,1 -4,1 -7,1 -4,0 -7,-1 -9,-3 -1,-2 -2,-4 -1,-8 1,-3 3,-6 6,-8 3,-2 6,-3 10,-3 2,0 4,1 6,1 2,1 3,3 4,4l-3 2c-1,-1 -2,-2 -3,-3 -1,0 -3,-1 -5,-1 -3,0 -5,1 -7,3 -3,1 -4,3 -5,5 0,3 0,4 1,6 2,2 4,2 7,2 2,0 3,0 5,-1 2,0 3,-1 4,-2l1 -2 -6 0zm42 0l8 0 -2 -8 -6 8zm-10 8l16 -21 2 0 6 21 -4 0 -1 -6 -11 0 -4 6 -4 0zm50 0l6 -21 2 0 6 12 11 -12 3 0 -5 21 -4 0 4 -15 -11 11 -5 -11 -4 15 -3 0zm53 0l6 -21 3 0 -5 21 -4 0zm34 0l6 -21 2 0 9 14 4 -14 3 0 -5 21 -2 0 -10 -15 -3 15 -4 0zm65 -8l1 -3 9 0 -2 6c-1,2 -3,3 -6,4 -2,1 -4,1 -7,1 -4,0 -6,-1 -8,-3 -2,-2 -3,-4 -2,-8 1,-3 3,-6 6,-8 3,-2 6,-3 10,-3 3,0 5,1 6,1 2,1 3,3 4,4l-3 2c-1,-1 -2,-2 -3,-3 -1,0 -3,-1 -5,-1 -3,0 -5,1 -7,3 -3,1 -4,3 -5,5 0,3 0,4 2,6 1,2 3,2 6,2 2,0 4,0 5,-1 2,0 3,-1 4,-2l1 -2 -6 0zm-411 -17c4,0 7,4 6,8 0,1 0,1 0,1 4,1 6,4 5,8 -1,5 -6,8 -10,8 -3,0 -6,-2 -6,-5 -2,3 -6,5 -9,5 -4,0 -7,-3 -6,-8 1,-4 5,-7 10,-8 0,0 0,0 0,-1 1,-4 6,-8 10,-8zm-4 30l-2 -8 -5 8 7 0zm132 -30c2,0 12,10 10,17 -1,5 -5,8 -10,8 -3,0 -5,-2 -6,-5 -2,3 -5,5 -8,5 -5,0 -8,-3 -6,-8 2,-8 17,-17 20,-17zm-5 30l-1 -8 -6 8 7 0zm-66 -2c-4,0 -14,-10 -12,-19 1,-4 6,-8 11,-8 4,0 6,2 6,5 3,-3 6,-5 10,-5 4,0 7,4 6,8 -2,10 -18,19 -21,19zm-118 -28c3,6 6,10 11,15 -7,4 -12,8 -18,14 -3,-6 -6,-10 -11,-14 7,-5 12,-9 18,-15zm214 -143l16 0 -30 114 15 0 29 -114 16 0 5 -19 -46 0 -5 19zm-72 0l26 0 5 -19 -41 0 -34 133 40 0 5 -19 -26 0 11 -39 20 0 5 -19 -20 0 9 -37zm-85 0c5,0 6,4 4,13l-2 8c-3,10 -7,14 -13,14l-6 0 9 -35 8 0zm-15 54c7,0 8,4 5,16l-3 12c-2,10 -6,13 -11,13l-8 0 10 -41 7 0zm20 -73l-22 0 -35 133 23 0c15,0 25,-11 31,-32l3 -11c3,-14 3,-24 -4,-28 8,-5 13,-13 17,-27l1 -5c5,-20 1,-30 -14,-30z"/>
 </g>
</svg>
