<svg xmlns="http://www.w3.org/2000/svg" width="105.81" height="25.03" viewBox="0 0 105.81 25.03"><title>white</title><g id="Layer_2" data-name="Layer 2"><g id="Слой_1" data-name="Слой 1"><g id="_Group_" data-name="&lt;Group&gt;"><path id="_Compound_Path_" data-name="&lt;Compound Path&gt;" d="M18.24,0C8.15,0,0,4.78,0,10.71c0,2.51,1.48,4.81,4,6.67a8,8,0,0,1-1.92-5c0-6.13,8-11.11,17.82-11.11C26.23,1.24,31.8,3.29,35,6.42,32.13,2.64,25.69,0,18.24,0Z" style="fill:#fff"/><path id="_Compound_Path_2" data-name="&lt;Compound Path&gt;" d="M16.63,13.73a3,3,0,0,0,1.79-.47,1.67,1.67,0,0,0,.79-1.5A5.47,5.47,0,0,0,18,8.38,7.45,7.45,0,0,0,15,6a7.53,7.53,0,0,0-2.9-.54A7.14,7.14,0,0,0,6.74,7.59a6.94,6.94,0,0,0-2.07,5.06,6.6,6.6,0,0,0,2.17,5,7.62,7.62,0,0,0,5.42,2,11.25,11.25,0,0,0,3.34-.49,5.44,5.44,0,0,0,2.77-1.65,1.91,1.91,0,0,0,.49-1.19c0-1-.58-1.55-1.74-1.55a8.16,8.16,0,0,0-2,.65,7.22,7.22,0,0,1-2.69.66,3.94,3.94,0,0,1-2.25-.62,2.34,2.34,0,0,1-1.06-1.78ZM10.12,9.4a3,3,0,0,1,2-.65A2.9,2.9,0,0,1,14,9.42a2.37,2.37,0,0,1,.89,1.7H9.12A2.93,2.93,0,0,1,10.12,9.4Z" style="fill:#d6d6d6"/><path id="_Compound_Path_3" data-name="&lt;Compound Path&gt;" d="M21.65,17.63A7.13,7.13,0,0,0,27,19.68a8.06,8.06,0,0,0,3.31-.6c1.23-.55,1.84-1.24,1.84-2a1.72,1.72,0,0,0-.47-1.22,1.62,1.62,0,0,0-1.24-.51,3.86,3.86,0,0,0-1.3.3,5,5,0,0,1-1.71.29,3.1,3.1,0,0,1-2.44-1,3.51,3.51,0,0,1-.76-2.37,3.65,3.65,0,0,1,.73-2.34,2.78,2.78,0,0,1,2.31-1A4.89,4.89,0,0,1,29,9.48a4.22,4.22,0,0,0,1.34.31,1.79,1.79,0,0,0,1.3-.5,1.58,1.58,0,0,0,.52-1.2c0-.93-.6-1.62-1.79-2.08a9,9,0,0,0-3.12-.49,7.53,7.53,0,0,0-5.48,2,6.76,6.76,0,0,0-2.06,5.11,6.83,6.83,0,0,0,1.95,5Z" style="fill:#d6d6d6"/><path id="_Compound_Path_4" data-name="&lt;Compound Path&gt;" d="M34.29,17.65a7.34,7.34,0,0,0,5.4,2.1,7.34,7.34,0,0,0,5.4-2.07,6.88,6.88,0,0,0,2-5.06,6.92,6.92,0,0,0-2-5.1,7.2,7.2,0,0,0-5.37-2,7.31,7.31,0,0,0-5.36,2.06,6.89,6.89,0,0,0-2.07,5.09,6.81,6.81,0,0,0,2,5Zm3.18-7.35a2.81,2.81,0,0,1,4.42,0,3.65,3.65,0,0,1,.7,2.27,3.74,3.74,0,0,1-.67,2.29A2.59,2.59,0,0,1,39.69,16a2.56,2.56,0,0,1-2.2-1.09,3.69,3.69,0,0,1-.7-2.29,3.77,3.77,0,0,1,.68-2.3Z" style="fill:#d6d6d6"/><path id="_Compound_Path_5" data-name="&lt;Compound Path&gt;" d="M53.26,5.13h2q3.09,0,3.09,2.34c0,1.59-1,2.39-3.09,2.39h-2Zm0,11.53V13.59h3A7.43,7.43,0,0,0,61.34,12a5.66,5.66,0,0,0,1.85-4.51,5.49,5.49,0,0,0-2-4.56,8,8,0,0,0-5.21-1.56H51.87A3.61,3.61,0,0,0,49.43,2a3,3,0,0,0-.68,2.24V16.65c0,1.93.75,2.9,2.25,2.9s2.26-1,2.26-2.89Z" style="fill:#fff"/><path id="_Compound_Path_6" data-name="&lt;Compound Path&gt;" d="M68.67,10.38a2.53,2.53,0,0,1,2.13-1,2.48,2.48,0,0,1,2.13,1,3.56,3.56,0,0,1,.65,2.19,3.65,3.65,0,0,1-.65,2.22,2.48,2.48,0,0,1-2.13,1,2.56,2.56,0,0,1-2.16-1A3.59,3.59,0,0,1,68,12.57a3.48,3.48,0,0,1,.7-2.19Zm7.19,9.17c1.45,0,2.17-1,2.17-2.91v-8c0-1.93-.72-2.89-2.17-2.89A2.34,2.34,0,0,0,73.77,7a4.58,4.58,0,0,0-3.53-1.44,6.32,6.32,0,0,0-5,2.22,7.11,7.11,0,0,0-1.85,4.86,7.12,7.12,0,0,0,1.77,4.81,6.17,6.17,0,0,0,4.88,2.22,4.71,4.71,0,0,0,3.69-1.5,2.18,2.18,0,0,0,2.09,1.4Z" style="fill:#fff"/><path id="_Compound_Path_7" data-name="&lt;Compound Path&gt;" d="M88.2,7.3l-2.68,6.36-2.5-6a4.83,4.83,0,0,0-.73-1.36,2,2,0,0,0-1.49-.56,2.21,2.21,0,0,0-1.54.56,1.88,1.88,0,0,0-.61,1.41A2.65,2.65,0,0,0,78.9,8.8l4.42,9.39-1.81,3.58a3.17,3.17,0,0,0-.36,1.35,1.74,1.74,0,0,0,.6,1.39,2.27,2.27,0,0,0,1.57.52c.78,0,1.42-.54,1.93-1.6L92,9a3.42,3.42,0,0,0,.35-1.38c0-1.27-.72-1.9-2.17-1.9-.83,0-1.47.52-1.93,1.58Z" style="fill:#fff"/><path id="_Compound_Path_8" data-name="&lt;Compound Path&gt;" d="M103.08,15.66H98.75l5.82-6.81a3,3,0,0,0,.89-1.75.93.93,0,0,0-.68-1,7.63,7.63,0,0,0-2.09-.21h-7c-1.87,0-2.8.6-2.8,1.8s.92,1.83,2.77,1.83h3.77l-6,7.07a2.34,2.34,0,0,0-.65,1.53c0,.83.77,1.24,2.3,1.24h8q2.76,0,2.76-1.83c0-1.25-.91-1.87-2.73-1.87Z" style="fill:#fff"/></g></g></g></svg>