<?xml version="1.0" encoding="UTF-8"?>
<!DOCTYPE svg PUBLIC "-//W3C//DTD SVG 1.1//EN" "http://www.w3.org/Graphics/SVG/1.1/DTD/svg11.dtd">
<!-- Creator: CorelDRAW X7 -->
<svg xmlns="http://www.w3.org/2000/svg" xml:space="preserve" width="600px" height="250px" version="1.1" style="shape-rendering:geometricPrecision; text-rendering:geometricPrecision; image-rendering:optimizeQuality; fill-rule:evenodd; clip-rule:evenodd"
viewBox="0 0 600 250"
 xmlns:xlink="http://www.w3.org/1999/xlink">
 <defs>
  <style type="text/css">
   <![CDATA[
    .fil3 {fill:white;fill-rule:nonzero}
    .fil2 {fill:url(#id0)}
    .fil1 {fill:url(#id1)}
    .fil0 {fill:url(#id2)}
   ]]>
  </style>
  <linearGradient id="id0" gradientUnits="userSpaceOnUse" x1="-0" y1="124.883" x2="124.882" y2="124.883">
   <stop offset="0" style="stop-opacity:1; stop-color:#8F8F8F"/>
   <stop offset="0.368627" style="stop-opacity:1; stop-color:#C7C7C7"/>
   <stop offset="0.678431" style="stop-opacity:1; stop-color:white"/>
   <stop offset="1" style="stop-opacity:1; stop-color:white"/>
  </linearGradient>
  <linearGradient id="id1" gradientUnits="userSpaceOnUse" x1="99.1714" y1="120.719" x2="114.843" y2="253.93">
   <stop offset="0" style="stop-opacity:1; stop-color:#8F8F8F"/>
   <stop offset="0.501961" style="stop-opacity:1; stop-color:#C7C7C7"/>
   <stop offset="0.219608" style="stop-opacity:1; stop-color:#8F8F8F"/>
   <stop offset="1" style="stop-opacity:1; stop-color:white"/>
  </linearGradient>
  <linearGradient id="id2" gradientUnits="userSpaceOnUse" xlink:href="#id1" x1="99.1714" y1="129.047" x2="114.843" y2="-4.16421">
  </linearGradient>
 </defs>
 <g id="Layer_x0020_1">
  <metadata id="CorelCorpID_0Corel-Layer"/>
  <path class="fil0" d="M214 48c0,0 -33,-48 -107,-48 -61,0 -107,34 -107,54 0,23 46,35 46,71l79 0c0,-21 -69,-32 -69,-77 0,-41 107,-38 158,0z"/>
  <path class="fil1" d="M214 202c0,0 -33,48 -107,48 -61,0 -107,-34 -107,-54 0,-23 46,-36 46,-71l79 0c0,21 -69,32 -69,77 0,41 107,38 158,0z"/>
  <path class="fil2" d="M1 47c-1,3 -1,5 -1,7 0,23 46,35 46,71 0,35 -46,48 -46,71 0,2 0,4 1,6 -6,-22 74,-41 111,-61 8,-5 13,-10 13,-16 0,-6 -5,-11 -13,-16 -37,-20 -117,-39 -111,-62z"/>
  <path class="fil3" d="M180 134l8 0c-1,4 -3,7 -7,9 -3,2 -7,4 -13,4 -6,0 -11,-2 -14,-6 -4,-3 -6,-8 -6,-15 0,-6 2,-11 6,-15 3,-3 8,-5 14,-5 7,0 12,2 16,5 3,4 5,9 5,15 0,1 0,1 0,1 0,1 0,1 0,1 0,1 0,1 0,1l-29 0c0,3 1,5 3,7 1,1 3,2 6,2 2,0 3,0 5,-1 0,0 0,0 1,0 0,-1 0,-1 1,-1 0,-1 0,-1 1,-1 1,-1 2,-1 3,-1zm-20 -12l17 0c0,-2 -1,-4 -2,-5 -2,-2 -4,-2 -6,-2 -3,0 -5,0 -6,2 -2,1 -3,3 -3,5zm78 24l-6 0c-1,0 -3,-1 -4,-2 -1,0 -1,-2 -1,-3l0 0 0 -20c0,-2 -1,-4 -3,-5 -1,-1 -3,-2 -5,-2 -2,0 -4,1 -5,2 -2,1 -2,3 -2,5l0 25 -12 0 0 -23c0,-7 2,-11 6,-13 4,-3 8,-4 13,-4 5,0 9,1 13,3 4,3 6,7 6,14l0 23zm40 -51l6 0c2,0 3,1 4,2 1,1 2,2 2,3l0 29c0,7 -3,12 -7,14 -5,2 -9,4 -15,4 -3,0 -5,-1 -8,-2 -3,0 -5,-2 -7,-4 -3,-3 -4,-8 -4,-14 0,-7 1,-12 4,-15 4,-4 8,-6 13,-6 3,0 5,1 7,2 2,1 4,2 5,4l0 -17zm-18 31c0,4 1,7 2,9 2,2 4,3 7,3 3,0 6,-1 7,-3 2,-2 2,-5 2,-9 0,-3 0,-6 -2,-8 -2,-2 -4,-3 -7,-3 -3,0 -5,1 -7,3 -1,2 -2,5 -2,8zm47 16c-3,-1 -4,-4 -5,-7 -1,-3 -2,-6 -2,-9 0,-3 1,-5 1,-8 1,-3 2,-5 4,-7 3,-2 7,-4 11,-5 5,0 9,0 12,1 5,2 8,4 10,8 2,3 2,7 2,11 0,3 0,6 -1,8 0,2 -1,4 -3,6 -2,3 -6,5 -10,6 -3,1 -7,1 -11,0 -3,-1 -6,-2 -8,-4zm7 -25c-2,2 -3,5 -3,10 1,4 1,7 3,9 1,1 2,1 4,2 1,0 3,0 5,0 1,0 3,-1 4,-3 1,-2 2,-5 2,-9 0,-3 0,-6 -2,-8 -1,-1 -2,-3 -4,-3 -2,-1 -3,-1 -5,0 -2,0 -3,1 -4,2zm38 29l0 -19c0,-4 0,-7 2,-10 1,-2 3,-4 5,-6 2,-1 4,-2 7,-3 3,-1 6,-1 9,-1 0,0 0,0 1,0 0,0 0,0 0,0l0 10 -3 0c-4,0 -6,1 -7,2 -2,2 -3,4 -3,7l0 20 -11 0zm46 9c0,2 0,3 -1,4 -2,1 -3,1 -4,1l-6 0 0 -36c0,-7 2,-12 7,-14 4,-3 9,-4 14,-4 3,0 6,1 9,1 3,1 5,3 6,4 4,4 5,9 5,15 0,6 -1,11 -5,15 -3,4 -7,6 -12,6 -3,0 -5,-1 -8,-2 -2,-1 -3,-2 -5,-4l0 14zm19 -28c0,-4 -1,-7 -2,-9 -2,-2 -4,-3 -8,-3 -3,0 -5,1 -6,3 -2,2 -3,5 -3,9 0,3 1,6 3,8 1,2 4,3 7,3 3,0 5,-1 7,-3 1,-2 2,-5 2,-8zm50 -9c-1,-2 -4,-3 -6,-3 -4,0 -6,1 -8,3 -1,2 -2,4 -2,8l0 20 -11 0 0 -50 5 0c2,0 3,0 4,1 1,1 2,2 2,3l0 12c2,-3 5,-5 8,-5 4,-1 7,-1 11,0 3,1 5,3 7,6 3,2 4,6 4,10l0 23 -11 0 0 -20c0,-2 -1,-3 -1,-4 0,-2 -1,-3 -2,-4zm26 -11l6 0c1,0 3,0 4,1 1,1 2,3 2,4l0 34 -12 0 0 -39zm0 -11l6 0c1,0 3,0 4,1 1,1 2,2 2,3l0 4 -12 0 0 -8zm60 50l-6 0c-2,0 -3,-1 -4,-2 -1,0 -2,-2 -2,-3l0 0 0 -20c0,-2 0,-4 -2,-5 -2,-1 -3,-2 -5,-2 -2,0 -4,1 -6,2 -1,1 -2,3 -2,5l0 25 -11 0 0 -23c0,-7 1,-11 5,-13 4,-3 9,-4 13,-4 5,0 10,1 14,3 4,3 6,7 6,14l0 23zm36 -20c-1,1 -3,2 -6,2 -3,1 -4,1 -4,1 -2,0 -3,1 -4,2 -1,1 -1,2 -1,3 0,1 0,3 1,4 1,0 3,1 4,1 4,0 6,-1 8,-3 1,-1 2,-3 2,-6l0 -4zm3 18c-2,1 -5,2 -7,2 -3,0 -5,1 -7,1 -4,0 -8,-1 -11,-3 -3,-2 -4,-5 -4,-10 0,-4 1,-7 4,-8 3,-2 6,-3 10,-4 1,0 1,0 2,0 1,0 2,0 3,-1 5,0 7,-1 7,-3 0,-2 -1,-3 -2,-3 -2,-1 -4,-1 -5,-1 -2,0 -3,0 -4,1 -1,0 -2,1 -3,2l-11 0c1,-3 2,-6 5,-8 3,-2 7,-3 12,-3 7,0 11,1 14,3 3,2 5,5 5,8l0 13c0,4 -1,7 -2,10 -2,2 -4,3 -6,4z"/>
 </g>
</svg>
