<?xml version="1.0" encoding="UTF-8"?>
<svg width="126px" height="20px" viewBox="0 0 126 20" version="1.1" xmlns="http://www.w3.org/2000/svg" xmlns:xlink="http://www.w3.org/1999/xlink">
    <!-- Generator: Sketch 51.3 (57544) - http://www.bohemiancoding.com/sketch -->
    <title>etr_w_co</title>
    <desc>Created with Sketch.</desc>
    <defs></defs>
    <g id="Page-1" stroke="none" stroke-width="1" fill="none" fill-rule="evenodd">
        <g id="etr_w_co">
            <g id="etr_co" fill="#FFFFFF">
                <g id="Group-4">
                    <path d="M61.3923091,8.40552007 L61.3923091,5.43188725 L60.3302973,5.43188725 L60.3302973,4.8264185 L63.1745356,4.8264185 L63.1745356,5.43188725 L62.1149653,5.43188725 L62.1149653,8.40552007 L61.3923091,8.40552007 Z M64.2926997,8.40552007 L63.6066645,8.40552007 L63.6066645,5.81274663 L64.2438716,5.81274663 L64.2438716,6.18139897 C64.3529216,6.00724446 64.4509838,5.89249951 64.538061,5.83716069 C64.6251383,5.78182187 64.7240142,5.75415288 64.8346919,5.75415288 C64.9909427,5.75415288 65.1414945,5.79728396 65.286352,5.88354741 L65.0739497,6.48169194 C64.9583892,6.40682178 64.8509684,6.36938725 64.7516841,6.36938725 C64.6556549,6.36938725 64.5742755,6.39583556 64.5075434,6.44873296 C64.4408113,6.50163036 64.3883216,6.59725115 64.3500727,6.73559819 C64.3118238,6.87394524 64.2926997,7.16365588 64.2926997,7.60473882 L64.2926997,8.40552007 Z M66.0944575,6.60376225 L65.4718989,6.49145757 C65.5418862,6.24080527 65.6623277,6.05526025 65.833227,5.93481694 C66.0041263,5.81437363 66.25803,5.75415288 66.5949458,5.75415288 C66.9009369,5.75415288 67.1287992,5.79036671 67.2785395,5.86279546 C67.4282799,5.93522421 67.5336662,6.02718292 67.5947016,6.13867436 C67.6557371,6.25016581 67.6862544,6.45483498 67.6862544,6.75268804 L67.6789302,7.55346929 C67.6789302,7.78133501 67.6899164,7.94938346 67.7118891,8.05761968 C67.7338619,8.16585589 67.7749585,8.28182153 67.8351802,8.40552007 L67.1564692,8.40552007 C67.1385655,8.35994692 67.1165931,8.29240203 67.0905513,8.20288335 C67.079158,8.16219304 67.07102,8.13533784 67.0661372,8.12231694 C66.9489491,8.2362498 66.8236248,8.32169817 66.6901606,8.3786646 C66.5566964,8.43563103 66.4142825,8.46411382 66.2629145,8.46411382 C65.9959861,8.46411382 65.7856204,8.39168616 65.631811,8.24682866 C65.4780017,8.10197117 65.4010981,7.91886753 65.4010981,7.69751225 C65.4010981,7.55102715 65.4360913,7.42041322 65.5060786,7.30566655 C65.5760659,7.19091988 65.6741281,7.10303014 65.8002681,7.04199468 C65.926408,6.98095922 66.108291,6.92765571 66.3459223,6.88208257 C66.666562,6.82186091 66.8887277,6.76570913 67.0124263,6.71362554 L67.0124263,6.64526616 C67.0124263,6.51342956 66.9798745,6.41943636 66.91477,6.36328374 C66.8496655,6.30713111 66.7267826,6.27905522 66.5461177,6.27905522 C66.4240467,6.27905522 66.3288328,6.30306214 66.2604731,6.35107671 C66.1921134,6.39909127 66.1367754,6.48331894 66.0944575,6.60376225 Z M67.0124263,7.16040288 C66.9245352,7.1896999 66.7853764,7.22469304 66.5949458,7.26538335 C66.4045151,7.30607366 66.2800047,7.34594956 66.2214106,7.38501225 C66.131892,7.44848913 66.0871333,7.52905474 66.0871333,7.62671147 C66.0871333,7.7227406 66.1229402,7.80574758 66.1945552,7.87573491 C66.2661701,7.94572224 66.357315,7.98071538 66.4679927,7.98071538 C66.5916912,7.98071538 66.7096913,7.94002568 66.8219966,7.85864507 C66.9050048,7.7967958 66.959529,7.72111296 66.9855708,7.63159429 C67.0034745,7.57300024 67.0124263,7.46151047 67.0124263,7.29712163 L67.0124263,7.16040288 Z M70.7404536,8.40552007 L70.1032466,8.40552007 L70.1032466,8.02466069 C69.9974518,8.17277341 69.8725344,8.28304249 69.7284907,8.35547124 C69.584447,8.42789999 69.4391848,8.46411382 69.2926997,8.46411382 C68.9948466,8.46411382 68.7397222,8.34407921 68.5273188,8.1040064 C68.3149154,7.86393358 68.2087153,7.52905737 68.2087153,7.09936772 C68.2087153,6.6599124 68.3120671,6.32584999 68.5187739,6.09717046 C68.7254807,5.86849093 68.9867085,5.75415288 69.3024653,5.75415288 C69.5921803,5.75415288 69.8428288,5.87459438 70.0544184,6.115481 L70.0544184,4.8264185 L70.7404536,4.8264185 L70.7404536,8.40552007 Z M68.9093989,7.052981 C68.9093989,7.3296751 68.9476472,7.52986841 69.024145,7.65356694 C69.1348226,7.8326043 69.2894435,7.92212163 69.4880122,7.92212163 C69.6458906,7.92212163 69.7801666,7.85498363 69.8908442,7.72070561 C70.0015219,7.5864276 70.0568598,7.38582739 70.0568598,7.11889897 C70.0568598,6.82104592 70.0031494,6.60661122 69.895727,6.47558843 C69.7883046,6.34456564 69.6507734,6.27905522 69.4831294,6.27905522 C69.3203681,6.27905522 69.1840577,6.34375184 69.0741938,6.47314702 C68.96433,6.6025422 68.9093989,6.79581826 68.9093989,7.052981 Z M72.918188,7.58032475 L73.6017817,7.69507085 C73.5138907,7.94572314 73.3751388,8.13655782 73.185522,8.26758061 C72.9959051,8.3986034 72.7586842,8.46411382 72.473852,8.46411382 C72.0230034,8.46411382 71.6893479,8.31681711 71.4728755,8.02221929 C71.3019762,7.7862155 71.2165278,7.48836692 71.2165278,7.1286646 C71.2165278,6.69897495 71.3288314,6.36247115 71.5534419,6.11914311 C71.7780524,5.87581507 72.0620665,5.75415288 72.4054927,5.75415288 C72.7912368,5.75415288 73.0955957,5.88151163 73.3185786,6.13623296 C73.5415615,6.39095428 73.6481685,6.78116848 73.6384028,7.30688725 L71.9196528,7.30688725 C71.9245357,7.51033879 71.9798736,7.66862172 72.0856684,7.78174077 C72.1914632,7.89485983 72.3232979,7.9514185 72.4811763,7.9514185 C72.5885987,7.9514185 72.6789298,7.92212192 72.7521723,7.86352788 C72.8254149,7.80493384 72.8807529,7.71053374 72.918188,7.58032475 Z M72.9572505,6.88696538 C72.9523676,6.68839668 72.9010986,6.5374379 72.8034419,6.43408452 C72.7057851,6.33073114 72.5869712,6.27905522 72.4469966,6.27905522 C72.2972562,6.27905522 72.1735596,6.33357942 72.0759028,6.44262944 C71.9782461,6.55167947 71.9302322,6.69978996 71.9318598,6.88696538 L72.9572505,6.88696538 Z M74.1193598,7.45093022 L74.1193598,6.76489507 L75.4670161,6.76489507 L75.4670161,7.45093022 L74.1193598,7.45093022 Z M75.8112544,5.81274663 L76.4435786,5.81274663 L76.4435786,6.16675054 C76.6698167,5.89168406 76.9391825,5.75415288 77.2516841,5.75415288 C77.4177005,5.75415288 77.561742,5.78833223 77.683813,5.85669194 C77.8058839,5.92505166 77.9059806,6.02840349 77.9841059,6.16675054 C78.0980388,6.02840349 78.2209217,5.92505166 78.3527583,5.85669194 C78.4845949,5.78833223 78.6253812,5.75415288 78.7751216,5.75415288 C78.9655522,5.75415288 79.1266834,5.79280809 79.25852,5.87011968 C79.3903566,5.94743126 79.4888257,6.06095552 79.5539302,6.21069585 C79.6011309,6.32137349 79.6247309,6.50040815 79.6247309,6.74780522 L79.6247309,8.40552007 L78.9386958,8.40552007 L78.9386958,6.92358647 C78.9386958,6.66642373 78.9150958,6.50040976 78.867895,6.4255396 C78.8044181,6.32788286 78.7067629,6.27905522 78.5749263,6.27905522 C78.4788971,6.27905522 78.388566,6.30835181 78.3039302,6.36694585 C78.2192943,6.42553989 78.1582598,6.51139515 78.1208247,6.62451421 C78.0833896,6.73763326 78.0646723,6.91626103 78.0646723,7.16040288 L78.0646723,8.40552007 L77.3786372,8.40552007 L77.3786372,6.98462163 C77.3786372,6.73234172 77.3664303,6.56958293 77.3420161,6.49634038 C77.3176019,6.42309783 77.2797605,6.36857363 77.2284907,6.33276616 C77.1772209,6.29695869 77.1076415,6.27905522 77.0197505,6.27905522 C76.9139557,6.27905522 76.8187418,6.30753801 76.7341059,6.36450444 C76.6494701,6.42147087 76.5888425,6.50366406 76.5522212,6.61108647 C76.5155999,6.71850889 76.4972895,6.89672976 76.4972895,7.14575444 L76.4972895,8.40552007 L75.8112544,8.40552007 L75.8112544,5.81274663 Z M80.82102,6.60376225 L80.1984614,6.49145757 C80.2684487,6.24080527 80.3888902,6.05526025 80.5597895,5.93481694 C80.7306888,5.81437363 80.9845925,5.75415288 81.3215083,5.75415288 C81.6274994,5.75415288 81.8553617,5.79036671 82.005102,5.86279546 C82.1548424,5.93522421 82.2602287,6.02718292 82.3212641,6.13867436 C82.3822996,6.25016581 82.4128169,6.45483498 82.4128169,6.75268804 L82.4054927,7.55346929 C82.4054927,7.78133501 82.4164789,7.94938346 82.4384516,8.05761968 C82.4604244,8.16585589 82.501521,8.28182153 82.5617427,8.40552007 L81.8830317,8.40552007 C81.865128,8.35994692 81.8431556,8.29240203 81.8171138,8.20288335 C81.8057205,8.16219304 81.7975825,8.13533784 81.7926997,8.12231694 C81.6755116,8.2362498 81.5501873,8.32169817 81.4167231,8.3786646 C81.2832589,8.43563103 81.140845,8.46411382 80.989477,8.46411382 C80.7225486,8.46411382 80.5121829,8.39168616 80.3583735,8.24682866 C80.2045642,8.10197117 80.1276606,7.91886753 80.1276606,7.69751225 C80.1276606,7.55102715 80.1626538,7.42041322 80.2326411,7.30566655 C80.3026284,7.19091988 80.4006906,7.10303014 80.5268306,7.04199468 C80.6529705,6.98095922 80.8348535,6.92765571 81.0724848,6.88208257 C81.3931245,6.82186091 81.6152902,6.76570913 81.7389888,6.71362554 L81.7389888,6.64526616 C81.7389888,6.51342956 81.706437,6.41943636 81.6413325,6.36328374 C81.576228,6.30713111 81.4533451,6.27905522 81.2726802,6.27905522 C81.1506092,6.27905522 81.0553953,6.30306214 80.9870356,6.35107671 C80.9186759,6.39909127 80.8633379,6.48331894 80.82102,6.60376225 Z M81.7389888,7.16040288 C81.6510977,7.1896999 81.5119389,7.22469304 81.3215083,7.26538335 C81.1310776,7.30607366 81.0065672,7.34594956 80.9479731,7.38501225 C80.8584545,7.44848913 80.8136958,7.52905474 80.8136958,7.62671147 C80.8136958,7.7227406 80.8495027,7.80574758 80.9211177,7.87573491 C80.9927326,7.94572224 81.0838775,7.98071538 81.1945552,7.98071538 C81.3182537,7.98071538 81.4362538,7.94002568 81.5485591,7.85864507 C81.6315673,7.7967958 81.6860915,7.72111296 81.7121333,7.63159429 C81.730037,7.57300024 81.7389888,7.46151047 81.7389888,7.29712163 L81.7389888,7.16040288 Z M83.7458247,8.40552007 L83.0597895,8.40552007 L83.0597895,5.81274663 L83.6969966,5.81274663 L83.6969966,6.18139897 C83.8060466,6.00724446 83.9041088,5.89249951 83.991186,5.83716069 C84.0782633,5.78182187 84.1771392,5.75415288 84.2878169,5.75415288 C84.4440677,5.75415288 84.5946195,5.79728396 84.739477,5.88354741 L84.5270747,6.48169194 C84.4115142,6.40682178 84.3040934,6.36938725 84.2048091,6.36938725 C84.1087799,6.36938725 84.0274005,6.39583556 83.9606684,6.44873296 C83.8939363,6.50163036 83.8414466,6.59725115 83.8031977,6.73559819 C83.7649488,6.87394524 83.7458247,7.16365588 83.7458247,7.60473882 L83.7458247,8.40552007 Z M85.0104731,8.40552007 L85.0104731,4.8264185 L85.6965083,4.8264185 L85.6965083,6.72583257 L86.4997309,5.81274663 L87.3444575,5.81274663 L86.458227,6.76001225 L87.4079341,8.40552007 L86.668188,8.40552007 L86.0163325,7.24096929 L85.6965083,7.57544194 L85.6965083,8.40552007 L85.0104731,8.40552007 Z M89.0461177,7.07251225 C89.0461177,6.84464653 89.1022694,6.62410837 89.2145747,6.41089116 C89.3268799,6.19767395 89.4859767,6.03491516 89.6918696,5.92260991 C89.8977626,5.81030466 90.1276594,5.75415288 90.3815669,5.75415288 C90.7738214,5.75415288 91.0952701,5.88151163 91.3459223,6.13623296 C91.5965746,6.39095428 91.7218989,6.71280979 91.7218989,7.10180913 C91.7218989,7.4940637 91.595354,7.81917438 91.3422602,8.07715093 C91.0891665,8.33512748 90.7705662,8.46411382 90.3864497,8.46411382 C90.1488183,8.46411382 89.9221767,8.41040342 89.7065181,8.302981 C89.4908594,8.19555859 89.3268799,8.03808946 89.2145747,7.8305689 C89.1022694,7.62304833 89.0461177,7.37036531 89.0461177,7.07251225 Z M89.7492427,7.10913335 C89.7492427,7.36629609 89.8102772,7.56323423 89.9323481,7.69995366 C90.0544191,7.83667309 90.2049709,7.90503179 90.3840083,7.90503179 C90.5630456,7.90503179 90.7131906,7.83667309 90.8344477,7.69995366 C90.9557049,7.56323423 91.0163325,7.3646685 91.0163325,7.10425054 C91.0163325,6.85034302 90.9557049,6.65503247 90.8344477,6.51831304 C90.7131906,6.3815936 90.5630456,6.31323491 90.3840083,6.31323491 C90.2049709,6.31323491 90.0544191,6.3815936 89.9323481,6.51831304 C89.8102772,6.65503247 89.7492427,6.8519706 89.7492427,7.10913335 Z M91.9587153,5.81274663 L92.3395747,5.81274663 L92.3395747,5.61743413 C92.3395747,5.39933408 92.3627678,5.23657529 92.4091548,5.12915288 C92.4555417,5.02173047 92.5409901,4.93424762 92.6655024,4.86670171 C92.7900148,4.7991558 92.9474839,4.76538335 93.1379145,4.76538335 C93.333228,4.76538335 93.5244696,4.79467993 93.711645,4.85327397 L93.6188716,5.3317896 C93.5098215,5.3057478 93.4048421,5.2927271 93.3039302,5.2927271 C93.2046458,5.2927271 93.1334388,5.31592023 93.0903071,5.36230718 C93.0471754,5.40869413 93.0256098,5.49780456 93.0256098,5.62964116 L93.0256098,5.81274663 L93.5383052,5.81274663 L93.5383052,6.35229741 L93.0256098,6.35229741 L93.0256098,8.40552007 L92.3395747,8.40552007 L92.3395747,6.35229741 L91.9587153,6.35229741 L91.9587153,5.81274663 Z M95.2961177,8.40552007 L95.2961177,4.8264185 L96.0187739,4.8264185 L96.0187739,8.40552007 L95.2961177,8.40552007 Z M99.0607661,8.40552007 L98.3747309,8.40552007 L98.3747309,7.08227788 C98.3747309,6.80232856 98.3600826,6.62125941 98.3307856,6.53906499 C98.3014886,6.45687057 98.2538817,6.39298774 98.1879634,6.3474146 C98.1220451,6.30184145 98.0427002,6.27905522 97.9499263,6.27905522 C97.8311106,6.27905522 97.7245035,6.31160698 97.630102,6.37671147 C97.5357005,6.44181597 97.4710039,6.52807812 97.4360102,6.63550054 C97.4010166,6.74292295 97.38352,6.94148867 97.38352,7.23120366 L97.38352,8.40552007 L96.6974848,8.40552007 L96.6974848,5.81274663 L97.3346919,5.81274663 L97.3346919,6.193606 C97.56093,5.90063579 97.8457579,5.75415288 98.1891841,5.75415288 C98.340552,5.75415288 98.478897,5.78141498 98.6042231,5.83593999 C98.7295493,5.890465 98.8243563,5.96004438 98.888647,6.04468022 C98.9529376,6.12931606 98.9976963,6.22534375 99.0229243,6.33276616 C99.0481523,6.44018857 99.0607661,6.59399563 99.0607661,6.79419194 L99.0607661,8.40552007 Z M100.945532,5.81274663 L100.945532,6.35962163 L100.476782,6.35962163 L100.476782,7.4045435 C100.476782,7.6161331 100.481258,7.73942289 100.490209,7.77441655 C100.499161,7.80941022 100.519506,7.8382999 100.551245,7.86108647 C100.582983,7.88387305 100.621638,7.89526616 100.667211,7.89526616 C100.730688,7.89526616 100.822647,7.87329372 100.94309,7.82934819 L101.001684,8.36157475 C100.842178,8.42993447 100.661516,8.46411382 100.459692,8.46411382 C100.335993,8.46411382 100.224504,8.44336207 100.125219,8.40185796 C100.025935,8.36035384 99.9531003,8.30664344 99.9067134,8.24072515 C99.8603264,8.17480685 99.8281816,8.08569641 99.8102778,7.97339116 C99.7956293,7.89363816 99.7883052,7.73250696 99.7883052,7.48999272 L99.7883052,6.35962163 L99.4733638,6.35962163 L99.4733638,5.81274663 L99.7883052,5.81274663 L99.7883052,5.29760991 L100.476782,4.89721929 L100.476782,5.81274663 L100.945532,5.81274663 Z M102.923071,7.58032475 L103.606665,7.69507085 C103.518773,7.94572314 103.380022,8.13655782 103.190405,8.26758061 C103.000788,8.3986034 102.763567,8.46411382 102.478735,8.46411382 C102.027886,8.46411382 101.694231,8.31681711 101.477758,8.02221929 C101.306859,7.7862155 101.221411,7.48836692 101.221411,7.1286646 C101.221411,6.69897495 101.333714,6.36247115 101.558325,6.11914311 C101.782935,5.87581507 102.066949,5.75415288 102.410375,5.75415288 C102.79612,5.75415288 103.100479,5.88151163 103.323461,6.13623296 C103.546444,6.39095428 103.653051,6.78116848 103.643286,7.30688725 L101.924536,7.30688725 C101.929418,7.51033879 101.984756,7.66862172 102.090551,7.78174077 C102.196346,7.89485983 102.328181,7.9514185 102.486059,7.9514185 C102.593481,7.9514185 102.683813,7.92212192 102.757055,7.86352788 C102.830298,7.80493384 102.885636,7.71053374 102.923071,7.58032475 Z M102.962133,6.88696538 C102.95725,6.68839668 102.905981,6.5374379 102.808325,6.43408452 C102.710668,6.33073114 102.591854,6.27905522 102.451879,6.27905522 C102.302139,6.27905522 102.178442,6.33357942 102.080786,6.44262944 C101.983129,6.55167947 101.935115,6.69978996 101.936743,6.88696538 L102.962133,6.88696538 Z M104.859106,8.40552007 L104.173071,8.40552007 L104.173071,5.81274663 L104.810278,5.81274663 L104.810278,6.18139897 C104.919328,6.00724446 105.01739,5.89249951 105.104467,5.83716069 C105.191545,5.78182187 105.29042,5.75415288 105.401098,5.75415288 C105.557349,5.75415288 105.707901,5.79728396 105.852758,5.88354741 L105.640356,6.48169194 C105.524795,6.40682178 105.417375,6.36938725 105.31809,6.36938725 C105.222061,6.36938725 105.140682,6.39583556 105.07395,6.44873296 C105.007218,6.50163036 104.954728,6.59725115 104.916479,6.73559819 C104.87823,6.87394524 104.859106,7.16365588 104.859106,7.60473882 L104.859106,8.40552007 Z M106.660864,6.60376225 L106.038305,6.49145757 C106.108292,6.24080527 106.228734,6.05526025 106.399633,5.93481694 C106.57@Ê
j¿U  @Ê
j¿U                  ûj¿U          `"j¿U  ¨Ê
j¿U          `Ê
j¿U   @      `Ê
j¿U           107.844946,5.86279546 C107.994686,5.93522421 108.100072,6.02718292 108.161108,6.13867436 C108.222143,6.25016581 108.252661,6.45483498 108.252661,6.75268804 L108.245336,7.55346929 C108.245336,7.78133501 108.256323,7.94938346 108.278295,8.05761968 C108.300268,8.16585589 108.341365,8.28182153 108.401586,8.40552007 L107.722875,8.40552007 C107.704972,8.35994692 107.682999,8.29240203 107.656958,8.20288335 C107.645564,8.16219304 107.637426,8.13533784 107.632543,8.12231694 C107.515355,8.2362498 107.390031,8.32169817 107.256567,8.3786646 C107.123103,8.43563103 106.980689,8.46411382 106.829321,8.46411382 C106.562392,8.46411382 106.352027,8.39168616 106.198217,8.24682866 C106.044408,8.10197117 105.967504,7.91886753 105.967504,7.69751225 C105.967504,7.55102715 106.002498,7.42041322 106.072485,7.30566655 C106.142472,7.19091988 106.240534,7.10303014 106.366674,7.04199468 C106.492814,6.98095922 106.674697,6.92765571 106.912329,6.88208257 C107.232968,6.82186091 107.455134,6.76570913 107.578833,6.71362554 L107.578833,6.64526616 C107.578833,6.51342956 107.546281,6.41943636 107.481176,6.36328374 C107.416072,6.30713111 107.293189,6.27905522 107.112524,6.27905522 C106.990453,6.27905522 106.895239,6.30306214 106.826879,6.35107671 C106.75852,6.39909127 106.703182,6.48331894 106.660864,6.60376225 Z M107.578833,7.16040288 C107.490941,7.1896999 107.351783,7.22469304 107.161352,7.26538335 C106.970921,7.30607366 106.846411,7.34594956 106.787817,7.38501225 C106.698298,7.44848913 106.65354,7.52905474 106.65354,7.62671147 C106.65354,7.7227406 106.689346,7.80574758 106.760961,7.87573491 C106.832576,7.94572224 106.923721,7.98071538 107.034399,7.98071538 C107.158097,7.98071538 107.276098,7.94002568 107.388403,7.85864507 C107.471411,7.7967958 107.525935,7.72111296 107.551977,7.63159429 C107.569881,7.57300024 107.578833,7.46151047 107.578833,7.29712163 L107.578833,7.16040288 Z M111.189672,6.57934819 L110.513403,6.7014185 C110.490616,6.56632668 110.43894,6.46460244 110.358374,6.39624272 C110.277807,6.32788301 110.173234,6.29370366 110.044653,6.29370366 C109.873754,6.29370366 109.737443,6.35270372 109.635717,6.47070561 C109.533992,6.58870751 109.483129,6.78605254 109.483129,7.06274663 C109.483129,7.37036536 109.534805,7.58764834 109.638159,7.7146021 C109.741512,7.84155586 109.880264,7.90503179 110.054418,7.90503179 C110.184627,7.90503179 110.291234,7.86800416 110.374243,7.7939478 C110.457251,7.71989144 110.515844,7.59253269 110.550024,7.41186772 L111.223852,7.52661382 C111.153865,7.83586016 111.019589,8.06941902 110.82102,8.22729741 C110.622451,8.3851758 110.356341,8.46411382 110.02268,8.46411382 C109.643446,8.46411382 109.341122,8.34448611 109.115698,8.1052271 C108.890273,7.86596809 108.777563,7.53475395 108.777563,7.11157475 C108.777563,6.68351272 108.89068,6.3502641 109.116918,6.1118189 C109.343157,5.87337369 109.649143,5.75415288 110.034887,5.75415288 C110.350644,5.75415288 110.601699,5.82210467 110.788061,5.9580103 C110.974423,6.09391593 111.108292,6.30102649 111.189672,6.57934819 Z M115.393774,7.0896021 L116.094458,7.31177007 C115.987035,7.70239702 115.808407,7.99251456 115.558569,8.1821314 C115.30873,8.37174823 114.991758,8.46655522 114.607641,8.46655522 C114.132378,8.46655522 113.741757,8.30420333 113.435766,7.97949468 C113.129775,7.65478602 112.976782,7.21086142 112.976782,6.64770757 C112.976782,6.05200146 113.130589,5.58935961 113.438208,5.25976811 C113.745826,4.93017662 114.150282,4.76538335 114.651586,4.76538335 C115.089414,4.76538335 115.445042,4.89477659 115.718481,5.15356694 C115.881242,5.3065625 116.003311,5.52628686 116.084692,5.81274663 L115.36936,5.98364507 C115.327042,5.79809726 115.238745,5.65161435 115.104467,5.54419194 C114.970189,5.43676953 114.807024,5.38305913 114.614965,5.38305913 C114.349665,5.38305913 114.134416,5.47827302 113.969213,5.66870366 C113.804011,5.8591343 113.721411,6.16756221 113.721411,6.59399663 C113.721411,7.04647285 113.80279,7.36873525 113.965551,7.5607935 C114.128312,7.75285176 114.339899,7.84887944 114.600317,7.84887944 C114.792375,7.84887944 114.957575,7.7878449 115.095922,7.66577397 C115.234269,7.54370305 115.333552,7.35164768 115.393774,7.0896021 Z M116.551,7.07251225 C116.551,6.84464653 116.607152,6.62410837 116.719458,6.41089116 C116.831763,6.19767395 116.990859,6.03491516 117.196752,5.92260991 C117.402645,5.81030466 117.632542,5.75415288 117.88645,5.75415288 C118.278704,5.75415288 118.600153,5.88151163 118.850805,6.13623296 C119.101457,6.39095428 119.226782,6.71280979 119.226782,7.10180913 C119.226782,7.4940637 119.100237,7.81917438 118.847143,8.07715093 C118.594049,8.33512748 118.275449,8.46411382 117.891333,8.46411382 C117.653701,8.46411382 117.427059,8.41040342 117.211401,8.302981 C116.995742,8.19555859 116.831763,8.03808946 116.719458,7.8305689 C116.607152,7.62304833 116.551,7.37036531 116.551,7.07251225 Z M117.254125,7.10913335 C117.254125,7.36629609 117.31516,7.56323423 117.437231,7.69995366 C117.559302,7.83667309 117.709854,7.90503179 117.888891,7.90503179 C118.067928,7.90503179 118.218073,7.83667309 118.339331,7.69995366 C118.460588,7.56323423 118.521215,7.3646685 118.521215,7.10425054 C118.521215,6.85034302 118.460588,6.65503247 118.339331,6.51831304 C118.218073,6.3815936 118.067928,6.31323491 117.888891,6.31323491 C117.709854,6.31323491 117.559302,6.3815936 117.437231,6.51831304 C117.31516,6.65503247 117.254125,6.8519706 117.254125,7.10913335 Z M120.420629,8.40552007 L119.734594,8.40552007 L119.734594,5.81274663 L120.371801,5.81274663 L120.371801,6.18139897 C120.480851,6.00724446 120.578913,5.89249951 120.665991,5.83716069 C120.753068,5.78182187 120.851944,5.75415288 120.962622,5.75415288 C121.118872,5.75415288 121.269424,5.79728396 121.414282,5.88354741 L121.201879,6.48169194 C121.086319,6.40682178 120.978898,6.36938725 120.879614,6.36938725 C120.783585,6.36938725 120.702205,6.39583556 120.635473,6.44873296 C120.568741,6.50163036 120.516251,6.59725115 120.478002,6.73559819 C120.439754,6.87394524 120.420629,7.16365588 120.420629,7.60473882 L120.420629,8.40552007 Z M121.690161,5.81274663 L122.329809,5.81274663 L122.329809,6.193606 C122.412817,6.06339702 122.525121,5.95760381 122.666723,5.87622319 C122.808325,5.79484258 122.965388,5.75415288 123.137915,5.75415288 C123.439023,5.75415288 123.694554,5.872153 123.904516,6.10815679 C124.114478,6.34416057 124.219458,6.67293332 124.219458,7.09448491 C124.219458,7.52742978 124.113664,7.86393358 123.902075,8.1040064 C123.690485,8.34407921 123.43414,8.46411382 123.133032,8.46411382 C122.989802,8.46411382 122.860002,8.43563103 122.743627,8.3786646 C122.627253,8.32169817 122.504777,8.22404289 122.376196,8.08569585 L122.376196,9.39184819 L121.690161,9.39184819 L121.690161,5.81274663 Z M122.368872,7.06518804 C122.368872,7.35653064 122.426651,7.57177914 122.542211,7.71093999 C122.657772,7.85010084 122.798558,7.91968022 122.964575,7.91968022 C123.124081,7.91968022 123.256729,7.8557974 123.362524,7.72802983 C123.468319,7.60026227 123.521215,7.39071033 123.521215,7.09936772 C123.521215,6.82755647 123.466691,6.62573557 123.357641,6.49389897 C123.248591,6.36206238 123.113501,6.29614507 122.952368,6.29614507 C122.784724,6.29614507 122.645565,6.36084169 122.534887,6.49023686 C122.42421,6.61963204 122.368872,6.81128052 122.368872,7.06518804 Z M124.763891,8.40552007 L124.763891,7.71948491 L125.449926,7.71948491 L125.449926,8.40552007 L124.763891,8.40552007 Z M60.5817622,10.8264185 L61.3044184,10.8264185 L61.3044184,12.7648951 C61.3044184,13.0725138 61.3133702,13.2718933 61.3312739,13.3630396 C61.3621985,13.5095247 61.4358469,13.6271179 61.5522212,13.7158228 C61.6685955,13.8045277 61.8276922,13.8488794 62.0295161,13.8488794 C62.2345952,13.8488794 62.3892161,13.8069691 62.4933833,13.723147 C62.5975505,13.639325 62.6602126,13.5363801 62.6813716,13.4143091 C62.7025305,13.2922382 62.7131098,13.0896035 62.7131098,12.806399 L62.7131098,10.8264185 L63.4357661,10.8264185 L63.4357661,12.7063013 C63.4357661,13.135991 63.416235,13.4395361 63.3771723,13.6169458 C63.3381097,13.7943556 63.2660889,13.9440937 63.1611079,14.0661646 C63.0561269,14.1882355 62.9157474,14.2854839 62.7399653,14.3579126 C62.5641832,14.4303414 62.3346933,14.4665552 62.0514888,14.4665552 C61.7096902,14.4665552 61.4504968,14.4270862 61.2739009,14.348147 C61.0973049,14.2692078 60.9577393,14.1666698 60.8551997,14.0405298 C60.7526601,13.9143899 60.6851152,13.7821484 60.652563,13.6438013 C60.6053622,13.4387222 60.5817622,13.1359908 60.5817622,12.7355982 L60.5817622,10.8264185 Z M63.9509028,13.665774 L64.6393794,13.5607935 C64.6686764,13.6942577 64.7280834,13.7955751 64.817602,13.8647486 C64.9071207,13.9339221 65.032445,13.9685083 65.1935786,13.9685083 C65.3709883,13.9685083 65.5044505,13.9359566 65.5939692,13.8708521 C65.6541909,13.825279 65.6843013,13.7642444 65.6843013,13.6877466 C65.6843013,13.635663 65.6680254,13.592532 65.6354731,13.5583521 C65.6012933,13.5257999 65.5247966,13.4956895 65.4059809,13.4680201 C64.8525928,13.3459491 64.5018476,13.2344594 64.3537348,13.1335474 C64.1486557,12.9935728 64.0461177,12.799076 64.0461177,12.5500513 C64.0461177,12.3254408 64.1348212,12.1366406 64.3122309,11.9836451 C64.4896407,11.8306495 64.764703,11.7541529 65.1374263,11.7541529 C65.4922457,11.7541529 65.755915,11.8119322 65.9284419,11.9274927 C66.1009688,12.0430532 66.2197827,12.2139499 66.2848872,12.440188 L65.6379145,12.5598169 C65.6102451,12.458905 65.5577554,12.3815946 65.4804438,12.3278833 C65.4031322,12.2741721 65.2928632,12.2473169 65.1496333,12.2473169 C64.9689683,12.2473169 64.8395751,12.2725446 64.7614497,12.3230005 C64.7093661,12.358808 64.6833247,12.4051943 64.6833247,12.4621607 C64.6833247,12.5109891 64.7061109,12.5524926 64.7516841,12.5866724 C64.8135333,12.6322456 65.0271542,12.6965353 65.3925532,12.7795435 C65.7579522,12.8625517 66.0130766,12.964276 66.1579341,13.0847193 C66.3011639,13.2067902 66.3727778,13.3768731 66.3727778,13.5949732 C66.3727778,13.8326046 66.273495,14.0368669 66.0749263,14.2077662 C65.8763576,14.3786655 65.5825779,14.4641138 65.1935786,14.4641138 C64.8403867,14.4641138 64.5608485,14.3925 64.3549556,14.2492701 C64.1490626,14.1060402 64.0143797,13.9115434 63.9509028,13.665774 Z M68.4748286,13.5803248 L69.1584223,13.6950708 C69.0705313,13.9457231 68.9317794,14.1365578 68.7421626,14.2675806 C68.5525457,14.3986034 68.3153248,14.4641138 68.0304927,14.4641138 C67.5796441,14.4641138 67.2459885,14.3168171 67.0295161,14.0222193 C66.8586168,13.7862155 66.7731684,13.4883669 66.7731684,13.1286646 C66.7731684,12.698975 66.885472,12.3624712 67.1100825,12.1191431 C67.334693,11.8758151 67.6187071,11.7541529 67.9621333,11.7541529 C68.3478774,11.7541529 68.6522363,11.8815116 68.8752192,12.136233 C69.0982021,12.3909543 69.2048091,12.7811685 69.1950434,13.3068873 L67.4762934,13.3068873 C67.4811763,13.5103388 67.5365143,13.6686217 67.6423091,13.7817408 C67.7481039,13.8948598 67.8799385,13.9514185 68.0378169,13.9514185 C68.1452393,13.9514185 68.2355704,13.9221219 68.308813,13.8635279 C68.3820555,13.8049338 68.4373935,13.7105337 68.4748286,13.5803248 Z M68.5138911,12.8869654 C68.5090083,12.6883967 68.4577392,12.5374379 68.3600825,12.4340845 C68.2624258,12.3307311 68.1436118,12.2790552 68.0036372,12.2790552 C67.8538969,12.2790552 67.7302002,12.3335794 67.6325434,12.4426294 C67.5348867,12.5516795 67.4868729,12.69979 67.4885005,12.8869654 L68.5138911,12.8869654 Z M72.1320552,14.4055201 L71.4948481,14.4055201 L71.4948481,14.0246607 C71.3890533,14.1727734 71.264136,14.2830425 71.1200923,14.3554712 C70.9760486,14.4279 70.8307864,14.4641138 70.6843013,14.4641138 C70.3864482,14.4641138 70.1313238,14.3440792 69.9189204,14.1040064 C69.706517,13.8639336 69.6003169,13.5290574 69.6003169,13.0993677 C69.6003169,12.6599124 69.7036687,12.32585 69.9103755,12.0971705 C70.1170822,11.8684909 70.3783101,11.7541529 70.6940669,11.7541529 C70.9837819,11.7541529 71.2344304,11.8745944 71.44602,12.115481 L71.44602,10.8264185 L72.1320552,10.8264185 L72.1320552,14.4055201 Z M70.3010005,13.052981 C70.3010005,13.3296751 70.3392488,13.5298684 70.4157466,13.6535669 C70.5264242,13.8326043 70.6810451,13.9221216 70.8796138,13.9221216 C71.0374921,13.9221216 71.1717681,13.8549836 71.2824458,13.7207056 C71.3931234,13.5864276 71.4484614,13.3858274 71.4484614,13.118899 C71.4484614,12.8210459 71.394751,12.6066112 71.2873286,12.4755884 C71.1799062,12.3445656 71.042375,12.2790552 70.8747309,12.2790552 C70.7119697,12.2790552 70.5756592,12.3437518 70.4657954,12.473147 C70.3559316,12.6025422 70.3010005,12.7958183 70.3010005,13.052981 Z M75.9040278,14.4055201 L75.9040278,14.0173365 C75.8096263,14.1556835 75.6855227,14.2647319 75.5317134,14.3444849 C75.377904,14.4242379 75.2155521,14.4641138 75.0446528,14.4641138 C74.8704983,14.4641138 74.7142499,14.4258655 74.5759028,14.3493677 C74.4375558,14.2728699 74.3374591,14.1654491 74.2756098,14.0271021 C74.2137606,13.8887551 74.1828364,13.6975135 74.1828364,13.4533716 L74.1828364,11.8127466 L74.8688716,11.8127466 L74.8688716,13.0041529 C74.8688716,13.368738 74.8814854,13.5921245 74.9067134,13.6743189 C74.9319414,13.7565133 74.9779207,13.8216168 75.0446528,13.8696314 C75.1113849,13.917646 75.1960195,13.9416529 75.2985591,13.9416529 C75.4157472,13.9416529 75.5207266,13.909508 75.6135005,13.8452173 C75.7062744,13.7809266 75.7697503,13.7011748 75.8039302,13.6059595 C75.83811,13.5107442 75.8551997,13.2775922 75.8551997,12.9064966 L75.8551997,11.8127466 L76.5412348,11.8127466 L76.5412348,14.4055201 L75.9040278,14.4055201 Z M79.6100825,14.4055201 L78.9240473,14.4055201 L78.9240473,13.0822779 C78.9240473,12.8023286 78.9093991,12.6212594 78.880102,12.539065 C78.850805,12.4568706 78.8031981,12.3929877 78.7372798,12.3474146 C78.6713615,12.3018415 78.5920166,12.2790552 78.4992427,12.2790552 C78.380427,12.2790552 78.27382,12.311607 78.1794184,12.3767115 C78.0850169,12.441816 78.0203203,12.5280781 77.9853266,12.6355005 C77.950333,12.7429229 77.9328364,12.9414887 77.9328364,13.2312037 L77.9328364,14.4055201 L77.2468013,14.4055201 L77.2468013,11.8127466 L77.8840083,11.8127466 L77.8840083,12.193606 C78.1102464,11.9006358 78.3950743,11.7541529 78.7385005,11.7541529 C78.8898684,11.7541529 79.0282134,11.781415 79.1535395,11.83594 C79.2788657,11.890465 79.3736727,11.9600444 79.4379634,12.0446802 C79.502254,12.1293161 79.5470127,12.2253437 79.5722407,12.3327662 C79.5974687,12.4401886 79.6100825,12.5939956 79.6100825,12.7941919 L79.6100825,14.4055201 Z M82.683813,14.4055201 L82.0466059,14.4055201 L82.0466059,14.0246607 C81.9408111,14.1727734 81.8158938,14.2830425 81.6718501,14.3554712 C81.5278064,14.4279 81.3825442,14.4641138 81.2360591,14.4641138 C80.938206,14.4641138 80.6830816,14.3440792 80.4706782,14.1040064 C80.2582748,13.8639336 80.1520747,13.5290574 80.1520747,13.0993677 C80.1520747,12.6599124 80.2554265,12.32585 80.4621333,12.0971705 C80.66884,11.8684909 80.9300679,11.7541529 81.2458247,11.7541529 C81.5355397,11.7541529 81.7861882,11.8745944 81.9977778,12.115481 L81.9977778,10.8264185 L82.683813,10.8264185 L82.683813,14.4055201 Z M80.8527583,13.052981 C80.8527583,13.3296751 80.8910066,13.5298684 80.9675044,13.6535669 C81.078182,13.8326043 81.2328029,13.9221216 81.4313716,13.9221216 C81.58925,13.9221216 81.723526,13.8549836 81.8342036,13.7207056 C81.9448812,13.5864276 82.0002192,13.3858274 82.0002192,13.118899 C82.0002192,12.8210459 81.9465088,12.6066112 81.8390864,12.4755884 C81.731664,12.3445656 81.5941328,12.2790552 81.4264888,12.2790552 C81.2637275,12.2790552 81.127417,12.3437518 81.0175532,12.473147 C80.9076894,12.6025422 80.8527583,12.7958183 80.8527583,13.052981 Z M84.8615473,13.5803248 L85.5451411,13.6950708 C85.45725,13.9457231 85.3184982,14.1365578 85.1288813,14.2675806 C84.9392645,14.3986034 84.7020436,14.4641138 84.4172114,14.4641138 C83.9663628,14.4641138 83.6327073,14.3168171 83.4162348,14.0222193 C83.2453356,13.7862155 83.1598872,13.4883669 83.1598872,13.1286646 C83.1598872,12.698975 83.2721908,12.3624712 83.4968013,12.1191431 C83.7214118,11.8758151 84.0054258,11.7541529 84.348852,11.7541529 C84.7345962,11.7541529 85.0389551,11.8815116 85.261938,12.136233 C85.4849209,12.3909543 85.5915279,12.7811685 85.5817622,13.3068873 L83.8630122,13.3068873 C83.867895,13.5103388 83.923233,13.6686217 84.0290278,13.7817408 C84.1348226,13.8948598 84.2666572,13.9514185 84.4245356,13.9514185 C84.531958,13.9514185 84.6222892,13.9221219 84.6955317,13.8635279 C84.7687743,13.8049338 84.8241123,13.7105337 84.8615473,13.5803248 Z M84.9006098,12.8869654 C84.895727,12.6883967 84.844458,12.5374379 84.7468013,12.4340845 C84.6491445,12.3307311 84.5303306,12.2790552 84.3903559,12.2790552 C84.2406156,12.2790552 84.1169189,12.3335794 84.0192622,12.4426294 C83.9216055,12.5516795 83.8735916,12.69979 83.8752192,12.8869654 L84.9006098,12.8869654 Z M86.7975825,14.4055201 L86.1115473,14.4055201 L86.1115473,11.8127466 L86.7487544,11.8127466 L86.7487544,12.181399 C86.8578044,12.0072445 86.9558666,11.8924995 87.0429438,11.8371607 C87.1300211,11.7818219 87.2288971,11.7541529 87.3395747,11.7541529 C87.4958255,11.7541529 87.6463774,11.797284 87.7912348,11.8835474 L87.5788325,12.4816919 C87.463272,12.4068218 87.3558512,12.3693873 87.2565669,12.3693873 C87.1605378,12.3693873 87.0791584,12.3958356 87.0124263,12.448733 C86.9456941,12.5016304 86.8932044,12.5972511 86.8549556,12.7355982 C86.8167067,12.8739452 86.7975825,13.1636559 86.7975825,13.6047388 L86.7975825,14.4055201 Z M89.4758052,14.4055201 L89.4758052,10.8264185 L90.1618403,10.8264185 L90.1618403,14.4055201 L89.4758052,14.4055201 Z M90.8649653,11.4611841 L90.8649653,10.8264185 L91.5510005,10.8264185 L91.5510005,11.4611841 L90.8649653,11.4611841 Z M90.8649653,14.4055201 L90.8649653,11.8127466 L91.5510005,11.8127466 L91.5510005,14.4055201 L90.8649653,14.4055201 Z M94.5148677,12.5793482 L93.8385981,12.7014185 C93.8158116,12.5663267 93.7641356,12.4646024 93.6835688,12.3962427 C93.603002,12.327883 93.4984295,12.2937037 93.3698481,12.2937037 C93.1989488,12.2937037 93.0626384,12.3527037 92.9609126,12.4707056 C92.8591868,12.5887075 92.8083247,12.7860525 92.8083247,13.0627466 C92.8083247,13.3703654 92.8600006,13.5876483 92.963354,13.7146021 C93.0667074,13.8415559 93.2054592,13.9050318 93.3796138,13.9050318 C93.5098227,13.9050318 93.6164297,13.8680042 93.699438,13.7939478 C93.7824462,13.7198914 93.8410394,13.5925327 93.8752192,13.4118677 L94.5490473,13.5266138 C94.47906,13.8358602 94.344784,14.069419 94.1462153,14.2272974 C93.9476466,14.3851758 93.681536,14.4641138 93.3478755,14.4641138 C92.9686418,14.4641138 92.6663174,14.3444861 92.4408931,14.1052271 C92.2154687,13.8659681 92.1027583,13.534754 92.1027583,13.1115748 C92.1027583,12.6835127 92.2158756,12.3502641 92.4421138,12.1118189 C92.6683519,11.8733737 92.9743384,11.7541529 93.3600825,11.7541529 C93.6758393,11.7541529 93.9268947,11.8221047 94.1132563,11.9580103 C94.2996179,12.0939159 94.433487,12.3010265 94.5148677,12.5793482 Z M96.536352,13.5803248 L97.2199458,13.6950708 C97.1320547,13.9457231 96.9933029,14.1365578 96.803686,14.2675806 C96.6140692,14.3986034 96.3768483,14.4641138 96.0920161,14.4641138 C95.6411675,14.4641138 95.307512,14.3168171 95.0910395,14.0222193 C94.9201402,13.7862155 94.8346919,13.4883669 94.8346919,13.1286646 C94.8346919,12.698975 94.9469954,12.3624712 95.1716059,12.1191431 C95.3962164,11.8758151 95.6802305,11.7541529 96.0236567,11.7541529 C96.4094008,11.7541529 96.7137598,11.8815116 96.9367427,12.136233 C97.1597255,12.3909543 97.2663326,12.7811685 97.2565669,13.3068873 L95.5378169,13.3068873 C95.5426997,13.5103388 95.5980377,13.6686217 95.7038325,13.7817408 C95.8096273,13.8948598 95.9414619,13.9514185 96.0993403,13.9514185 C96.2067627,13.9514185 96.2970939,13.9221219 96.3703364,13.8635279 C96.443579,13.8049338 96.498917,13.7105337 96.536352,13.5803248 Z M96.5754145,12.8869654 C96.5705317,12.6883967 96.5192627,12.5374379 96.4216059,12.4340845 C96.3239492,12.3307311 96.2051353,12.2790552 96.0651606,12.2790552 C95.9154203,12.2790552 95.7917236,12.3335794 95.6940669,12.4426294 C95.5964101,12.5516795 95.5483963,12.69979 95.5500239,12.8869654 L96.5754145,12.8869654 Z M100.174047,14.4055201 L99.4880122,14.4055201 L99.4880122,13.0822779 C99.4880122,12.8023286 99.4733639,12.6212594 99.4440669,12.539065 C99.4147699,12.4568706 99.3671629,12.3929877 99.3012446,12.3474146 C99.2353263,12.3018415 99.1559814,12.2790552 99.0632075,12.2790552 C98.9443918,12.2790552 98.8377848,12.311607 98.7433833,12.3767115 C98.6489818,12.441816 98.5842852,12.5280781 98.5492915,12.6355005 C98.5142978,12.7429229 98.4968013,12.9414887 98.4968013,13.2312037 L98.4968013,14.4055201 L97.8107661,14.4055201 L97.8107661,11.8127466 L98.4479731,11.8127466 L98.4479731,12.193606 C98.6742112,11.9006358 98.9590391,11.7541529 99.3024653,11.7541529 C99.4538333,11.7541529 99.5921782,11.781415 99.7175044,11.83594 C99.8428305,11.890465 99.9376375,11.9600444 100.001928,12.0446802 C100.066219,12.1293161 100.110978,12.2253437 100.136206,12.3327662 C100.161434,12.4401886 100.174047,12.5939956 100.174047,12.7941919 L100.174047,14.4055201 Z M100.628149,13.665774 L101.316625,13.5607935 C101.345922,13.6942577 101.405329,13.7955751 101.494848,13.8647486 C101.584367,13.9339221 101.709691,13.9685083 101.870825,13.9685083 C102.048234,13.9685083 102.181697,13.9359566 102.271215,13.8708521 C102.331437,13.825279 102.361547,13.7642444 102.361547,13.6877466 C102.361547,13.635663 102.345271,13.592532 102.312719,13.5583521 C102.278539,13.5257999 102.202043,13.4956895 102.083227,13.4680201 C101.529839,13.3459491 101.179094,13.2344594 101.030981,13.1335474 C100.825902,12.9935728 100.723364,12.799076 100.723364,12.5500513 C100.723364,12.3254408 100.812067,12.1366406 100.989477,11.9836451 C101.166887,11.8306495 101.441949,11.7541529 101.814672,11.7541529 C102.169492,11.7541529 102.433161,11.8119322 102.605688,11.9274927 C102.778215,12.0430532 102.897029,12.2139499 102.962133,12.440188 L102.315161,12.5598169 C102.287491,12.458905 102.235002,12.3815946 102.15769,12.3278833 C102.080378,12.2741721 101.970109,12.2473169 101.826879,12.2473169 C101.646214,12.2473169 101.516821,12.2725446 101.438696,12.3230005 C101.386612,12.358808 101.360571,12.4051943 101.360571,12.4621607 C101.360571,12.5109891 101.383357,12.5524926 101.42893,12.5866724 C101.490779,12.6322456 101.7044,12.6965353 102.069799,12.7795435 C102.435198,12.8625517 102.690323,12.964276 102.83518,13.0847193 C102.97841,13.2067902 103.050024,13.3768731 103.050024,13.5949732 C103.050024,13.8326046 102.950741,14.0368669 102.752172,14.2077662 C102.553604,14.3786655 102.259824,14.4641138 101.870825,14.4641138 C101.517633,14.4641138 101.238095,14.3925 101.032202,14.2492701 C100.826309,14.1060402 100.691626,13.9115434 100.628149,13.665774 Z M105.152075,13.5803248 L105.835668,13.6950708 C105.747777,13.9457231 105.609026,14.1365578 105.419409,14.2675806 C105.229792,14.3986034 104.992571,14.4641138 104.707739,14.4641138 C104.25689,14.4641138 103.923235,14.3168171 103.706762,14.0222193 C103.535863,13.7862155 103.450415,13.4883669 103.450415,13.1286646 C103.450415,12.698975 103.562718,12.3624712 103.787329,12.1191431 C104.011939,11.8758151 104.295953,11.7541529 104.639379,11.7541529 C105.025123,11.7541529 105.329482,11.8815116 105.552465,12.136233 C105.775448,12.3909543 105.882055,12.7811685 105.87229,13.3068873 L104.15354,13.3068873 C104.158422,13.5103388 104.21376,13.6686217 104.319555,13.7817408 C104.42535,13.8948598 104.557185,13.9514185 104.715063,13.9514185 C104.822485,13.9514185 104.912817,13.9221219 104.986059,13.8635279 C105.059302,13.8049338 105.11464,13.7105337 105.152075,13.5803248 Z M105.191137,12.8869654 C105.186254,12.6883967 105.134985,12.5374379 105.037329,12.4340845 C104.939672,12.3307311 104.820858,12.2790552 104.680883,12.2790552 C104.531143,12.2790552 104.407446,12.3335794 104.30979,12.4426294 C104.212133,12.5516795 104.164119,12.69979 104.165747,12.8869654 L105.191137,12.8869654 Z" id="Trade-mark-of-Intera"></path>
                    <path d="M20,19.7667881 C20.4267434,19.4556286 20.7026084,18.9627314 20.7026084,18.4075065 L20.7026084,1.35924292 C20.7026084,0.804042411 20.426745,0.311155796 20,0 L49.1655227,0 C50.110286,0 50.8775732,0.736853297 50.8775732,1.64702663 L50.8775732,18.1197241 C50.8775732,19.0299348 50.110286,19.7667881 49.1655227,19.7667881 L20,19.7667881 Z M24.4775899,10.5008728 L26.053489,10.5008728 L26.053489,10.3219246 C26.053489,10.0833258 26.0380957,9.86685828 26.0073088,9.67251567 C25.9765218,9.47817305 25.9187972,9.31269569 25.8341331,9.1760786 C25.7494689,9.03946152 25.6330575,8.93363297 25.4848954,8.85858978 C25.3367332,8.7835466 25.1472039,8.74602557 24.9163017,8.74602557 C24.6469159,8.74602557 24.4314105,8.79028114 24.2697791,8.87879362 C24.1081476,8.9673061 23.9840396,9.08660373 23.8974513,9.23669011 C23.810863,9.38677648 23.7531383,9.55802631 23.7242755,9.75044474 C23.6954128,9.94286321 23.6809816,10.1429753 23.6809816,10.3507872 C23.6809816,10.547054 23.6896403,10.7433179 23.706958,10.9395847 C23.7242756,11.1358515 23.7714174,11.3128738 23.8483848,11.4706569 C23.9253522,11.62844 24.0446498,11.7554342 24.2062813,11.8516435 C24.3679128,11.9478527 24.593039,11.9959566 24.8816666,11.9959566 C25.2626551,11.9959566 25.5416576,11.9016729 25.7186826,11.7131029 C25.8957075,11.5245328 25.9919153,11.2493786 26.0073088,10.887632 L25.2915158,10.887632 C25.2684256,11.0838988 25.2260942,11.2301346 25.1645203,11.3263438 C25.1029464,11.422553 25.0048144,11.4706569 24.8701215,11.4706569 C24.7970025,11.4706569 24.7354296,11.4504532 24.6854008,11.4100454 C24.635372,11.3696375 24.5949647,11.3157612 24.5641778,11.2484147 C24.5333908,11.1810683 24.511263,11.104102 24.4977938,11.0175137 C24.4843245,10.9309255 24.4775899,10.8414522 24.4775899,10.7490914 L24.4775899,10.5008728 Z M28.0854174,9.92362041 L26.4575656,9.92362041 L26.4575656,10.6047783 L28.0854174,10.6047783 L28.0854174,9.92362041 Z M31.0409497,7.81087668 L28.4086788,7.81087668 L28.4086788,8.49203451 L29.3091925,8.49203451 L29.3091925,11.9324588 L30.1404359,11.9324588 L30.1404359,8.49203451 L31.0409497,8.49203451 L31.0409497,7.81087668 Z M30.9485893,8.8268409 L30.9485893,11.9324588 L31.7451976,11.9324588 L31.7451976,10.0679335 C31.7451976,9.96402761 31.762515,9.87647854 31.7971503,9.80528372 C31.8317856,9.7340889 31.8779654,9.67636424 31.9356909,9.632108 C31.9934164,9.58785176 32.0569136,9.5561032 32.1261842,9.53686135 C32.1954548,9.51761951 32.2647244,9.50799873 32.3339951,9.50799873 C32.3763271,9.50799873 32.4176965,9.50896081 32.4581043,9.51088499 C32.4985122,9.51280918 32.5398815,9.51569541 32.5822136,9.51954378 L32.5822136,8.75757062 C32.5591234,8.75372225 32.5350714,8.75083601 32.510057,8.74891183 C32.4850426,8.74698764 32.4609907,8.74602557 32.4379005,8.74602557 C32.2724206,8.74602557 32.1319573,8.79124322 32.0165062,8.88167988 C31.9010552,8.97211654 31.8029233,9.09237626 31.7221075,9.24246263 L31.7105625,9.24246263 L31.7105625,8.8268409 L30.9485893,8.8268409 Z M32.8650673,9.77930736 L33.5808602,9.77930736 L33.5808602,9.6927195 C33.5808602,9.56957171 33.6116467,9.47143978 33.6732206,9.39832078 C33.7347945,9.32520177 33.827154,9.28864282 33.9503018,9.28864282 C34.0849947,9.28864282 34.1802404,9.32231554 34.2360417,9.38966199 C34.2918431,9.45700844 34.3197433,9.55032998 34.3197433,9.6696294 C34.3197433,9.77353536 34.2966534,9.85242573 34.250473,9.90630291 C34.2042926,9.96018001 34.1215539,10.0025115 34.0022545,10.0332984 L33.5519976,10.1545214 C33.4134564,10.1930051 33.2951208,10.2372607 33.1969874,10.2872895 C33.098854,10.3373183 33.0180395,10.3998533 32.9545414,10.4748965 C32.8910433,10.5499397 32.8439015,10.640375 32.8131145,10.7462051 C32.7823276,10.8520353 32.7669344,10.9780674 32.7669344,11.1243054 C32.7669344,11.2282114 32.7804034,11.3330779 32.807342,11.438908 C32.8342806,11.5447381 32.876612,11.6399838 32.9343376,11.7246479 C32.9920631,11.809312 33.0690293,11.8756954 33.1652385,11.9238 C33.2614477,11.9719046 33.3788212,11.9959566 33.5173625,11.9959566 C33.7097809,11.9959566 33.8665996,11.9719046 33.9878232,11.9238 C34.1090468,11.8756954 34.2158374,11.7708289 34.3081983,11.6091975 L34.3197433,11.6091975 C34.3312884,11.6630746 34.3437954,11.717913 34.3572647,11.7737144 C34.370734,11.8295157 34.3909376,11.88243 34.4178762,11.9324588 L35.1798494,11.9324588 C35.1413657,11.840098 35.1153896,11.753511 35.1019203,11.6726952 C35.088451,11.5918795 35.0817165,11.4783543 35.0817165,11.3321163 L35.0817165,9.69849202 C35.0817165,9.55995076 35.0672853,9.43199442 35.0384225,9.31461918 C35.0095598,9.19724394 34.9547214,9.09622578 34.8739056,9.01156167 C34.7930899,8.92689756 34.6795647,8.86147628 34.5333267,8.81529585 C34.3870887,8.76911543 34.1946731,8.74602557 33.9560743,8.74602557 C33.8059879,8.74602557 33.6645625,8.76238089 33.5317938,8.79509202 C33.3990251,8.82780315 33.2835757,8.88167951 33.1854423,8.95672269 C33.0873089,9.03176588 33.0093807,9.12989781 32.9516551,9.25112142 C32.8939296,9.37234503 32.8650673,9.52339123 32.8650673,9.70426455 L32.8650673,9.77930736 Z M34.3197433,10.3796498 L34.3197433,10.9915374 C34.3197433,11.0762015 34.3043501,11.1493194 34.2735631,11.2108933 C34.2427762,11.2724672 34.203331,11.3224952 34.1552264,11.3609789 C34.1071218,11.3994626 34.0542075,11.4273629 33.996482,11.4446805 C33.9387564,11.4619982 33.8829559,11.4706569 33.8290788,11.4706569 C33.7213245,11.4706569 33.6443582,11.4283255 33.5981778,11.3436613 C33.5519974,11.2589972 33.5289075,11.157017 33.5289075,11.0377176 C33.5289075,10.8991763 33.5635423,10.7894995 33.632813,10.7086837 C33.7020836,10.627868 33.8175329,10.5701433 33.9791644,10.535508 C34.0291932,10.5239629 34.0849937,10.5056834 34.1465676,10.480669 C34.2081415,10.4556546 34.2658661,10.4219819 34.3197433,10.3796498 Z M35.6474238,8.8268409 L35.6474238,11.9324588 L36.4440321,11.9324588 L36.4440321,9.87166774 C36.4440321,9.52916294 36.5844955,9.35791311 36.8654264,9.35791311 C36.9847258,9.35791311 37.0713128,9.38966167 37.12519,9.45315976 C37.1790671,9.51665784 37.2060053,9.62922093 37.2060053,9.79085241 L37.2060053,11.9324588 L38.0026136,11.9324588 L38.0026136,9.62922174 C38.0026136,9.31750388 37.9343061,9.0923777 37.797689,8.95383643 C37.6610719,8.81529516 37.4657701,8.74602557 37.2117778,8.74602557 C37.0386012,8.74602557 36.8846688,8.78162244 36.7499759,8.85281726 C36.615283,8.92401208 36.5056061,9.03657517 36.420942,9.19050991 L36.409397,9.19050991 L36.409397,8.8268409 L35.6474238,8.8268409 Z M39.1167107,10.9164946 L38.4009178,10.9164946 L38.4009178,11.0261725 C38.4009178,11.1762589 38.4182352,11.3119119 38.4528705,11.4331355 C38.4875058,11.5543591 38.5481167,11.6573014 38.634705,11.7419655 C38.7212933,11.8266296 38.8386668,11.8901267 38.9868289,11.9324588 C39.1349911,11.9747908 39.3206721,11.9959566 39.5438775,11.9959566 C39.7132057,11.9959566 39.8681002,11.9786392 40.0085657,11.9440038 C40.1490311,11.9093685 40.2702529,11.8516439 40.3722347,11.7708281 C40.4742165,11.6900124 40.5540689,11.5889942 40.6117945,11.4677706 C40.66952,11.346547 40.6983823,11.2031974 40.6983823,11.0377176 C40.6983823,10.8029671 40.6464301,10.6172861 40.5425242,10.480669 C40.4386182,10.3440519 40.2615959,10.233413 40.011452,10.1487489 L39.5323325,9.98711821 C39.3976396,9.94478621 39.3062422,9.89283401 39.2581376,9.83126008 C39.210033,9.76968618 39.185981,9.70041658 39.185981,9.62344921 C39.185981,9.51184652 39.2235021,9.42814576 39.2985452,9.37234442 C39.3735884,9.31654308 39.4611375,9.28864282 39.5611951,9.28864282 C39.6920396,9.28864282 39.783437,9.32616385 39.83539,9.40120704 C39.887343,9.47625023 39.913319,9.59458578 39.913319,9.75621726 L40.629112,9.75621726 L40.629112,9.62922174 C40.629112,9.34829083 40.542525,9.13086127 40.3693484,8.97692653 C40.1961719,8.82299178 39.9287143,8.74602557 39.5669676,8.74602557 C39.3630041,8.74602557 39.188868,8.77103959 39.0445542,8.82106838 C38.9002404,8.87109717 38.7819048,8.93844261 38.689544,9.02310672 C38.5971831,9.10777083 38.5298377,9.20686483 38.4875056,9.3203917 C38.4451736,9.43391858 38.4240079,9.55417829 38.4240079,9.68117445 C38.4240079,9.90053151 38.4798084,10.08044 38.5914111,10.2209054 C38.7030137,10.3613709 38.8684911,10.4700857 39.0878481,10.547053 L39.6477829,10.7490914 C39.7247503,10.7798783 39.7920958,10.8212477 39.8498213,10.8732006 C39.9075468,10.9251536 39.9364091,11.0011578 39.9364091,11.1012153 C39.9364091,11.2243631 39.8998502,11.3167226 39.8267312,11.3782965 C39.7536122,11.4398704 39.6554803,11.4706569 39.5323325,11.4706569 C39.3976396,11.4706569 39.2946973,11.4292875 39.2235024,11.3465476 C39.1523076,11.2638077 39.1167107,11.1550929 39.1167107,11.0204 L39.1167107,10.9164946 Z M41.2698622,9.36945816 L41.2698622,11.9324588 L42.0664705,11.9324588 L42.0664705,9.36945816 L42.5282724,9.36945816 L42.5282724,8.8268409 L42.0664705,8.8268409 L42.0664705,8.55553228 C42.0664705,8.4670198 42.0895604,8.40352267 42.1357408,8.36503898 C42.1819212,8.3265553 42.2608116,8.30731374 42.3724143,8.30731374 L42.4474571,8.30731374 C42.4820924,8.30731374 42.5090306,8.3092379 42.5282724,8.31308627 L42.5282724,7.74737892 C42.3858828,7.73583381 42.2434953,7.73006135 42.1011056,7.73006135 C41.9741095,7.73006135 41.8586602,7.74256836 41.7547542,7.76758275 C41.6508482,7.79259715 41.5632992,7.83396649 41.4921044,7.89169202 C41.4209095,7.94941755 41.3660711,8.02638376 41.3275874,8.12259298 C41.2891037,8.21880219 41.2698622,8.33617567 41.2698622,8.47471694 L41.2698622,8.8268409 L40.8657855,8.8268409 L40.8657855,9.36945816 L41.2698622,9.36945816 Z M25.2915158,10.0275259 L24.4775899,10.0275259 L24.4775899,9.90630291 C24.4775899,9.83318389 24.4843245,9.76006598 24.4977938,9.68694698 C24.511263,9.61382797 24.5333908,9.54744461 24.5641778,9.4877949 C24.5949647,9.42814519 24.6363341,9.3800413 24.688287,9.3434818 C24.74024,9.3069223 24.8066234,9.28864282 24.8874391,9.28864282 C24.9682549,9.28864282 25.0346382,9.30499814 25.0865912,9.33770928 C25.1385442,9.37042041 25.1789514,9.41852429 25.2078142,9.48202238 C25.236677,9.54552046 25.2568806,9.62248667 25.2684257,9.71292333 C25.2799708,9.80336 25.2876674,9.90822651 25.2915158,10.0275259 Z M43.4865114,10.5008728 L45.0624104,10.5008728 L45.0624104,10.3219246 C45.0624104,10.0833258 45.0470172,9.86685828 45.0162302,9.67251567 C44.9854433,9.47817305 44.9277186,9.31269569 44.8430545,9.1760786 C44.7583904,9.03946152 44.641979,8.93363297 44.4938168,8.85858978 C44.3456546,8.7835466 44.1561253,8.74602557 43.9252232,8.74602557 C43.6558374,8.74602557 43.440332,8.79028114 43.2787005,8.87879362 C43.1170691,8.9673061 42.992961,9.08660373 42.9063727,9.23669011 C42.8197844,9.38677648 42.7620598,9.55802631 42.733197,9.75044474 C42.7043342,9.94286321 42.6899031,10.1429753 42.6899031,10.3507872 C42.6899031,10.547054 42.6985618,10.7433179 42.7158794,10.9395847 C42.7331971,11.1358515 42.7803389,11.3128738 42.8573063,11.4706569 C42.9342737,11.62844 43.0535713,11.7554342 43.2152028,11.8516435 C43.3768342,11.9478527 43.6019604,11.9959566 43.8905881,11.9959566 C44.2715766,11.9959566 44.5505791,11.9016729 44.7276041,11.7131029 C44.904629,11.5245328 45.0008368,11.2493786 45.0162302,10.887632 L44.3004373,10.887632 C44.2773471,11.0838988 44.2350156,11.2301346 44.1734417,11.3263438 C44.1118679,11.422553 44.0137359,11.4706569 43.879043,11.4706569 C43.805924,11.4706569 43.744351,11.4504532 43.6943223,11.4100454 C43.6442935,11.3696375 43.6038862,11.3157612 43.5730993,11.2484147 C43.5423123,11.1810683 43.5201845,11.104102 43.5067152,11.0175137 C43.4932459,10.9309255 43.4865114,10.8414522 43.4865114,10.7490914 L43.4865114,10.5008728 Z M44.3004373,10.0275259 L43.4865114,10.0275259 L43.4865114,9.90630291 C43.4865114,9.83318389 43.4932459,9.76006598 43.5067152,9.68694698 C43.5201845,9.61382797 43.5423123,9.54744461 43.5730993,9.4877949 C43.6038862,9.42814519 43.6452555,9.3800413 43.6972085,9.3434818 C43.7491615,9.3069223 43.8155449,9.28864282 43.8963606,9.28864282 C43.9771763,9.28864282 44.0435597,9.30499814 44.0955127,9.33770928 C44.1474656,9.37042041 44.1878729,9.41852429 44.2167357,9.48202238 C44.2455984,9.54552046 44.2658021,9.62248667 44.2773472,9.71292333 C44.2888923,9.80336 44.2965889,9.90822651 44.3004373,10.0275259 Z M45.4780322,8.8268409 L45.4780322,11.9324588 L46.2746405,11.9324588 L46.2746405,10.0679335 C46.2746405,9.96402761 46.2919579,9.87647854 46.3265932,9.80528372 C46.3612285,9.7340889 46.4074082,9.67636424 46.4651338,9.632108 C46.5228593,9.58785176 46.5863564,9.5561032 46.6556271,9.53686135 C46.7248977,9.51761951 46.7941673,9.50799873 46.8634379,9.50799873 C46.90577,9.50799873 46.9471393,9.50896081 46.9875472,9.51088499 C47.0279551,9.51280918 47.0693244,9.51569541 47.1116565,9.51954378 L47.1116565,8.75757062 C47.0885662,8.75372225 47.0645143,8.75083601 47.0394999,8.74891183 C47.0144855,8.74698764 46.9904336,8.74602557 46.9673434,8.74602557 C46.8018635,8.74602557 46.6614002,8.79124322 46.5459491,8.88167988 C46.430498,8.97211654 46.3323661,9.09237626 46.2515504,9.24246263 L46.2400053,9.24246263 L46.2400053,8.8268409 L45.4780322,8.8268409 Z" id="Combined-Shape" fill-rule="nonzero"></path>
                    <path d="M19.8318105,18.1793284 C19.8318105,19.0925333 19.0912325,19.8318105 18.1793566,19.8318105 L1.65309178,19.8318105 C0.739902481,19.8318105 0,19.0925333 0,18.1793284 L0,1.65244449 C0,0.739277155 0.739902481,0 1.65309178,0 L18.1793566,0 C19.0912325,0 19.8318105,0.739277155 19.8318105,1.65244449 L19.8318105,18.1793284 Z M11.0553843,10.1434834 L12.0206353,9.91419144 L12.0196749,7.94806842 C12.0196749,7.49637117 12.1895875,7.2007716 12.5264945,7.06491999 C12.7973942,6.95454523 13.0044659,6.96335114 13.0044659,6.96335114 L13.0044659,6.05472579 C13.0044659,6.05472579 12.9195096,6.02894785 12.7505575,6.07203652 C12.2023678,6.21477481 11.966448,6.82847793 11.966448,6.82847793 L11.966448,6.36206657 L11.053796,6.58221392 L11.0553843,10.1434834 Z M6.15006311,11.3138853 L7.19668676,11.0635311 C7.19668676,11.0635311 6.98091263,10.9064071 6.98091263,10.0871686 C6.97994341,9.73475705 6.98091263,8.2850692 6.98091263,8.2850692 L7.67263487,8.11941851 L7.67263487,7.39149444 L6.98091263,7.5567695 L6.98091263,6.76232226 L6.00154135,6.99505961 L6.00154135,7.78950691 L5.526898,7.90264518 L5.526898,8.6315834 L6.00090759,8.5181446 L6.00090759,10.2879778 C6.00090759,11.0876463 6.15006311,11.3138853 6.15006311,11.3138853 Z M7.80267953,9.19991985 C7.80267953,10.2311698 8.11269579,10.9463632 9.2740046,10.6682948 C10.5000099,10.376579 10.5978707,9.53384878 10.6059207,9.19408702 C10.6069223,9.11295099 10.6049562,9.03996596 10.6049562,9.03996596 L9.72250243,9.25312561 C9.72250243,9.25312561 9.72087017,9.35665819 9.71638148,9.39819829 C9.69093324,9.65099119 9.60078849,9.85607468 9.27623038,9.92487201 C8.90084997,10.005335 8.77624254,9.72203199 8.77624254,9.12431754 L8.77624254,9.09350827 L10.6593769,8.64763403 C10.6593769,8.64763403 10.6580785,8.49837372 10.6632349,8.19267416 C10.6783703,7.33797911 10.2930109,6.70029486 9.22407259,6.9453107 C8.68160911,7.06959464 8.30908513,7.34183026 8.08246203,7.75981161 C7.89152584,8.11221111 7.80267953,8.57072309 7.80267953,9.19991985 Z M9.26306108,7.60404541 C9.6094691,7.52455458 9.72795559,7.7279928 9.72955078,8.11351975 C9.72955078,8.19330975 9.72955078,8.24460867 9.72795559,8.26764081 L8.7804344,8.49512078 C8.78755695,7.98370215 8.95107875,7.6754227 9.26306108,7.60404541 Z M16.3887215,7.10881897 C16.4261392,8.22561148 16.6653058,8.93732522 17.8852088,8.64857192 C18.7715758,8.44087219 19.2440225,7.87062415 19.2466095,6.96640817 C19.2466095,6.88894609 19.2456722,6.81840226 19.2456722,6.81840226 L18.3039657,7.04247148 C18.3039657,7.04247148 18.3020161,7.1816311 18.3013412,7.22529568 C18.2954924,7.50183798 18.2466767,7.81781074 17.8900828,7.89194602 C17.4794242,7.97889713 17.3857298,7.66296221 17.3857298,6.97325086 C17.3857298,6.94077649 17.38438,6.89779244 17.38438,6.65663542 C17.38438,5.97781188 17.5285398,5.63658549 17.8852088,5.54634535 C18.1852261,5.47054667 18.2994291,5.62872208 18.2990917,6.04536911 C18.2990917,6.04933862 18.2994291,6.17795065 18.2994291,6.17795065 L19.2433851,5.95191557 L19.2424103,5.88692907 C19.2424103,5.53587341 19.1874084,5.28518958 19.0455357,5.09915202 C18.8978141,4.90460836 18.6062701,4.70314642 17.8370305,4.87935473 C16.6317497,5.15427146 16.351941,6.01913256 16.3887215,7.10881897 Z M13.0694882,8.64069329 C13.0694882,9.24831304 13.4480712,9.69052646 14.1620682,9.52222026 C14.8418163,9.36208638 15.0387668,8.8652271 15.0387668,8.8652271 C15.0757255,9.01496656 15.1599554,9.18918557 15.1599554,9.18918557 L16.0605154,8.97572396 C16.0605154,8.97572396 15.9190784,8.86428557 15.9190784,8.10071236 L15.9190784,6.52234714 C15.91746,5.85559987 15.5917936,5.42743394 14.6164505,5.65230673 C13.8658334,5.82618677 13.4304197,6.15824227 13.2837513,6.65182507 C13.2056937,6.91130818 13.2204095,7.1943669 13.2204095,7.1943669 L14.1376047,6.97766652 C14.1376047,6.97766652 14.1346691,6.88777016 14.1434759,6.79463491 C14.1594713,6.62139514 14.2388461,6.40405448 14.5380543,6.32824324 C14.8637206,6.24520112 14.9551767,6.41486314 14.9515636,6.61258246 C14.9486279,6.8482639 14.9349284,6.98260009 14.2809987,7.25319312 C13.5535655,7.55425378 13.0694882,7.81539393 13.0694882,8.64069329 Z M14.9456923,7.51369305 L14.9456923,8.01021338 C14.9456923,8.38802679 14.7431717,8.66031456 14.4514909,8.73352723 C14.1800583,8.80120371 14.0301156,8.64231267 14.0301156,8.4007938 C14.0301156,8.12232969 14.1663587,7.94121877 14.466169,7.79415321 C14.7581886,7.65194593 14.9456923,7.51369305 14.9456923,7.51369305 Z M1.01674478,13.7847338 C1.05563594,13.7847338 1.09519382,13.7807776 1.13215895,13.7717512 C1.20642256,13.7560799 1.56481393,13.6710782 1.86475744,13.5960632 L1.88564755,13.5910698 L1.88564755,12.5493096 L0.562532969,12.8730304 L0.551939756,12.8756806 L0.545828287,12.88367 C0.486343319,12.9793881 0.455156306,13.0883961 0.455156306,13.2013988 C0.455156306,13.5234296 0.707171079,13.7847338 1.01674478,13.7847338 Z M1.01674478,15.1502027 C1.05563594,15.1502027 1.09519382,15.1465528 1.13215895,15.138907 C1.20642256,15.1238844 1.56481393,15.0375142 1.86475744,14.9627856 L1.88564755,14.9571377 L1.88564755,13.9147785 L0.562532969,14.2388972 L0.551939756,14.2412409 L0.545828287,14.2515761 C0.486343319,14.3449005 0.455156306,14.4539391 0.455156306,14.5683565 C0.455156306,14.8897858 0.707171079,15.1502027 1.01674478,15.1502027 Z M1.01674478,16.4506493 C1.05563594,16.4506493 1.09519382,16.4463102 1.13215895,16.4389759 C1.19608862,16.4240001 1.54810925,16.3416334 1.86475744,16.2623002 L1.88564755,16.2570011 L1.88564755,15.2152251 L0.551939756,15.5408521 L0.545828287,15.5514887 C0.486343319,15.6444921 0.455156306,15.754084 0.455156306,15.8680919 C0.455156306,16.189687 0.707171079,16.4506493 1.01674478,16.4506493 Z M0.845628587,12.5493096 L1.88564755,12.3044607 L1.88564755,6.6322776 L0.845290282,6.87682755 L0.845628587,12.5493096 Z M3.43689318,12.0822786 C3.43689318,11.7304782 3.14747848,11.44393 2.79182542,11.44393 C2.43416858,11.44393 2.14573687,11.7304782 2.14573687,12.0822786 L2.1463796,17.38774 C2.1463796,18.3399342 2.93057813,19.1165648 3.89364289,19.1165648 C4.38218852,19.1165648 5.72060393,19.1142838 5.72060393,19.1142838 L5.72128446,16.9009857 C5.72162472,15.6917468 5.72196499,14.4607822 5.72196499,14.4328866 C5.72196499,14.15277 5.58215367,13.8931826 5.34657653,13.7370638 L3.71776344,12.6430351 C3.71776344,12.6430351 3.71742318,15.0186595 3.71742318,15.1273631 C3.71742318,15.2036464 3.65538143,15.2659443 3.57829239,15.2659443 C3.50184608,15.2659443 3.44018241,15.2036464 3.44018241,15.1273631 C3.44018241,15.1007762 3.43689318,12.4103712 3.43689318,12.0822786 Z M4.34610099,8.10148073 C3.66977174,8.25670431 3.41354628,8.81851408 3.41354628,8.81851408 L3.41354628,8.41686094 L2.47084852,8.63877565 L2.47183255,11.2046335 C2.58155154,11.1611769 2.70175421,11.1373398 2.82759611,11.1373398 C3.07163478,11.1373398 3.29398701,11.2274915 3.4644886,11.3772171 L3.4644886,9.72055787 C3.4644886,9.3238002 3.66352696,9.00676309 3.94666177,8.94466618 C4.16015776,8.89793339 4.33819093,8.97407656 4.33819093,9.35189257 L4.33883433,11.7690416 L5.33183101,11.5370348 L5.33183101,8.98032767 C5.33183101,8.36033729 5.09267463,7.92761688 4.34610099,8.10148073 Z M18.6288974,4.48654073 C18.9691877,4.48654073 19.2466095,4.20930315 19.2466095,3.86928546 C19.2466095,3.52865862 18.9691877,3.25111647 18.6288974,3.25111647 C18.288607,3.25111647 18.0111852,3.52865862 18.0111852,3.86928546 C18.0111852,4.20930315 18.288607,4.48654073 18.6288974,4.48654073 Z" id="Combined-Shape" fill-rule="nonzero"></path>
                </g>
                <path d="M55.8434895,6.90154251 C55.9458292,6.90154251 56.0390301,6.8686481 56.1230948,6.8028583 C56.2071595,6.73706849 56.2491913,6.64935007 56.2491913,6.5397004 C56.2491913,6.42274075 56.2016771,6.33867727 56.1066474,6.28750742 C56.0116177,6.23633757 55.9238993,6.21075303 55.8434895,6.21075303 L55.3281387,6.21075303 L55.3281387,6.90154251 L55.8434895,6.90154251 Z M56.3259457,8.46952496 L55.7228755,7.38399865 L55.3281387,7.38399865 L55.3281387,8.46952496 L54.659279,8.46952496 L54.659279,5.66250742 L55.8654194,5.66250742 C55.996999,5.66250742 56.1249217,5.67712716 56.2491913,5.70636707 C56.3734609,5.73560698 56.4867639,5.78312113 56.5891036,5.84891093 C56.6914433,5.91470073 56.7736793,6.00424662 56.8358141,6.11755128 C56.8979489,6.23085594 56.9290159,6.37157091 56.9290159,6.5397004 C56.9290159,6.72975983 56.8760193,6.886922 56.7700246,7.01119163 C56.6640299,7.13546126 56.5306248,7.22683461 56.3698053,7.28531444 L57.1154194,8.46952496 L56.3259457,8.46952496 Z M53.2228755,7.09891093 C53.2228755,6.75534196 53.2886643,6.43188028 53.4202439,6.12851619 C53.5518235,5.8251521 53.7309153,5.56199684 53.9575246,5.33904251 C54.1841339,5.11608818 54.4491167,4.93882387 54.7524808,4.80724426 C55.0558449,4.67566466 55.3793065,4.60987584 55.7228755,4.60987584 C56.0664445,4.60987584 56.3899061,4.67566466 56.6932702,4.80724426 C56.9966343,4.93882387 57.2616171,5.11608818 57.4882264,5.33904251 C57.7148357,5.56199684 57.8939275,5.8251521 58.0255071,6.12851619 C58.1570867,6.43188028 58.2228755,6.75534196 58.2228755,7.09891093 C58.2228755,7.4424799 58.1570867,7.76411411 58.0255071,8.06382321 C57.8939275,8.36353231 57.7148357,8.62486011 57.4882264,8.84781444 C57.2616171,9.07076877 56.9966343,9.24620561 56.6932702,9.37413023 C56.3899061,9.50205484 56.0664445,9.56601619 55.7228755,9.56601619 C55.3793065,9.56601619 55.0558449,9.50205484 54.7524808,9.37413023 C54.4491167,9.24620561 54.1841339,9.07076877 53.9575246,8.84781444 C53.7309153,8.62486011 53.5518235,8.36353231 53.4202439,8.06382321 C53.2886643,7.76411411 53.2228755,7.4424799 53.2228755,7.09891093 Z M53.6176123,7.09891093 C53.6176123,7.38400007 53.6724364,7.6544652 53.782086,7.91031444 C53.8917357,8.16616367 54.041588,8.39094212 54.2316474,8.58465654 C54.4217069,8.77837096 54.6446578,8.93005073 54.9005071,9.0397004 C55.1563563,9.14935007 55.4304764,9.20417409 55.7228755,9.20417409 C56.0152746,9.20417409 56.2893947,9.14935007 56.5452439,9.0397004 C56.8010932,8.93005073 57.0240441,8.77837096 57.2141036,8.58465654 C57.404163,8.39094212 57.5540153,8.16616367 57.663665,7.91031444 C57.7733146,7.6544652 57.8281387,7.38400007 57.8281387,7.09891093 C57.8281387,6.8065118 57.7733146,6.53239174 57.663665,6.27654251 C57.5540153,6.02069327 57.404163,5.79774229 57.2141036,5.60768286 C57.0240441,5.41762343 56.8010932,5.26777113 56.5452439,5.15812145 C56.2893947,5.04847178 56.0152746,4.99364777 55.7228755,4.99364777 C55.4304764,4.99364777 55.1563563,5.04847178 54.9005071,5.15812145 C54.6446578,5.26777113 54.4217069,5.41762343 54.2316474,5.60768286 C54.041588,5.79774229 53.8917357,6.02069327 53.782086,6.27654251 C53.6724364,6.53239174 53.6176123,6.8065118 53.6176123,7.09891093 Z" id="Â®" fill-rule="nonzero"></path>
            </g>
            <g id="etr_noco">
                <g id="interac-seeklogo.com"></g>
            </g>
        </g>
    </g>
</svg>