<?xml version="1.0" encoding="utf-8"?>
<!-- Generator: Adobe Illustrator 19.2.1, SVG Export Plug-In . SVG Version: 6.00 Build 0)  -->
<svg version="1.1" id="Layer_1" xmlns="http://www.w3.org/2000/svg" xmlns:xlink="http://www.w3.org/1999/xlink" x="0px" y="0px"
	 viewBox="0 0 200 70" style="enable-background:new 0 0 200 70;" xml:space="preserve">
<style type="text/css">
	.st0{fill:#FFFFFF;}
</style>
<g>
	<path class="st0" d="M117.4,24.5c-0.6-1.6-1.4-2.9-2.5-4c-1.1-1.1-2.4-2-4-2.6c-1.6-0.6-3.4-0.9-5.4-0.9c-0.8,0-1.7,0-2.6,0.1
		c-0.9,0.1-1.8,0.2-2.7,0.3c-0.9,0.1-1.7,0.3-2.5,0.4c-0.8,0.2-1.5,0.3-2.1,0.5V48l6.9,0v-6.6c0.8,0.3,1.6,0.6,2.4,0.8
		c0.8,0.2,1.7,0.3,2.7,0.3c1.7,0,3.3-0.3,4.6-0.9c1.3-0.6,2.4-1.5,3.3-2.6c0.9-1.1,1.6-2.4,2-4c0.5-1.5,0.7-3.3,0.7-5.2
		C118.3,27.9,118,26.1,117.4,24.5z M106.3,36.6c-0.7,0-1.4-0.1-2.1-0.3c-0.7-0.2-1.3-0.4-1.7-0.7V23.2c0.3-0.1,0.8-0.1,1.3-0.2
		c0.5,0,1.1-0.1,1.7-0.1c1.9,0,3.3,0.6,4.3,1.9c1,1.3,1.4,3,1.4,5.1C111.2,34.4,109.6,36.6,106.3,36.6z"/>
	<path class="st0" d="M122.8,34.4c0,1.3,0.1,2.5,0.4,3.5c0.3,1,0.8,1.9,1.5,2.6c0.7,0.7,1.7,1.3,3,1.7c0.6,0.2,1.3,0.3,2,0.4V7.5
		h-6.9V34.4z"/>
	<path class="st0" d="M154.8,22.8c-0.3-1.2-0.9-2.3-1.7-3.2c-0.8-0.9-1.9-1.5-3.3-2c-1.4-0.5-3.1-0.7-5.1-0.7c-0.8,0-1.6,0-2.4,0.1
		c-0.8,0.1-1.5,0.2-2.3,0.3c-0.7,0.1-1.4,0.2-2,0.4c-0.6,0.1-1.1,0.3-1.5,0.4l0.9,5.6c0.8-0.3,1.8-0.6,3-0.7
		c1.2-0.2,2.3-0.3,3.5-0.3c1.8,0,3,0.4,3.7,1.1c0.6,0.6,0.9,1.3,1,2.2c-0.2,0-0.5-0.1-0.7-0.1c-0.8-0.1-1.6-0.1-2.6-0.1
		c-1.4,0-2.8,0.1-4.2,0.4c-1.3,0.3-2.5,0.7-3.6,1.4c-1,0.6-1.9,1.5-2.5,2.6c-0.6,1.1-0.9,2.4-0.9,3.9c0,1.6,0.3,3,0.8,4.1
		c0.5,1.1,1.3,2,2.3,2.7c1,0.7,2.2,1.2,3.6,1.5c1.2,0.3,2.5,0.4,3.9,0.4l0,0h0.3c0.1,0,0.3,0,0.4,0c0.5,0,1,0,1.5-0.1
		c1.6-0.1,3-0.2,4.2-0.4c1.8-0.3,3.2-0.6,4.2-0.8V27C155.3,25.5,155.1,24.1,154.8,22.8z M148.6,36.8c-0.2,0-0.4,0-0.6,0
		c-0.7,0-1.4,0.1-2.1,0.1c-1.4,0-2.4-0.2-3.2-0.7c-0.8-0.5-1.2-1.3-1.2-2.4c0-0.6,0.1-1.1,0.4-1.5c0.3-0.4,0.6-0.7,1.1-1
		c0.5-0.2,1-0.4,1.6-0.5c0.6-0.1,1.3-0.1,2-0.1c0.5,0,1.1,0,1.7,0.1c0.1,0,0.2,0,0.3,0V36.8z"/>
	<path class="st0" d="M182.4,17.6c-1.4,4.7-2.9,9.1-4.4,13.2c-1.5,4.1-3.2,8.1-5,12c0,0.1-0.1,0.2-0.1,0.3c-1,2.1-1.8,3.7-2.5,4.9
		h-6.8c0.9-1.5,2-3.8,3.4-6.9c0-0.1,0.1-0.1,0.1-0.2c-1.6-3.1-3.1-6.5-4.7-10.4c-1.6-3.9-3.1-8.2-4.5-13h7.3
		c0.3,1.2,0.7,2.5,1.1,3.9c0.4,1.4,0.9,2.8,1.3,4.3c0.5,1.4,0.9,2.8,1.4,4.2c0.4,1.2,0.8,2.3,1.2,3.3c1.6-4.3,2.9-8.3,3.8-11.4
		c0-0.1,0.1-0.3,0.1-0.4c0.3-1,0.5-2,0.8-3c0.1-0.4,0.2-0.7,0.2-1l0,0c0,0,0,0,0,0H182.4z"/>
</g>
<g>
	<path class="st0" d="M17.5,30c0-2.2,0.3-4.1,1-5.7c0.7-1.6,1.5-3,2.6-4.1c1.1-1.1,2.3-1.9,3.7-2.5c1.4-0.6,2.9-0.8,4.3-0.8
		c3.5,0,6.2,1.1,8.2,3.2c2,2.1,3,5.2,3,9.4c0,0.4,0,0.8,0,1.3c0,0.5-0.1,0.9-0.1,1.3H24.6c0.2,1.4,0.8,2.6,2,3.4
		c1.2,0.8,2.8,1.3,4.7,1.3c1.3,0,2.5-0.1,3.7-0.3c1.2-0.2,2.2-0.5,3-0.9l0.9,5.6c-0.4,0.2-0.9,0.4-1.5,0.6c-0.6,0.2-1.3,0.3-2.1,0.5
		c-0.8,0.1-1.6,0.3-2.4,0.3c-0.9,0.1-1.7,0.1-2.6,0.1c-2.2,0-4.1-0.3-5.7-1c-1.6-0.7-3-1.5-4-2.7c-1.1-1.1-1.9-2.5-2.4-4
		C17.7,33.5,17.5,31.8,17.5,30z M33.7,27.3c0-0.6-0.1-1.2-0.3-1.7c-0.2-0.6-0.4-1.1-0.8-1.5c-0.4-0.4-0.8-0.8-1.3-1.1
		c-0.5-0.3-1.2-0.4-2-0.4c-0.8,0-1.4,0.1-2,0.4c-0.6,0.3-1,0.6-1.4,1c-0.4,0.4-0.7,0.9-0.9,1.5c-0.2,0.6-0.3,1.2-0.4,1.7H33.7z"/>
	<path class="st0" d="M51.3,42c-1.6-3.1-3.2-6.7-4.8-10.9c-1.6-4.1-3.2-8.7-4.6-13.6h7.3c0.3,1.2,0.7,2.5,1.1,3.9
		c0.4,1.4,0.9,2.8,1.3,4.3c0.5,1.4,0.9,2.8,1.4,4.2c0.5,1.4,0.9,2.6,1.3,3.7c0.4-1.1,0.8-2.4,1.3-3.7c0.5-1.4,0.9-2.8,1.4-4.2
		c0.5-1.4,0.9-2.9,1.3-4.3c0.4-1.4,0.8-2.7,1.1-3.9h7.2c-1.5,4.9-3,9.4-4.6,13.6c-1.6,4.1-3.2,7.8-4.8,10.9H51.3z"/>
	<path class="st0" d="M91.4,29.8c0,1.9-0.3,3.7-0.8,5.3c-0.6,1.6-1.4,3-2.4,4.1c-1.1,1.1-2.3,2-3.8,2.6c-1.5,0.6-3.1,0.9-4.9,0.9
		c-1.8,0-3.4-0.3-4.9-0.9c-1.5-0.6-2.7-1.5-3.8-2.6c-1.1-1.1-1.9-2.5-2.5-4.1c-0.6-1.6-0.9-3.3-0.9-5.3c0-1.9,0.3-3.7,0.9-5.2
		c0.6-1.6,1.4-2.9,2.5-4c1.1-1.1,2.3-2,3.8-2.6c1.5-0.6,3.1-0.9,4.8-0.9c1.8,0,3.4,0.3,4.9,0.9c1.5,0.6,2.7,1.5,3.8,2.6
		c1.1,1.1,1.9,2.5,2.5,4C91.1,26.1,91.4,27.8,91.4,29.8z M84.3,29.8c0-2.1-0.4-3.8-1.3-5c-0.9-1.2-2.1-1.8-3.6-1.8
		c-1.6,0-2.8,0.6-3.7,1.8c-0.9,1.2-1.3,2.9-1.3,5c0,2.1,0.4,3.8,1.3,5.1c0.9,1.3,2.1,1.9,3.7,1.9c1.6,0,2.8-0.6,3.6-1.9
		C83.9,33.6,84.3,31.9,84.3,29.8z"/>
</g>
<g>
	<g>
		<path class="st0" d="M37.2,59.4h2.9v-1h-2.9v-1.6h3.3v-1h-4.6v6.6h4.8v-1h-3.5V59.4z M50.1,60.1c-0.2-0.3-0.5-0.7-0.8-1.1
			c-0.3-0.4-0.6-0.8-0.9-1.2c-0.3-0.4-0.6-0.8-0.9-1.1c-0.3-0.4-0.6-0.7-0.9-0.9h-1.1v6.6h1.3v-4.7c0.3,0.3,0.6,0.7,0.9,1.1
			c0.3,0.4,0.6,0.8,0.9,1.2c0.3,0.4,0.6,0.8,0.9,1.3c0.3,0.4,0.5,0.8,0.8,1.2h1.1v-6.6h-1.3V60.1z M56.1,56.8h2.2v5.6h1.3v-5.6h2.2
			v-1h-5.7V56.8z M67.7,59.4h2.9v-1h-2.9v-1.6H71v-1h-4.6v6.6h4.8v-1h-3.5V59.4z M80.7,60.8c-0.2-0.2-0.3-0.5-0.5-0.7
			c-0.2-0.2-0.3-0.4-0.4-0.5c0.9-0.3,1.4-0.9,1.4-1.8c0-0.7-0.3-1.3-0.8-1.6c-0.5-0.3-1.3-0.5-2.3-0.5c-0.3,0-0.6,0-1,0
			c-0.4,0-0.7,0.1-1,0.1v6.5h1.3v-2.5H78c0.1,0,0.1,0,0.2,0c0.1,0,0.1,0,0.2,0c0.1,0.2,0.3,0.3,0.4,0.5c0.2,0.2,0.3,0.4,0.5,0.6
			c0.2,0.2,0.3,0.4,0.5,0.7c0.2,0.2,0.3,0.5,0.4,0.7h1.4c-0.1-0.2-0.3-0.5-0.4-0.8C81.1,61.3,80.9,61.1,80.7,60.8z M79.7,58.3
			c-0.1,0.1-0.2,0.3-0.4,0.3c-0.2,0.1-0.4,0.1-0.6,0.2c-0.2,0-0.5,0-0.8,0h-0.6v-2.1c0.2,0,0.5,0,0.8,0c0.3,0,0.5,0,0.7,0.1
			c0.2,0,0.4,0.1,0.5,0.2c0.2,0.1,0.3,0.2,0.4,0.3c0.1,0.1,0.1,0.3,0.1,0.5C79.9,58,79.8,58.2,79.7,58.3z M85.6,56.8h2.2v5.6h1.3
			v-5.6h2.2v-1h-5.7V56.8z M100,58.7c-0.2-0.5-0.5-1-0.7-1.5c-0.2-0.5-0.5-1-0.7-1.4h-1.2c-0.2,0.5-0.5,0.9-0.7,1.4
			c-0.2,0.5-0.5,1-0.7,1.5c-0.2,0.5-0.5,1.1-0.7,1.7c-0.2,0.6-0.5,1.2-0.8,2h1.3c0.1-0.3,0.2-0.5,0.3-0.8c0.1-0.3,0.2-0.5,0.3-0.8h3
			c0.1,0.3,0.2,0.5,0.3,0.8c0.1,0.3,0.2,0.5,0.3,0.8h1.4c-0.3-0.7-0.5-1.4-0.8-2C100.5,59.8,100.2,59.2,100,58.7z M96.8,59.8
			c0.2-0.6,0.4-1.1,0.6-1.6c0.2-0.5,0.4-0.9,0.5-1.2c0.2,0.3,0.3,0.7,0.5,1.2c0.2,0.5,0.4,1,0.6,1.6H96.8z M106,62.3h1.3v-6.6H106
			V62.3z M117.3,60.1c-0.2-0.3-0.5-0.7-0.8-1.1c-0.3-0.4-0.6-0.8-0.9-1.2c-0.3-0.4-0.6-0.8-0.9-1.1c-0.3-0.4-0.6-0.7-0.9-0.9h-1.1
			v6.6h1.3v-4.7c0.3,0.3,0.6,0.7,0.9,1.1c0.3,0.4,0.6,0.8,0.9,1.2c0.3,0.4,0.6,0.8,0.9,1.3c0.3,0.4,0.5,0.8,0.8,1.2h1.1v-6.6h-1.3
			V60.1z M131.3,58.9c0-0.6-0.1-1.1-0.2-1.7c-0.1-0.5-0.1-1.1-0.2-1.5h-1.2c-0.2,0.2-0.3,0.5-0.5,0.9c-0.2,0.3-0.4,0.7-0.6,1.1
			c-0.2,0.4-0.4,0.8-0.6,1.2c-0.2,0.4-0.4,0.8-0.5,1.1c-0.2-0.3-0.3-0.7-0.5-1.1c-0.2-0.4-0.4-0.8-0.6-1.2c-0.2-0.4-0.4-0.8-0.6-1.1
			c-0.2-0.3-0.4-0.6-0.5-0.9h-1.2c-0.1,0.5-0.1,1-0.2,1.5c-0.1,0.5-0.1,1.1-0.2,1.7c0,0.6-0.1,1.2-0.1,1.7c0,0.6-0.1,1.1-0.1,1.7
			h1.3c0-0.8,0.1-1.6,0.1-2.4c0-0.8,0.1-1.6,0.2-2.4c0.1,0.1,0.2,0.3,0.3,0.5c0.1,0.2,0.2,0.4,0.3,0.7c0.1,0.2,0.2,0.5,0.4,0.7
			c0.1,0.3,0.2,0.5,0.3,0.7c0.1,0.2,0.2,0.5,0.3,0.7c0.1,0.2,0.2,0.4,0.2,0.5h1c0.1-0.1,0.1-0.3,0.2-0.5c0.1-0.2,0.2-0.4,0.3-0.7
			c0.1-0.2,0.2-0.5,0.3-0.7c0.1-0.3,0.2-0.5,0.4-0.7c0.1-0.2,0.2-0.5,0.3-0.7c0.1-0.2,0.2-0.4,0.3-0.5c0.1,0.8,0.1,1.5,0.2,2.4
			c0,0.8,0.1,1.6,0.1,2.4h1.3c0-0.5-0.1-1.1-0.1-1.7C131.4,60.1,131.3,59.5,131.3,58.9z M138,59.4h2.9v-1H138v-1.6h3.3v-1h-4.6v6.6
			h4.8v-1H138V59.4z M151,60.1c-0.2-0.3-0.5-0.7-0.8-1.1c-0.3-0.4-0.6-0.8-0.9-1.2c-0.3-0.4-0.6-0.8-0.9-1.1
			c-0.3-0.4-0.6-0.7-0.9-0.9h-1.1v6.6h1.3v-4.7c0.3,0.3,0.6,0.7,0.9,1.1c0.3,0.4,0.6,0.8,0.9,1.2c0.3,0.4,0.6,0.8,0.9,1.3
			c0.3,0.4,0.5,0.8,0.8,1.2h1.1v-6.6H151V60.1z M156.9,55.7v1h2.2v5.6h1.3v-5.6h2.2v-1H156.9z"/>
	</g>
</g>
</svg>
