<?xml version="1.0" encoding="UTF-8"?>
<!DOCTYPE svg PUBLIC "-//W3C//DTD SVG 1.1//EN" "http://www.w3.org/Graphics/SVG/1.1/DTD/svg11.dtd">
<!-- Creator: CorelDRAW X7 -->
<svg xmlns="http://www.w3.org/2000/svg" xml:space="preserve" width="600px" height="245px" version="1.1" style="shape-rendering:geometricPrecision; text-rendering:geometricPrecision; image-rendering:optimizeQuality; fill-rule:evenodd; clip-rule:evenodd"
viewBox="0 0 576 235"
 xmlns:xlink="http://www.w3.org/1999/xlink">
 <defs>
  <style type="text/css">
   <![CDATA[
    .fil2 {fill:#999999}
    .fil3 {fill:#E6E6E6}
    .fil0 {fill:white}
    .fil1 {fill:white;fill-rule:nonzero}
   ]]>
  </style>
 </defs>
 <g id="Layer_x0020_1">
  <metadata id="CorelCorpID_0Corel-Layer"/>
  <g id="_359297622768">
   <path class="fil0" d="M0 174l26 -136 137 -38 -5 202 -158 -28zm68 -127c-1,8 -2,16 -3,25 -1,8 -1,16 -2,25 5,-1 11,-1 16,-1 6,-1 11,-1 17,-1 8,-1 14,-2 17,-5 4,-3 6,-9 7,-18 2,0 3,0 4,0 0,8 -1,17 -1,26 -1,8 -1,17 -2,26 -1,0 -2,0 -4,-1 0,-7 -1,-11 -2,-13 -1,-3 -3,-5 -6,-6 -3,-1 -8,-2 -14,-2 -5,1 -11,1 -16,1 -6,0 -11,0 -17,1 -1,7 -1,14 -2,21 -1,6 -1,13 -2,20 -1,6 -1,9 0,11 0,1 1,2 3,3 1,1 4,2 8,2 9,1 18,2 26,3 9,1 15,2 19,1 4,-1 8,-3 12,-6 5,-4 10,-11 15,-20 2,0 4,0 5,0 -2,7 -5,13 -7,19 -3,7 -5,13 -8,19 -20,-3 -40,-6 -60,-8 -19,-3 -39,-6 -59,-9 0,-1 0,-2 0,-3 2,1 4,1 6,1 3,0 7,0 10,-1 3,0 5,-1 6,-3 1,-2 2,-6 2,-12 2,-12 3,-25 5,-38 1,-13 3,-26 4,-39 1,-7 1,-12 -1,-13 -2,-2 -6,-2 -12,-1 -2,1 -4,1 -5,1 0,-1 0,-2 0,-3 19,-4 37,-8 56,-13 19,-4 37,-8 56,-12 0,11 0,22 0,33 -2,0 -3,1 -5,1 -1,-8 -2,-13 -4,-16 -1,-3 -4,-4 -7,-5 -3,-1 -8,0 -15,1 -7,2 -14,3 -20,4 -7,2 -14,3 -20,5z"/>
   <path class="fil1" d="M291 156l-1 31 -88 0 0 -4 67 -89 -34 0c-6,0 -11,1 -13,2 -2,1 -4,2 -5,5 -2,4 -4,8 -4,14l-4 0 0 -28 84 0 0 4 -67 89 36 0c8,0 13,-1 16,-2 2,-2 5,-4 6,-7 1,-2 2,-7 3,-15l4 0zm100 -69l0 61c0,11 0,18 1,21 0,2 1,4 2,5 2,1 3,1 5,1 2,0 4,0 7,-1l2 4 -30 12 -5 0 0 -21c-9,9 -15,15 -20,17 -4,3 -9,4 -14,4 -5,0 -10,-2 -14,-5 -5,-3 -7,-7 -9,-12 -2,-6 -2,-13 -2,-22l0 -45c0,-4 -1,-8 -2,-9 -1,-2 -2,-4 -4,-5 -2,-1 -6,-1 -11,-1l0 -4 35 0 0 67c0,9 1,15 5,18 3,3 7,5 11,5 3,0 7,-1 11,-3 4,-2 9,-6 14,-12l0 -56c0,-6 -1,-10 -3,-12 -2,-2 -7,-3 -13,-3l0 -4 34 0zm51 63c-7,-3 -11,-7 -14,-12 -4,-5 -5,-11 -5,-18 0,-10 3,-18 11,-25 7,-7 17,-11 28,-11 10,0 18,2 25,7l21 0c3,0 5,0 5,0 1,1 1,1 1,1 1,1 1,2 1,4 0,2 0,3 0,4 -1,0 -1,0 -2,1 0,0 -2,0 -5,0l-13 0c4,5 6,12 6,20 0,9 -3,17 -11,24 -7,6 -16,10 -28,10 -5,0 -10,-1 -15,-3 -3,3 -5,6 -7,8 -1,2 -1,4 -1,5 0,1 0,2 1,4 2,1 4,2 7,2 3,0 8,1 16,1 15,0 24,1 29,2 7,0 12,3 16,7 4,4 6,9 6,15 0,8 -4,16 -11,23 -12,11 -27,16 -45,16 -14,0 -26,-3 -35,-9 -6,-4 -8,-8 -8,-12 0,-1 0,-3 1,-5 1,-3 4,-6 7,-11 1,-1 5,-5 12,-12 -4,-2 -7,-4 -8,-6 -2,-2 -3,-4 -3,-6 0,-3 1,-6 3,-9 2,-4 7,-8 15,-15zm18 -60c-5,0 -9,2 -13,6 -4,4 -5,11 -5,20 0,11 2,20 7,26 4,5 8,7 14,7 6,0 10,-2 14,-6 3,-4 5,-10 5,-19 0,-12 -2,-21 -7,-27 -4,-5 -9,-7 -15,-7zm-19 97c-4,4 -6,7 -8,10 -2,3 -3,6 -3,9 0,4 2,7 7,9 7,5 17,7 31,7 13,0 23,-2 29,-7 6,-5 9,-9 9,-15 0,-4 -2,-6 -6,-8 -3,-1 -11,-2 -22,-3 -16,0 -29,-1 -37,-2zm120 -103l0 80c0,7 0,11 1,13 1,2 2,3 4,4 2,1 5,2 10,2l0 4 -48 0 0 -4c4,0 8,-1 9,-1 2,-1 3,-3 4,-5 1,-2 2,-6 2,-13l0 -38c0,-11 -1,-18 -1,-21 -1,-2 -1,-4 -3,-5 -1,-1 -2,-1 -4,-1 -2,0 -5,0 -7,1l-2 -4 30 -12 5 0z"/>
   <path class="fil2" d="M71 49c-1,9 -2,17 -3,25 -1,8 -1,15 -2,23l-3 0c1,-9 1,-17 2,-25 1,-9 2,-17 3,-25 6,-2 13,-3 20,-5 6,-1 13,-2 20,-4 7,-1 12,-2 15,-1 3,1 5,2 7,4 -2,-1 -3,-1 -4,-2 -3,0 -8,0 -16,2 -6,1 -13,3 -19,4 -7,1 -14,3 -20,4zm53 26c1,-1 2,-1 3,-1 0,9 -1,18 -1,26 -1,9 -1,17 -2,26 -1,0 -2,0 -4,0 0,-1 0,-2 0,-2 0,0 1,0 1,0 1,-9 1,-18 2,-26 0,-8 1,-16 1,-23zm-10 33c-1,-1 -2,-1 -2,-1 -3,-2 -8,-2 -14,-2 -5,0 -11,0 -16,1 -6,0 -11,0 -17,0 -1,7 -1,14 -2,21 -1,7 -1,14 -2,21 -1,6 -1,9 0,10 0,1 0,1 0,1 0,0 0,0 0,0 -2,-1 -3,-2 -3,-3 -1,-2 -1,-5 0,-11 1,-7 1,-14 2,-20 1,-7 1,-14 2,-21 6,-1 11,-1 17,-1 5,0 11,0 16,-1 6,0 11,1 14,2 2,1 4,2 5,4zm31 34c1,0 3,0 4,0 -3,6 -5,13 -8,19 -2,6 -5,12 -7,19 -20,-3 -40,-6 -60,-9 -19,-3 -39,-5 -59,-8 0,-1 0,-2 0,-2 19,2 38,5 56,8 20,2 40,5 60,8 3,-6 5,-12 8,-19 2,-5 4,-11 6,-16zm-100 -89c-2,0 -6,0 -10,1 -2,0 -4,1 -5,1 0,-1 0,-2 0,-3l6 -1c4,-1 7,0 8,1 1,0 1,1 1,1zm94 -26l3 -1c0,11 0,22 0,34 -2,0 -3,0 -5,0 0,-1 0,-2 0,-3l2 0 0 -30z"/>
   <ellipse class="fil0" transform="matrix(0.995455 -0.0952372 0.0952372 0.995455 548.839 54.5333)" rx="20" ry="15"/>
   <polygon class="fil3" points="158,202 163,0 181,26 179,190 "/>
  </g>
 </g>
</svg>
