<svg xmlns="http://www.w3.org/2000/svg" width="137.48" height="17.69" viewBox="0 0 137.48 17.69">
  <defs>
    <style>
      .cls-1 {
        fill: #fff;
      }
    </style>
  </defs>
  <title>gameart_white</title>
  <g id="Layer_2" data-name="Layer 2">
    <g id="Layer_1-2" data-name="Layer 1">
      <g id="Layer_2-2" data-name="Layer 2">
        <g id="Layer_1-2-2" data-name="Layer 1-2">
          <polygon class="cls-1" points="26.28 10.48 32.2 10.48 29.21 6.13 26.28 10.48"/>
          <polygon class="cls-1" points="136.99 0.5 117.57 0.5 117.08 0.5 117.08 0.99 117.08 3.91 117.08 4.4 117.57 4.4 125.14 4.4 125.14 17.17 125.14 17.66 125.64 17.66 128.92 17.66 129.41 17.66 129.41 17.17 129.41 4.4 136.99 4.4 137.48 4.4 137.48 3.91 137.48 0.99 137.48 0.5 136.99 0.5"/>
          <path class="cls-1" d="M81,.24,80.85,0H0V17.67H72.59l2-3H86.05L88,17.45l.15.21H93l-.53-.77ZM18.83,8.18v5l-.13.11c-1.6,1.37-4,2.07-7,2.07-5.35,0-8.55-2.43-8.55-6.51A5.81,5.81,0,0,1,5.62,3.92a10.44,10.44,0,0,1,6-1.62c3,0,5.07.59,6.63,1.85l.29.24-.24.29L17.3,6l-.24.3-.3-.25c-1-.87-2.31-1.45-5.14-1.45C7.84,4.6,5.93,6,5.93,8.83s1.86,4.25,5.69,4.25a8.62,8.62,0,0,0,4.65-1v-1.9h-5.9V7.8h8.47Zm18.88,7h-2.3L35.29,15l-1.47-2.14H24.71L23.28,15l-.11.17H20.24l.4-.59L28.86,2.31,29,2.15h.55l.11.16L38,14.55l.41.59Zm20-12.45V15.14H55V7.64l-5.26,5-.11.1h-.45l-.11-.1-5.58-5v7.53H40.77V2.32h.7l.11.1,7.81,7.15,7.49-7.14L57,2.32h.7Zm18.68.4L75.26,4.79,75.15,5H64.71V7.48H73.5l-.38.59L72.06,9.68l-.11.17H64.71v2.84h5.38l-.38.59L68.6,15l-.11.17H62V2.51H76.75Zm.76,7.77,3.12-4.63,3.18,4.63Z"/>
          <path class="cls-1" d="M110.38,11.11c3.85-1,4.46-3.61,4.46-5.14a4.62,4.62,0,0,0-2.16-4.16A11.44,11.44,0,0,0,106.55.5H94.9V17.67h4.27V11.53h6.2l5.42,6,.15.16h5.37l-.75-.82Zm-4.1-3.28H99.17V4.33h7.11c4.21,0,4.21.92,4.21,1.74s0,1.76-4.21,1.76"/>
        </g>
      </g>
    </g>
  </g>
</svg>
