<?xml version="1.0" encoding="utf-8"?>
<!-- Generator: Adobe Illustrator 22.0.0, SVG Export Plug-In . SVG Version: 6.00 Build 0)  -->
<svg version="1.1" id="Слой_1" xmlns="http://www.w3.org/2000/svg" xmlns:xlink="http://www.w3.org/1999/xlink" x="0px" y="0px"
	 viewBox="0 0 1558.1 323.8" style="enable-background:new 0 0 1558.1 323.8;" xml:space="preserve">
<style type="text/css">
	.st0{fill:#FFFFFF;}
</style>
<g id="__x0023_Layer_x0020_1">
	<g id="_1370533395760">
		<g>
			<polygon class="st0" points="1502.7,156 1493.7,156 1493.7,130.3 1485.3,130.3 1485.3,122.6 1511.7,122.6 1511.7,130.3 
				1502.7,130.3 			"/>
			<polygon class="st0" points="1558.1,156 1549.3,156 1549.9,130.4 1549.7,130.4 1541.4,156 1533.7,156 1525.1,130.4 1524.8,130.4 
				1525.6,156 1516.8,156 1516.8,122.6 1530.9,122.6 1537.3,143.5 1537.6,143.5 1543.6,122.6 1558.1,122.6 			"/>
		</g>
		<g>
			<polygon class="st0" points="458.5,262.2 420.4,262.2 420.4,206.4 371,206.4 371,262.2 332.9,262.2 332.9,120.1 371,120.1 
				371,173.8 420.4,173.8 420.4,120.1 458.5,120.1 			"/>
			<path class="st0" d="M519.2,237.7l-6.8,24.5h-39.6l42.6-142.1h57.7l43.2,142.1h-38.8l-7.5-24.5H519.2z M544.8,148.5L544.8,148.5
				l-17.5,61.8h35.3L544.8,148.5z"/>
			<path class="st0" d="M630.7,120.1H708c12.9,0.1,23.2,2.6,30.9,7.3c7.7,4.8,11.5,14.5,11.5,29.1c0,8.2-1.1,15.4-3.3,21.4
				c-2.2,6-8.5,9.9-18.8,11.6v1.1c9.6,1,16.1,4,19.5,9.2c3.3,5.1,5,12.3,5,21.7c0,15.9-3.2,26.7-9.5,32.3
				c-6.3,5.6-17.9,8.4-34.6,8.4h-78V120.1z M693.1,177L693.1,177c0.6,0.1,1.1,0.2,1.7,0.2c0.6,0,1.1,0,1.5,0
				c4.5-0.1,8.4-0.7,11.6-1.8c3.2-1,4.8-4.5,4.8-10.3c0-5.1-0.9-8.6-2.7-10.6c-1.8-1.9-5.2-2.9-10.3-2.9h-30.9V177H693.1z
				 M694.1,230.9L694.1,230.9c6,0.1,10.9-0.4,14.8-1.6c3.9-1.2,5.8-5.3,5.8-12.3c0-6.7-1.5-10.6-4.6-11.8c-3.1-1.2-7.6-1.8-13.5-1.8
				h-27.9v27.5H694.1z"/>
			<path class="st0" d="M803.4,237.7l-6.8,24.5H757l42.6-142.1h57.7l43.3,142.1h-38.8l-7.5-24.5H803.4z M829,148.5L829,148.5
				l-17.4,61.8h35.3L829,148.5z"/>
			<polygon class="st0" points="1052.5,262.2 987.9,262.2 947.9,152.9 946.2,152.9 947.9,262.2 910.6,262.2 910.6,120.1 
				974.7,120.1 1014.7,228.1 1016.3,228.1 1014.7,120.1 1052.5,120.1 			"/>
			<polygon class="st0" points="1109.3,177 1169.8,177 1169.8,203.4 1109.3,203.4 1109.3,230.9 1175.4,230.9 1175.4,262.2 
				1071.2,262.2 1071.2,120.1 1174.1,120.1 1174.1,151.5 1109.3,151.5 			"/>
			<path class="st0" d="M1193.3,120.1h71.6c18.2,0.1,31.2,3.2,39,9.3c7.8,6,11.7,18.6,11.7,37.6c0,10.6-1.2,19.3-3.5,25.9
				c-2.3,6.6-10.1,11.3-23.3,14.2v1.3c8.8,0.6,15.3,3.2,19.5,8s6.3,11.5,6.3,20.1v25.8h-38.8v-18.9c0-5.7-1.1-10.2-3.3-13.5
				s-6.4-5-12.7-5h-28.3v37.5h-38.1V120.1z M1261.7,192.1L1261.7,192.1c6.9,0.1,11.2-1.4,12.7-4.7c1.5-3.3,2.2-8,2.2-14.1
				c0-6.9-0.8-12.1-2.4-15.3c-1.6-3.3-6.4-4.9-14.5-4.9l-28.3-0.2v39.2H1261.7z"/>
			<path class="st0" d="M1330.5,183.7c0-2.9,0.1-5.8,0.2-8.6c0.1-2.8,0.4-5.7,0.7-8.6c0.3-2.9,0.6-5.8,1-8.6
				c2.7-15.9,10-26.2,21.8-30.9c11.8-4.7,24.5-7.2,38.1-7.5c0.7,0,1.4,0,2.1,0c0.7,0,1.4,0,2.1,0c24.6,0,41.8,4.1,51.6,12.5
				c9.8,8.3,14.7,25.3,14.7,51c0,26.3-2.9,46.2-8.6,59.9c-5.8,13.6-24.6,20.4-56.6,20.4c-2.3,0-4.6,0-7-0.1
				c-2.4-0.1-4.8-0.2-7.2-0.3c-10.8-0.4-21-2.6-30.5-6.6c-9.5-4-16-11.9-19.4-23.9c-1.4-4.8-2.3-9.7-2.6-14.7
				c-0.3-5-0.4-9.9-0.4-14.9v-10.7C1330.5,189.4,1330.5,186.6,1330.5,183.7z M1369.4,191.5L1369.4,191.5v8.5c0,10.1,1.1,17.8,3.2,23
				c2.1,5.3,9.1,7.9,20.9,7.9c13.1,0,21.4-2.1,24.8-6.3c3.5-4.2,5.2-12.3,5.2-24.4c0-1.7,0-3.4,0-5.1s0.1-3.5,0.2-5.3
				c0-1.7,0-3.4,0-5.1s0-3.4,0-5.1c0-9.5-1.4-16.5-4.1-20.9s-9.2-6.6-19.4-6.6c-14.8,0-23.6,2-26.3,6c-2.8,4-4.3,14.9-4.6,32.8
				c0,0.1,0,0.3,0,0.4c0,0.1,0,0.3,0,0.4V191.5z"/>
		</g>
	</g>
	<path class="st0" d="M121,42.7c3.9,0,7.1-3.2,7.1-7.1V15.1c0-3.9-3.2-7.1-7.1-7.1c-3.9,0-7.1,3.2-7.1,7.1v20.5
		C113.8,39.6,117,42.7,121,42.7z"/>
	<path class="st0" d="M92.5,61.6c3.9,0,7.1-3.2,7.1-7.1V34c0-3.9-3.2-7.1-7.1-7.1c-3.9,0-7.1,3.2-7.1,7.1v20.6
		C85.4,58.4,88.6,61.6,92.5,61.6z"/>
	<path class="st0" d="M92.5,14.1c3.9,0,7.1-3.2,7.1-7.1v0.1c0-3.9-3.2-7.1-7.1-7.1c-3.9,0-7.1,3.2-7.1,7.1V7
		C85.4,10.9,88.6,14.1,92.5,14.1z"/>
	<path class="st0" d="M149.4,67.1c3.9,0,7.1-3.2,7.1-7.1v0.1c0-3.9-3.2-7.1-7.1-7.1c-3.9,0-7.1,3.2-7.1,7.1V60
		C142.3,63.9,145.5,67.1,149.4,67.1z"/>
	<path class="st0" d="M206.2,120.1c-3.9,0-7.1,3.2-7.1,7.1v3.1v0.5l-0.1,0c-0.3,3.7-3.3,6.6-7.1,6.6c-3.9,0-7.1-3.2-7.1-7.1v-7.7v-9
		c0-3.9-3.2-7.1-7.1-7.1c-3.9,0-7.1,3.2-7.1,7.1v0.8V113c0,3.9-3.2,7.1-7.1,7.1c-3.9,0-7.1-3.2-7.1-7.1v-6.8V83.3
		c0-3.9-3.2-7.1-7.1-7.1c-3.9,0-7.1,3.2-7.1,7.1v11.3V98l-0.7-0.4c-1.1,2.4-3.5,4.1-6.4,4.1c-3.9,0-7.1-3.1-7.1-7.1v-4.8V62.7
		c0-3.9-3.2-7.1-7.1-7.1c-3.9,0-7.1,3.2-7.1,7.1v19v8.8c0,3.9-3.2,7.1-7.1,7.1c-3.9,0-7.1-3.2-7.1-7.1v-8.9v-1
		c0-3.9-3.2-7.1-7.1-7.1c-3.9,0-7.1,3.2-7.1,7.1v9.3v12.1c0,3.9-3.2,7.1-7.1,7.1c-3.9,0-7.1-3.2-7.1-7.1v-3.9V72.2
		c0-3.9-3.2-7.1-7.1-7.1c-3.9,0-7.1,3.2-7.1,7.1v34v11.5c0,3.9-3.2,7.1-7.1,7.1c-3.9,0-7.1-3.2-7.1-7.1v-3.3v-8.8
		c0-3.9-3.2-7.1-7.1-7.1c-3.9,0-7.1,3.2-7.1,7.1v17v16.5c0,3.9-3.2,7.1-7.1,7.1c-3.9,0-7.1-3.2-7.1-7.1v-8.3v-2.7
		c0-3.9-3.1-7.1-7.1-7.1c-3.9,0-7.1,3.2-7.1,7.1V139L0,139.1v123.1l106.7,61.6l106.7-61.6v-77.9c0-0.1,0-0.2,0-0.3v-56.7
		C213.4,123.3,210.2,120.1,206.2,120.1z M156.9,240.6L156.9,240.6h-33.5v-25.5H89.9v25.5H56.4v-79.9h33.5v26.9h33.5v-26.9h33.5
		V240.6z"/>
</g>
</svg>
