<?xml version="1.0" encoding="UTF-8"?>
<svg width="43px" height="21px" viewBox="0 0 43 21" version="1.1" xmlns="http://www.w3.org/2000/svg" xmlns:xlink="http://www.w3.org/1999/xlink">
    <!-- Generator: Sketch 49.1 (51147) - http://www.bohemiancoding.com/sketch -->
    <title>white</title>
    <desc>Created with Sketch.</desc>
    <defs>
        <polygon id="path-1" points="0 0.0194306569 42.1767445 0.0194306569 42.1767445 19.8540146 0 19.8540146"></polygon>
    </defs>
    <g id="Page-1" stroke="none" stroke-width="1" fill="none" fill-rule="evenodd">
        <g id="white" transform="translate(0.032497, 0.588558)">
            <g id="Group-3" transform="translate(0.000000, 0.126569)">
                <mask id="mask-2" fill="white">
                    <use xlink:href="#path-1"></use>
                </mask>
                <g id="Clip-2"></g>
            </g>
            <path d="M0,2.04325547 C0.0938686131,1.85113869 0.185693431,1.65785401 0.28189781,1.46690511 C0.809927007,0.416394161 2.08554745,0.0473430657 3.06686131,0.65989781 C3.99576642,1.23989781 4.25576642,2.56705109 3.61854015,3.47581022 C2.79722628,4.64705109 0.941313869,4.49464234 0.282189781,3.20135766 C0.18540146,3.01128467 0.0940145985,2.81872993 0,2.62719708 L0,2.04325547 Z" id="Fill-4" fill="#DADADA"></path>
            <path d="M26.8660876,12.6815182 C26.8660876,11.7349489 26.8751387,10.7879416 26.8601022,9.84137226 C26.8560146,9.57991241 26.8214161,9.30341606 26.7276934,9.06224818 C26.5649197,8.64356204 26.2249197,8.40677372 25.7687153,8.40662774 C25.3125109,8.40648175 24.9767445,8.6429781 24.8090073,9.06151825 C24.7211241,9.28064234 24.6742628,9.5310073 24.6730949,9.76764964 C24.6625839,11.6854599 24.6644818,13.6031241 24.671781,15.5209343 C24.6725109,15.7107153 24.711927,15.9076496 24.772219,16.0882336 C24.9298832,16.5594745 25.2863796,16.8301314 25.7310511,16.8466277 C26.1973285,16.863854 26.6072555,16.5834161 26.7656496,16.0898394 C26.8380584,15.864438 26.8590803,15.6150949 26.861854,15.3761168 C26.8725109,14.4781606 26.8662336,13.5797664 26.8660876,12.6815182 M24.6109051,6.0860438 C25.1784964,5.83640876 25.6605401,5.55655474 26.1801022,5.40954745 C27.3949927,5.06575182 28.561854,5.52983942 29.1393723,6.65640876 C29.451927,7.2660438 29.711781,7.97830657 29.7284234,8.65115328 C29.7973285,11.4194745 29.7831679,14.1907153 29.7501752,16.9603504 C29.7443358,17.4501314 29.5492993,17.9558248 29.362438,18.4223942 C28.6765985,20.133781 26.2949927,20.1565547 25.2466715,19.3472117 C25.0754307,19.2149489 24.9157226,19.0676496 24.7567445,18.9323212 C24.6986423,18.9602044 24.6278394,18.9727591 24.621708,18.9997664 C24.4560146,19.7432701 24.4571825,19.7447299 23.6979124,19.7486715 C23.2363066,19.7510073 22.7744088,19.7548029 22.3128029,19.7473577 C21.6577664,19.7369927 21.6577664,19.7329051 21.6450657,19.1099854 C21.6446277,19.0857518 21.6449197,19.0613723 21.6449197,19.0371387 C21.6449197,13.2050219 21.6441898,7.37290511 21.6460876,1.54078832 C21.6462336,0.89480292 21.6532409,0.889547445 22.2730949,0.882248175 C22.8561606,0.875386861 23.4401022,0.898306569 24.022438,0.876408759 C24.441562,0.86049635 24.5738248,1.0450219 24.5701752,1.43991241 C24.5583504,2.72764964 24.5643358,4.01567883 24.5691533,5.30356204 C24.5701752,5.56108029 24.5958686,5.81830657 24.6109051,6.0860438" id="Fill-6" fill="#FFFFFF"></path>
            <path d="M14.8545109,10.0030219 C14.8512993,11.1341168 14.8512993,11.1344088 16.0133431,11.1330949 C16.2305693,11.1328029 16.4526131,11.1554307 16.6631241,11.1168905 C16.7727591,11.0968905 16.9473577,10.9669635 16.9472117,10.8868175 C16.9463358,10.2869635 16.9803504,9.67309489 16.863854,9.09178102 C16.7387445,8.46754745 16.2921752,8.21163504 15.7597664,8.29178102 C15.2397664,8.37017518 14.8956788,8.76725547 14.8568467,9.35148905 C14.8423942,9.56783942 14.8545109,9.78579562 14.8545109,10.0030219 Z M11.8307153,12.9725109 C11.8307153,12.0970365 11.8286715,11.221562 11.8311533,10.3460876 C11.834073,9.33689051 12.0445839,8.36929927 12.4510073,7.4479854 C13.0574307,6.07294891 14.0546569,5.27148905 15.623854,5.36272993 C16.1783066,5.3949927 16.7567007,5.37776642 17.2793285,5.53367883 C18.9645839,6.03572263 19.9292555,7.38418978 19.9568467,9.19440876 C19.9761168,10.4586423 19.9648759,11.7234599 19.9590365,12.9878394 C19.9561168,13.5944088 19.9475036,13.6090073 19.3558248,13.6138248 C18.0912993,13.6243358 16.8267737,13.6138248 15.5622482,13.6192263 C14.7469197,13.6228759 14.7361168,13.6288613 14.743562,14.422292 C14.7480876,14.9063796 14.7212263,15.4082774 14.8421022,15.8671095 C14.9247299,16.1803942 15.1810803,16.5292993 15.4593285,16.6938248 C16.1699854,17.1138248 16.8526131,16.7694453 16.9485255,15.9490073 C16.9952409,15.5495912 17.1494015,15.4684234 17.4918832,15.4757226 C18.124,15.4897372 18.7564088,15.4801022 19.3886715,15.481562 C19.6180146,15.482146 19.7985985,15.502146 19.8477956,15.8106131 C20.0816642,17.2733869 18.824438,19.3361606 17.3803504,19.6958686 C16.3602044,19.9500292 15.3000584,19.9754307 14.2969927,19.5936788 C12.7447299,19.0031679 11.9856058,17.7812701 11.8685255,16.1806861 C11.7908613,15.1165985 11.853781,14.042292 11.853781,12.9725109 L11.8307153,12.9725109 Z" id="Fill-8" fill="#FFFFFF"></path>
            <path d="M5.27664234,3.97029197 C5.6859854,3.02036496 5.78481752,2.09905109 5.47430657,1.15569343 C5.35124088,0.782116788 5.56817518,0.727518248 5.85240876,0.772335766 C8.00116788,1.11014599 9.78729927,2.29014599 10.3274453,4.84270073 C10.4272993,5.31452555 10.4851095,5.80445255 10.4871533,6.28649635 C10.4986861,9.03525547 10.5080292,11.7844526 10.4738686,14.5329197 C10.459854,15.6641606 10.1360584,16.7409489 9.57109489,17.7269343 C8.72408759,19.2051825 7.42481752,19.8431387 5.73737226,19.750292 C5.40262774,19.7318978 5.25547445,19.6082482 5.25985401,19.2672263 C5.27021898,18.440073 5.27007299,17.6127737 5.25941606,16.7857664 C5.25532847,16.4754015 5.39635036,16.3958394 5.68729927,16.3391971 C6.71226277,16.1393431 7.09591241,15.7152555 7.18963504,14.6790511 C7.24656934,14.0508759 7.25226277,13.4168613 7.25474453,12.7853285 C7.26262774,10.8632847 7.25751825,8.94138686 7.25751825,7.01934307 C7.25751825,6.87335766 7.25927007,6.72737226 7.25678832,6.58138686 C7.23109489,5.00737226 6.81270073,4.44065693 5.27664234,3.97029197" id="Fill-10" fill="#FFFFFF"></path>
            <path d="M36.3894307,9.17087591 C36.3894307,7.08080292 36.3881168,4.99058394 36.3901606,2.90065693 C36.3908905,2.1559854 36.3943942,2.15408759 37.1622774,2.14839416 C37.6726423,2.14459854 38.1831533,2.14270073 38.6933723,2.1489781 C39.4342482,2.15832117 39.4510365,2.17452555 39.456292,2.94474453 C39.4622774,3.79525547 39.4736642,4.64620438 39.4533723,5.49627737 C39.4428613,5.93613139 39.6094307,6.11175182 40.0500146,6.09306569 C40.5593577,6.07145985 41.0704526,6.09554745 41.5809635,6.09306569 C41.8837372,6.09160584 42.016146,6.2240146 42.0073869,6.53510949 C41.9932263,7.0450365 41.9932263,7.5559854 42.0073869,8.06605839 C42.016146,8.37992701 41.8773139,8.50562044 41.5771679,8.50459854 C41.0424234,8.50270073 40.5076788,8.51934307 39.9733723,8.5079562 C39.5986277,8.49978102 39.4554161,8.66518248 39.4573139,9.03189781 C39.4668029,10.9516058 39.4484088,12.8718978 39.4752701,14.7913139 C39.4875328,15.6635766 39.8101606,16.3510219 40.7851971,16.5514599 C40.9005255,16.5751095 41.0422774,16.8227007 41.0475328,16.9708759 C41.0741022,17.7232847 41.0526423,18.4771533 41.0624234,19.230438 C41.0672409,19.6051825 40.8903066,19.7245985 40.5317664,19.7523358 C38.5898686,19.9029927 36.9409635,18.649708 36.5485547,16.6663504 C36.4454891,16.1462044 36.4009635,15.6073723 36.396438,15.0764234 C36.3790657,13.1081022 36.3894307,11.1393431 36.3894307,9.17087591" id="Fill-12" fill="#FFFFFF"></path>
            <path d="M3.6000292,12.9207445 C3.6000292,14.9382628 3.60134307,16.955927 3.59944526,18.9734453 C3.59871533,19.7073139 3.59506569,19.7112555 2.89550365,19.7185547 C2.33652555,19.7245401 1.77725547,19.7239562 1.21827737,19.7188467 C0.494043796,19.7125693 0.489080292,19.7096496 0.48849635,18.9995766 C0.486014599,16.6902336 0.487474453,14.3810365 0.487474453,12.0718394 C0.487474453,10.2486277 0.500029197,8.42541606 0.478569343,6.60264234 C0.473459854,6.16512409 0.585430657,5.99183942 1.04674453,6.01709489 C1.70119708,6.05271533 2.3590073,6.02030657 3.01521168,6.02775182 C3.5899562,6.03417518 3.59754745,6.04074453 3.59856934,6.64921168 C3.60221898,8.73972263 3.6000292,10.8302336 3.6000292,12.9207445" id="Fill-14" fill="#DADADA"></path>
            <path d="M31.5382628,12.8437518 C31.5379708,10.8030219 31.535781,8.76214599 31.5392847,6.72141606 C31.5404526,6.01805839 31.5467299,6.01586861 32.2681898,6.01280292 C32.8998686,6.01017518 33.5318394,6.02331387 34.1630803,6.00959124 C34.4779708,6.00272993 34.6096496,6.13163504 34.5921314,6.43849635 C34.5851241,6.55951825 34.5934453,6.68141606 34.5934453,6.80287591 C34.5935912,10.8358686 34.5943212,14.8690073 34.5928613,18.902 C34.5925693,19.7428759 34.5887737,19.7444818 33.7538832,19.7485693 C33.2194307,19.7510511 32.6846861,19.7579124 32.1503796,19.7455036 C31.5646861,19.732073 31.5430803,19.7158686 31.5411825,19.112073 C31.5343212,17.0225839 31.5384088,14.9332409 31.5382628,12.8437518" id="Fill-16" fill="#FFFFFF"></path>
            <path d="M35.0263796,2.30629197 C35.0349927,3.4319854 34.2453577,4.24877372 33.1262336,4.2719854 C31.9636058,4.29621898 31.1284234,3.49169343 31.1228759,2.34205839 C31.1173285,1.23110949 32.0139708,0.316656934 33.0914891,0.334175182 C34.1733869,0.351839416 35.0179124,1.21271533 35.0263796,2.30629197" id="Fill-18" fill="#FFFFFF"></path>
        </g>
    </g>
</svg>