<?xml version="1.0" encoding="UTF-8"?>
<svg width="403px" height="48px" viewBox="0 0 403 48" version="1.1" xmlns="http://www.w3.org/2000/svg" xmlns:xlink="http://www.w3.org/1999/xlink">
    <!-- Generator: Sketch 49.1 (51147) - http://www.bohemiancoding.com/sketch -->
    <title>white</title>
    <desc>Created with Sketch.</desc>
    <defs>
        <polygon id="path-1" points="0.8564 0.1954 35.485 0.1954 35.485 44.7154 0.8564 44.7154"></polygon>
        <polygon id="path-3" points="0 46.9128 402.485 46.9128 402.485 -0.0002 0 -0.0002"></polygon>
    </defs>
    <g id="Page-1" stroke="none" stroke-width="1" fill="none" fill-rule="evenodd">
        <g id="white" transform="translate(0.127388, 0.227809)">
            <path d="M117.6094,1.0633 C114.8834,16.1583 112.2424,30.7813 109.5554,45.6583 L98.5164,45.6583 C95.6214,37.5773 92.7484,29.5553 89.8754,21.5353 C89.5674,21.5493 89.2594,21.5653 88.9514,21.5813 C87.4634,29.5383 85.9744,37.4963 84.4424,45.6823 L73.6714,45.6823 C76.3304,30.7433 78.9494,16.0193 81.6004,1.1233 L92.5394,1.1233 C95.3154,8.7923 98.2124,16.7963 101.5204,25.9393 C104.6764,17.1913 104.4764,8.8413 107.0544,1.0633 L117.6094,1.0633 Z" id="Fill-1" fill="#FFFFFF"></path>
            <path d="M320.4844,18.6629 C324.1514,18.5979 327.4074,19.7669 329.6764,16.6019 C330.8984,14.8969 330.5574,12.8389 329.4494,11.5319 C327.0504,8.7019 323.7794,10.1069 320.4844,10.2089 L320.4844,18.6629 Z M320.0584,31.5699 C319.9644,36.4019 320.0634,36.5329 323.8204,36.6049 C329.7934,36.7209 331.8124,35.4939 331.8004,31.7579 C331.7904,28.3539 330.2424,27.1269 325.8174,27.0149 C320.1504,26.8699 320.1504,26.8699 320.0584,31.5699 Z M308.8774,45.8939 L308.8774,0.8889 L316.6564,0.8889 C321.1474,0.8879 325.6454,1.0499 330.1284,0.8429 C335.0114,0.6169 338.5304,2.5979 340.6124,6.8789 C342.8644,11.5099 341.8974,16.3369 338.2874,20.1419 C337.8334,20.6199 337.3304,21.0529 336.7644,21.5869 C337.0034,21.9989 337.1344,22.5859 337.4804,22.7699 C342.9054,25.6739 343.7134,30.3799 343.0164,35.9339 C342.3424,41.3089 338.4224,45.6649 331.8194,45.8469 C324.3534,46.0529 316.8774,45.8939 308.8774,45.8939 Z" id="Fill-3" fill="#FFFFFF"></path>
            <path d="M241.0889,11.3123 C241.2619,19.5573 240.5479,27.6023 241.4969,35.4973 C249.7369,36.9353 251.7419,34.1063 252.5939,26.8943 C252.8469,24.7603 252.7999,22.5573 252.6059,20.4113 C251.9059,12.6863 249.0549,9.8753 241.0889,11.3123 M229.9149,45.9273 L229.9149,0.8853 L238.7349,0.8853 C241.4009,0.8853 244.0809,1.0613 246.7319,0.8543 C258.1199,-0.0377 262.7009,8.7903 263.5879,16.1093 C264.1989,21.1583 264.1319,26.3853 263.6009,31.4533 C262.6639,40.3773 256.0269,45.8893 246.9679,45.9233 C241.4719,45.9443 235.9749,45.9273 229.9149,45.9273" id="Fill-5" fill="#FFFFFF"></path>
            <polygon id="Fill-7" fill="#FFFFFF" points="282.2354 35.9011 301.9994 35.9011 301.9994 45.6041 270.7964 45.6041 270.7964 1.2451 301.3864 1.2451 301.3864 10.1421 282.1844 10.1421 282.1844 17.7471 300.0364 17.7471 300.0364 26.7361 282.2354 26.7361"></polygon>
            <path d="M119.209,31.158 C122.683,30.836 125.813,30.544 129.162,30.232 C129.65,31.72 130.008,33.324 130.689,34.777 C132.071,37.724 135.47,39.067 138.206,37.421 C139.623,36.568 141.085,34.806 141.31,33.277 C141.48,32.121 139.991,30.273 138.761,29.455 C136.291,27.813 133.454,26.736 130.838,25.299 C124.331,21.723 122.288,17.663 123.583,11.116 C124.852,4.698 129.116,0.529 135.86,0.068 C139.434,-0.176 143.227,0.241 146.667,1.237 C151.157,2.538 153.468,6.325 154.603,10.73 C155.092,12.632 154.041,13.575 152.204,13.613 C149.562,13.667 146.918,13.627 144.209,13.627 C143.764,12.469 143.476,11.163 142.807,10.096 C141.563,8.113 138.729,7.402 136.617,8.326 C133.61,9.642 133.163,12.72 135.924,14.462 C138.583,16.139 141.525,17.36 144.288,18.88 C148.051,20.951 150.864,23.712 151.893,28.184 C153.741,36.213 148.946,45.671 138.705,46.79 C135.482,47.141 132.042,46.701 128.858,45.958 C121.998,44.356 118.51,38.863 119.209,31.158" id="Fill-9" fill="#FFFFFF"></path>
            <path d="M211.0987,16.6511 C210.7287,16.5811 210.3597,16.5101 209.9897,16.4401 C207.9767,20.4521 205.6197,24.3241 204.7307,29.4041 C207.2647,29.2231 209.3007,29.0771 211.0987,28.9491 L211.0987,16.6511 Z M205.9677,1.0451 L221.5097,1.0451 L221.5097,45.6751 L211.8207,45.6751 C211.7247,43.8191 211.6177,41.7381 211.4727,38.9371 C208.0897,38.9371 204.6577,38.7561 201.2667,39.0571 C200.3507,39.1381 199.0867,40.5471 198.8027,41.5731 C197.7687,45.3001 195.4827,46.5681 191.7977,46.0811 C190.1817,45.8671 188.5147,46.0451 185.9677,46.0451 C192.8317,30.6011 199.3917,15.8401 205.9677,1.0451 Z" id="Fill-11" fill="#FFFFFF"></path>
            <path d="M158.939,11.9998 C159.658,8.0788 160.273,4.7238 160.93,1.1368 L196.188,1.1368 C195.619,4.7978 195.099,8.1448 194.522,11.8518 L182.284,11.8518 C180.262,23.2248 178.304,34.2328 176.286,45.5828 L164.66,45.5828 C166.623,34.4718 168.561,23.4968 170.591,11.9998 L158.939,11.9998 Z" id="Fill-13" fill="#FFFFFF"></path>
            <g id="Group-17" transform="translate(367.000000, 0.912800)">
                <mask id="mask-2" fill="white">
                    <use xlink:href="#path-1"></use>
                </mask>
                <g id="Clip-16"></g>
                <polygon id="Fill-15" fill="#FFFFFF" mask="url(#mask-2)" points="23.7774 10.7774 23.7774 44.7154 12.7494 44.7154 12.7494 11.1134 0.8564 11.1134 0.8564 0.1954 35.4854 0.1954 35.4854 10.7774"></polygon>
            </g>
            <mask id="mask-4" fill="white">
                <use xlink:href="#path-3"></use>
            </mask>
            <g id="Clip-19"></g>
            <polygon id="Fill-18" fill="#FFFFFF" mask="url(#mask-4)" points="350.045 45.5998 361.429 45.5998 361.429 1.0478 350.045 1.0478"></polygon>
            <path d="M61.5435,1.0759 L72.9875,1.0759 C70.9135,16.0989 67.7845,30.6969 65.4015,45.6599 L53.5825,45.6599 C56.2645,30.6399 58.8945,15.9109 61.5435,1.0759" id="Fill-20" fill="#FFFFFF" mask="url(#mask-4)"></path>
            <path d="M52.8374,1.0369 C51.6954,7.3329 50.6194,13.2659 49.5004,19.4399 L30.6594,19.4399 C31.7844,13.1219 32.8444,7.1639 33.9354,1.0369 L52.8374,1.0369 Z" id="Fill-21" fill="#DFDFDF" mask="url(#mask-4)"></path>
            <path d="M48.461,27.3386 C47.319,33.6346 46.243,39.5676 45.124,45.7406 L26.284,45.7406 C27.408,39.4226 28.469,33.4656 29.559,27.3386 L48.461,27.3386 Z" id="Fill-22" fill="#DFDFDF" mask="url(#mask-4)"></path>
            <path d="M3.2754,27.3386 L22.1774,27.3386 C21.0354,33.6346 19.9594,39.5676 18.8404,45.7406 L0.0004,45.7406" id="Fill-23" fill="#DFDFDF" mask="url(#mask-4)"></path>
        </g>
    </g>
</svg>