<?xml version="1.0" encoding="UTF-8"?>
<svg width="115px" height="20px" viewBox="0 0 115 20" version="1.1" xmlns="http://www.w3.org/2000/svg" xmlns:xlink="http://www.w3.org/1999/xlink">
    <!-- Generator: Sketch 51.3 (57544) - http://www.bohemiancoding.com/sketch -->
    <title>on_w_co</title>
    <desc>Created with Sketch.</desc>
    <defs></defs>
    <g id="Page-1" stroke="none" stroke-width="1" fill="none" fill-rule="evenodd">
        <g id="on_w_co">
            <g id="Group-3" fill="#FFFFFF">
                <path d="M19.7978801,19.7515793 C20.2228971,19.4416786 20.4976461,18.9507754 20.4976461,18.3977967 L20.4976461,1.41850327 C20.4976461,0.865548868 20.2228987,0.374656266 19.7978801,0.0647592762 L36.4380894,0.0647592762 C37.3790305,0.0647592762 38.1432137,0.798631573 38.1432137,1.70512273 L38.1432137,18.1111785 C38.1432137,19.0177069 37.3790305,19.7515793 36.4380894,19.7515793 L19.7978801,19.7515793 Z M25.1560748,10.0545325 L25.1560748,9.88459656 C25.1544526,9.52950461 25.0883483,9.21457656 24.9577599,8.93980308 C24.8271715,8.66502954 24.6442694,8.45324572 24.4090481,8.30444529 C24.1738268,8.15564486 23.9061652,8.08124577 23.6060552,8.08124577 C23.3027008,8.08124577 23.0322003,8.15649029 22.7945457,8.30698165 C22.5568911,8.45747301 22.3743945,8.67094769 22.2470506,8.94741217 C22.1197066,9.22387658 22.0560356,9.54303179 22.0560356,9.90488739 L22.0560356,10.1128688 C22.0625244,10.4611971 22.131062,10.7697842 22.2616504,11.0386396 C22.3922388,11.3074949 22.5743298,11.514206 22.8079289,11.6587792 C23.0415281,11.8033523 23.3091897,11.8756378 23.6109219,11.8756378 C23.912654,11.8756378 24.1815323,11.800816 24.4175647,11.6511701 C24.6535971,11.5015242 24.8356881,11.2880496 24.9638432,11.0107397 C25.0919983,10.7334297 25.1560748,10.4146972 25.1560748,10.0545325 Z M24.2873825,9.89981467 L24.2873825,10.0697507 C24.2857603,10.4282245 24.2265503,10.7029939 24.1097508,10.8940671 C23.9929512,11.0851404 23.8266766,11.1806756 23.6109219,11.1806756 C23.3838116,11.1806756 23.2126704,11.0834496 23.097493,10.8889944 C22.9823157,10.6945393 22.9247279,10.4163881 22.9247279,10.0545325 L22.9271612,9.78314222 C22.9514945,9.11354024 23.1777902,8.7787443 23.6060552,8.7787443 C23.8250544,8.7787443 23.9933567,8.87385677 24.1109674,9.06408462 C24.2285781,9.25431247 24.2873825,9.53288634 24.2873825,9.89981467 Z M26.311898,9.08057097 L25.5429714,9.08057097 L25.5429714,11.8249106 L26.3629975,11.8249106 L26.3629975,9.88713292 C26.4408639,9.75524159 26.560095,9.68929696 26.7206944,9.68929696 C26.8618272,9.68929696 26.9591587,9.72184653 27.0126918,9.78694676 C27.0662249,9.85204693 27.092991,9.95392299 27.092991,10.0925779 L27.092991,11.8249106 L27.9154505,11.8249106 L27.9154505,10.0570689 C27.9105838,9.71381333 27.840424,9.45679827 27.704969,9.28601595 C27.5695139,9.11523363 27.3647123,9.0298438 27.0905578,9.0298438 C26.7709812,9.0298438 26.5203526,9.1541241 26.3386644,9.40268847 L26.311898,9.08057097 Z M29.2343055,11.8249106 L29.2343055,7.92906426 L28.4118461,7.92906426 L28.4118461,11.8249106 L29.2343055,11.8249106 Z M30.60426,11.8249106 L30.60426,9.08057097 L29.7818006,9.08057097 L29.7818006,11.8249106 L30.60426,11.8249106 Z M29.7331344,8.37292699 C29.7331344,8.49467282 29.7753114,8.59443519 29.8596666,8.67221724 C29.9440219,8.74999928 30.0535198,8.78888975 30.1881637,8.78888975 C30.3228076,8.78888975 30.4323056,8.74999928 30.5166608,8.67221724 C30.601016,8.59443519 30.643193,8.49467282 30.643193,8.37292699 C30.643193,8.25118117 30.601016,8.15141873 30.5166608,8.07363669 C30.4323056,7.99585465 30.3228076,7.95696424 30.1881637,7.95696424 C30.0535198,7.95696424 29.9440219,7.99585465 29.8596666,8.07363669 C29.7753114,8.15141873 29.7331344,8.25118117 29.7331344,8.37292699 Z M31.8622822,9.08057097 L31.0933557,9.08057097 L31.0933557,11.8249106 L31.9133818,11.8249106 L31.9133818,9.88713292 C31.9912482,9.75524159 32.1104793,9.68929696 32.2710786,9.68929696 C32.4122114,9.68929696 32.5095429,9.72184653 32.5630761,9.78694676 C32.6166092,9.85204693 32.6433753,9.95392299 32.6433753,10.0925779 L32.6433753,11.8249106 L33.4658348,11.8249106 L33.4658348,10.0570689 C33.4609681,9.71381333 33.3908083,9.45679827 33.2553533,9.28601595 C33.1198982,9.11523363 32.9150966,9.0298438 32.6409421,9.0298438 C32.3213655,9.0298438 32.0707369,9.1541241 31.8890486,9.40268847 L31.8622822,9.08057097 Z M35.1934861,11.8756378 C35.4092409,11.8756378 35.6107982,11.8320974 35.7981641,11.7450154 C35.9855301,11.6579333 36.1303107,11.5408393 36.2325103,11.3937298 L35.8577803,10.9321125 C35.7117808,11.1214949 35.5090069,11.2161846 35.2494523,11.2161846 C35.0920974,11.2161846 34.9639442,11.1722216 34.864989,11.084294 C34.7660339,10.9963665 34.7019573,10.875468 34.6727574,10.7215948 L36.3030763,10.7215948 L36.3030763,10.3893319 C36.3030763,9.96153058 36.1960117,9.62800283 35.9818792,9.38873848 C35.7677466,9.14947413 35.4757522,9.0298438 35.1058869,9.0298438 C34.8430879,9.0298438 34.6159811,9.08860216 34.4245596,9.20612068 C34.2331381,9.32363921 34.0875464,9.48976903 33.9877802,9.70451507 C33.8880138,9.91926117 33.8381314,10.1669763 33.8381314,10.4476681 L33.8381314,10.5186861 C33.8381314,10.9211236 33.9630402,11.2478879 34.2128615,11.4989886 C34.4626827,11.7500893 34.7895543,11.8756378 35.1934861,11.8756378 Z M35.1010203,9.68929696 C35.2307976,9.68929696 35.3305623,9.72691919 35.4003177,9.80216487 C35.4700729,9.87741055 35.5033278,9.98351383 35.5000835,10.1204779 L35.5000835,10.1864232 L34.6727574,10.1864232 C34.7181794,9.85500403 34.8609323,9.68929696 35.1010203,9.68929696 Z" id="Combined-Shape" fill-rule="nonzero"></path>
                <path d="M44.8434895,7.90154251 C44.9458292,7.90154251 45.0390301,7.8686481 45.1230948,7.8028583 C45.2071595,7.73706849 45.2491913,7.64935007 45.2491913,7.5397004 C45.2491913,7.42274075 45.2016771,7.33867727 45.1066474,7.28750742 C45.0116177,7.23633757 44.9238993,7.21075303 44.8434895,7.21075303 L44.3281387,7.21075303 L44.3281387,7.90154251 L44.8434895,7.90154251 Z M45.3259457,9.46952496 L44.7228755,8.38399865 L44.3281387,8.38399865 L44.3281387,9.46952496 L43.659279,9.46952496 L43.659279,6.66250742 L44.8654194,6.66250742 C44.996999,6.66250742 45.1249217,6.67712716 45.2491913,6.70636707 C45.3734609,6.73560698 45.4867639,6.78312113 45.5891036,6.84891093 C45.6914433,6.91470073 45.7736793,7.00424662 45.8358141,7.11755128 C45.8979489,7.23085594 45.9290159,7.37157091 45.9290159,7.5397004 C45.9290159,7.72975983 45.8760193,7.886922 45.7700246,8.01119163 C45.6640299,8.13546126 45.5306248,8.22683461 45.3698053,8.28531444 L46.1154194,9.46952496 L45.3259457,9.46952496 Z M42.2228755,8.09891093 C42.2228755,7.75534196 42.2886643,7.43188028 42.4202439,7.12851619 C42.5518235,6.8251521 42.7309153,6.56199684 42.9575246,6.33904251 C43.1841339,6.11608818 43.4491167,5.93882387 43.7524808,5.80724426 C44.0558449,5.67566466 44.3793065,5.60987584 44.7228755,5.60987584 C45.0664445,5.60987584 45.3899061,5.67566466 45.6932702,5.80724426 C45.9966343,5.93882387 46.2616171,6.11608818 46.4882264,6.33904251 C46.7148357,6.56199684 46.8939275,6.8251521 47.0255071,7.12851619 C47.1570867,7.43188028 47.2228755,7.75534196 47.2228755,8.09891093 C47.2228755,8.4424799 47.1570867,8.76411411 47.0255071,9.06382321 C46.8939275,9.36353231 46.7148357,9.62486011 46.4882264,9.84781444 C46.2616171,10.0707688 45.9966343,10.2462056 45.6932702,10.3741302 C45.3899061,10.5020548 45.0664445,10.5660162 44.7228755,10.5660162 C44.3793065,10.5660162 44.0558449,10.5020548 43.7524808,10.3741302 C43.4491167,10.2462056 43.1841339,10.0707688 42.9575246,9.84781444 C42.7309153,9.62486011 42.5518235,9.36353231 42.4202439,9.06382321 C42.2886643,8.76411411 42.2228755,8.4424799 42.2228755,8.09891093 Z M42.6176123,8.09891093 C42.6176123,8.38400007 42.6724364,8.6544652 42.782086,8.91031444 C42.8917357,9.16616367 43.041588,9.39094212 43.2316474,9.58465654 C43.4217069,9.77837096 43.6446578,9.93005073 43.9005071,10.0397004 C44.1563563,10.1493501 44.4304764,10.2041741 44.7228755,10.2041741 C45.0152746,10.2041741 45.2893947,10.1493501 45.5452439,10.0397004 C45.8010932,9.93005073 46.0240441,9.77837096 46.2141036,9.58465654 C46.404163,9.39094212 46.5540153,9.16616367 46.663665,8.91031444 C46.7733146,8.6544652 46.8281387,8.38400007 46.8281387,8.09891093 C46.8281387,7.8065118 46.7733146,7.53239174 46.663665,7.27654251 C46.5540153,7.02069327 46.404163,6.79774229 46.2141036,6.60768286 C46.0240441,6.41762343 45.8010932,6.26777113 45.5452439,6.15812145 C45.2893947,6.04847178 45.0152746,5.99364777 44.7228755,5.99364777 C44.4304764,5.99364777 44.1563563,6.04847178 43.9005071,6.15812145 C43.6446578,6.26777113 43.4217069,6.41762343 43.2316474,6.60768286 C43.041588,6.79774229 42.8917357,7.02069327 42.782086,7.27654251 C42.6724364,7.53239174 42.6176123,7.8065118 42.6176123,8.09891093 Z" id="®" fill-rule="nonzero"></path>
                <path d="M50.3923091,9.40552007 L50.3923091,6.43188725 L49.3302973,6.43188725 L49.3302973,5.8264185 L52.1745356,5.8264185 L52.1745356,6.43188725 L51.1149653,6.43188725 L51.1149653,9.40552007 L50.3923091,9.40552007 Z M53.2926997,9.40552007 L52.6066645,9.40552007 L52.6066645,6.81274663 L53.2438716,6.81274663 L53.2438716,7.18139897 C53.3529216,7.00724446 53.4509838,6.89249951 53.538061,6.83716069 C53.6251383,6.78182187 53.7240142,6.75415288 53.8346919,6.75415288 C53.9909427,6.75415288 54.1414945,6.79728396 54.286352,6.88354741 L54.0739497,7.48169194 C53.9583892,7.40682178 53.8509684,7.36938725 53.7516841,7.36938725 C53.6556549,7.36938725 53.5742755,7.39583556 53.5075434,7.44873296 C53.4408113,7.50163036 53.3883216,7.59725115 53.3500727,7.73559819 C53.3118238,7.87394524 53.2926997,8.16365588 53.2926997,8.60473882 L53.2926997,9.40552007 Z M55.0944575,7.60376225 L54.4718989,7.49145757 C54.5418862,7.24080527 54.6623277,7.05526025 54.833227,6.93481694 C55.0041263,6.81437363 55.25803,6.75415288 55.5949458,6.75415288 C55.9009369,6.75415288 56.1287992,6.79036671 56.2785395,6.86279546 C56.4282799,6.93522421 56.5336662,7.02718292 56.5947016,7.13867436 C56.6557371,7.25016581 56.6862544,7.45483498 56.6862544,7.75268804 L56.6789302,8.55346929 C56.6789302,8.78133501 56.6899164,8.94938346 56.7118891,9.05761968 C56.7338619,9.16585589 56.7749585,9.28182153 56.8351802,9.40552007 L56.1564692,9.40552007 C56.1385655,9.35994692 56.1165931,9.29240203 56.0905513,9.20288335 C56.079158,9.16219304 56.07102,9.13533784 56.0661372,9.12231694 C55.9489491,9.2362498 55.8236248,9.32169817 55.6901606,9.3786646 C55.5566964,9.43563103 55.4142825,9.46411382 55.2629145,9.46411382 C54.9959861,9.46411382 54.7856204,9.39168616 54.631811,9.24682866 C54.4780017,9.10197117 54.4010981,8.91886753 54.4010981,8.69751225 C54.4010981,8.55102715 54.4360913,8.42041322 54.5060786,8.30566655 C54.5760659,8.19091988 54.6741281,8.10303014 54.8002681,8.04199468 C54.926408,7.98095922 55.108291,7.92765571 55.3459223,7.88208257 C55.666562,7.82186091 55.8887277,7.76570913 56.0124263,7.71362554 L56.0124263,7.64526616 C56.0124263,7.51342956 55.9798745,7.41943636 55.91477,7.36328374 C55.8496655,7.30713111 55.7267826,7.27905522 55.5461177,7.27905522 C55.4240467,7.27905522 55.3288328,7.30306214 55.2604731,7.35107671 C55.1921134,7.39909127 55.1367754,7.48331894 55.0944575,7.60376225 Z M56.0124263,8.16040288 C55.9245352,8.1896999 55.7853764,8.22469304 55.5949458,8.26538335 C55.4045151,8.30607366 55.2800047,8.34594956 55.2214106,8.38501225 C55.131892,8.44848913 55.0871333,8.52905474 55.0871333,8.62671147 C55.0871333,8.7227406 55.1229402,8.80574758 55.1945552,8.87573491 C55.2661701,8.94572224 55.357315,8.98071538 55.4679927,8.98071538 C55.5916912,8.98071538 55.7096913,8.94002568 55.8219966,8.85864507 C55.9050048,8.7967958 55.959529,8.72111296 55.9855708,8.63159429 C56.0034745,8.57300024 56.0124263,8.46151047 56.0124263,8.29712163 L56.0124263,8.16040288 Z M59.7404536,9.40552007 L59.1032466,9.40552007 L59.1032466,9.02466069 C58.9974518,9.17277341 58.8725344,9.28304249 58.7284907,9.35547124 C58.584447,9.42789999 58.4391848,9.46411382 58.2926997,9.46411382 C57.9948466,9.46411382 57.7397222,9.34407921 57.5273188,9.1040064 C57.3149154,8.86393358 57.2087153,8.52905737 57.2087153,8.09936772 C57.2087153,7.6599124 57.3120671,7.32584999 57.5187739,7.09717046 C57.7254807,6.86849093 57.9867085,6.75415288 58.3024653,6.75415288 C58.5921803,6.75415288 58.8428288,6.87459438 59.0544184,7.115481 L59.0544184,5.8264185 L59.7404536,5.8264185 L59.7404536,9.40552007 Z M57.9093989,8.052981 C57.9093989,8.3296751 57.9476472,8.52986841 58.024145,8.65356694 C58.1348226,8.8326043 58.2894435,8.92212163 58.4880122,8.92212163 C58.6458906,8.92212163 58.7801666,8.85498363 58.8908442,8.72070561 C59.0015219,8.5864276 59.0568598,8.38582739 59.0568598,8.11889897 C59.0568598,7.82104592 59.0031494,7.60661122 58.895727,7.47558843 C58.7883046,7.34456564 58.6507734,7.27905522 58.4831294,7.27905522 C58.3203681,7.27905522 58.1840577,7.34375184 58.0741938,7.47314702 C57.96433,7.6025422 57.9093989,7.79581826 57.9093989,8.052981 Z M61.918188,8.58032475 L62.6017817,8.69507085 C62.5138907,8.94572314 62.3751388,9.13655782 62.185522,9.26758061 C61.9959051,9.3986034 61.7586842,9.46411382 61.473852,9.46411382 C61.0230034,9.46411382 60.6893479,9.31681711 60.4728755,9.02221929 C60.3019762,8.7862155 60.2165278,8.48836692 60.2165278,8.1286646 C60.2165278,7.69897495 60.3288314,7.36247115 60.5534419,7.11914311 C60.7780524,6.87581507 61.0620665,6.75415288 61.4054927,6.75415288 C61.7912368,6.75415288 62.0955957,6.88151163 62.3185786,7.13623296 C62.5415615,7.39095428 62.6481685,7.78116848 62.6384028,8.30688725 L60.9196528,8.30688725 C60.9245357,8.51033879 60.9798736,8.66862172 61.0856684,8.78174077 C61.1914632,8.89485983 61.3232979,8.9514185 61.4811763,8.9514185 C61.5885987,8.9514185 61.6789298,8.92212192 61.7521723,8.86352788 C61.8254149,8.80493384 61.8807529,8.71053374 61.918188,8.58032475 Z M61.9572505,7.88696538 C61.9523676,7.68839668 61.9010986,7.5374379 61.8034419,7.43408452 C61.7057851,7.33073114 61.5869712,7.27905522 61.4469966,7.27905522 C61.2972562,7.27905522 61.1735596,7.33357942 61.0759028,7.44262944 C60.9782461,7.55167947 60.9302322,7.69978996 60.9318598,7.88696538 L61.9572505,7.88696538 Z M63.1193598,8.45093022 L63.1193598,7.76489507 L64.4670161,7.76489507 L64.4670161,8.45093022 L63.1193598,8.45093022 Z M64.8112544,6.81274663 L65.4435786,6.81274663 L65.4435786,7.16675054 C65.6698167,6.89168406 65.9391825,6.75415288 66.2516841,6.75415288 C66.4177005,6.75415288 66.561742,6.78833223 66.683813,6.85669194 C66.8058839,6.92505166 66.9059806,7.02840349 66.9841059,7.16675054 C67.0980388,7.02840349 67.2209217,6.92505166 67.3527583,6.85669194 C67.4845949,6.78833223 67.6253812,6.75415288 67.7751216,6.75415288 C67.9655522,6.75415288 68.1266834,6.79280809 68.25852,6.87011968 C68.3903566,6.94743126 68.4888257,7.06095552 68.5539302,7.21069585 C68.6011309,7.32137349 68.6247309,7.50040815 68.6247309,7.74780522 L68.6247309,9.40552007 L67.9386958,9.40552007 L67.9386958,7.92358647 C67.9386958,7.66642373 67.9150958,7.50040976 67.867895,7.4255396 C67.8044181,7.32788286 67.7067629,7.27905522 67.5749263,7.27905522 C67.4788971,7.27905522 67.388566,7.30835181 67.3039302,7.36694585 C67.2192943,7.42553989 67.1582598,7.51139515 67.1208247,7.62451421 C67.0833896,7.73763326 67.0646723,7.91626103 67.0646723,8.16040288 L67.0646723,9.40552007 L66.3786372,9.40552007 L66.3786372,7.98462163 C66.3786372,7.73234172 66.3664303,7.56958293 66.3420161,7.49634038 C66.3176019,7.42309783 66.2797605,7.36857363 66.2284907,7.33276616 C66.1772209,7.29695869 66.1076415,7.27905522 66.0197505,7.27905522 C65.9139557,7.27905522 65.8187418,7.30753801 65.7341059,7.36450444 C65.6494701,7.42147087 65.5888425,7.50366406 65.5522212,7.61108647 C65.5155999,7.71850889 65.4972895,7.89672976 65.4972895,8.14575444 L65.4972895,9.40552007 L64.8112544,9.40552007 L64.8112544,6.81274663 Z M69.82102,7.60376225 L69.1984614,7.49145757 C69.2684487,7.24080527 69.3888902,7.05526025 69.5597895,6.93481694 C69.7306888,6.81437363 69.9845925,6.75415288 70.3215083,6.75415288 C70.6274994,6.75415288 70.8553617,6.79036671 71.005102,6.86279546 C71.1548424,6.93522421 71.2602287,7.02718292 71.3212641,7.13867436 C71.3822996,7.25016581 71.4128169,7.45483498 71.4128169,7.75268804 L71.4054927,8.55346929 C71.4054927,8.78133501 71.4164789,8.94938346 71.4384516,9.05761968 C71.4604244,9.16585589 71.501521,9.28182153 71.5617427,9.40552007 L70.8830317,9.40552007 C70.865128,9.35994692 70.8431556,9.29240203 70.8171138,9.20288335 C70.8057205,9.16219304 70.7975825,9.13533784 70.7926997,9.12231694 C70.6755116,9.2362498 70.5501873,9.32169817 70.4167231,9.3786646 C70.2832589,9.43563103 70.140845,9.46411382 69.989477,9.46411382 C69.7225486,9.46411382 69.5121829,9.39168616 69.3583735,9.24682866 C69.2045642,9.10197117 69.1276606,8.91886753 69.1276606,8.69751225 C69.1276606,8.55102715 69.1626538,8.42041322 69.2326411,8.30566655 C69.3026284,8.19091988 69.4006906,8.10303014 69.5268306,8.04199468 C69.6529705,7.98095922 69.8348535,7.92765571 70.0724848,7.88208257 C70.3931245,7.82186091 70.6152902,7.76570913 70.7389888,7.71362554 L70.7389888,7.64526616 C70.7389888,7.51342956 70.706437,7.41943636 70.6413325,7.36328374 C70.576228,7.30713111 70.4533451,7.27905522 70.2726802,7.27905522 C70.1506092,7.27905522 70.0553953,7.30306214 69.9870356,7.35107671 C69.9186759,7.39909127 69.8633379,7.48331894 69.82102,7.60376225 Z M70.7389888,8.16040288 C70.6510977,8.1896999 70.5119389,8.22469304 70.3215083,8.26538335 C70.1310776,8.30607366 70.0065672,8.34594956 69.9479731,8.38501225 C69.8584545,8.44848913 69.8136958,8.52905474 69.8136958,8.62671147 C69.8136958,8.7227406 69.8495027,8.80574758 69.9211177,8.87573491 C69.9927326,8.94572224 70.0838775,8.98071538 70.1945552,8.98071538 C70.3182537,8.98071538 70.4362538,8.94002568 70.5485591,8.85864507 C70.6315673,8.7967958 70.6860915,8.72111296 70.7121333,8.63159429 C70.730037,8.57300024 70.7389888,8.46151047 70.7389888,8.29712163 L70.7389888,8.16040288 Z M72.7458247,9.40552007 L72.0597895,9.40552007 L72.0597895,6.81274663 L72.6969966,6.81274663 L72.6969966,7.18139897 C72.8060466,7.00724446 72.9041088,6.89249951 72.991186,6.83716069 C73.0782633,6.78182187 73.1771392,6.75415288 73.2878169,6.75415288 C73.4440677,6.75415288 73.5946195,6.79728396 73.739477,6.88354741 L73.5270747,7.48169194 C73.4115142,7.40682178 73.3040934,7.36938725 73.2048091,7.36938725 C73.1087799,7.36938725 73.0274005,7.39583556 72.9606684,7.44873296 C72.8939363,7.50163036 72.8414466,7.59725115 72.8031977,7.73559819 C72.7649488,7.87394524 72.7458247,8.16365588 72.7458247,8.60473882 L72.7458247,9.40552007 Z M74.0104731,9.40552007 L74.0104731,5.8264185 L74.6965083,5.8264185 L74.6965083,7.72583257 L75.4997309,6.81274663 L76.3444575,6.81274663 L75.458227,7.76001225 L76.4079341,9.40552007 L75.668188,9.40552007 L75.0163325,8.24096929 L74.6965083,8.57544194 L74.6965083,9.40552007 L74.0104731,9.40552007 Z M78.0461177,8.07251225 C78.0461177,7.84464653 78.1022694,7.62410837 78.2145747,7.41089116 C78.3268799,7.19767395 78.4859767,7.03491516 78.6918696,6.92260991 C78.8977626,6.81030466 79.1276594,6.75415288 79.3815669,6.75415288 C79.7738214,6.75415288 80.0952701,6.88151163 80.3459223,7.13623296 C80.5965746,7.39095428 80.7218989,7.71280979 80.7218989,8.10180913 C80.7218989,8.4940637 80.595354,8.81917438 80.3422602,9.07715093 C80.0891665,9.33512748 79.7705662,9.46411382 79.3864497,9.46411382 C79.1488183,9.46411382 78.9221767,9.41040342 78.7065181,9.302981 C78.4908594,9.19555859 78.3268799,9.03808946 78.2145747,8.8305689 C78.1022694,8.62304833 78.0461177,8.37036531 78.0461177,8.07251225 Z M78.7492427,8.10913335 C78.7492427,8.36629609 78.8102772,8.56323423 78.9323481,8.69995366 C79.0544191,8.83667309 79.2049709,8.90503179 79.3840083,8.90503179 C79.5630456,8.90503179 79.7131906,8.83667309 79.8344477,8.69995366 C79.9557049,8.56323423 80.0163325,8.3646685 80.0163325,8.10425054 C80.0163325,7.85034302 79.9557049,7.65503247 79.8344477,7.51831304 C79.7131906,7.3815936 79.5630456,7.31323491 79.3840083,7.31323491 C79.2049709,7.31323491 79.0544191,7.3815936 78.9323481,7.51831304 C78.8102772,7.65503247 78.7492427,7.8519706 78.7492427,8.10913335 Z M80.9587153,6.81274663 L81.3395747,6.81274663 L81.3395747,6.61743413 C81.3395747,6.39933408 81.3627678,6.23657529 81.4091548,6.12915288 C81.4555417,6.02173047 81.5409901,5.93424762 81.6655024,5.86670171 C81.7900148,5.7991558 81.9474839,5.76538335 82.1379145,5.76538335 C82.333228,5.76538335 82.5244696,5.79467993 82.711645,5.85327397 L82.6188716,6.3317896 C82.5098215,6.3057478 82.4048421,6.2927271 82.3039302,6.2927271 C82.2046458,6.2927271 82.1334388,6.31592023 82.0903071,6.36230718 C82.0471754,6.40869413 82.0256098,6.49780456 82.0256098,6.62964116 L82.0256098,6.81274663 L82.5383052,6.81274663 L82.5383052,7.35229741 L82.0256098,7.35229741 L82.0256098,9.40552007 L81.3395747,9.40552007 L81.3395747,7.35229741 L80.9587153,7.35229741 L80.9587153,6.81274663 Z M84.2961177,9.40552007 L84.2961177,5.8264185 L85.0187739,5.8264185 L85.0187739,9.40552007 L84.2961177,9.40552007 Z M88.0607661,9.40552007 L87.3747309,9.40552007 L87.3747309,8.08227788 C87.3747309,7.80232856 87.3600826,7.62125941 87.3307856,7.53906499 C87.3014886,7.45687057 87.2538817,7.39298774 87.1879634,7.3474146 C87.1220451,7.30184145 87.0427002,7.27905522 86.9499263,7.27905522 C86.8311106,7.27905522 86.7245035,7.31160698 86.630102,7.37671147 C86.5357005,7.44181597 86.4710039,7.52807812 86.4360102,7.63550054 C86.4010166,7.74292295 86.38352,7.94148867 86.38352,8.23120366 L86.38352,9.40552007 L85.6974848,9.40552007 L85.6974848,6.81274663 L86.3346919,6.81274663 L86.3346919,7.193606 C86.56093,6.90063579 86.8457579,6.75415288 87.1891841,6.75415288 C87.340552,6.75415288 87.478897,6.78141498 87.6042231,6.83593999 C87.7295493,6.890465 87.8243563,6.96004438 87.888647,7.04468022 C87.9529376,7.12931606 87.9976963,7.22534375 88.0229243,7.33276616 C88.0481523,7.44018857 88.0607661,7.59399563 88.0607661,7.79419194 L88.0607661,9.40552007 Z M89.9455317,6.81274663 L89.9455317,7.35962163 L89.4767817,7.35962163 L89.4767817,8.4045435 C89.4767817,8.6161331 89.4812576,8.73942289 89.4902095,8.77441655 C89.4991613,8.80941022 89.5195062,8.8382999 89.5512446,8.86108647 C89.5829831,8.88387305 89.6216383,8.89526616 89.6672114,8.89526616 C89.7306883,8.89526616 89.822647,8.87329372 89.9430903,8.82934819 L90.0016841,9.36157475 C89.8421781,9.42993447 89.6615158,9.46411382 89.4596919,9.46411382 C89.3359933,9.46411382 89.2245036,9.44336207 89.1252192,9.40185796 C89.0259349,9.36035384 88.9531003,9.30664344 88.9067134,9.24072515 C88.8603264,9.17480685 88.8281816,9.08569641 88.8102778,8.97339116 C88.7956293,8.89363816 88.7883052,8.73250696 88.7883052,8.48999272 L88.7883052,7.35962163 L88.4733638,7.35962163 L88.4733638,6.81274663 L88.7883052,6.81274663 L88.7883052,6.29760991 L89.4767817,5.89721929 L89.4767817,6.81274663 L89.9455317,6.81274663 Z M91.9230708,8.58032475 L92.6066645,8.69507085 C92.5187735,8.94572314 92.3800216,9.13655782 92.1904048,9.26758061 C92.0007879,9.3986034 91.763567,9.46411382 91.4787348,9.46411382 C91.0278862,9.46411382 90.6942307,9.31681711 90.4777583,9.02221929 C90.306859,8.7862155 90.2214106,8.48836692 90.2214106,8.1286646 C90.2214106,7.69897495 90.3337142,7.36247115 90.5583247,7.11914311 C90.7829352,6.87581507 91.0669493,6.75415288 91.4103755,6.75415288 C91.7961196,6.75415288 92.1004785,6.88151163 92.3234614,7.13623296 C92.5464443,7.39095428 92.6530513,7.78116848 92.6432856,8.30688725 L90.9245356,8.30688725 C90.9294185,8.51033879 90.9847565,8.66862172 91.0905513,8.78174077 C91.1963461,8.89485983 91.3281807,8.9514185 91.4860591,8.9514185 C91.5934815,8.9514185 91.6838126,8.92212192 91.7570552,8.86352788 C91.8302977,8.80493384 91.8856357,8.71053374 91.9230708,8.58032475 Z M91.9621333,7.88696538 C91.9572504,7.68839668 91.9059814,7.5374379 91.8083247,7.43408452 C91.710668,7.33073114 91.591854,7.27905522 91.4518794,7.27905522 C91.302139,7.27905522 91.1784424,7.33357942 91.0807856,7.44262944 C90.9831289,7.55167947 90.935115,7.69978996 90.9367427,7.88696538 L91.9621333,7.88696538 Z M93.8591059,9.40552007 L93.1730708,9.40552007 L93.1730708,6.81274663 L93.8102778,6.81274663 L93.8102778,7.18139897 C93.9193278,7.00724446 94.01739,6.89249951 94.1044673,6.83716069 C94.1915445,6.78182187 94.2904205,6.75415288 94.4010981,6.75415288 C94.5573489,6.75415288 94.7079008,6.79728396 94.8527583,6.88354741 L94.6403559,7.48169194 C94.5247955,7.40682178 94.4173747,7.36938725 94.3180903,7.36938725 C94.2220612,7.36938725 94.1406818,7.39583556 94.0739497,7.44873296 C94.0072176,7.50163036 93.9547279,7.59725115 93.916479,7.73559819 C93.8782301,7.87394524 93.8591059,8.16365588 93.8591059,8.60473882 L93.8591059,9.40552007 Z M95.6608638,7.60376225 L95.0383052,7.49145757 C95.1082925,7.24080527 95.228734,7.05526025 95.3996333,6.93481694 C95.5705326,6.81437363 95.8244363,6.75415288 96.161352,6.75415288 C96.4673431,6.75415288 96.6952055,6.79036671 96.8449458,6.86279546 C96.9946861,6.93522421 97.1000724,7.02718292 97.1611079,7.13867436 C97.2221434,7.25016581 97.2526606,7.45483498 97.2526606,7.75268804 L97.2453364,8.55346929 C97.2453364,8.78133501 97.2563226,8.94938346 97.2782954,9.05761968 C97.3002682,9.16585589 97.3413648,9.28182153 97.4015864,9.40552007 L96.7228755,9.40552007 C96.7049717,9.35994692 96.6829993,9.29240203 96.6569575,9.20288335 C96.6455642,9.16219304 96.6374263,9.13533784 96.6325434,9.12231694 C96.5153554,9.2362498 96.3900311,9.32169817 96.2565669,9.3786646 C96.1231027,9.43563103 95.9806887,9.46411382 95.8293208,9.46411382 C95.5623924,9.46411382 95.3520266,9.39168616 95.1982173,9.24682866 C95.0444079,9.10197117 94.9675044,8.91886753 94.9675044,8.69751225 C94.9675044,8.55102715 95.0024975,8.42041322 95.0724848,8.30566655 C95.1424722,8.19091988 95.2405343,8.10303014 95.3666743,8.04199468 C95.4928143,7.98095922 95.6746972,7.92765571 95.9123286,7.88208257 C96.2329682,7.82186091 96.455134,7.76570913 96.5788325,7.71362554 L96.5788325,7.64526616 C96.5788325,7.51342956 96.5462807,7.41943636 96.4811763,7.36328374 C96.4160718,7.30713111 96.2931889,7.27905522 96.1125239,7.27905522 C95.990453,7.27905522 95.8952391,7.30306214 95.8268794,7.35107671 C95.7585197,7.39909127 95.7031817,7.48331894 95.6608638,7.60376225 Z M96.5788325,8.16040288 C96.4909414,8.1896999 96.3517827,8.22469304 96.161352,8.26538335 C95.9709214,8.30607366 95.8464109,8.34594956 95.7878169,8.38501225 C95.6982982,8.44848913 95.6535395,8.52905474 95.6535395,8.62671147 C95.6535395,8.7227406 95.6893465,8.80574758 95.7609614,8.87573491 C95.8325764,8.94572224 95.9237213,8.98071538 96.0343989,8.98071538 C96.1580974,8.98071538 96.2760976,8.94002568 96.3884028,8.85864507 C96.471411,8.7967958 96.5259352,8.72111296 96.551977,8.63159429 C96.5698808,8.57300024 96.5788325,8.46151047 96.5788325,8.29712163 L96.5788325,8.16040288 Z M100.189672,7.57934819 L99.5134028,7.7014185 C99.4906162,7.56632668 99.4389403,7.46460244 99.3583735,7.39624272 C99.2778067,7.32788301 99.1732342,7.29370366 99.0446528,7.29370366 C98.8737535,7.29370366 98.737443,7.35270372 98.6357173,7.47070561 C98.5339915,7.58870751 98.4831294,7.78605254 98.4831294,8.06274663 C98.4831294,8.37036536 98.5348053,8.58764834 98.6381587,8.7146021 C98.7415121,8.84155586 98.8802639,8.90503179 99.0544184,8.90503179 C99.1846274,8.90503179 99.2912344,8.86800416 99.3742427,8.7939478 C99.4572509,8.71989144 99.5158441,8.59253269 99.5500239,8.41186772 L100.223852,8.52661382 C100.153865,8.83586016 100.019589,9.06941902 99.82102,9.22729741 C99.6224513,9.3851758 99.3563407,9.46411382 99.0226802,9.46411382 C98.6434465,9.46411382 98.341122,9.34448611 98.1156977,9.1052271 C97.8902734,8.86596809 97.777563,8.53475395 97.777563,8.11157475 C97.777563,7.68351272 97.8906803,7.3502641 98.1169184,7.1118189 C98.3431566,6.87337369 98.6491431,6.75415288 99.0348872,6.75415288 C99.350644,6.75415288 99.6016994,6.82210467 99.788061,6.9580103 C99.9744226,7.09391593 100.108292,7.30102649 100.189672,7.57934819 Z M104.393774,8.0896021 L105.094458,8.31177007 C104.987035,8.70239702 104.808407,8.99251456 104.558569,9.1821314 C104.30873,9.37174823 103.991758,9.46655522 103.607641,9.46655522 C103.132378,9.46655522 102.741757,9.30420333 102.435766,8.97949468 C102.129775,8.65478602 101.976782,8.21086142 101.976782,7.64770757 C101.976782,7.05200146 102.130589,6.58935961 102.438208,6.25976811 C102.745826,5.93017662 103.150282,5.76538335 103.651586,5.76538335 C104.089414,5.76538335 104.445042,5.89477659 104.718481,6.15356694 C104.881242,6.3065625 105.003311,6.52628686 105.084692,6.81274663 L104.36936,6.98364507 C104.327042,6.79809726 104.238745,6.65161435 104.104467,6.54419194 C103.970189,6.43676953 103.807024,6.38305913 103.614965,6.38305913 C103.349665,6.38305913 103.134416,6.47827302 102.969213,6.66870366 C102.804011,6.8591343 102.721411,7.16756221 102.721411,7.59399663 C102.721411,8.04647285 102.80279,8.36873525 102.965551,8.5607935 C103.128312,8.75285176 103.339899,8.84887944 103.600317,8.84887944 C103.792375,8.84887944 103.957575,8.7878449 104.095922,8.66577397 C104.234269,8.54370305 104.333552,8.35164768 104.393774,8.0896021 Z M105.551,8.07251225 C105.551,7.84464653 105.607152,7.62410837 105.719458,7.41089116 C105.831763,7.19767395 105.990859,7.03491516 106.196752,6.92260991 C106.402645,6.81030466 106.632542,6.75415288 106.88645,6.75415288 C107.278704,6.75415288 107.600153,6.88151163 107.850805,7.13623296 C108.101457,7.39095428 108.226782,7.71280979 108.226782,8.10180913 C108.226782,8.4940637 108.100237,8.81917438 107.847143,9.07715093 C107.594049,9.33512748 107.275449,9.46411382 106.891333,9.46411382 C106.653701,9.46411382 106.427059,9.41040342 106.211401,9.302981 C105.995742,9.19555859 105.831763,9.03808946 105.719458,8.8305689 C105.607152,8.62304833 105.551,8.37036531 105.551,8.07251225 Z M106.254125,8.10913335 C106.254125,8.36629609 106.31516,8.56323423 106.437231,8.69995366 C106.559302,8.83667309 106.709854,8.90503179 106.888891,8.90503179 C107.067928,8.90503179 107.218073,8.83667309 107.339331,8.69995366 C107.460588,8.56323423 107.521215,8.3646685 107.521215,8.10425054 C107.521215,7.85034302 107.460588,7.65503247 107.339331,7.51831304 C107.218073,7.3815936 107.067928,7.31323491 106.888891,7.31323491 C106.709854,7.31323491 106.559302,7.3815936 106.437231,7.51831304 C106.31516,7.65503247 106.254125,7.8519706 106.254125,8.10913335 Z M109.420629,9.40552007 L108.734594,9.40552007 L108.734594,6.81274663 L109.371801,6.81274663 L109.371801,7.18139897 C109.480851,7.00724446 109.578913,6.89249951 109.665991,6.83716069 C109.753068,6.78182187 109.851944,6.75415288 109.962622,6.75415288 C110.118872,6.75415288 110.269424,6.79728396 110.414282,6.88354741 L110.201879,7.48169194 C110.086319,7.40682178 109.978898,7.36938725 109.879614,7.36938725 C109.783585,7.36938725 109.702205,7.39583556 109.635473,7.44873296 C109.568741,7.50163036 109.516251,7.59725115 109.478002,7.73559819 C109.439754,7.87394524 109.420629,8.16365588 109.420629,8.60473882 L109.420629,9.40552007 Z M110.690161,6.81274663 L111.329809,6.81274663 L111.329809,7.193606 C111.412817,7.06339702 111.525121,6.95760381 111.666723,6.87622319 C111.808325,6.79484258 111.965388,6.75415288 112.137915,6.75415288 C112.439023,6.75415288 112.694554,6.872153 112.904516,7.10815679 C113.114478,7.34416057 113.219458,7.67293332 113.219458,8.09448491 C113.219458,8.52742978 113.113664,8.86393358 112.902075,9.1040064 C112.690485,9.34407921 112.43414,9.46411382 112.133032,9.46411382 C111.989802,9.46411382 111.860002,9.43563103 111.743627,9.3786646 C111.627253,9.32169817 111.504777,9.22404289 111.376196,9.08569585 L111.376196,10.3918482 L110.690161,10.3918482 L110.690161,6.81274663 Z M111.368872,8.06518804 C111.368872,8.35653064 111.426651,8.57177914 111.542211,8.71093999 C111.657772,8.85010084 111.798558,8.91968022 111.964575,8.91968022 C112.124081,8.91968022 112.256729,8.8557974 112.362524,8.72802983 C112.468319,8.60026227 112.521215,8.39071033 112.521215,8.09936772 C112.521215,7.82755647 112.466691,7.62573557 112.357641,7.49389897 C112.248591,7.36206238 112.113501,7.29614507 111.952368,7.29614507 C111.784724,7.29614507 111.645565,7.36084169 111.534887,7.49023686 C111.42421,7.61963204 111.368872,7.81128052 111.368872,8.06518804 Z M113.763891,9.40552007 L113.763891,8.71948491 L114.449926,8.71948491 L114.449926,9.40552007 L113.763891,9.40552007 Z M49.5817622,11.8264185 L50.3044184,11.8264185 L50.3044184,13.7648951 C50.3044184,14.0725138 50.3133702,14.2718933 50.3312739,14.3630396 C50.3621985,14.5095247 50.4358469,14.6271179 50.5522212,14.7158228 C50.6685955,14.8045277 50.8276922,14.8488794 51.0295161,14.8488794 C51.2345952,14.8488794 51.3892161,14.8069691 51.4933833,14.723147 C51.5975505,14.639325 51.6602126,14.5363801 51.6813716,14.4143091 C51.7025305,14.2922382 51.7131098,14.0896035 51.7131098,13.806399 L51.7131098,11.8264185 L52.4357661,11.8264185 L52.4357661,13.7063013 C52.4357661,14.135991 52.416235,14.4395361 52.3771723,14.6169458 C52.3381097,14.7943556 52.2660889,14.9440937 52.1611079,15.0661646 C52.0561269,15.1882355 51.9157474,15.2854839 51.7399653,15.3579126 C51.5641832,15.4303414 51.3346933,15.4665552 51.0514888,15.4665552 C50.7096902,15.4665552 50.4504968,15.4270862 50.2739009,15.348147 C50.0973049,15.2692078 49.9577393,15.1666698 49.8551997,15.0405298 C49.7526601,14.9143899 49.6851152,14.7821484 49.652563,14.6438013 C49.6053622,14.4387222 49.5817622,14.1359908 49.5817622,13.7355982 L49.5817622,11.8264185 Z M52.9509028,14.665774 L53.6393794,14.5607935 C53.6686764,14.6942577 53.7280834,14.7955751 53.817602,14.8647486 C53.9071207,14.9339221 54.032445,14.9685083 54.1935786,14.9685083 C54.3709883,14.9685083 54.5044505,14.9359566 54.5939692,14.8708521 C54.6541909,14.825279 54.6843013,14.7642444 54.6843013,14.6877466 C54.6843013,14.635663 54.6680254,14.592532 54.6354731,14.5583521 C54.6012933,14.5257999 54.5247966,14.4956895 54.4059809,14.4680201 C53.8525928,14.3459491 53.5018476,14.2344594 53.3537348,14.1335474 C53.1486557,13.9935728 53.0461177,13.799076 53.0461177,13.5500513 C53.0461177,13.3254408 53.1348212,13.1366406 53.3122309,12.9836451 C53.4896407,12.8306495 53.764703,12.7541529 54.1374263,12.7541529 C54.4922457,12.7541529 54.755915,12.8119322 54.9284419,12.9274927 C55.1009688,13.0430532 55.2197827,13.2139499 55.2848872,13.440188 L54.6379145,13.5598169 C54.6102451,13.458905 54.5577554,13.3815946 54.4804438,13.3278833 C54.4031322,13.2741721 54.2928632,13.2473169 54.1496333,13.2473169 C53.9689683,13.2473169 53.8395751,13.2725446 53.7614497,13.3230005 C53.7093661,13.358808 53.6833247,13.4051943 53.6833247,13.4621607 C53.6833247,13.5109891 53.7061109,13.5524926 53.7516841,13.5866724 C53.8135333,13.6322456 54.0271542,13.6965353 54.3925532,13.7795435 C54.7579522,13.8625517 55.0130766,13.964276 55.1579341,14.0847193 C55.3011639,14.2067902 55.3727778,14.3768731 55.3727778,14.5949732 C55.3727778,14.8326046 55.273495,15.0368669 55.0749263,15.2077662 C54.8763576,15.3786655 54.5825779,15.4641138 54.1935786,15.4641138 C53.8403867,15.4641138 53.5608485,15.3925 53.3549556,15.2492701 C53.1490626,15.1060402 53.0143797,14.9115434 52.9509028,14.665774 Z M57.4748286,14.5803248 L58.1584223,14.6950708 C58.0705313,14.9457231 57.9317794,15.1365578 57.7421626,15.2675806 C57.5525457,15.3986034 57.3153248,15.4641138 57.0304927,15.4641138 C56.5796441,15.4641138 56.2459885,15.3168171 56.0295161,15.0222193 C55.8586168,14.7862155 55.7731684,14.4883669 55.7731684,14.1286646 C55.7731684,13.698975 55.885472,13.3624712 56.1100825,13.1191431 C56.334693,12.8758151 56.6187071,12.7541529 56.9621333,12.7541529 C57.3478774,12.7541529 57.6522363,12.8815116 57.8752192,13.136233 C58.0982021,13.3909543 58.2048091,13.7811685 58.1950434,14.3068873 L56.4762934,14.3068873 C56.4811763,14.5103388 56.5365143,14.6686217 56.6423091,14.7817408 C56.7481039,14.8948598 56.8799385,14.9514185 57.0378169,14.9514185 C57.1452393,14.9514185 57.2355704,14.9221219 57.308813,14.8635279 C57.3820555,14.8049338 57.4373935,14.7105337 57.4748286,14.5803248 Z M57.5138911,13.8869654 C57.5090083,13.6883967 57.4577392,13.5374379 57.3600825,13.4340845 C57.2624258,13.3307311 57.1436118,13.2790552 57.0036372,13.2790552 C56.8538969,13.2790552 56.7302002,13.3335794 56.6325434,13.4426294 C56.5348867,13.5516795 56.4868729,13.69979 56.4885005,13.8869654 L57.5138911,13.8869654 Z M61.1320552,15.4055201 L60.4948481,15.4055201 L60.4948481,15.0246607 C60.3890533,15.1727734 60.264136,15.2830425 60.1200923,15.3554712 C59.9760486,15.4279 59.8307864,15.4641138 59.6843013,15.4641138 C59.3864482,15.4641138 59.1313238,15.3440792 58.9189204,15.1040064 C58.706517,14.8639336 58.6003169,14.5290574 58.6003169,14.0993677 C58.6003169,13.6599124 58.7036687,13.32585 58.9103755,13.0971705 C59.1170822,12.8684909 59.3783101,12.7541529 59.6940669,12.7541529 C59.9837819,12.7541529 60.2344304,12.8745944 60.44602,13.115481 L60.44602,11.8264185 L61.1320552,11.8264185 L61.1320552,15.4055201 Z M59.3010005,14.052981 C59.3010005,14.3296751 59.3392488,14.5298684 59.4157466,14.6535669 C59.5264242,14.8326043 59.6810451,14.9221216 59.8796138,14.9221216 C60.0374921,14.9221216 60.1717681,14.8549836 60.2824458,14.7207056 C60.3931234,14.5864276 60.4484614,14.3858274 60.4484614,14.118899 C60.4484614,13.8210459 60.394751,13.6066112 60.2873286,13.4755884 C60.1799062,13.3445656 60.042375,13.2790552 59.8747309,13.2790552 C59.7119697,13.2790552 59.5756592,13.3437518 59.4657954,13.473147 C59.3559316,13.6025422 59.3010005,13.7958183 59.3010005,14.052981 Z M64.9040278,15.4055201 L64.9040278,15.0173365 C64.8096263,15.1556835 64.6855227,15.2647319 64.5317134,15.3444849 C64.377904,15.4242379 64.2155521,15.4641138 64.0446528,15.4641138 C63.8704983,15.4641138 63.7142499,15.4258655 63.5759028,15.3493677 C63.4375558,15.2728699 63.3374591,15.1654491 63.2756098,15.0271021 C63.2137606,14.8887551 63.1828364,14.6975135 63.1828364,14.4533716 L63.1828364,12.8127466 L63.8688716,12.8127466 L63.8688716,14.0041529 C63.8688716,14.368738 63.8814854,14.5921245 63.9067134,14.6743189 C63.9319414,14.7565133 63.9779207,14.8216168 64.0446528,14.8696314 C64.1113849,14.917646 64.1960195,14.9416529 64.2985591,14.9416529 C64.4157472,14.9416529 64.5207266,14.909508 64.6135005,14.8452173 C64.7062744,14.7809266 64.7697503,14.7011748 64.8039302,14.6059595 C64.83811,14.5107442 64.8551997,14.2775922 64.8551997,13.9064966 L64.8551997,12.8127466 L65.5412348,12.8127466 L65.5412348,15.4055201 L64.9040278,15.4055201 Z M68.6100825,15.4055201 L67.9240473,15.4055201 L67.9240473,14.0822779 C67.9240473,13.8023286 67.9093991,13.6212594 67.880102,13.539065 C67.850805,13.4568706 67.8031981,13.3929877 67.7372798,13.3474146 C67.6713615,13.3018415 67.5920166,13.2790552 67.4992427,13.2790552 C67.380427,13.2790552 67.27382,13.311607 67.1794184,13.3767115 C67.0850169,13.441816 67.0203203,13.5280781 66.9853266,13.6355005 C66.950333,13.7429229 66.9328364,13.9414887 66.9328364,14.2312037 L66.9328364,15.4055201 L66.2468013,15.4055201 L66.2468013,12.8127466 L66.8840083,12.8127466 L66.8840083,13.193606 C67.1102464,12.9006358 67.3950743,12.7541529 67.7385005,12.7541529 C67.8898684,12.7541529 68.0282134,12.781415 68.1535395,12.83594 C68.2788657,12.890465 68.3736727,12.9600444 68.4379634,13.0446802 C68.502254,13.1293161 68.5470127,13.2253437 68.5722407,13.3327662 C68.5974687,13.4401886 68.6100825,13.5939956 68.6100825,13.7941919 L68.6100825,15.4055201 Z M71.683813,15.4055201 L71.0466059,15.4055201 L71.0466059,15.0246607 C70.9408111,15.1727734 70.8158938,15.2830425 70.6718501,15.3554712 C70.5278064,15.4279 70.3825442,15.4641138 70.2360591,15.4641138 C69.938206,15.4641138 69.6830816,15.3440792 69.4706782,15.1040064 C69.2582748,14.8639336 69.1520747,14.5290574 69.1520747,14.0993677 C69.1520747,13.6599124 69.2554265,13.32585 69.4621333,13.0971705 C69.66884,12.8684909 69.9300679,12.7541529 70.2458247,12.7541529 C70.5355397,12.7541529 70.7861882,12.8745944 70.9977778,13.115481 L70.9977778,11.8264185 L71.683813,11.8264185 L71.683813,15.4055201 Z M69.8527583,14.052981 C69.8527583,14.3296751 69.8910066,14.5298684 69.9675044,14.6535669 C70.078182,14.8326043 70.2328029,14.9221216 70.4313716,14.9221216 C70.58925,14.9221216 70.723526,14.8549836 70.8342036,14.7207056 C70.9448812,14.5864276 71.0002192,14.3858274 71.0002192,14.118899 C71.0002192,13.8210459 70.9465088,13.6066112 70.8390864,13.4755884 C70.731664,13.3445656 70.5941328,13.2790552 70.4264888,13.2790552 C70.2637275,13.2790552 70.127417,13.3437518 70.0175532,13.473147 C69.9076894,13.6025422 69.8527583,13.7958183 69.8527583,14.052981 Z M73.8615473,14.5803248 L74.5451411,14.6950708 C74.45725,14.9457231 74.3184982,15.1365578 74.1288813,15.2675806 C73.9392645,15.3986034 73.7020436,15.4641138 73.4172114,15.4641138 C72.9663628,15.4641138 72.6327073,15.3168171 72.4162348,15.0222193 C72.2453356,14.7862155 72.1598872,14.4883669 72.1598872,14.1286646 C72.1598872,13.698975 72.2721908,13.3624712 72.4968013,13.1191431 C72.7214118,12.8758151 73.0054258,12.7541529 73.348852,12.7541529 C73.7345962,12.7541529 74.0389551,12.8815116 74.261938,13.136233 C74.4849209,13.3909543 74.5915279,13.7811685 74.5817622,14.3068873 L72.8630122,14.3068873 C72.867895,14.5103388 72.923233,14.6686217 73.0290278,14.7817408 C73.1348226,14.8948598 73.2666572,14.9514185 73.4245356,14.9514185 C73.531958,14.9514185 73.6222892,14.9221219 73.6955317,14.8635279 C73.7687743,14.8049338 73.8241123,14.7105337 73.8615473,14.5803248 Z M73.9006098,13.8869654 C73.895727,13.6883967 73.844458,13.5374379 73.7468013,13.4340845 C73.6491445,13.3307311 73.5303306,13.2790552 73.3903559,13.2790552 C73.2406156,13.2790552 73.1169189,13.3335794 73.0192622,13.4426294 C72.9216055,13.5516795 72.8735916,13.69979 72.8752192,13.8869654 L73.9006098,13.8869654 Z M75.7975825,15.4055201 L75.1115473,15.4055201 L75.1115473,12.8127466 L75.7487544,12.8127466 L75.7487544,13.181399 C75.8578044,13.0072445 75.9558666,12.8924995 76.0429438,12.8371607 C76.1300211,12.7818219 76.2288971,12.7541529 76.3395747,12.7541529 C76.4958255,12.7541529 76.6463774,12.797284 76.7912348,12.8835474 L76.5788325,13.4816919 C76.463272,13.4068218 76.3558512,13.3693873 76.2565669,13.3693873 C76.1605378,13.3693873 76.0791584,13.3958356 76.0124263,13.448733 C75.9456941,13.5016304 75.8932044,13.5972511 75.8549556,13.7355982 C75.8167067,13.8739452 75.7975825,14.1636559 75.7975825,14.6047388 L75.7975825,15.4055201 Z M78.4758052,15.4055201 L78.4758052,11.8264185 L79.1618403,11.8264185 L79.1618403,15.4055201 L78.4758052,15.4055201 Z M79.8649653,12.4611841 L79.8649653,11.8264185 L80.5510005,11.8264185 L80.5510005,12.4611841 L79.8649653,12.4611841 Z M79.8649653,15.4055201 L79.8649653,12.8127466 L80.5510005,12.8127466 L80.5510005,15.4055201 L79.8649653,15.4055201 Z M83.5148677,13.5793482 L82.8385981,13.7014185 C82.8158116,13.5663267 82.7641356,13.4646024 82.6835688,13.3962427 C82.603002,13.327883 82.4984295,13.2937037 82.3698481,13.2937037 C82.1989488,13.2937037 82.0626384,13.3527037 81.9609126,13.4707056 C81.8591868,13.5887075 81.8083247,13.7860525 81.8083247,14.0627466 C81.8083247,14.3703654 81.8600006,14.5876483 81.963354,14.7146021 C82.0667074,14.8415559 82.2054592,14.9050318 82.3796138,14.9050318 C82.5098227,14.9050318 82.6164297,14.8680042 82.699438,14.7939478 C82.7824462,14.7198914 82.8410394,14.5925327 82.8752192,14.4118677 L83.5490473,14.5266138 C83.47906,14.8358602 83.344784,15.069419 83.1462153,15.2272974 C82.9476466,15.3851758 82.681536,15.4641138 82.3478755,15.4641138 C81.9686418,15.4641138 81.6663174,15.3444861 81.4408931,15.1052271 C81.2154687,14.8659681 81.1027583,14.534754 81.1027583,14.1115748 C81.1027583,13.6835127 81.2158756,13.3502641 81.4421138,13.1118189 C81.6683519,12.8733737 81.9743384,12.7541529 82.3600825,12.7541529 C82.6758393,12.7541529 82.9268947,12.8221047 83.1132563,12.9580103 C83.2996179,13.0939159 83.433487,13.3010265 83.5148677,13.5793482 Z M85.536352,14.5803248 L86.2199458,14.6950708 C86.1320547,14.9457231 85.9933029,15.1365578 85.803686,15.2675806 C85.6140692,15.3986034 85.3768483,15.4641138 85.0920161,15.4641138 C84.6411675,15.4641138 84.307512,15.3168171 84.0910395,15.0222193 C83.9201402,14.7862155 83.8346919,14.4883669 83.8346919,14.1286646 C83.8346919,13.698975 83.9469954,13.3624712 84.1716059,13.1191431 C84.3962164,12.8758151 84.6802305,12.7541529 85.0236567,12.7541529 C85.4094008,12.7541529 85.7137598,12.8815116 85.9367427,13.136233 C86.1597255,13.3909543 86.2663326,13.7811685 86.2565669,14.3068873 L84.5378169,14.3068873 C84.5426997,14.5103388 84.5980377,14.6686217 84.7038325,14.7817408 C84.8096273,14.8948598 84.9414619,14.9514185 85.0993403,14.9514185 C85.2067627,14.9514185 85.2970939,14.9221219 85.3703364,14.8635279 C85.443579,14.8049338 85.498917,14.7105337 85.536352,14.5803248 Z M85.5754145,13.8869654 C85.5705317,13.6883967 85.5192627,13.5374379 85.4216059,13.4340845 C85.3239492,13.3307311 85.2051353,13.2790552 85.0651606,13.2790552 C84.9154203,13.2790552 84.7917236,13.3335794 84.6940669,13.4426294 C84.5964101,13.5516795 84.5483963,13.69979 84.5500239,13.8869654 L85.5754145,13.8869654 Z M89.1740473,15.4055201 L88.4880122,15.4055201 L88.4880122,14.0822779 C88.4880122,13.8023286 88.4733639,13.6212594 88.4440669,13.539065 C88.4147699,13.4568706 88.3671629,13.3929877 88.3012446,13.3474146 C88.2353263,13.3018415 88.1559814,13.2790552 88.0632075,13.2790552 C87.9443918,13.2790552 87.8377848,13.311607 87.7433833,13.3767115 C87.6489818,13.441816 87.5842852,13.5280781 87.5492915,13.6355005 C87.5142978,13.7429229 87.4968013,13.9414887 87.4968013,14.2312037 L87.4968013,15.4055201 L86.8107661,15.4055201 L86.8107661,12.8127466 L87.4479731,12.8127466 L87.4479731,13.193606 C87.6742112,12.9006358 87.9590391,12.7541529 88.3024653,12.7541529 C88.4538333,12.7541529 88.5921782,12.781415 88.7175044,12.83594 C88.8428305,12.890465 88.9376375,12.9600444 89.0019282,13.0446802 C89.0662189,13.1293161 89.1109776,13.2253437 89.1362056,13.3327662 C89.1614335,13.4401886 89.1740473,13.5939956 89.1740473,13.7941919 L89.1740473,15.4055201 Z M89.6281489,14.665774 L90.3166255,14.5607935 C90.3459225,14.6942577 90.4053295,14.7955751 90.4948481,14.8647486 C90.5843668,14.9339221 90.7096911,14.9685083 90.8708247,14.9685083 C91.0482344,14.9685083 91.1816966,14.9359566 91.2712153,14.8708521 C91.331437,14.825279 91.3615473,14.7642444 91.3615473,14.6877466 C91.3615473,14.635663 91.3452715,14.592532 91.3127192,14.5583521 C91.2785394,14.5257999 91.2020427,14.4956895 91.083227,14.4680201 C90.5298389,14.3459491 90.1790937,14.2344594 90.0309809,14.1335474 C89.8259018,13.9935728 89.7233638,13.799076 89.7233638,13.5500513 C89.7233638,13.3254408 89.8120673,13.1366406 89.989477,12.9836451 C90.1668868,12.8306495 90.4419491,12.7541529 90.8146723,12.7541529 C91.1694918,12.7541529 91.4331611,12.8119322 91.605688,12.9274927 C91.7782149,13.0430532 91.8970288,13.2139499 91.9621333,13.440188 L91.3151606,13.5598169 C91.2874912,13.458905 91.2350015,13.3815946 91.1576899,13.3278833 C91.0803783,13.2741721 90.9701093,13.2473169 90.8268794,13.2473169 C90.6462144,13.2473169 90.5168212,13.2725446 90.4386958,13.3230005 C90.3866122,13.358808 90.3605708,13.4051943 90.3605708,13.4621607 C90.3605708,13.5109891 90.383357,13.5524926 90.4289302,13.5866724 C90.4907794,13.6322456 90.7044003,13.6965353 91.0697993,13.7795435 C91.4351983,13.8625517 91.6903227,13.964276 91.8351802,14.0847193 C91.97841,14.2067902 92.0500239,14.3768731 92.0500239,14.5949732 C92.0500239,14.8326046 91.950741,15.0368669 91.7521723,15.2077662 C91.5536036,15.3786655 91.259824,15.4641138 90.8708247,15.4641138 C90.5176328,15.4641138 90.2380946,15.3925 90.0322016,15.2492701 C89.8263087,15.1060402 89.6916258,14.9115434 89.6281489,14.665774 Z M94.1520747,14.5803248 L94.8356684,14.6950708 C94.7477774,14.9457231 94.6090255,15.1365578 94.4194087,15.2675806 C94.2297918,15.3986034 93.9925709,15.4641138 93.7077388,15.4641138 C93.2568901,15.4641138 92.9232346,15.3168171 92.7067622,15.0222193 C92.5358629,14.7862155 92.4504145,14.4883669 92.4504145,14.1286646 C92.4504145,13.698975 92.5627181,13.3624712 92.7873286,13.1191431 C93.0119391,12.8758151 93.2959532,12.7541529 93.6393794,12.7541529 C94.0251235,12.7541529 94.3294824,12.8815116 94.5524653,13.136233 C94.7754482,13.3909543 94.8820552,13.7811685 94.8722895,14.3068873 L93.1535395,14.3068873 C93.1584224,14.5103388 93.2137604,14.6686217 93.3195552,14.7817408 C93.42535,14.8948598 93.5571846,14.9514185 93.715063,14.9514185 C93.8224854,14.9514185 93.9128165,14.9221219 93.9860591,14.8635279 C94.0593016,14.8049338 94.1146396,14.7105337 94.1520747,14.5803248 Z M94.1911372,13.8869654 C94.1862544,13.6883967 94.1349853,13.5374379 94.0373286,13.4340845 C93.9396719,13.3307311 93.8208579,13.2790552 93.6808833,13.2790552 C93.531143,13.2790552 93.4074463,13.3335794 93.3097895,13.4426294 C93.2121328,13.5516795 93.164119,13.69979 93.1657466,13.8869654 L94.1911372,13.8869654 Z" id="Trade-mark-of-Intera"></path>
                <path d="M19.8318105,18.1793284 C19.8318105,19.0925333 19.0912325,19.8318105 18.1793566,19.8318105 L1.65309178,19.8318105 C0.739902481,19.8318105 0,19.0925333 0,18.1793284 L0,1.65244449 C0,0.739277155 0.739902481,0 1.65309178,0 L18.1793566,0 C19.0912325,0 19.8318105,0.739277155 19.8318105,1.65244449 L19.8318105,18.1793284 Z M11.0553843,10.1434834 L12.0206353,9.91419144 L12.0196749,7.94806842 C12.0196749,7.49637117 12.1895875,7.2007716 12.5264945,7.06491999 C12.7973942,6.95454523 13.0044659,6.96335114 13.0044659,6.96335114 L13.0044659,6.05472579 C13.0044659,6.05472579 12.9195096,6.02894785 12.7505575,6.07203652 C12.2023678,6.21477481 11.966448,6.82847793 11.966448,6.82847793 L11.966448,6.36206657 L11.053796,6.58221392 L11.0553843,10.1434834 Z M6.15006311,11.3138853 L7.19668676,11.0635311 C7.19668676,11.0635311 6.98091263,10.9064071 6.98091263,10.0871686 C6.97994341,9.73475705 6.98091263,8.2850692 6.98091263,8.2850692 L7.67263487,8.11941851 L7.67263487,7.39149444 L6.98091263,7.5567695 L6.98091263,6.76232226 L6.00154135,6.99505961 L6.00154135,7.78950691 L5.526898,7.90264518 L5.526898,8.6315834 L6.00090759,8.5181446 L6.00090759,10.2879778 C6.00090759,11.0876463 6.15006311,11.3138853 6.15006311,11.3138853 Z M7.80267953,9.19991985 C7.80267953,10.2311698 8.11269579,10.9463632 9.2740046,10.6682948 C10.5000099,10.376579 10.5978707,9.53384878 10.6059207,9.19408702 C10.6069223,9.11295099 10.6049562,9.03996596 10.6049562,9.03996596 L9.72250243,9.25312561 C9.72250243,9.25312561 9.72087017,9.35665819 9.71638148,9.39819829 C9.69093324,9.65099119 9.60078849,9.85607468 9.27623038,9.92487201 C8.90084997,10.005335 8.77624254,9.72203199 8.77624254,9.12431754 L8.77624254,9.09350827 L10.6593769,8.64763403 C10.6593769,8.64763403 10.6580785,8.49837372 10.6632349,8.19267416 C10.6783703,7.33797911 10.2930109,6.70029486 9.22407259,6.9453107 C8.68160911,7.06959464 8.30908513,7.34183026 8.08246203,7.75981161 C7.89152584,8.11221111 7.80267953,8.57072309 7.80267953,9.19991985 Z M9.26306108,7.60404541 C9.6094691,7.52455458 9.72795559,7.7279928 9.72955078,8.11351975 C9.72955078,8.19330975 9.72955078,8.24460867 9.72795559,8.26764081 L8.7804344,8.49512078 C8.78755695,7.98370215 8.95107875,7.6754227 9.26306108,7.60404541 Z M16.3887215,7.10881897 C16.4261392,8.22561148 16.6653058,8.93732522 17.8852088,8.64857192 C18.7715758,8.44087219 19.2440225,7.87062415 19.2466095,6.96640817 C19.2466095,6.88894609 19.2456722,6.81840226 19.2456722,6.81840226 L18.3039657,7.04247148 C18.3039657,7.04247148 18.3020161,7.1816311 18.3013412,7.22529568 C18.2954924,7.50183798 18.2466767,7.81781074 17.8900828,7.89194602 C17.4794242,7.97889713 17.3857298,7.66296221 17.3857298,6.97325086 C17.3857298,6.94077649 17.38438,6.89779244 17.38438,6.65663542 C17.38438,5.97781188 17.5285398,5.63658549 17.8852088,5.54634535 C18.1852261,5.47054667 18.2994291,5.62872208 18.2990917,6.04536911 C18.2990917,6.04933862 18.2994291,6.17795065 18.2994291,6.17795065 L19.2433851,5.95191557 L19.2424103,5.88692907 C19.2424103,5.53587341 19.1874084,5.28518958 19.0455357,5.09915202 C18.8978141,4.90460836 18.6062701,4.70314642 17.8370305,4.87935473 C16.6317497,5.15427146 16.351941,6.01913256 16.3887215,7.10881897 Z M13.0694882,8.64069329 C13.0694882,9.24831304 13.4480712,9.69052646 14.1620682,9.52222026 C14.8418163,9.36208638 15.0387668,8.8652271 15.0387668,8.8652271 C15.0757255,9.01496656 15.1599554,9.18918557 15.1599554,9.18918557 L16.0605154,8.97572396 C16.0605154,8.97572396 15.9190784,8.86428557 15.9190784,8.10071236 L15.9190784,6.52234714 C15.91746,5.85559987 15.5917936,5.42743394 14.6164505,5.65230673 C13.8658334,5.82618677 13.4304197,6.15824227 13.2837513,6.65182507 C13.2056937,6.91130818 13.2204095,7.1943669 13.2204095,7.1943669 L14.1376047,6.97766652 C14.1376047,6.97766652 14.1346691,6.88777016 14.1434759,6.79463491 C14.1594713,6.62139514 14.2388461,6.40405448 14.5380543,6.32824324 C14.8637206,6.24520112 14.9551767,6.41486314 14.9515636,6.61258246 C14.9486279,6.8482639 14.9349284,6.98260009 14.2809987,7.25319312 C13.5535655,7.55425378 13.0694882,7.81539393 13.0694882,8.64069329 Z M14.9456923,7.51369305 L14.9456923,8.01021338 C14.9456923,8.38802679 14.7431717,8.66031456 14.4514909,8.73352723 C14.1800583,8.80120371 14.0301156,8.64231267 14.0301156,8.4007938 C14.0301156,8.12232969 14.1663587,7.94121877 14.466169,7.79415321 C14.7581886,7.65194593 14.9456923,7.51369305 14.9456923,7.51369305 Z M1.01674478,13.7847338 C1.05563594,13.7847338 1.09519382,13.7807776 1.13215895,13.7717512 C1.20642256,13.7560799 1.56481393,13.6710782 1.86475744,13.5960632 L1.88564755,13.5910698 L1.88564755,12.5493096 L0.562532969,12.8730304 L0.551939756,12.8756806 L0.545828287,12.88367 C0.486343319,12.9793881 0.455156306,13.0883961 0.455156306,13.2013988 C0.455156306,13.5234296 0.707171079,13.7847338 1.01674478,13.7847338 Z M1.01674478,15.1502027 C1.05563594,15.1502027 1.09519382,15.1465528 1.13215895,15.138907 C1.20642256,15.1238844 1.56481393,15.0375142 1.86475744,14.9627856 L1.88564755,14.9571377 L1.88564755,13.9147785 L0.562532969,14.2388972 L0.551939756,14.2412409 L0.545828287,14.2515761 C0.486343319,14.3449005 0.455156306,14.4539391 0.455156306,14.5683565 C0.455156306,14.8897858 0.707171079,15.1502027 1.01674478,15.1502027 Z M1.01674478,16.4506493 C1.05563594,16.4506493 1.09519382,16.4463102 1.13215895,16.4389759 C1.19608862,16.4240001 1.54810925,16.3416334 1.86475744,16.2623002 L1.88564755,16.2570011 L1.88564755,15.2152251 L0.551939756,15.5408521 L0.545828287,15.5514887 C0.486343319,15.6444921 0.455156306,15.754084 0.455156306,15.8680919 C0.455156306,16.189687 0.707171079,16.4506493 1.01674478,16.4506493 Z M0.845628587,12.5493096 L1.88564755,12.3044607 L1.88564755,6.6322776 L0.845290282,6.87682755 L0.845628587,12.5493096 Z M3.43689318,12.0822786 C3.43689318,11.7304782 3.14747848,11.44393 2.79182542,11.44393 C2.43416858,11.44393 2.14573687,11.7304782 2.14573687,12.0822786 L2.1463796,17.38774 C2.1463796,18.3399342 2.93057813,19.1165648 3.89364289,19.1165648 C4.38218852,19.1165648 5.72060393,19.1142838 5.72060393,19.1142838 L5.72128446,16.9009857 C5.72162472,15.6917468 5.72196499,14.4607822 5.72196499,14.4328866 C5.72196499,14.15277 5.58215367,13.8931826 5.34657653,13.7370638 L3.71776344,12.6430351 C3.71776344,12.6430351 3.71742318,15.0186595 3.71742318,15.1273631 C3.71742318,15.2036464 3.65538143,15.2659443 3.57829239,15.2659443 C3.50184608,15.2659443 3.44018241,15.2036464 3.44018241,15.1273631 C3.44018241,15.1007762 3.43689318,12.4103712 3.43689318,12.0822786 Z M4.34610099,8.10148073 C3.66977174,8.25670431 3.41354628,8.81851408 3.41354628,8.81851408 L3.41354628,8.41686094 L2.47084852,8.63877565 L2.47183255,11.2046335 C2.58155154,11.1611769 2.70175421,11.1373398 2.82759611,11.1373398 C3.07163478,11.1373398 3.29398701,11.2274915 3.4644886,11.3772171 L3.4644886,9.72055787 C3.4644886,9.3238002 3.66352696,9.00676309 3.94666177,8.94466618 C4.16015776,8.89793339 4.33819093,8.97407656 4.33819093,9.35189257 L4.33883433,11.7690416 L5.33183101,11.5370348 L5.33183101,8.98032767 C5.33183101,8.36033729 5.09267463,7.92761688 4.34610099,8.10148073 Z M18.6288974,4.48654073 C18.9691877,4.48654073 19.2466095,4.20930315 19.2466095,3.86928546 C19.2466095,3.52865862 18.9691877,3.25111647 18.6288974,3.25111647 C18.288607,3.25111647 18.0111852,3.52865862 18.0111852,3.86928546 C18.0111852,4.20930315 18.288607,4.48654073 18.6288974,4.48654073 Z" id="Combined-Shape" fill-rule="nonzero"></path>
            </g>
            <g id="Group" transform="translate(42.000000, 5.000000)"></g>
        </g>
    </g>
</svg>