<svg xmlns="http://www.w3.org/2000/svg" viewBox="0 0 521 552.38"><style>.st0{fill:#fff}.st1{fill:#f5f5f5}.st2{fill:url(#SVGID_1_)}.st3{fill:url(#SVGID_2_)}.st4{fill:url(#SVGID_3_)}.st5{fill:url(#SVGID_4_)}.st6{fill:url(#SVGID_5_)}.st7{fill:url(#SVGID_6_)}.st8{fill:url(#SVGID_7_)}.st9{fill:url(#SVGID_8_)}.st10{fill:url(#SVGID_9_)}.st11{fill:url(#SVGID_10_)}.st12{fill:url(#SVGID_11_)}.st13{fill:url(#SVGID_12_)}.st14{fill:url(#SVGID_13_)}.st15{fill:url(#SVGID_14_)}</style><g id="studio_1_"><path class="st0" d="M46.3 476.56c-1.25-2.5-3.33-5.27-5.41-6.93-1.8-1.39-5.13-3.19-10.4-3.19-9.15 0-15.53 5.68-15.53 14.28 0 3.6.97 5.68 3.46 8.04 2.77 2.77 6.24 4.3 9.7 5.82l8.87 3.88c5.41 2.36 10.4 4.85 14.28 8.73 4.71 4.71 6.65 10.12 6.65 16.77 0 17.05-12.62 28.42-29.25 28.42-6.1 0-13.72-1.25-20.1-7.49-4.58-4.44-7.35-10.81-8.59-16.36l9.98-2.77c.69 4.85 2.91 9.01 5.54 11.78 4.02 4.02 8.59 5.13 13.31 5.13 12.62 0 18.58-9.01 18.58-18.3 0-4.16-1.25-7.76-4.58-10.81-2.63-2.5-6.24-4.16-11.09-6.38l-8.32-3.88c-3.6-1.66-8.18-3.6-12.34-7.62-4.02-3.88-6.38-8.18-6.38-15.11 0-14.28 10.95-23.84 25.92-23.84 5.68 0 10.26 1.11 14.83 4.16 3.74 2.5 6.93 6.24 9.01 10.26l-8.14 5.41zM108.96 467.96v82.76H98.7v-82.76H76.24v-9.7h55.17v9.7h-22.45zM170.79 514.95c0 7.76 0 16.22 7.35 22.46 3.74 3.19 10.12 5.27 15.25 5.27s11.51-2.08 15.25-5.27c7.35-6.24 7.35-14.69 7.35-22.46v-56.7h10.26v59.47c0 7.76-.83 15.25-5.82 22.18-5.54 7.62-15.25 12.48-27.03 12.48s-21.49-4.85-27.03-12.48c-4.99-6.93-5.82-14.42-5.82-22.18v-59.47h10.26v56.7zM265.33 458.26h18.85c9.29 0 22.46.97 34.1 10.81 8.46 7.07 15.8 18.85 15.8 35.49 0 19.41-9.57 29.8-16.22 35.49-8.46 7.21-17.33 10.67-33.82 10.67h-18.71v-92.46zm10.26 82.76h9.01c7.35 0 17.47-.83 26.48-8.32 6.93-5.82 12.48-14.97 12.48-28.14 0-22.18-15.53-36.6-38.95-36.6h-9.01v73.06zM378.45 458.26v92.46h-10.26v-92.46h10.26zM412.55 504.56c0-27.59 21.49-47.83 48.1-47.83s48.1 20.24 48.1 47.83c0 27.45-21.35 47.83-48.1 47.83s-48.1-20.38-48.1-47.83zm10.53 0c0 21.21 16.77 38.12 37.57 38.12s37.57-16.91 37.57-38.12c0-21.21-16.77-38.12-37.57-38.12s-37.57 16.91-37.57 38.12z"/></g><path class="st1" d="M104.25 4.2v191.77H60V4.2h44.25zM46.62 3.87v192.1H2.37V3.87h44.25zM464.7 3.78v115.9s-73.41-82.51-83.48-91.81C361.5 9.68 336.84 0 306.95 0c-38.22 0-62.13 15.23-75.06 28.16-17.24 17.24-29.63 45.11-29.63 72.7 0 28.16 11.48 54.02 29.87 71.26 14.37 13.79 38.78 28.16 74.7 28.16 32.18 0 56.32-10.92 74.13-28.16 14.11-13.72 22.87-30.26 27.01-47.5l62.31 71.34h37.59V3.78H464.7zM348.78 143.1c-9.2 9.2-22.99 16.38-42.53 16.38-14.94 0-28.73-4.02-41.09-15.8-11.78-11.49-17.53-25.57-17.53-43.1 0-21.26 8.62-35.34 16.95-43.39 10.34-10.34 25.29-16.38 41.95-16.38 17.53 0 32.76 7.18 42.24 16.38 8.62 8.62 16.67 23.28 16.67 43.1.01 22.12-9.19 35.63-16.66 42.81z"/><path class="st1" d="M158.02 117.4c10.63-2.59 20.11-8.27 26.72-14.59 12.36-12.07 14.94-26.98 14.94-39.05 0-21.26-8.62-35.34-16.67-43.09-9.2-8.62-24.42-16.95-48.85-16.95H60v34h61.53c5.75 0 17.24.11 24.42 5.57 3.74 2.87 8.91 9.39 8.91 20.31 0 9.48-4.02 15.07-7.18 18.23-7.47 7.47-18.39 7.89-26.44 7.89H111v31l51.9 75h54.02l-58.9-78.32zM420 316.72v38h49.92c-3.96 15-13.11 22.77-14.63 23.99-4.57 3.96-15.24 10.93-35.36 10.93-15.55 0-28.97-3.98-41.15-15.87-15.19-14.83-20.55-33.25-22.98-47.72 2.43-14.46 7.79-32.86 22.98-47.69 12.19-11.9 25.61-15.83 41.15-15.83 20.12 0 30.79 7.06 35.36 11.02 1.37 1.09 8.87 7.66 13.26 19.85l39.56-19.2c-4.6-9.76-10.49-18.96-17.88-26.65-22.56-23.47-48.35-27.74-72.43-27.74-24.39 0-50.6 3.96-74.38 28.35-3.17 3.25-6.76 7.39-10.34 12.47-.02-.03-.04-.05-.06-.08l-.01.18-.21.3c-2.92-4.37-6.09-8.33-9.51-11.64-20.42-19.81-46.94-29.57-78.64-29.57-40.54 0-65.83 16.17-79.56 29.87-3.33 3.32-6.46 7.7-9.38 12.75l-.41-.72-.02-.01c.01-.01.01-.02.02-.03-2.62-3.28-5.44-6.18-8.45-9.1-25-24.08-53.35-27.86-80.17-27.86H2v203h66.19c17.07 0 52.13-2.14 80.17-30.49 2.21-2.21 4.3-4.54 6.29-6.97 3.21 4.35 6.69 8.42 10.43 12.15 13.73 13.7 39.02 29.87 79.56 29.87 31.7 0 58.22-9.75 78.64-29.57 3.42-3.31 6.6-7.28 9.52-11.65.07.1.13.2.2.29l.01.18c.02-.03.04-.05.06-.08 3.58 5.08 7.17 9.22 10.34 12.47 23.78 24.39 49.99 28.35 74.38 28.35 24.08 0 49.62-4.27 72.18-27.74 22.56-23.47 31.03-60.97 31.03-85.66v-2.16H420zm-292.25 23c-1.92 5.33-7.5 24.25-19.63 34.46C92.9 387 71.55 387.72 61.79 387.72H49v-124h12.79c14.33 0 34.14 2.28 49.38 17.52 7.93 7.93 15.16 22.41 18.24 43.74.28 2.1.61 4.18.97 6.25-1.02 3.53-1.9 6.43-2.63 8.49zm171.11 18.77c-2.86 5.26-6.24 9.66-9.71 13.12-10.06 9.75-26.22 17.38-44.81 17.38-17.68 0-33.53-6.4-44.51-17.38-2.17-2.1-4.35-4.6-6.42-7.49l.09-.01s-9.44-13.54-15.54-38.06c6.1-24.53 15.54-38.07 15.54-38.07l-.09-.02c2.07-2.89 4.25-5.39 6.42-7.49 10.97-10.97 26.82-17.38 44.51-17.38 18.59 0 34.75 7.62 44.81 17.38 3.47 3.47 6.85 7.86 9.71 13.12 2.64 4.36 7.69 13.42 10.64 25.88.52 2.19 1 4.38 1.46 6.57-.46 2.19-.94 4.38-1.46 6.57-2.95 12.46-8 21.52-10.64 25.88z"/><linearGradient id="SVGID_1_" gradientUnits="userSpaceOnUse" x1="356.281" y1="127.466" x2="408.829" y2="74.918"><stop offset="0" stop-opacity="0"/><stop offset="1" stop-opacity=".5"/></linearGradient><path class="st2" d="M408.02 125.24L352.9 61.62s26.37 35.01 2.27 73.67l21.37 40.47c.01 0 24.25-18.08 31.48-50.52z"/><linearGradient id="SVGID_2_" gradientUnits="userSpaceOnUse" x1="163.561" y1="159.114" x2="119.094" y2="95.798"><stop offset="0" stop-opacity="0"/><stop offset="1" stop-opacity=".5"/></linearGradient><path class="st3" d="M111.87 121.84s20.22 3.7 46.4-3.71l58.65 78.58h-53.91l-51.14-74.87z"/><linearGradient id="SVGID_3_" gradientUnits="userSpaceOnUse" x1="420.597" y1="265.331" x2="294.597" y2="373.331"><stop offset="0" stop-opacity="0"/><stop offset="1" stop-opacity=".5"/></linearGradient><path class="st4" d="M354.76 319c.28 2.21.61 4.58 1.03 7.06 2.43-14.46 7.79-32.86 22.98-47.69 12.19-11.9 25.61-15.83 41.15-15.83 20.12 0 30.79 7.06 35.36 11.02 1.37 1.09 8.87 7.66 13.26 19.85l39.56-19.2c-4.6-9.76-10.49-18.96-17.88-26.65-22.56-23.47-48.35-27.74-72.43-27.74-24.39 0-50.6 3.96-74.38 28.35-3.17 3.25-6.76 7.39-10.34 12.47-.02-.03-.04-.05-.06-.08l-.01.18-.21.3c12.23 18.26 19.95 43.62 21.97 57.96z"/><linearGradient id="SVGID_4_" gradientUnits="userSpaceOnUse" x1="238.867" y1="357.085" x2="315.368" y2="280.583"><stop offset="0" stop-opacity="0"/><stop offset="1" stop-opacity=".5"/></linearGradient><path class="st5" d="M315.17 346.98c-1.49-6.96-2.74-13.94-4.21-20.94-.46 2.19-.94 4.38-1.46 6.57-2.96 12.46-8.01 21.52-10.64 25.88-2.86 5.26-6.24 9.66-9.71 13.12-10.06 9.75-26.22 17.38-44.81 17.38-17.68 0-33.53-6.4-44.51-17.38-2.17-2.1-4.35-4.6-6.42-7.49l.09-.01s-9.44-13.54-15.54-38.07c-1.96-8.07-2.79-21.65-5.79-32.32l-39.63 46.12c6.99 23.95 18.53 48.57 32.55 62.56 13.73 13.7 39.02 29.87 79.56 29.87 31.7 0 58.22-9.75 78.64-29.57 3.42-3.31 6.6-7.28 9.52-11.65-7.33-10.51-13.64-25.33-17.64-44.07z"/><linearGradient id="SVGID_5_" gradientUnits="userSpaceOnUse" x1="245.607" y1="326.04" x2="78.962" y2="326.04"><stop offset="0" stop-opacity="0"/><stop offset="1" stop-opacity=".5"/></linearGradient><path class="st6" d="M420 316.72v38h49.92c-3.96 15-13.11 22.77-14.63 23.99-4.57 3.96-15.24 10.93-35.36 10.93-15.55 0-28.97-3.98-41.15-15.87-17.79-17.37-22.1-39.67-24.01-54.77-2.51-17.77-13.76-52.46-31.47-69.62-20.42-19.81-46.94-29.57-78.64-29.57-40.54 0-65.83 16.17-79.56 29.87-3.43 3.42-6.36 8.01-9.46 12.54 0 0 5.62 8.5 10.62 21.5 5.8 15.08 10.55 37.7 11.71 42.32 6.1-24.53 15.54-38.07 15.54-38.07l-.09-.01c2.07-2.89 4.25-5.39 6.42-7.49 10.97-10.97 26.82-17.38 44.51-17.38 18.59 0 34.75 7.62 44.81 17.38 3.47 3.47 6.85 7.86 9.71 13.12 2.64 4.36 7.69 13.42 10.64 25.88 2.18 9.19 3.71 18.38 5.67 27.51 3.15 19.23 10.44 33.84 17.83 44.38l.01.18c.02-.03.04-.05.06-.08 3.58 5.08 7.17 9.22 10.34 12.47 23.78 24.39 49.99 28.35 74.38 28.35 24.08 0 49.62-4.27 72.18-27.74 22.56-23.47 31.03-60.97 31.03-85.66v-2.16H420z"/><g><linearGradient id="SVGID_6_" gradientUnits="userSpaceOnUse" x1="90.566" y1="402.563" x2="170.232" y2="340.896"><stop offset="0" stop-opacity="0"/><stop offset="1" stop-opacity=".5"/></linearGradient><path class="st7" d="M127.75 339.72c-1.92 5.33-7.5 24.25-19.63 34.46C92.9 387 71.55 387.72 61.79 387.72h-1.2c-4.27 13.2-6.63 26.3-7.18 40h14.78c17.07 0 52.13-2.14 80.17-30.49 2.21-2.21 4.3-4.54 6.29-6.97-12.15-16.45-20.42-37-24.27-59.02-1.02 3.52-1.9 6.42-2.63 8.48z"/><path class="st1" d="M420 316.72v38h49.92c-3.96 15-13.11 22.77-14.63 23.99-4.57 3.96-15.24 10.93-35.36 10.93-15.55 0-28.97-3.98-41.15-15.87-15.19-14.83-20.55-33.25-22.98-47.72-.42 2.48-.75 4.84-1.03 7.05-2.03 14.34-9.74 39.69-21.96 57.96.07.1.13.2.2.29l.01.18c.02-.03.04-.05.06-.08 3.58 5.08 7.17 9.22 10.34 12.47 23.78 24.39 49.99 28.35 74.38 28.35 24.08 0 49.62-4.27 72.18-27.74 22.56-23.47 31.03-60.97 31.03-85.66v-2.16H420z"/></g><linearGradient id="SVGID_7_" gradientUnits="userSpaceOnUse" x1="82.121" y1="70.72" x2="82.121" y2="22.72"><stop offset="0" stop-opacity="0"/><stop offset="1" stop-opacity=".5"/></linearGradient><path class="st8" d="M60 37.85h44.24v34.37H60z"/></svg>