<svg xmlns="http://www.w3.org/2000/svg" width="148.5" height="31.54" viewBox="0 0 148.5 31.54">
  <defs>
    <style>
      .cls-1, .cls-2 {
        fill: #fff;
      }

      .cls-1 {
        opacity: 0.5;
        isolation: isolate;
      }
    </style>
  </defs>
  <title>isoftbet_white</title>
  <g id="Layer_2" data-name="Layer 2">
    <g id="Layer_1-2" data-name="Layer 1">
      <g id="Layer_2-2" data-name="Layer 2">
        <g id="Layer_1-2-2" data-name="Layer 1-2">
          <path class="cls-1" d="M5.25,2.62a2.77,2.77,0,0,1,1.89.71,2.49,2.49,0,0,1,.8,2,2.48,2.48,0,0,1-.8,2,2.77,2.77,0,0,1-1.89.72,2.76,2.76,0,0,1-1.89-.72,2.47,2.47,0,0,1-.8-2,2.47,2.47,0,0,1,.8-2,2.76,2.76,0,0,1,1.89-.71M5.25,0A5.33,5.33,0,0,0,1.67,1.42,5,5,0,0,0,0,5.28,5,5,0,0,0,1.66,9.15a5.35,5.35,0,0,0,3.59,1.36A5.33,5.33,0,0,0,8.84,9.15,5,5,0,0,0,10.5,5.29,5,5,0,0,0,8.85,1.43,5.34,5.34,0,0,0,5.25,0"/>
          <path class="cls-1" d="M6.76,13v18.2H3.57V12.88h0a5.58,5.58,0,0,0,1.58.23,5.47,5.47,0,0,0,1.59-.24Z"/>
          <path class="cls-2" d="M26.72,8.35C26.47,5.21,25.19,2.83,22,2.83a3.93,3.93,0,0,0-4.19,3.65q0,.17,0,.35c0,6.92,12.31,7,12.31,16.86,0,4.88-2.8,7.81-7.86,7.81-4.8,0-7.69-3.53-7.77-8.66h3.06c.08,3.61,1.78,5.86,5.05,5.86,2.76,0,4.54-1.78,4.54-5.05,0-7-12.31-7.77-12.31-16.52,0-4.33,3-7.13,7.39-7.13s7.3,3,7.56,8.32Z"/>
          <path class="cls-2" d="M43.49,31.54c-5.18,0-8.66-4.33-8.66-15.75S38.31,0,43.49,0s8.66,4.33,8.66,15.76-3.48,15.75-8.66,15.75m0-28.71c-3,0-5.35,2.55-5.35,13s2.38,13,5.35,13,5.35-2.55,5.35-13-2.38-13-5.35-13"/>
          <polygon class="cls-2" points="57.34 0.45 70.5 0.45 70.5 3.26 60.65 3.26 60.65 13.7 68.04 13.7 68.04 16.51 60.65 16.51 60.65 31.12 57.34 31.12 57.34 0.45"/>
          <polygon class="cls-2" points="90.41 0.45 90.41 3.26 84.13 3.26 84.13 31.12 80.82 31.12 80.82 3.26 74.53 3.26 74.53 0.45 90.41 0.45"/>
          <path class="cls-1" d="M94,.45h8.15c4.59,0,7.22,3.06,7.22,7.56,0,3.06-1.36,5.82-4.67,6.79v.09c3.7,1,5.35,3.91,5.35,7.73,0,5.69-3.14,8.49-9.85,8.49H94Zm3.31,13.16h1.87c4.76,0,6.88-1.44,6.88-5.6,0-3.48-1.53-4.76-5.43-4.76H97.29Zm0,14.69h3.31c4,0,6.11-1.74,6.11-5.69s-1.79-6.2-6.11-6.2H97.29Z"/>
          <polygon class="cls-1" points="129.22 0.45 129.22 3.26 118.52 3.26 118.52 13.7 126.42 13.7 126.42 16.51 118.52 16.51 118.52 28.31 129.73 28.31 129.73 31.12 115.21 31.12 115.21 0.45 129.22 0.45"/>
          <polygon class="cls-1" points="148.5 0.45 148.5 3.26 142.22 3.26 142.22 31.12 138.9 31.12 138.9 3.26 132.62 3.26 132.62 0.45 148.5 0.45"/>
        </g>
      </g>
    </g>
  </g>
</svg>
