<?xml version="1.0" encoding="UTF-8"?>
<svg width="411px" height="72px" viewBox="0 0 411 72" version="1.1" xmlns="http://www.w3.org/2000/svg" xmlns:xlink="http://www.w3.org/1999/xlink">
    <!-- Generator: Sketch 61 (89581) - https://sketch.com -->
    <title>Mastercard White</title>
    <desc>Created with Sketch.</desc>
    <g id="Mastercard-White" stroke="none" stroke-width="1" fill="none" fill-rule="evenodd">
        <path d="M58.249,7.71 C57.785,8.075 57.331,8.451 56.887,8.837 C49.301,15.438 44.499,25.155 44.499,36 C44.499,46.844 49.301,56.561 56.887,63.162 C57.331,63.548 57.785,63.923 58.249,64.289 C58.713,63.923 59.167,63.548 59.611,63.162 C67.197,56.561 71.999,46.844 71.999,36 C71.999,25.155 67.197,15.438 59.611,8.837 C59.167,8.451 58.713,8.075 58.249,7.71 L58.249,7.71 Z M80.498,-1.42108547e-14 C73.127,-1.42108547e-14 66.275,2.216 60.569,6.016 C60.861,6.255 61.156,6.491 61.439,6.737 C69.92,14.115 74.784,24.781 74.784,36 C74.784,47.217 69.92,57.883 61.44,65.262 C61.158,65.506 60.861,65.743 60.569,65.983 C66.275,69.783 73.127,71.999 80.498,71.999 C100.38,71.999 116.498,55.881 116.498,36 C116.498,16.117 100.38,-1.42108547e-14 80.498,-1.42108547e-14 L80.498,-1.42108547e-14 Z M55.059,65.262 C55.34,65.506 55.637,65.743 55.929,65.983 C50.223,69.784 43.371,72 36,72 C16.117,72 0,55.881 0,36 C0,16.118 16.117,-1.42108547e-14 36,-1.42108547e-14 C43.37,-1.42108547e-14 50.222,2.216 55.929,6.016 C55.637,6.255 55.342,6.491 55.059,6.736 C46.578,14.115 41.714,24.781 41.714,36 C41.714,47.218 46.578,57.884 55.059,65.262 L55.059,65.262 Z M188.397,36.155 C188.397,31.948 191.151,28.492 195.659,28.492 C199.967,28.492 202.872,31.798 202.872,36.155 C202.872,40.512 199.967,43.818 195.659,43.818 C191.151,43.818 188.397,40.363 188.397,36.155 L188.397,36.155 Z M207.78,36.155 L207.78,24.185 L202.571,24.185 L202.571,27.089 C200.918,24.936 198.414,23.584 195.008,23.584 C188.296,23.584 183.038,28.843 183.038,36.155 C183.038,43.468 188.296,48.727 195.008,48.727 C198.414,48.727 200.918,47.375 202.571,45.221 L202.571,48.127 L207.78,48.127 L207.78,36.155 Z M383.685,36.155 C383.685,31.948 386.44,28.492 390.948,28.492 C395.255,28.492 398.16,31.798 398.16,36.155 C398.16,40.512 395.255,43.818 390.948,43.818 C386.44,43.818 383.685,40.363 383.685,36.155 L383.685,36.155 Z M408.896,46.99 L408.896,47.366 L409.243,47.366 C409.322,47.366 409.385,47.35 409.432,47.319 C409.479,47.288 409.503,47.24 409.503,47.175 C409.503,47.114 409.479,47.067 409.432,47.036 C409.385,47.004 409.322,46.99 409.243,46.99 L408.896,46.99 Z M409.246,46.725 C409.427,46.725 409.567,46.765 409.666,46.846 C409.763,46.926 409.812,47.037 409.812,47.175 C409.812,47.293 409.773,47.388 409.695,47.464 C409.617,47.54 409.505,47.586 409.362,47.604 L409.824,48.136 L409.462,48.136 L409.034,47.607 L408.896,47.607 L408.896,48.136 L408.594,48.136 L408.594,46.725 L409.246,46.725 Z M409.157,48.621 C409.321,48.621 409.473,48.589 409.615,48.528 C409.756,48.465 409.88,48.38 409.987,48.274 C410.094,48.168 410.177,48.042 410.239,47.898 C410.299,47.754 410.33,47.6 410.33,47.436 C410.33,47.272 410.299,47.119 410.239,46.974 C410.177,46.831 410.094,46.706 409.987,46.598 C409.88,46.492 409.756,46.408 409.615,46.347 C409.473,46.286 409.321,46.255 409.157,46.255 C408.99,46.255 408.834,46.286 408.689,46.347 C408.544,46.408 408.417,46.492 408.311,46.598 C408.205,46.706 408.121,46.831 408.06,46.974 C407.999,47.119 407.968,47.272 407.968,47.436 C407.968,47.6 407.999,47.754 408.06,47.898 C408.121,48.042 408.205,48.168 408.311,48.274 C408.417,48.38 408.544,48.465 408.689,48.528 C408.834,48.589 408.99,48.621 409.157,48.621 L409.157,48.621 Z M409.157,45.917 C409.371,45.917 409.571,45.957 409.758,46.036 C409.946,46.116 410.11,46.224 410.249,46.362 C410.39,46.5 410.5,46.661 410.581,46.846 C410.662,47.031 410.703,47.227 410.703,47.436 C410.703,47.645 410.662,47.841 410.581,48.025 C410.5,48.209 410.39,48.369 410.249,48.506 C410.11,48.645 409.946,48.753 409.758,48.835 C409.571,48.916 409.371,48.956 409.157,48.956 C408.938,48.956 408.734,48.916 408.544,48.835 C408.354,48.753 408.19,48.645 408.05,48.506 C407.912,48.369 407.801,48.209 407.721,48.025 C407.64,47.841 407.6,47.645 407.6,47.436 C407.6,47.227 407.64,47.031 407.721,46.846 C407.801,46.661 407.912,46.5 408.05,46.362 C408.19,46.224 408.354,46.116 408.544,46.036 C408.734,45.957 408.938,45.917 409.157,45.917 L409.157,45.917 Z M403.069,36.155 L403.069,14.568 L397.86,14.568 L397.86,27.089 C396.207,24.936 393.703,23.584 390.296,23.584 C383.584,23.584 378.326,28.843 378.326,36.155 C378.326,43.468 383.584,48.727 390.296,48.727 C393.703,48.727 396.207,47.375 397.86,45.221 L397.86,48.127 L403.069,48.127 L403.069,36.155 Z M272.392,28.242 C275.748,28.242 277.902,30.345 278.453,34.052 L266.031,34.052 C266.582,30.596 268.686,28.242 272.392,28.242 L272.392,28.242 Z M272.493,23.584 C265.48,23.584 260.572,28.692 260.572,36.155 C260.572,43.769 265.68,48.727 272.843,48.727 C276.45,48.727 279.755,47.826 282.661,45.372 L280.106,41.514 C278.102,43.118 275.548,44.019 273.143,44.019 C269.788,44.019 266.732,42.466 265.981,38.159 L283.762,38.159 C283.812,37.507 283.862,36.857 283.862,36.155 C283.812,28.692 279.205,23.584 272.493,23.584 L272.493,23.584 Z M335.351,36.155 C335.351,31.948 338.106,28.492 342.614,28.492 C346.921,28.492 349.827,31.798 349.827,36.155 C349.827,40.512 346.921,43.818 342.614,43.818 C338.106,43.818 335.351,40.363 335.351,36.155 L335.351,36.155 Z M354.735,36.155 L354.735,24.185 L349.526,24.185 L349.526,27.089 C347.874,24.936 345.369,23.584 341.962,23.584 C335.251,23.584 329.992,28.843 329.992,36.155 C329.992,43.468 335.251,48.727 341.962,48.727 C345.369,48.727 347.874,47.375 349.526,45.221 L349.526,48.127 L354.735,48.127 L354.735,36.155 Z M305.95,36.155 C305.95,43.418 311.009,48.727 318.723,48.727 C322.329,48.727 324.733,47.925 327.337,45.872 L324.833,41.665 C322.879,43.068 320.826,43.818 318.572,43.818 C314.416,43.769 311.36,40.763 311.36,36.155 C311.36,31.547 314.416,28.542 318.572,28.492 C320.826,28.492 322.879,29.243 324.833,30.646 L327.337,26.439 C324.733,24.385 322.329,23.584 318.723,23.584 C311.009,23.584 305.95,28.893 305.95,36.155 L305.95,36.155 Z M373.067,23.584 C370.061,23.584 368.108,24.986 366.756,27.089 L366.756,24.185 L361.597,24.185 L361.597,48.127 L366.806,48.127 L366.806,34.703 C366.806,30.746 368.509,28.542 371.915,28.542 C372.967,28.542 374.069,28.692 375.17,29.143 L376.773,24.235 C375.622,23.784 374.119,23.584 373.067,23.584 L373.067,23.584 Z M233.525,26.088 C231.02,24.435 227.564,23.584 223.758,23.584 C217.697,23.584 213.79,26.488 213.79,31.247 C213.79,35.154 216.696,37.558 222.054,38.309 L224.509,38.66 C227.364,39.06 228.716,39.811 228.716,41.164 C228.716,43.017 226.813,44.069 223.257,44.069 C219.651,44.069 217.046,42.917 215.292,41.565 L212.838,45.622 C215.694,47.725 219.3,48.727 223.207,48.727 C230.119,48.727 234.125,45.471 234.125,40.914 C234.125,36.706 230.97,34.502 225.761,33.751 L223.307,33.4 C221.053,33.1 219.25,32.649 219.25,31.047 C219.25,29.293 220.953,28.242 223.808,28.242 C226.863,28.242 229.818,29.394 231.271,30.295 L233.525,26.088 Z M300.691,23.584 C297.686,23.584 295.733,24.986 294.38,27.089 L294.38,24.185 L289.221,24.185 L289.221,48.127 L294.43,48.127 L294.43,34.703 C294.43,30.746 296.133,28.542 299.54,28.542 C300.591,28.542 301.693,28.692 302.795,29.143 L304.398,24.235 C303.246,23.784 301.743,23.584 300.691,23.584 L300.691,23.584 Z M256.264,24.185 L247.749,24.185 L247.749,16.922 L242.491,16.922 L242.491,24.185 L237.632,24.185 L237.632,28.943 L242.491,28.943 L242.491,39.862 C242.491,45.421 244.644,48.727 250.804,48.727 C253.059,48.727 255.663,48.026 257.316,46.874 L255.814,42.417 C254.26,43.318 252.557,43.769 251.206,43.769 C248.601,43.769 247.749,42.166 247.749,39.761 L247.749,28.943 L256.264,28.943 L256.264,24.185 Z M178.429,48.127 L178.429,33.1 C178.429,27.44 174.823,23.634 169.013,23.584 C165.958,23.534 162.802,24.485 160.599,27.841 C158.946,25.187 156.341,23.584 152.685,23.584 C150.13,23.584 147.626,24.335 145.673,27.14 L145.673,24.185 L140.463,24.185 L140.463,48.127 L145.723,48.127 L145.723,34.853 C145.723,30.696 148.027,28.492 151.583,28.492 C155.039,28.492 156.792,30.746 156.792,34.803 L156.792,48.127 L162.051,48.127 L162.051,34.853 C162.051,30.696 164.455,28.492 167.911,28.492 C171.467,28.492 173.17,30.746 173.17,34.803 L173.17,48.127 L178.429,48.127 Z M115.373,58.307 L115.373,56.91 L115.009,56.91 L114.589,57.871 L114.169,56.91 L113.805,56.91 L113.805,58.307 L114.062,58.307 L114.062,57.253 L114.456,58.162 L114.723,58.162 L115.116,57.251 L115.116,58.307 L115.373,58.307 Z M113.063,58.307 L113.063,57.148 L113.53,57.148 L113.53,56.913 L112.34,56.913 L112.34,57.148 L112.808,57.148 L112.808,58.307 L113.063,58.307 Z" id="Fill-1" fill="#FEFEFE"></path>
    </g>
</svg>