<?xml version="1.0" encoding="UTF-8"?>
<!DOCTYPE svg PUBLIC "-//W3C//DTD SVG 1.1//EN" "http://www.w3.org/Graphics/SVG/1.1/DTD/svg11.dtd">
<!-- Creator: CorelDRAW X7 -->
<svg xmlns="http://www.w3.org/2000/svg" xml:space="preserve" width="600px" height="149px" version="1.1" style="shape-rendering:geometricPrecision; text-rendering:geometricPrecision; image-rendering:optimizeQuality; fill-rule:evenodd; clip-rule:evenodd"
viewBox="0 0 600 149"
 xmlns:xlink="http://www.w3.org/1999/xlink">
 <defs>
  <style type="text/css">
   <![CDATA[
    .fil0 {fill:white;fill-rule:nonzero}
   ]]>
  </style>
 </defs>
 <g id="Layer_x0020_1">
  <metadata id="CorelCorpID_0Corel-Layer"/>
  <g id="_359558247056">
   <path class="fil0" d="M75 0c41,0 74,33 74,75 0,41 -33,74 -74,74 -27,0 -49,-13 -63,-34 13,-18 25,-38 36,-59 0,0 -3,66 20,67 18,4 41,-52 41,-52 -2,0 17,33 22,30 2,-1 -3,-8 -7,-17 -4,-9 -6,-21 -7,-26 -1,-8 0,-11 -6,-12 -5,-1 -7,3 -10,10 -9,20 -26,55 -32,54 -9,-2 -7,-77 -7,-83 1,-6 0,-9 -4,-11 -7,0 -10,8 -12,13 -15,26 -29,50 -43,68 -2,-7 -3,-15 -3,-22 0,-42 33,-75 75,-75z"/>
   <path class="fil0" d="M572 79c0,6 1,10 3,12 2,2 4,4 8,4 3,0 5,-2 7,-4 3,-2 4,-6 4,-11 0,-5 -1,-9 -4,-11 -2,-3 -4,-4 -8,-4 -3,0 -5,1 -7,3 -2,3 -3,7 -3,11zm-6 25l7 0c0,3 1,4 2,5 2,1 4,2 7,2 3,0 5,-1 7,-2 2,-1 3,-3 4,-5 0,-2 0,-5 0,-9 -3,3 -7,5 -11,5 -6,0 -10,-2 -13,-6 -3,-4 -4,-9 -4,-14 0,-4 0,-7 2,-11 1,-3 3,-5 6,-7 2,-2 5,-3 9,-3 5,0 9,2 12,6l0 -5 6 0 0 35c0,6 -1,10 -2,13 -1,3 -3,5 -6,6 -3,2 -6,2 -10,2 -5,0 -9,-1 -12,-3 -3,-2 -4,-5 -4,-9zm-42 -4l0 -40 6 0 0 6c3,-5 7,-7 13,-7 2,0 5,1 7,1 2,1 3,2 4,4 1,1 2,3 2,5 1,1 1,3 1,7l0 24 -7 0 0 -24c0,-3 0,-5 -1,-6 0,-2 -1,-3 -3,-4 -1,-1 -3,-1 -4,-1 -3,0 -6,1 -8,3 -2,2 -3,5 -3,10l0 22 -7 0zm-17 0l0 -40 7 0 0 40 -7 0zm0 -48l0 -7 7 0 0 7 -7 0zm-65 48l0 -40 7 0 0 6c1,-2 2,-4 5,-5 2,-1 4,-2 7,-2 3,0 5,1 7,2 2,1 3,3 4,5 3,-5 7,-7 12,-7 4,0 8,1 10,3 2,3 3,6 3,11l0 27 -7 0 0 -25c0,-3 0,-5 -1,-6 0,-1 -1,-2 -2,-3 -1,-1 -3,-1 -4,-1 -3,0 -5,1 -7,3 -2,2 -3,5 -3,9l0 23 -7 0 0 -26c0,-3 0,-5 -1,-7 -2,-1 -3,-2 -6,-2 -2,0 -4,1 -5,2 -2,1 -3,2 -4,4 0,2 -1,5 -1,8l0 21 -7 0zm-79 -21c0,6 1,10 3,12 2,2 5,4 8,4 3,0 6,-2 8,-4 2,-2 3,-6 3,-11 0,-5 -1,-9 -3,-11 -3,-3 -5,-4 -8,-4 -3,0 -6,1 -8,3 -2,3 -3,7 -3,11zm-6 25l7 0c0,3 1,4 2,5 2,1 4,2 7,2 3,0 6,-1 7,-2 2,-1 3,-3 4,-5 0,-2 0,-5 0,-9 -3,3 -6,5 -11,5 -5,0 -10,-2 -13,-6 -3,-4 -4,-9 -4,-14 0,-4 1,-7 2,-11 1,-3 3,-5 6,-7 3,-2 6,-3 9,-3 5,0 9,2 12,6l0 -5 6 0 0 35c0,6 0,10 -2,13 -1,3 -3,5 -6,6 -2,2 -6,2 -10,2 -5,0 -9,-1 -11,-3 -3,-2 -5,-5 -5,-9zm-37 -24c0,5 1,9 3,12 2,2 5,3 9,3 3,0 6,-1 8,-3 2,-3 4,-7 4,-12 0,-5 -2,-9 -4,-11 -2,-3 -5,-4 -8,-4 -4,0 -7,1 -9,4 -2,2 -3,6 -3,11zm-7 0c0,-7 2,-13 6,-16 4,-3 8,-5 13,-5 5,0 10,2 13,6 4,3 6,8 6,15 0,5 -1,9 -3,12 -1,3 -4,5 -7,7 -3,1 -6,2 -9,2 -6,0 -10,-2 -14,-5 -3,-4 -5,-9 -5,-16zm-23 20l0 -40 6 0 0 6c1,-3 3,-5 4,-5 1,-1 3,-2 4,-2 3,0 5,1 7,2l-2 7c-2,-1 -3,-2 -5,-2 -1,0 -3,1 -4,2 -1,0 -2,2 -3,3 0,3 -1,5 -1,8l0 21 -6 0zm-13 -15l7 1c-1,5 -3,9 -6,11 -3,3 -7,4 -11,4 -5,0 -10,-2 -13,-5 -3,-4 -5,-9 -5,-16 0,-4 1,-8 2,-11 1,-3 4,-6 7,-7 3,-2 6,-3 9,-3 5,0 8,1 11,3 3,3 4,6 5,10l-6 1c-1,-3 -2,-5 -4,-6 -1,-2 -3,-2 -6,-2 -3,0 -6,1 -8,3 -2,3 -3,7 -3,12 0,5 1,9 3,12 2,2 5,3 8,3 3,0 5,0 7,-2 2,-2 3,-4 3,-8zm-43 15l0 -40 6 0 0 40 -6 0zm0 -48l0 -7 6 0 0 7 -6 0zm-64 48l0 -55 11 0 13 39c1,4 2,6 3,8 0,-2 1,-5 3,-9l13 -38 10 0 0 55 -7 0 0 -46 -17 46 -6 0 -16 -47 0 47 -7 0zm235 -21c0,6 1,10 3,12 2,2 5,4 8,4 3,0 5,-2 8,-4 2,-2 3,-6 3,-11 0,-5 -1,-9 -4,-11 -2,-3 -4,-4 -7,-4 -3,0 -6,1 -8,3 -2,3 -3,7 -3,11zm22 16c-1,1 -5,4 -9,5 -1,0 -2,0 -3,0 -5,0 -10,-2 -13,-6 -3,-4 -4,-9 -4,-14 0,-4 0,-7 2,-11 1,-3 3,-5 6,-7 2,-2 6,-3 9,-3 5,0 9,2 12,6l0 -5 6 0 0 14 0 10c0,6 0,10 0,11 1,2 1,4 2,5l-7 0c-1,-1 -1,-3 -1,-5z"/>
  </g>
 </g>
</svg>
