<?xml version="1.0" encoding="UTF-8"?>
<!DOCTYPE svg PUBLIC "-//W3C//DTD SVG 1.1//EN" "http://www.w3.org/Graphics/SVG/1.1/DTD/svg11.dtd">
<!-- Creator: CorelDRAW X7 -->
<svg xmlns="http://www.w3.org/2000/svg" xml:space="preserve" width="88.748mm" height="84.5067mm" version="1.1" style="shape-rendering:geometricPrecision; text-rendering:geometricPrecision; image-rendering:optimizeQuality; fill-rule:evenodd; clip-rule:evenodd"
viewBox="0 0 2346 2234"
 xmlns:xlink="http://www.w3.org/1999/xlink">
 <defs>
  <style type="text/css">
   <![CDATA[
    .fil0 {fill:#FEFEFE}
   ]]>
  </style>
 </defs>
 <g id="Layer_x0020_1">
  <metadata id="CorelCorpID_0Corel-Layer"/>
  <path class="fil0" d="M2268 1171l78 57 -67 77 -372 40 -375 40c-115,76 -232,150 -350,222 -87,-51 -171,-104 -255,-158l-927 99 860 -143c-158,-105 -312,-215 -460,-330l213 -124 35 12 -169 -926 687 -37 713 38 -162 920 24 -5c75,41 149,82 224,122 -84,65 -169,128 -256,189l559 -93zm-1442 847c2,9 67,44 120,29 20,-6 13,-37 0,-49 -10,-11 -116,-7 -144,-46 -63,-92 -12,-178 59,-196 59,-16 168,-4 193,40l-64 65c-28,-24 -63,-25 -74,-25 -12,0 -22,3 -28,9 -6,5 -10,12 -10,21 0,6 3,11 8,16 5,5 17,10 36,14 52,12 95,-3 127,56 10,16 14,35 14,56 0,24 -6,47 -18,67 -13,21 -30,36 -52,47 -23,11 -53,21 -87,21 -37,0 -128,-27 -147,-59l67 -66zm1113 -245l0 82 54 0 0 79 -54 0 0 98c0,12 1,20 3,24 3,6 9,9 17,9 7,0 17,-2 30,-7l0 76c-22,4 -41,7 -60,7 -24,0 -42,-4 -53,-11 -12,-6 -20,-17 -26,-31 -5,-14 -8,-36 -8,-67l0 -98 -36 0 0 -79 36 0 0 -82 97 0zm-221 0l0 82 53 0 0 79 -53 0 0 98c0,12 1,20 3,24 3,6 9,9 17,9 7,0 17,-2 29,-7l0 76c-21,4 -41,7 -59,7 -25,0 -42,-4 -54,-11 -11,-6 -20,-17 -25,-31 -6,-14 -9,-36 -9,-67l0 -98 -35 0 0 -79 35 0 0 -82 98 0zm-1629 -22l105 0 71 141 83 -141 97 0 0 380 -99 0 0 -184 -78 141 -76 -137 -1 278 -102 0 0 -478zm408 93l94 0 0 47c9,-21 19,-35 28,-42 36,-28 94,-7 113,24l-74 73c-5,-4 -45,-30 -57,6 -5,18 -3,36 -3,82l0 97 -101 0 0 -287zm607 -97l97 0 0 386 -97 0 0 -386zm243 241c0,25 5,43 14,55 10,12 22,18 37,18 15,0 27,-6 37,-18 9,-11 14,-30 14,-56 0,-25 -5,-43 -14,-54 -10,-12 -22,-18 -36,-18 -15,0 -28,6 -38,18 -9,12 -14,30 -14,55zm-104 0c0,-43 14,-78 42,-105 27,-28 65,-42 112,-42 55,0 95,16 123,49 22,26 33,58 33,96 0,43 -13,78 -41,106 -27,27 -66,41 -114,41 -44,0 -79,-12 -106,-34 -33,-29 -49,-66 -49,-111zm764 -141l102 0 52 151 49 -151 96 0 -101 293c-11,34 -23,56 -35,68 -26,25 -85,29 -120,24l0 -86c19,7 48,12 61,-30l-104 -269zm-969 -410l0 0 -53 -53 -263 -259 -105 -132c-45,28 -90,57 -135,85 137,115 279,221 425,319l2 1 1 1 0 0 1 0 1 1 1 1 1 1 1 0 1 1 1 1 1 1 2 0 1 1 0 0 1 1 1 1 1 0 1 1 2 1 1 1 1 1 1 1 2 0 0 1 1 0 1 1 1 1 1 0 1 1 1 1 1 0 1 1 1 1 2 1 0 0 1 0 1 1 1 1 1 1 1 0 1 1 1 1 1 1 1 0 2 1 0 0 1 1 1 0 1 1 1 1 1 1 1 0 1 1 1 1 1 0 2 1 0 0 1 1 1 1 1 0 1 1 1 1 1 1 1 0 1 1 2 1 2 1 1 1c61,40 122,78 184,116l-124 -123zm144 -85l0 45 480 -308 -190 111 -128 -265 0 315 -162 65 0 37zm-654 -1275l181 1030 114 51 -45 -467 124 293 120 -192 2 462 157 61 -5 -988 -148 -57 -147 229 -110 -328 -243 -94zm1134 1012l234 -10 -165 -77 -64 60 72 -425c-16,86 -89,141 -208,191l131 261zm-80 -915l257 -97c-14,84 -28,168 -42,253 -1,-134 -81,-176 -215,-156zm-17 321c16,-109 -102,-59 -215,-12 0,69 0,137 0,206 98,-28 195,-60 215,-194z"/>
 </g>
</svg>
