<?xml version="1.0" encoding="UTF-8"?>
<svg width="83px" height="20px" viewBox="0 0 83 20" version="1.1" xmlns="http://www.w3.org/2000/svg" xmlns:xlink="http://www.w3.org/1999/xlink">
    <!-- Generator: Sketch 51.3 (57544) - http://www.bohemiancoding.com/sketch -->
    <title>white</title>
    <desc>Created with Sketch.</desc>
    <defs></defs>
    <g id="Page-1" stroke="none" stroke-width="1" fill="none" fill-rule="evenodd">
        <g id="white" fill="#FFFFFF">
            <path d="M4.28746667,10.9244 C4.28746667,11.4326963 4.28746667,11.9409926 4.28746667,12.4492889 C4.28746667,14.5724 4.27828148,16.6955111 4.29428148,18.8184741 C4.29783704,19.3024741 4.17605926,19.5538815 3.63368889,19.5392148 C2.62228148,19.5119556 1.60939259,19.5212889 0.597392593,19.5359556 C0.150133333,19.5424741 -0.000977777778,19.3568444 5.92592593e-05,18.9144741 C0.0105777778,14.1744741 0.00939259259,9.43462222 0.00346666667,4.69462222 C0.00257777778,4.06484444 0.3248,3.61832593 0.768355556,3.24291852 C2.01931852,2.18395556 4.15413333,2.54217778 4.95457778,3.96973333 C6.05146667,5.92588148 7.03546667,7.94114074 8.00554074,9.96277037 C8.13191111,10.2261778 8.27842963,10.4798074 8.41887407,10.7439556 C8.70939259,10.6126963 8.58628148,10.3855852 8.58702222,10.2205481 C8.59724444,8.12202963 8.59354074,6.02365926 8.59398519,3.92528889 C8.59428148,2.94602963 8.59487407,2.94573333 9.6088,2.94484444 C10.3741333,2.94425185 11.1434667,2.99284444 11.9036148,2.93091852 C12.6403556,2.87091852 12.8855407,3.0886963 12.8716148,3.86262222 C12.8234667,6.52795556 12.8530963,9.19462222 12.8530963,11.8608444 C12.8530963,13.7124 12.8556148,15.5639556 12.8520593,17.4155111 C12.849837,18.4975852 12.2991704,19.3445481 11.3929481,19.6795111 C10.4250963,20.0372889 9.46524444,19.7581778 8.73857778,18.9089926 C8.31798519,18.4172889 8.01531852,17.8512148 7.72228148,17.2808444 C6.63013333,15.1555111 5.54346667,13.027363 4.45457778,10.9002519 C4.39887407,10.9084 4.34317037,10.9164 4.28746667,10.9244" id="Fill-1"></path>
            <path d="M22.2138963,9.5122963 C21.0813037,8.92814815 19.7328593,9.2797037 19.0387852,10.334963 C18.2167111,11.585037 18.2656,13.3764444 19.154637,14.5842963 C19.9244148,15.6302222 21.3528593,15.9211852 22.6137481,15.2794074 C23.3833778,14.8877037 23.9540444,14.2911111 24.3901926,13.5485926 C25.060563,12.4074074 24.862637,12.5512593 25.9893037,13.1020741 C26.6312296,13.416 27.2629333,13.7512593 27.9008593,14.0734815 C28.2296,14.2394074 28.3919704,14.4371852 28.2081185,14.8365926 C26.6567111,18.2091852 23.5544889,20.4681481 19.4439704,19.7364444 C18.3002667,19.533037 17.282637,19.0007407 16.4623407,18.1915556 C14.4291556,16.1857778 13.4281185,13.7736296 14.2054519,10.9397037 C15.0170074,7.98059259 16.996563,6.05481481 20.064563,5.55096296 C22.2795259,5.18725926 24.2598222,5.8962963 25.8402667,7.55244444 C26.4050074,8.144 26.8392296,8.83481481 27.2893037,9.51377778 C27.5287111,9.87466667 27.4818963,10.112 27.1112296,10.366963 C25.2008593,11.6808889 23.298637,13.0068148 21.410637,14.3524444 C20.9558222,14.6765926 20.6670815,14.7056296 20.3722667,14.1651852 C20.0421926,13.5604444 19.6658963,12.9761481 19.2610074,12.4185185 C18.9481185,11.9874074 19.0556741,11.7197037 19.4574519,11.4574815 C20.2010074,10.9722963 20.9381926,10.4771852 21.670637,9.97525926 C21.8651556,9.84207407 22.1254519,9.77496296 22.2138963,9.5122963" id="Fill-3"></path>
            <path d="M37.6615852,12.6937926 C37.6383259,11.0167556 36.7798074,10.0367556 35.3549185,10.0609037 C33.9857333,10.0840148 32.8964,11.2991259 32.9079556,12.7905333 C32.9192148,14.2514222 33.9641037,15.3446074 35.3361037,15.3339407 C36.4187704,15.3254963 37.8632148,14.5063852 37.6615852,12.6937926 M35.2315111,19.830237 C32.0289926,20.2244593 28.3061778,16.7407556 28.3395111,12.6394222 C28.3701778,8.8609037 31.4427704,5.44416296 35.3415852,5.48801481 C39.5328444,5.53527407 42.343363,9.05305185 42.2737333,12.948163 C42.1947704,17.3724593 38.2823259,20.1386815 35.2315111,19.830237" id="Fill-5"></path>
            <path d="M53.0190222,10.5755852 C53.0190222,9.2181037 53.0354667,7.86032593 53.0101333,6.50328889 C53.0010963,6.02151111 53.1705778,5.85114074 53.6452444,5.86062222 C54.7061333,5.88195556 55.7682074,5.88743704 56.8288,5.85825185 C57.3602074,5.84358519 57.4922074,6.06047407 57.4882074,6.55854815 C57.4688,9.02654815 57.4741333,11.4948444 57.4842074,13.9629926 C57.4874667,14.759437 57.9452444,15.295437 58.6243556,15.3597333 C59.2809481,15.4221037 59.8443556,14.9320296 59.9905778,14.1684741 C60.0090963,14.0717333 60.0206519,13.9727704 60.0245037,13.8744 C60.049837,13.2095111 60.0885037,12.5446222 60.0922074,11.879437 C60.1021333,10.1271407 60.1116148,8.3744 60.0880593,6.62225185 C60.0806519,6.0661037 60.2462815,5.82062222 60.8379852,5.84062222 C61.8488,5.8746963 62.861837,5.86254815 63.8735407,5.84447407 C64.3781333,5.83543704 64.6245037,5.96091852 64.617837,6.54847407 C64.5879111,9.13973333 64.6950222,11.735437 64.581837,14.3221037 C64.4345778,17.6896593 62.1040593,19.9841778 58.9776889,19.8361778 C58.0662815,19.7930667 57.1573926,19.8419556 56.2904296,19.4603259 C54.2196148,18.5489185 53.0434667,16.6225481 52.9819852,14.2031407 C52.9513185,12.9946963 52.9766519,11.7849185 52.9766519,10.5755852 L53.0190222,10.5755852 Z" id="Fill-7"></path>
            <path d="M74.136637,11.6528444 C74.136637,9.40854815 74.1321926,7.16425185 74.1378222,4.91995556 C74.144637,2.13077037 76.2630074,0.0125481481 79.0532296,0.000251851852 C79.8422667,-0.00315555556 80.6320444,0.0244 81.4204889,0.00217777778 C81.8738222,-0.0107111111 82.1015259,0.0981777778 82.0862667,0.613881481 C82.0551556,1.67343704 82.0610815,2.73506667 82.0841926,3.79491852 C82.0936741,4.22795556 81.9123407,4.35802963 81.514563,4.34543704 C80.9972296,4.32899259 80.4788593,4.34054815 79.9609333,4.34484444 C79.6603407,4.34721481 79.3662667,4.38365926 79.1462667,4.62143704 C78.8902667,4.89802963 78.8150074,5.25758519 78.9190074,5.58351111 C79.0101185,5.86943704 79.3468593,5.7406963 79.576637,5.74647407 C80.2173778,5.76247407 80.8596,5.77165926 81.4998963,5.74854815 C81.9544148,5.73195556 82.0996,5.9164 82.0892296,6.35951111 C82.0652296,7.39477037 82.0673037,8.43121481 82.0880444,9.46662222 C82.0970815,9.91551111 81.9270074,10.0888444 81.4815259,10.0750667 C80.8161926,10.0541778 80.1476,10.1039556 79.484637,10.0598074 C78.9237481,10.0224741 78.7644889,10.2301778 78.7692296,10.7750667 C78.7916,13.3891407 78.7532296,16.0039556 78.7953037,18.6175852 C78.8073037,19.3624741 78.608637,19.621437 77.8419704,19.5685481 C76.8356,19.4990667 75.8201926,19.5300296 74.8098222,19.5605481 C74.3118963,19.5756593 74.100637,19.4362519 74.1050815,18.9030667 C74.124637,16.4864741 74.1136741,14.0695852 74.1136741,11.6528444 C74.1212296,11.6528444 74.1289333,11.6528444 74.136637,11.6528444" id="Fill-9"></path>
            <path d="M45.6045926,19.5318963 C44.8154074,19.5317481 44.0253333,19.5087852 43.2374815,19.5403407 C42.7595556,19.5594519 42.5666667,19.3947111 42.5768889,18.9116 C42.5967407,17.9748593 42.5967407,17.0370815 42.577037,16.1003407 C42.5678519,15.6557481 42.7336296,15.4921926 43.1819259,15.5022667 C44.2171852,15.5255259 45.2533333,15.5092296 46.2891852,15.508637 C46.4617778,15.5084889 46.6346667,15.5121926 46.806963,15.5040444 C47.0666667,15.4917481 47.3222222,15.4113037 47.3958519,15.1476 C47.4814815,14.8416741 47.2146667,14.7284889 46.9928889,14.6170815 C46.2454815,14.2413778 45.4832593,13.8924889 44.7525926,13.4870074 C43.0934815,12.5662667 42.4428148,10.9963407 42.8063704,8.88078519 C43.0474074,7.47811852 44.496,6.14285926 46.1340741,5.92552593 C47.7514074,5.71100741 49.3841481,5.85900741 51.0102222,5.84671111 C51.3521481,5.84419259 51.5025185,6.01219259 51.5019259,6.3436 C51.5004444,7.33011852 51.4998519,8.31648889 51.5026667,9.30285926 C51.5037037,9.6996 51.2797037,9.7876 50.9281481,9.78256296 C49.9665185,9.76893333 49.0045926,9.77856296 48.0428148,9.77856296 C47.7420741,9.77871111 47.3936296,9.76137778 47.3145185,10.1264148 C47.2322963,10.5043407 47.5897778,10.6087852 47.8499259,10.7274519 C48.7471111,11.1370815 49.6259259,11.5803407 50.4605926,12.106563 C51.888,13.0067111 52.5894815,14.6724889 52.2097778,16.248637 C51.7614815,18.1101185 50.4872593,19.2616741 48.7084444,19.4510074 C47.6743704,19.5609333 46.64,19.5347111 45.6045926,19.5318963" id="Fill-12"></path>
            <path d="M69.7906519,7.37905185 C70.7134667,6.28171852 71.6755407,5.74334815 72.9439852,5.83608889 C73.4388,5.87223704 73.6513926,6.00675556 73.635837,6.53001481 C73.6059111,7.53994074 73.6122815,8.55179259 73.6340593,9.56216296 C73.6436889,10.0137185 73.5193926,10.2239407 73.0226519,10.2563852 C71.0475407,10.3852741 70.3651704,10.4531259 70.3740593,13.2845333 C70.379837,15.1089778 70.3525778,16.9340148 70.3913926,18.7577185 C70.4048741,19.3912 70.1774667,19.5630519 69.5805778,19.5427556 C68.4724296,19.5049778 67.361763,19.520237 66.2525778,19.5371259 C65.8173185,19.5437926 65.6379111,19.3993481 65.6392444,18.9400889 C65.6513926,14.7734222 65.651837,10.6066074 65.6393926,6.43994074 C65.6379111,5.96468148 65.8630963,5.84660741 66.2710963,5.84957037 C67.1585037,5.85579259 68.0475407,5.88053333 68.9333185,5.8389037 C69.5853185,5.80838519 69.9210222,5.99327407 69.7943556,6.70171852 C69.7690222,6.84364444 69.7906519,6.99416296 69.7906519,7.37905185" id="Fill-14"></path>
        </g>
    </g>
</svg>