<?xml version="1.0" encoding="UTF-8"?>
<!DOCTYPE svg PUBLIC "-//W3C//DTD SVG 1.1//EN" "http://www.w3.org/Graphics/SVG/1.1/DTD/svg11.dtd">
<!-- Creator: CorelDRAW X7 -->
<svg xmlns="http://www.w3.org/2000/svg" xml:space="preserve" width="600px" height="101px" version="1.1" style="shape-rendering:geometricPrecision; text-rendering:geometricPrecision; image-rendering:optimizeQuality; fill-rule:evenodd; clip-rule:evenodd"
viewBox="0 0 600 101"
 xmlns:xlink="http://www.w3.org/1999/xlink">
 <defs>
  <style type="text/css">
   <![CDATA[
    .fil0 {fill:white;fill-rule:nonzero}
   ]]>
  </style>
 </defs>
 <g id="Layer_x0020_1">
  <metadata id="CorelCorpID_0Corel-Layer"/>
  <g id="_358722932912">
   <g>
    <path class="fil0" d="M529 43c-3,2 -8,3 -14,3l-3 0 -3 0 4 -26 3 0 2 0c5,0 9,1 12,2 2,2 4,4 4,10 0,6 -2,9 -5,11zm-378 33l0 0 -49 0 3 -18 31 0 3 -19 -30 0 3 -17 49 0 -10 54zm405 -69l0 0c-8,-5 -19,-7 -33,-7l-37 0 -14 76 -49 0 3 -18 29 0 4 -19 -30 0 4 -17 30 0 4 -22 -62 0 -13 72 -23 0 14 -72 -33 0 -13 72 -22 0 13 -72 -32 0 -14 76 -49 0 3 -18 29 0 4 -19 -30 0 3 -17 31 0 4 -22 -193 0 -11 60 -21 -60 -34 0 -18 98 32 0 11 -62 21 62 115 0 14 -76 18 0 -14 76 302 0 9 -48 14 48 32 0 -15 -39 4 -1c7,-2 13,-5 17,-10 4,-5 6,-12 6,-20 0,-9 -3,-16 -10,-21z"/>
    <path class="fil0" d="M582 86l4 0c1,0 2,0 3,0 0,-1 0,-1 1,-1 0,-1 0,-1 0,-2 0,-1 0,-1 -1,-2 0,0 -1,0 -2,0l-5 0 0 5zm-2 9l0 0 0 -15 6 -1c2,0 3,0 4,0 0,1 1,1 1,2 1,0 1,1 1,2 0,1 0,2 -1,3 0,1 -2,1 -3,2 1,0 1,0 1,0 1,1 1,1 2,2l3 4 -3 0 -2 -3c0,-1 -1,-1 -1,-2 -1,0 -1,-1 -1,-1 -1,0 -1,0 -1,0 -1,0 -1,0 -2,0l-2 0 0 7 -2 0z"/>
    <path class="fil0" d="M574 87c0,-3 1,-6 3,-8 2,-2 5,-4 8,-4 7,0 12,5 13,11 0,0 0,1 0,1 0,6 -5,11 -12,12 -6,0 -12,-5 -12,-12zm11 -14l0 0c-4,0 -7,1 -10,4 -3,3 -4,7 -4,11 1,8 7,14 15,13 8,0 14,-7 14,-15l0 0c0,-8 -7,-14 -15,-13z"/>
   </g>
  </g>
 </g>
</svg>
