<?xml version="1.0" encoding="UTF-8" ?>
<!DOCTYPE svg PUBLIC "-//W3C//DTD SVG 1.1//EN" "http://www.w3.org/Graphics/SVG/1.1/DTD/svg11.dtd">
<svg width="500pt" height="224pt" viewBox="0 0 500 224" version="1.1" xmlns="http://www.w3.org/2000/svg">
<g id="#ffffffff">
<path fill="#ffffff" opacity="1.00" d=" M 31.44 57.80 C 32.57 57.43 33.65 56.74 34.89 56.80 C 44.16 56.68 53.45 57.12 62.70 56.38 C 62.41 56.62 61.83 57.11 61.55 57.35 C 69.51 58.62 77.52 62.00 82.77 68.33 C 87.15 73.50 89.03 80.43 88.86 87.14 C 84.18 86.93 79.46 87.52 74.83 86.78 C 75.11 80.46 71.35 73.94 65.11 72.09 C 58.99 70.34 52.52 71.42 46.25 71.22 C 46.23 76.52 46.28 81.82 46.23 87.12 C 41.29 86.94 36.27 87.59 31.39 86.56 C 31.60 76.98 31.51 67.39 31.44 57.80 Z" />
<path fill="#ffffff" opacity="1.00" d=" M 131.65 57.49 C 131.63 57.27 131.61 56.83 131.59 56.61 C 135.90 56.50 140.22 56.40 144.52 56.72 L 144.25 57.47 C 152.83 58.39 161.20 62.62 166.31 69.70 C 169.92 74.79 172.55 80.85 172.76 87.15 C 168.34 87.02 163.92 87.26 159.51 87.05 C 157.93 85.18 158.10 82.22 156.63 80.17 C 153.16 73.98 145.82 71.11 139.00 71.14 C 132.42 70.87 125.11 72.50 120.81 77.87 C 118.47 80.47 117.59 83.92 116.57 87.18 C 111.97 86.70 107.15 87.88 102.68 86.56 C 104.14 79.17 106.89 71.77 112.38 66.40 C 117.45 61.25 124.50 58.22 131.65 57.49 Z" />
<path fill="#ffffff" opacity="1.00" d=" M 188.63 56.46 C 193.20 56.53 197.78 56.50 202.35 56.48 C 202.72 66.58 202.34 76.70 202.55 86.82 C 197.94 87.43 193.27 86.95 188.64 87.18 C 188.31 76.95 188.35 66.69 188.63 56.46 Z" />
<path fill="#ffffff" opacity="1.00" d=" M 249.78 56.50 C 254.38 56.48 259.00 56.55 263.61 56.43 C 263.81 66.68 263.90 76.96 263.57 87.20 C 258.96 87.04 254.34 87.15 249.73 87.11 C 249.63 76.91 249.54 66.70 249.78 56.50 Z" />
<path fill="#ffffff" opacity="1.00" d=" M 307.59 56.76 C 310.85 56.52 314.14 56.33 317.41 56.63 C 317.43 56.88 317.46 57.39 317.48 57.64 C 325.31 58.01 331.77 63.78 336.18 69.86 C 340.82 64.01 346.87 59.05 354.33 57.46 C 357.69 55.59 361.82 56.78 365.49 56.73 L 365.36 57.51 C 371.41 58.29 377.16 61.25 381.17 65.87 C 386.29 71.72 389.07 79.46 389.50 87.17 C 384.92 87.08 380.34 87.11 375.76 87.15 C 375.05 81.43 372.77 75.05 367.11 72.55 C 359.80 69.45 349.62 71.12 345.60 78.56 C 343.87 81.00 343.88 84.15 342.87 86.81 C 338.56 87.62 333.94 86.80 329.52 87.21 C 328.39 83.11 327.40 78.72 324.36 75.54 C 319.62 70.33 311.32 70.01 305.25 72.89 C 299.83 75.44 297.39 81.49 296.63 87.10 C 291.95 86.94 287.20 87.58 282.58 86.72 C 283.74 79.32 286.01 71.80 291.16 66.15 C 295.37 61.34 301.41 58.35 307.71 57.51 L 307.59 56.76 Z" />
<path fill="#ffffff" opacity="1.00" d=" M 406.56 56.47 C 411.18 56.51 415.79 56.52 420.41 56.46 C 420.63 66.60 420.38 76.75 420.55 86.89 C 415.82 87.23 411.05 87.31 406.34 86.82 C 406.58 76.71 406.16 66.58 406.56 56.47 Z" />
<path fill="#ffffff" opacity="1.00" d=" M 436.50 56.45 C 452.12 56.67 467.76 56.25 483.38 56.66 C 483.64 61.30 483.36 65.95 483.61 70.59 C 478.10 71.71 472.43 70.92 466.85 71.18 C 466.73 76.36 467.06 81.56 466.72 86.74 C 462.21 87.54 457.35 87.12 452.73 86.85 C 452.80 81.65 452.73 76.44 452.79 71.24 C 447.33 70.82 441.70 71.70 436.34 70.79 C 436.17 66.01 436.10 61.21 436.50 56.45 Z" />
<path fill="#ffffff" opacity="1.00" d=" M 31.40 91.16 C 36.24 89.98 41.30 90.87 46.24 90.62 C 46.29 102.92 46.20 115.22 46.28 127.53 C 41.34 127.55 36.38 127.77 31.45 127.33 C 31.50 115.27 31.59 103.21 31.40 91.16 Z" />
<path fill="#ffffff" opacity="1.00" d=" M 74.83 91.22 C 79.51 91.08 84.18 91.11 88.86 91.18 C 88.83 103.50 88.89 115.82 88.83 128.13 C 84.16 128.14 79.50 128.16 74.83 128.11 C 74.77 115.81 74.77 103.51 74.83 91.22 Z" />
<path fill="#ffffff" opacity="1.00" d=" M 114.99 121.01 C 106.14 113.81 102.04 101.93 102.88 90.73 C 107.55 90.49 112.22 90.63 116.89 90.63 C 116.76 96.24 117.35 102.25 121.04 106.75 C 127.30 115.04 139.72 115.89 148.58 111.63 C 156.20 107.84 159.95 98.92 158.87 90.69 C 163.46 90.52 168.06 90.68 172.66 90.55 C 173.83 99.67 171.21 109.26 165.54 116.51 C 160.56 122.79 152.95 126.61 145.07 127.62 C 134.76 129.15 123.36 127.65 114.99 121.01 Z" />
<path fill="#ffffff" opacity="1.00" d=" M 188.40 127.83 C 188.60 115.42 188.26 103.00 188.57 90.59 C 193.19 90.64 197.80 90.56 202.42 90.65 C 202.65 98.48 202.34 106.32 202.58 114.16 C 212.30 114.09 222.01 114.06 231.73 114.17 C 231.62 118.75 231.83 123.33 231.63 127.91 C 224.13 128.45 216.55 127.98 209.02 128.14 C 202.15 127.97 195.25 128.50 188.40 127.83 Z" />
<path fill="#ffffff" opacity="1.00" d=" M 249.71 90.64 C 254.41 90.61 259.11 90.52 263.82 90.70 C 263.57 103.19 263.98 115.70 263.61 128.20 C 258.98 128.08 254.35 128.16 249.72 128.13 C 249.59 115.63 249.62 103.13 249.71 90.64 Z" />
<path fill="#ffffff" opacity="1.00" d=" M 282.77 90.68 C 287.35 90.84 292.29 90.03 296.64 91.04 C 296.70 103.42 296.83 115.82 296.56 128.20 C 291.97 128.08 287.37 128.16 282.78 128.13 C 282.75 115.64 282.76 103.16 282.77 90.68 Z" />
<path fill="#ffffff" opacity="1.00" d=" M 329.11 90.68 C 333.79 90.53 338.47 90.62 343.15 90.63 C 343.15 103.13 343.16 115.63 343.14 128.13 C 338.54 127.96 333.86 128.51 329.31 127.88 C 328.87 115.50 329.28 103.08 329.11 90.68 Z" />
<path fill="#ffffff" opacity="1.00" d=" M 375.43 127.75 C 375.64 115.35 375.32 102.95 375.59 90.56 C 380.21 90.64 384.82 90.63 389.43 90.56 C 389.53 103.10 389.60 115.65 389.40 128.19 C 384.75 127.92 380.05 128.55 375.43 127.75 Z" />
<path fill="#ffffff" opacity="1.00" d=" M 406.36 127.90 C 406.50 115.46 406.26 103.01 406.48 90.57 C 411.15 90.64 415.81 90.59 420.48 90.61 C 420.49 103.12 420.53 115.63 420.46 128.14 C 415.76 128.05 411.05 128.37 406.36 127.90 Z" />
<path fill="#ffffff" opacity="1.00" d=" M 452.78 90.69 C 457.37 90.51 461.95 90.67 466.54 90.56 C 467.16 102.97 466.83 115.47 466.72 127.89 C 462.12 128.47 457.43 127.99 452.80 128.12 C 452.72 115.64 452.76 103.17 452.78 90.69 Z" />
<path fill="#ffffff" opacity="1.00" d=" M 130.40 156.14 C 134.02 150.74 141.61 150.80 147.02 153.21 C 146.52 154.76 145.96 156.29 145.37 157.80 C 142.90 156.78 140.10 155.45 137.41 156.58 C 134.72 157.92 133.60 161.12 133.70 163.97 C 133.51 166.96 134.22 170.44 137.05 172.02 C 140.04 173.27 143.20 171.94 146.15 171.27 C 146.17 172.35 146.20 174.52 146.21 175.60 C 145.27 175.92 144.33 176.24 143.39 176.54 C 143.41 176.74 143.45 177.15 143.47 177.35 C 140.77 177.36 137.64 178.35 135.25 176.65 C 127.30 173.63 126.38 162.61 130.40 156.14 Z" />
<path fill="#ffffff" opacity="1.00" d=" M 211.14 176.53 C 211.45 168.29 211.03 160.04 211.37 151.80 C 213.11 151.83 214.85 151.83 216.60 151.82 C 216.89 160.06 216.52 168.30 216.80 176.54 C 214.91 176.57 213.03 176.57 211.14 176.53 Z" />
<path fill="#ffffff" opacity="1.00" d=" M 280.52 151.84 C 286.75 151.88 292.99 151.87 299.23 151.85 C 299.24 153.40 299.26 154.94 299.27 156.50 C 297.00 156.48 294.74 156.47 292.47 156.46 C 292.54 163.16 292.43 169.87 292.55 176.57 C 290.74 176.57 288.93 176.56 287.13 176.53 C 287.37 169.85 287.16 163.16 287.26 156.48 C 284.99 156.47 282.72 156.49 280.46 156.50 C 280.47 154.95 280.49 153.39 280.52 151.84 Z" />
<path fill="#ffffff" opacity="1.00" d=" M 359.66 151.86 C 361.56 151.85 363.47 151.84 365.38 151.80 C 367.31 155.03 368.86 158.47 370.55 161.84 C 372.50 158.59 373.98 155.10 375.87 151.82 C 377.77 151.85 379.68 151.85 381.60 151.86 C 378.94 157.01 375.89 161.96 373.39 167.19 C 373.13 170.32 373.36 173.46 373.33 176.59 C 371.51 176.58 369.70 176.57 367.88 176.55 C 367.86 173.66 367.83 170.77 368.14 167.90 C 365.54 162.44 362.48 157.21 359.66 151.86 Z" />
</g>
</svg>
