<?xml version="1.0" encoding="UTF-8"?>
<svg width="601px" height="212px" viewBox="0 0 601 212" version="1.1" xmlns="http://www.w3.org/2000/svg" xmlns:xlink="http://www.w3.org/1999/xlink">
    <!-- Generator: Sketch 50 (54983) - http://www.bohemiancoding.com/sketch -->
    <title>platipus_white</title>
    <desc>Created with Sketch.</desc>
    <defs></defs>
    <g id="Page-1" stroke="none" stroke-width="1" fill="none" fill-rule="evenodd">
        <g id="platipus_white" fill="#FFFFFF">
            <path d="M21.162,25.44 L571.373,25.44 L601.000008,0 L601,190.8 C601.009946,202.497717 591.535716,211.988959 579.838,212 L21.162,212 C15.5444488,211.994963 10.1589791,209.758568 6.19033374,205.782796 C2.22168841,201.807024 -0.00504137405,196.417551 0,190.8 L0,46.64 C-0.00504137405,41.0224488 2.22168841,35.6329755 6.19033374,31.6572038 C10.1589791,27.6814321 15.5444488,25.4450369 21.162,25.44 Z M98.91,140.282 C100.970249,139.065386 102.716898,137.383123 104.01,135.37 C105.363938,133.209051 106.298261,130.812177 106.764,128.305 C107.302329,125.601884 107.572307,122.852198 107.57,120.096 C107.571709,117.33641 107.279053,114.584509 106.697,111.887 C106.169807,109.33446 105.191845,106.896328 103.809,104.687 C102.496338,102.611199 100.727472,100.862169 98.637,99.573 C96.2962553,98.2111554 93.6196865,97.5350827 90.913,97.622 C88.1626792,97.5239419 85.4400633,98.1999185 83.055,99.573 C80.9879647,100.838794 79.242318,102.5663 77.955,104.62 C76.6073612,106.80831 75.6738229,109.225883 75.201,111.752 C74.6582213,114.499668 74.3882433,117.294242 74.395,120.095 C74.391946,122.854661 74.6846167,125.606705 75.268,128.304 C75.7748639,130.809767 76.7305664,133.203258 78.089,135.369 C82.8218671,141.98644 91.7181373,144.085636 98.91,140.282 Z M74.126,85.108 L74.126,93.99 L74.395,93.99 C76.4818971,90.4438537 79.5649794,87.5892381 83.261,85.781 C86.9591978,84.0514234 90.9996068,83.1774427 95.082,83.224 C99.9640701,83.0962898 104.80371,84.160324 109.182,86.324 C113.017282,88.3018445 116.366318,91.1054588 118.988,94.533 C121.658359,98.0960562 123.619239,102.139011 124.764,106.442 C126.029948,111.068534 126.662381,115.845428 126.644,120.642 C126.659751,125.194197 126.026721,129.725411 124.764,134.099 C123.594698,138.236088 121.658065,142.116478 119.055,145.538 C116.5031,148.857894 113.245658,151.569525 109.518,153.477 C105.36718,155.528959 100.781083,156.544928 96.152,156.438 C92.0412666,156.479549 87.9752994,155.582082 84.264,153.814 C80.6500139,152.076749 77.5659523,149.405253 75.331,146.076 L75.066,146.076 L75.066,179.046 L55.992,179.046 L55.992,85.108 L74.126,85.108 Z M156.334,58.6 L156.334,154.683 L137.259,154.683 L137.259,58.6 L156.334,58.6 Z M188.304,106.507 C188.66,102.739 189.913667,100.047333 192.065,98.432 C194.216333,96.8166667 197.171333,96.0093333 200.93,96.01 C202.525819,96.0029958 204.119928,96.1153088 205.699,96.346 C207.074744,96.5343409 208.399946,96.9917053 209.599,97.692 C210.730206,98.3777652 211.657545,99.353439 212.285,100.518 C213.026438,102.045291 213.37301,103.734139 213.293,105.43 C213.490987,107.12898 212.837165,108.816116 211.546,109.938 C210.040164,111.088984 208.298679,111.89314 206.446,112.293 C204.016437,112.877663 201.547079,113.282427 199.058,113.504 C196.280667,113.770667 193.459667,114.129667 190.595,114.581 C187.72107,115.032451 184.873596,115.638665 182.065,116.397 C179.378687,117.099154 176.833912,118.260236 174.543,119.829 C172.292886,121.416264 170.451459,123.51473 169.17,125.952 C167.675327,128.980203 166.959721,132.333447 167.088,135.708 C167.007591,138.898536 167.626401,142.068015 168.901,144.994 C170.045837,147.514887 171.772046,149.728423 173.938,151.453 C176.168911,153.19873 178.726891,154.47993 181.461,155.221 C184.480006,156.048639 187.598696,156.456142 190.729,156.432 C195.008188,156.434319 199.263865,155.799354 203.356,154.548 C207.445693,153.310572 211.147195,151.039455 214.103,147.954 C214.189189,149.10655 214.346152,150.252712 214.573,151.386 C214.794005,152.503335 215.08559,153.605544 215.446,154.686 L234.789,154.686 C233.71898,152.687216 233.078617,150.486821 232.909,148.226 C232.542841,145.234734 232.363161,142.223583 232.371,139.21 L232.371,103.01 C232.371,98.794 231.430667,95.4073333 229.55,92.85 C227.662212,90.2872876 225.170798,88.2304024 222.297,86.862 C219.201398,85.3864521 215.891805,84.4100445 212.491,83.969 C208.974646,83.4809525 205.429058,83.2337102 201.879,83.229 C198.022286,83.2302175 194.175175,83.6134213 190.394,84.373 C186.774847,85.0612047 183.297725,86.3550255 180.109,88.2 C177.089205,89.9707571 174.515874,92.4106663 172.587,95.332 C170.493189,98.6899789 169.333933,102.546111 169.229,106.502 L188.3,106.502 L188.304,106.507 Z M213.289,127.769 C213.260942,129.209651 213.148751,130.647434 212.953,132.075 C212.701798,133.948263 212.08549,135.754038 211.139,137.39 C210.031642,139.26195 208.45819,140.815075 206.572,141.898 C204.511333,143.156 201.601,143.784 197.841,143.782 C196.354121,143.786557 194.870047,143.652645 193.408,143.382 C192.076613,143.15177 190.800624,142.672383 189.647,141.969 C188.567076,141.291485 187.686406,140.339381 187.095,139.21 C186.428604,137.875086 186.105203,136.395207 186.154,134.904 C186.096466,133.368703 186.41974,131.843026 187.095,130.463 C187.696746,129.32509 188.545893,128.336525 189.58,127.57 C190.682279,126.771344 191.907331,126.157636 193.207,125.753 C194.593216,125.305156 196.006371,124.945438 197.438,124.676 C198.96,124.409333 200.482333,124.185333 202.005,124.004 C203.527667,123.822667 204.983,123.598333 206.371,123.331 C207.689967,123.079621 208.991078,122.742234 210.266,122.321 C211.378042,121.972855 212.406894,121.400401 213.289,120.639 L213.289,127.772 L213.289,127.769 Z M283.944,85.11 L283.944,97.892 L269.974,97.892 L269.974,132.342 C269.974,135.572 270.511333,137.725 271.586,138.801 C272.660667,139.877 274.81,140.415333 278.034,140.416 C279.108,140.416 280.137667,140.371333 281.123,140.282 C282.069911,140.200097 283.011646,140.066565 283.944,139.882 L283.944,154.682 C282.165188,154.967222 280.371049,155.14687 278.571,155.22 C276.599667,155.308 274.674333,155.352667 272.795,155.354 C269.983725,155.365172 267.175658,155.162924 264.395,154.749 C261.93959,154.40896 259.570056,153.610069 257.41,152.394 C255.383056,151.216703 253.729913,149.490765 252.641,147.415 C251.37051,144.775635 250.770791,141.863596 250.895,138.937 L250.895,97.892 L239.347,97.892 L239.347,85.108 L250.9,85.108 L250.9,64.25 L269.975,64.25 L269.975,85.108 L283.945,85.108 L283.944,85.11 Z M292.271,74.344 L292.271,58.6 L311.346,58.6 L311.346,74.342 L292.271,74.342 L292.271,74.344 Z M311.346,85.11 L311.346,154.683 L292.271,154.683 L292.271,85.108 L311.346,85.108 L311.346,85.11 Z M367.964,140.284 C370.02616,139.068127 371.774595,137.385794 373.069,135.372 C374.422595,133.210878 375.356892,130.814072 375.823,128.307 C376.361329,125.603884 376.631307,122.854198 376.629,120.098 C376.630709,117.33841 376.338053,114.586509 375.756,111.889 C375.228909,109.336271 374.250579,106.898064 372.867,104.689 C371.554982,102.613021 369.786393,100.863927 367.696,99.575 C365.355235,98.2132058 362.678681,97.5371368 359.972,97.624 C357.221679,97.5259419 354.499063,98.2019185 352.114,99.575 C350.04701,100.840852 348.301375,102.568346 347.014,104.622 C345.666709,106.810482 344.733196,109.227989 344.26,111.754 C343.717706,114.501724 343.448064,117.296282 343.455,120.097 C343.451715,122.856673 343.744389,125.608741 344.328,128.306 C344.834335,130.811925 345.790074,133.205508 347.149,135.371 C351.881634,141.984897 360.774131,144.082954 367.964,140.282 L367.964,140.284 Z M343.181,85.108 L343.181,93.99 L343.45,93.99 C345.536352,90.4437752 348.619146,87.589104 352.315,85.781 C356.013231,84.0515215 360.053617,83.1775457 364.136,83.224 C369.018059,83.0964107 373.85767,84.1604387 378.236,86.324 C382.071282,88.3018445 385.420318,91.1054588 388.042,94.533 C390.712359,98.0960562 392.673239,102.139011 393.818,106.442 C395.083948,111.068534 395.716381,115.845428 395.698,120.642 C395.713751,125.194197 395.080721,129.725411 393.818,134.099 C392.648698,138.236088 390.712065,142.116478 388.109,145.538 C385.556958,148.858148 382.29913,151.569816 378.571,153.477 C374.420575,155.529066 369.834774,156.545045 365.206,156.438 C361.095245,156.479761 357.02923,155.582283 353.318,153.814 C349.704014,152.076749 346.619952,149.405253 344.385,146.076 L344.116,146.076 L344.116,179.046 L325.047,179.046 L325.047,85.108 L343.181,85.108 Z M452.792,154.681 L452.792,144.992 L452.392,144.992 C450.223692,148.797805 446.943809,151.849842 442.992,153.739 C439.298337,155.496786 435.261569,156.415739 431.171,156.43 C426.89349,156.570377 422.629023,155.884871 418.611,154.411 C415.568014,153.235538 412.899262,151.259543 410.887,148.692 C408.913131,146.018209 407.559686,142.938283 406.925,139.676 C406.130511,135.802201 405.747718,131.855274 405.783,127.901 L405.783,85.108 L424.857,85.108 L424.857,124.4 C424.857,130.143333 425.752667,134.427333 427.544,137.252 C429.335333,140.076667 432.514333,141.489667 437.081,141.491 C442.273667,141.491 446.035,139.943333 448.365,136.848 C450.695,133.752667 451.859,128.661333 451.857,121.574 L451.857,85.108 L470.932,85.108 L470.932,154.681 L452.792,154.681 Z M500.141,137.388 C500.954882,138.828437 502.07904,140.069759 503.432,141.022 C504.837415,141.992545 506.407634,142.69938 508.066,143.108 C509.843995,143.560956 511.672227,143.786755 513.507,143.78 C514.929972,143.772213 516.348152,143.61434 517.738,143.309 C519.147943,143.020526 520.506475,142.521612 521.768,141.829 C522.963559,141.1688 523.996145,140.249314 524.79,139.138 C525.634085,137.890109 526.057976,136.40544 526,134.9 C526,132.03 524.097,129.876667 520.291,128.44 C515.095688,126.622986 509.775825,125.183903 504.373,124.134 C501.595667,123.508 498.886667,122.768 496.246,121.914 C493.748244,121.131374 491.37398,119.998784 489.194,118.55 C487.165667,117.193993 485.467314,115.4003 484.224,113.301 C482.905574,110.940847 482.255275,108.266013 482.343,105.564 C482.18573,101.714797 483.092248,97.896697 484.963,94.529 C486.653524,91.7111593 489.034495,89.3708001 491.881,87.729 C494.881605,86.0196237 498.152402,84.8359003 501.552,84.229 C505.184396,83.5515506 508.871976,83.2137595 512.567,83.22 C516.242924,83.2132334 519.910266,83.5750429 523.514,84.3 C526.859578,84.945277 530.065267,86.1750834 532.984,87.933 C535.771886,89.6507618 538.136534,91.975076 539.902,94.733 C541.867814,97.9722545 542.99864,101.648899 543.193,105.433 L525.059,105.433 C524.792333,101.755 523.404333,99.2653333 520.895,97.964 C518.140291,96.6080702 515.098438,95.9386978 512.029,96.013 C510.861941,96.0175711 509.695954,96.0843324 508.536,96.213 C507.356442,96.3285803 506.201457,96.6236495 505.111,97.088 C504.097441,97.5245741 503.200416,98.1928045 502.492,99.039 C501.733597,100.016633 501.352048,101.234394 501.417,102.47 C501.370746,104.075596 502.064154,105.613554 503.298,106.642 C504.746513,107.824954 506.410511,108.716042 508.198,109.266 C510.466136,110.00646 512.775773,110.61317 515.115,111.083 C517.715,111.621 520.357,112.204 523.041,112.832 C525.78784,113.453234 528.500505,114.216933 531.168,115.12 C533.681962,115.953669 536.058458,117.155397 538.22,118.686 C540.257249,120.14271 541.953143,122.025255 543.19,124.203 C544.516873,126.706313 545.165366,129.513346 545.071,132.345 C545.4443,140.004639 541.64002,147.265721 535.13,151.319 C532.026398,153.262323 528.587071,154.608752 524.989,155.289 C521.162883,156.052684 517.270586,156.435885 513.369,156.433 C509.397408,156.438869 505.435905,156.033034 501.548,155.222 C497.909724,154.498562 494.429807,153.131451 491.272,151.185 C488.26744,149.296965 485.739162,146.740968 483.884,143.716 C481.832678,140.178499 480.74419,136.165198 480.727,132.076 L498.862,132.076 C498.810901,133.928634 499.252248,135.761659 500.141,137.388 Z" id="Rounded_Rectangle_1"></path>
        </g>
    </g>
</svg>