<?xml version="1.0" encoding="UTF-8"?>
<svg width="54px" height="16px" viewBox="0 0 54 16" version="1.1" xmlns="http://www.w3.org/2000/svg" xmlns:xlink="http://www.w3.org/1999/xlink">
    <!-- Generator: Sketch 48.2 (47327) - http://www.bohemiancoding.com/sketch -->
    <title>playngo_white</title>
    <desc>Created with Sketch.</desc>
    <defs></defs>
    <g id="Page-1" stroke="none" stroke-width="1" fill="none" fill-rule="evenodd">
        <g id="playngo_white" transform="translate(0.396612, 0.475011)" fill="#FFFFFF">
            <g id="Group-3" transform="translate(26.488499, 0.008969)">
                <path d="M13.0681635,1.53120209 C12.9651295,1.42232811 12.8763826,1.42921094 12.7902428,1.42921094 C10.9482493,1.42921094 9.10625579,1.42994094 7.26426226,1.42941952 C6.62061259,1.42921094 6.03880418,1.63882466 5.49756281,1.96575948 C4.41643577,2.61910769 3.68695919,3.52451378 3.32519304,4.7646761 C2.77394026,6.65422378 2.16209765,8.52687723 1.54378935,10.3958807 C0.954576673,12.1768672 2.05562223,13.6009891 3.79385176,13.4780365 C4.7275192,13.4119196 5.66984234,13.4714666 6.60809834,13.463228 C6.90020183,13.4606209 7.18969818,13.4569709 7.48180166,13.3706225 C8.98820468,12.9255323 9.92124641,11.8992594 10.422755,10.4592862 C10.7917169,9.39943341 11.1126032,8.3223735 11.435888,7.24729502 C11.5588405,6.83860042 11.7334143,6.44179437 11.7925441,6.01797838 C11.6141118,5.90295156 11.4363051,5.95519856 11.2686142,5.9541557 C10.3476695,5.94831572 9.42662062,5.94456144 8.505676,5.95509427 C8.1793669,5.95884855 7.79559652,5.82661462 7.5409315,6.02037695 C7.29075076,6.21069786 7.29596503,6.60948534 7.1959553,6.91879592 C6.98488159,7.57193556 6.78131644,8.22757805 6.56857416,8.90115763 C7.07946848,9.00742449 7.56523001,8.87081057 8.04723726,8.99814308 C7.90405336,9.44834328 7.76629231,9.85672502 7.64698978,10.2705296 C7.6039199,10.4196578 7.55907716,10.5210232 7.3791848,10.5200846 C6.46157731,10.5158089 5.54386554,10.5182075 4.56545965,10.5182075 C4.76287196,9.8840478 4.94005291,9.30964366 5.12057098,8.73638666 C5.53562699,7.41842741 5.95130871,6.10078101 6.36865899,4.78355176 C6.49713864,4.37798573 6.50005864,4.37788144 6.94097743,4.37631716 C7.34070348,4.37485717 7.74032524,4.37600431 8.14005129,4.37590002 C9.37374791,4.37590002 10.6075488,4.37861144 11.8413497,4.37214575 C11.9779636,4.37141575 12.1500346,4.4469184 12.2211573,4.21415332 C12.4976179,3.30853866 12.78993,2.40792969 13.0681635,1.53120209 M14.776776,13.4517566 C15.4536927,13.460308 16.1517794,13.5694949 16.8029376,13.4088953 C18.4946558,12.9917536 19.7048882,11.9773692 20.2550981,10.2829396 C20.8415994,8.47671594 21.4044278,6.6626709 21.9710106,4.84998158 C22.1149245,4.3896657 22.2369384,3.92976696 22.2595684,3.43503688 C22.3224525,2.0614935 21.1673871,1.20395442 20.0835486,1.23211148 C19.0768814,1.25818284 18.069067,1.23607433 17.061774,1.23909861 C16.8719745,1.23962004 16.6834265,1.23972432 16.4940441,1.2899899 C14.7747946,1.74634293 13.5974121,2.78450438 13.0428222,4.4919697 C12.8082842,5.21404201 12.5832363,5.93934717 12.3583969,6.66454804 C11.9544994,7.96717733 11.5247392,9.2628195 11.1592187,10.5761902 C10.6811743,12.2942926 11.8606425,13.4954522 13.2145803,13.4543637 C13.7348603,13.4386166 14.2559745,13.4517566 14.776776,13.4517566 M2.38537276,3.4184555 C3.18127915,1.86303833 4.39338869,0.799535526 6.0680041,0.264029849 C6.23892792,0.209384284 6.45803161,0.283114082 6.58463412,0.0952960249 L20.663167,0.0952960249 C20.6942441,0.172258671 20.764741,0.171320102 20.8314837,0.186545775 C22.1859428,0.493874934 23.0483833,1.31762554 23.4297551,2.65320902 C23.501295,2.90338977 23.4548879,3.17484474 23.5819076,3.41230266 C23.5183978,4.08150226 23.4115052,4.73777046 23.1888558,5.37985584 C22.9073894,6.19213505 22.69569,7.02829562 22.4255908,7.84485053 C22.0154362,9.08480427 21.7069599,10.3583379 21.2026355,11.5672146 C20.4171577,12.9620322 19.3067264,13.979858 17.7828035,14.5196394 C17.2560578,14.706206 16.7180492,14.8034 16.1555336,14.8026701 C11.936458,14.7969344 7.71727816,14.7830644 3.49830685,14.8084057 C2.0178709,14.8173743 0.333035517,13.7862 0.0992275855,11.9263736 C0.0842104838,11.8067583 0.045833446,11.6901671 0.0184063782,11.572116 C0.0375948971,10.7526411 0.272445683,9.98228467 0.52460785,9.21025964 C1.1540747,7.28264778 1.70522319,5.32979884 2.38537276,3.4184555" id="Fill-1"></path>
            </g>
            <path d="M47.691124,11.5762249 C48.1954484,10.3672439 48.5039247,9.09381454 48.9140792,7.8537565 C49.1841785,7.03730588 49.3958779,6.20114531 49.6773443,5.38886611 C49.8999937,4.74678072 50.0068863,4.09051252 50.0703961,3.42120863 C50.5386377,3.42454577 51.0068792,3.42266863 51.4749122,3.43268003 C52.1025019,3.44602857 52.5932692,3.72228067 52.9974795,4.19969936 C53.1795619,4.41463163 53.2233617,4.69693229 53.4087812,4.90143601 L53.4087812,6.15286116 C53.0976978,6.6213113 53.0648479,7.18320119 52.8970526,7.69930978 C52.721436,8.23982116 52.6020291,8.7984782 52.439761,9.34368242 C52.0035351,10.8098313 50.6040246,11.6286805 49.4060979,11.5792492 C48.8353437,11.5557849 48.2628167,11.575912 47.691124,11.5762249" id="Fill-4"></path>
            <path d="M20.9383554,6.37391498 L22.3672743,6.37391498 C22.4949197,6.37391498 22.5961809,6.35326647 22.6429007,6.20142688 C22.7680432,5.79481799 22.9087243,5.39300624 23.052221,4.96189027 C22.5453939,4.89389617 22.0811151,4.94478746 21.6196521,4.9251818 C21.4368397,4.91746468 21.3804213,5.04323291 21.3354743,5.17265113 C21.2064732,5.54411582 21.0877964,5.91923051 20.9383554,6.37391498 M24.116871,9.69905588 C24.4554858,9.69905588 24.7655263,9.68779305 25.0742112,9.70270587 C25.3079149,9.71396869 25.4094889,9.61938181 25.4682016,9.39516814 C25.6387082,8.74421849 25.8437334,8.10234168 26.0145529,7.45149632 C26.2017453,6.73891398 25.8708476,6.28777522 25.1482539,6.25982672 C24.7497792,6.24439248 24.3494275,6.24147249 23.9512657,6.26024386 C23.177885,6.29663948 22.6278836,6.71544976 22.3610172,7.40675787 C22.0829923,8.12674447 21.9162399,8.88980095 21.6956762,9.65181458 C22.0112439,9.73795434 22.3076231,9.6652674 22.5941994,9.70364444 C22.8864072,9.74264719 22.9874598,9.59247617 23.0526382,9.34636256 C23.1896692,8.82900255 23.3394231,8.31497967 23.4912627,7.80179107 C23.5342283,7.65683433 23.5691639,7.48820479 23.7834705,7.49967618 C24.0909039,7.51615328 24.4026131,7.46015201 24.7367436,7.54431035 C24.531927,8.25626697 24.3322204,8.95049507 24.116871,9.69905588 M9.85917573,4.80671356 C9.50460527,4.80671356 9.2431617,4.83132492 8.98860097,4.80035215 C8.68200181,4.76301796 8.56363784,4.89858902 8.48031379,5.17150399 C8.14222043,6.2785981 7.77065144,7.37568081 7.44309091,8.4857992 C7.32921122,8.87165529 7.1389946,9.24426712 7.11834609,9.69874302 C8.27810434,9.69874302 9.40449126,9.69540589 10.5308782,9.70187158 C10.7308976,9.70291444 10.7991003,9.59779473 10.849053,9.43229375 C10.9838941,8.98553497 11.1453279,8.54628475 11.265569,8.09587598 C11.5396311,7.06866451 11.7628019,7.2418826 10.5571581,7.21873124 C10.3463972,7.21476839 10.2428418,7.31154527 10.1864234,7.50280475 C10.113215,7.75121264 10.0178981,7.99305055 9.94656692,8.24197987 C9.90891988,8.37285808 9.86147001,8.46546354 9.70660614,8.45597357 C9.39958984,8.43720219 9.0871507,8.50102487 8.73831594,8.400598 C9.10706921,7.21820981 9.47060822,6.05250729 9.85917573,4.80671356 M17.5561704,7.23385263 C17.8011368,6.43492196 18.041619,5.65059125 18.3003512,4.80681784 C17.9192922,4.80681784 17.6094602,4.8164121 17.3005668,4.80327214 C17.1071173,4.79513787 17.0326575,4.87814908 16.9792634,5.05553859 C16.7453512,5.83256932 16.498299,6.60553292 16.2513511,7.37839223 C16.1375757,7.73421411 16.2526025,8.0255876 16.4970476,8.2760812 C16.6453414,8.42802507 16.872058,8.43563791 17.0656117,8.53043336 C17.0299461,8.93078512 16.7958253,9.27325847 16.7714225,9.68184878 C16.8533909,9.68831448 16.9216978,9.70135016 16.9890662,9.69770017 C17.3154796,9.67945022 17.7063414,9.82263411 17.9494307,9.63387749 C18.1425673,9.48391504 18.174583,9.11411891 18.2551956,8.83536396 C18.3195397,8.61313171 18.428518,8.49716631 18.6702516,8.44074789 C19.324017,8.28807403 19.7661872,7.878858 19.9743409,7.23197549 C20.1383819,6.72243688 20.3114957,6.21571399 20.4618753,5.70221253 C20.7571073,4.69325101 20.9328283,4.81620353 19.7690029,4.80473213 C19.5658549,4.80264642 19.4570852,4.8708491 19.3992068,5.07868995 C19.2789657,5.5106402 19.1285861,5.93414333 18.9920764,6.36171359 C18.6828701,7.33031665 18.683183,7.33052522 17.6545115,7.27942536 C17.6384516,7.27859108 17.6230173,7.26534683 17.5561704,7.23385263 M2.97706742,9.69895159 C3.26729377,9.69895159 3.5762915,9.69321589 3.88508065,9.70114159 C4.06612016,9.70593872 4.15017421,9.64701745 4.21055547,9.45846939 C4.30472522,9.16459306 4.30535093,8.78499409 4.53790744,8.60155603 C4.79340674,8.39997229 5.17290141,8.54628475 5.49764624,8.52834765 C6.4855421,8.4735978 7.07621477,8.04050042 7.3902182,7.11371581 C7.50639217,6.77072104 7.61735186,6.42501484 7.70766304,6.0746158 C7.90799535,5.29768936 7.5404935,4.81943638 6.73624427,4.80848641 C6.09488889,4.79972643 5.45228207,4.82767493 4.8122824,4.79805787 C4.48148902,4.78272791 4.36844361,4.91694325 4.28011386,5.20894246 C3.87016783,6.56267161 3.4381133,7.90962221 3.01075162,9.2580328 C2.96945459,9.38818101 2.90020906,9.51040354 2.97706742,9.69895159 M11.2661947,9.65869742 C11.6073124,9.7325315 11.9193344,9.6752788 12.2259335,9.70239301 C12.436173,9.72085153 12.5450469,9.63158321 12.6020911,9.44147087 C12.6715452,9.21016579 12.7551821,8.98303212 12.8193176,8.75037133 C12.8550875,8.62043169 12.9022245,8.52073482 13.0556284,8.52886908 C13.3624361,8.54482475 13.6749796,8.47766494 13.984603,8.57611038 C13.9931544,8.96916216 13.7252451,9.29046557 13.7475622,9.69905588 C14.0552042,9.69905588 14.3491849,9.68914876 14.6422269,9.70228873 C14.8689434,9.71230013 14.975106,9.63158321 15.043413,9.40340669 C15.379942,8.27868834 15.7454625,7.16262568 16.0859544,6.03915875 C16.2970281,5.34253209 15.9251463,4.8336192 15.1997368,4.80921641 C14.8184693,4.79628501 14.4355332,4.7906536 14.0547871,4.81025926 C13.2872463,4.84967915 12.7072108,5.24721521 12.4534843,5.94332044 C12.0110013,7.15720284 11.6612279,8.40497799 11.2661947,9.65869742 M28.8739551,3.42743447 C28.1937013,5.33877781 27.642657,7.29162675 27.0130859,9.21923862 C26.7609237,9.99126365 26.526073,10.7616201 26.5068844,11.581095 C22.0576509,11.5791136 17.6084174,11.5765065 13.1591838,11.5753593 C9.56154511,11.5744207 5.96390639,11.575985 2.36626767,11.5734822 C2.1241169,11.5732736 1.87612615,11.5775493 1.64085822,11.5304123 C0.300269035,11.2615645 -0.187578201,10.1644817 0.0634368263,9.03809483 C0.322898973,7.87364373 0.66130519,6.72629544 0.981044314,5.57592288 C1.36596183,4.19049096 2.76588943,3.41189595 3.89895061,3.41544165 C12.2239521,3.44182586 20.5489536,3.42826876 28.8739551,3.42743447" id="Fill-6"></path>
            <path d="M45.4951232,4.40241981 C44.6773168,4.40241981 43.9334489,4.40075124 43.1896852,4.40304552 C42.7103894,4.40450551 42.7123708,4.40763408 42.5753397,4.84719716 C42.2673849,5.83498874 41.9552586,6.82142461 41.6484508,7.80963334 C41.3728245,8.69772805 41.1020995,9.58728276 40.8133331,10.5279373 C41.42966,10.5279373 41.9996842,10.5349244 42.5694998,10.5252259 C42.8966431,10.5196988 43.2806221,10.6475527 43.5359128,10.4677646 C43.7918293,10.2874551 43.7809836,9.87980338 43.8790119,9.5704928 C44.4148304,7.87898315 44.9392818,6.18403207 45.4951232,4.40241981" id="Combined-Shape"></path>
            <path d="M45.4951232,4.40241981 C44.9392818,6.18403207 44.4148304,7.87898315 43.8790119,9.5704928 C43.7809836,9.87980338 43.7918293,10.2874551 43.5359128,10.4677646 C43.2806221,10.6475527 42.8966431,10.5196988 42.5694998,10.5252259 C41.9996842,10.5349244 41.42966,10.5279373 40.8133331,10.5279373 C41.1020995,9.58728276 41.3728245,8.69772805 41.6484508,7.80963334 C41.9552586,6.82142461 42.2673849,5.83498874 42.5753397,4.84719716 C42.7123708,4.40763408 42.7103894,4.40450551 43.1896852,4.40304552 C43.9334489,4.40075124 44.6773168,4.40241981 45.4951232,4.40241981" id="Fill-12"></path>
            <path d="M13.3169051,7.26298998 C13.3330694,7.16913309 13.3415165,7.10020042 13.357055,7.03283203 C13.5956601,6.000302 13.6949398,5.93564504 14.8098553,6.09791316 C14.7908754,6.16507298 14.7734597,6.23025137 14.7540626,6.29490834 C14.4436049,7.32858551 14.4435006,7.32858551 13.3169051,7.26298998" id="Fill-14"></path>
            <path d="M4.9693884,7.28671491 C4.91432569,7.10984682 4.96876268,7.03611702 4.99399976,6.95550439 C5.30967175,5.94456144 5.30925461,5.94445716 6.43042725,6.09348103 C6.33896893,6.40727589 6.24427776,6.71815075 6.158868,7.03163275 C6.11204384,7.20359942 6.0228798,7.29516203 5.83245461,7.28911348 C5.54295826,7.27993636 5.25294048,7.28671491 4.9693884,7.28671491" id="Fill-16"></path>
        </g>
    </g>
</svg>