<?xml version="1.0" encoding="utf-8"?>
<!-- Generator: Adobe Illustrator 21.0.2, SVG Export Plug-In . SVG Version: 6.00 Build 0)  -->
<svg version="1.1" id="Layer_1" xmlns="http://www.w3.org/2000/svg" xmlns:xlink="http://www.w3.org/1999/xlink" x="0px" y="0px"
	 viewBox="0 0 216 94" style="enable-background:new 0 0 216 94;" xml:space="preserve">
<style type="text/css">
	.st0{fill:#FFFFFF;}
</style>
<path id="pragmatic_white" class="st0" d="M214.9,58.7l-0.6-3.7l-1.3,3.7h-1l-1.3-3.7l-0.7,3.7H209l1-5.9h1.1l1.4,4.1l1.4-4.1h1.1
	l1,5.9H214.9z M207.5,58.7h-1.2v-4.8h-1.1v-1.1h3.3v1.1h-1.1L207.5,58.7L207.5,58.7z M191.7,69.4h-3.2v-7.2l-5-9.4h3.5l3.2,6l3.2-6
	h3.4l-5,9.5L191.7,69.4L191.7,69.4z M182.5,69.4l-1.3-3.4h-6.9l-1.4,3.4h-3.4l6.5-16.7h3.3l6.5,16.7L182.5,69.4L182.5,69.4z
	 M177.7,57.1l-2.3,5.7h4.5L177.7,57.1z M159.7,52.7h3.2v13.6h4.7v3h-7.9L159.7,52.7z M154.2,62.1c-1.1,0.2-2.3,0.3-3.4,0.3v7.1h-3.2
	V52.7h3.4c1.4-0.1,2.7,0.1,4,0.5c0.8,0.3,1.5,0.9,2,1.6c0.5,0.8,0.7,1.8,0.7,2.7c0,1.1-0.3,2.1-0.9,2.9
	C156,61.3,155.2,61.9,154.2,62.1L154.2,62.1z M153.7,56.1c-0.6-0.3-1.4-0.4-2.1-0.3h-0.9l0,3.5h1c0.6,0,1.1,0,1.7-0.2
	c0.3-0.1,0.6-0.3,0.7-0.6c0.2-0.3,0.3-0.6,0.3-1C154.5,57,154.2,56.4,153.7,56.1L153.7,56.1z M128.8,55.1c-3.2-0.1-5.8,2.5-5.9,5.6
	c0,0.1,0,0.1,0,0.2c0,1.1,0.2,2.1,0.7,3c0.5,0.9,1.2,1.6,2.1,2.1c0.9,0.5,2,0.8,3.1,0.8c0.9,0,1.8-0.2,2.6-0.5c1-0.5,1.9-1.2,2.6-2
	l2.2,2.3c-1,1.1-2.3,1.9-3.6,2.6c-1.2,0.5-2.6,0.7-3.9,0.7c-2.5,0.1-4.8-0.8-6.6-2.5c-3.5-3.4-3.6-9-0.2-12.5
	c0.6-0.7,1.4-1.2,2.2-1.6c1.4-0.8,3.1-1.2,4.7-1.2c2.9,0,5.6,1.2,7.5,3.4l-2.3,2.1C132.7,56,130.8,55.1,128.8,55.1L128.8,55.1z
	 M136.4,55.4L136.4,55.4L136.4,55.4L136.4,55.4z M113.7,52.4h3.3v17h-3.3V52.4L113.7,52.4z M107.9,69.4h-3.3V55.5h-3.1v-3.2h9.6v3.2
	h-3.2L107.9,69.4L107.9,69.4z M98.5,69.4l-1.4-3.5h-7.1l-1.4,3.5h-3.4l6.7-17h3.3l6.7,17H98.5L98.5,69.4z M93.6,56.9l-2.3,5.9h4.6
	L93.6,56.9z M78.2,58.6l-3.7,10.8h-2.9L68,58.6l-1.9,10.8h-3.3l3-17.1H69l4,11.9l4.1-11.9h3.2l2.9,17H80L78.2,58.6z M57.1,68.8
	c-1.4,0.7-2.9,1.1-4.4,1.1c-1.7,0-3.3-0.4-4.8-1.1c-1.4-0.8-2.6-1.9-3.3-3.3c-0.8-1.4-1.2-3-1.2-4.6c0-2.2,0.8-4.3,2.3-5.9
	c1.8-2,4.3-3,7-2.9c1.5,0,2.9,0.3,4.2,0.8c1.2,0.6,2.4,1.4,3.3,2.4l-2.3,2.3c-1.3-1.5-3.2-2.3-5.1-2.3c-1.6,0-3.1,0.6-4.3,1.7
	c-1.1,1-1.8,2.5-1.7,4.1c0,1.6,0.6,3.1,1.8,4.2c1.2,1.1,2.8,1.8,4.4,1.7c1,0,2-0.2,2.9-0.7c0.8-0.5,1.5-1.3,1.9-2.2h-5v-3h8.7v0.7
	C61.3,64.5,59.7,67.3,57.1,68.8L57.1,68.8z M38,65.9h-7l-1.4,3.5h-3.5l6.7-17h3.3l6.7,17h-3.4L38,65.9z M34.5,56.9l-2.3,5.9h4.6
	L34.5,56.9z M20.5,69.4l-3.9-7.2h-0.3v7.2H13v-17h3.5c1.4-0.1,2.8,0.1,4.1,0.5c0.8,0.3,1.5,0.9,2,1.7c0.5,0.8,0.8,1.8,0.7,2.8
	c0,1-0.3,2-0.8,2.8c-0.6,0.8-1.5,1.4-2.5,1.7l4.1,7.6L20.5,69.4L20.5,69.4z M20,57.3c0-0.7-0.4-1.3-1.1-1.6
	c-0.6-0.1-1.2-0.2-1.8-0.2h-0.9l0,3.5h1c0.7,0.1,1.5-0.1,2.2-0.4C19.9,58.3,20.1,57.8,20,57.3L20,57.3z M6.8,61.9
	c-1.1,0.2-2.3,0.3-3.5,0.3v7.2H0v-17h3.5c1.4-0.1,2.8,0.1,4.1,0.5c0.8,0.3,1.5,0.9,2,1.7c0.5,0.8,0.8,1.8,0.7,2.8
	c0,1.1-0.3,2.1-0.9,2.9C8.7,61.1,7.8,61.7,6.8,61.9L6.8,61.9z M6.3,55.8c-0.7-0.3-1.4-0.4-2-0.3H3.3V59h1c0.6,0,1.2,0,1.7-0.2
	c0.3-0.1,0.6-0.3,0.8-0.6c0.2-0.3,0.3-0.6,0.3-1C7.1,56.7,6.8,56.1,6.3,55.8L6.3,55.8z M171.5,94c-18.1,0.2-32.9-14.4-33.1-32.5
	s14.4-32.9,32.5-33.1c18.1-0.2,32.9,14.4,33.1,32.5c0,0.1,0,0.2,0,0.3C204.1,79.2,189.5,93.9,171.5,94z M171.5,31.9
	c-16.2,0.1-29.2,13.4-29.1,29.6c0.1,16,13.1,29,29.1,29.1v0h0c16.2,0,29.3-13.1,29.3-29.3C200.8,45,187.7,31.9,171.5,31.9
	L171.5,31.9L171.5,31.9z M181.3,49.8c-11.2,0.7-15.7-12.5-5.6-13.2C186.5,35.9,192.2,49.1,181.3,49.8L181.3,49.8z M169.4,25
	c-5.6,0.2-11.1,1.9-15.9,4.8c-0.7-2.2-3.8-10.6-11.8-15.3c5.7,0.3,10.9,3.6,13.6,8.7c0,0-3.1-13.2-2.3-23.2
	c6.3,7.8,11.1,20.5,11.1,20.5c-0.6-5.7,1.8-11.4,6.4-14.9C166.4,14.1,168.7,22.9,169.4,25z"/>
</svg>
