<?xml version="1.0" encoding="utf-8"?>
<!-- Generator: Adobe Illustrator 22.1.0, SVG Export Plug-In . SVG Version: 6.00 Build 0)  -->
<svg version="1.1" id="Layer_1" xmlns="http://www.w3.org/2000/svg" xmlns:xlink="http://www.w3.org/1999/xlink" x="0px" y="0px"
	 viewBox="0 0 90 30" style="enable-background:new 0 0 90 30;" xml:space="preserve">
<style type="text/css">
	.st0{fill:#FFFFFF;}
</style>
<title>Quickspin</title>
<path id="quickspin" class="st0" d="M15.6,11c0-1.6,1.3-2.9,2.9-2.9c0.1,0,0.1,0,0.2,0h0c1.6-0.1,3,1.1,3.1,2.7c0,0.1,0,0.1,0,0.2
	c0,0.5-0.4,0.9-0.9,0.9s-0.9-0.4-0.9-0.9c0-0.8-0.7-1.1-1.3-1.1h0c-0.6,0-1.3,0.3-1.3,1.1c0,0.5-0.4,0.9-0.9,0.9
	C16,11.9,15.6,11.5,15.6,11C15.6,11,15.6,11,15.6,11z M21.9,17.4c0-0.5-0.4-0.9-0.9-0.9s-0.9,0.4-0.9,0.9l0,0c0,0.8-0.7,1.1-1.3,1.1
	h0c-0.6,0-1.3-0.3-1.3-1.1c0-0.5-0.4-0.9-0.9-0.9s-0.9,0.4-0.9,0.9l0,0c0,1.6,1.3,2.9,2.9,2.9c0.1,0,0.1,0,0.2,0h0
	c0.2,0,0.5,0,0.7,0l0.8,1.5c0.3,0.3,0.7,0.4,1.1,0.1l0,0c0.4-0.2,0.7-0.6,0.5-0.9l-0.8-1.5C21.6,18.9,21.9,18.1,21.9,17.4L21.9,17.4
	z M17.4,16.5v-4.6c-0.2,0.2-0.5,0.4-0.9,0.4c-0.3,0-0.7-0.1-0.9-0.4v4.7c0.2-0.2,0.5-0.4,0.9-0.4C16.9,16.2,17.2,16.3,17.4,16.5
	L17.4,16.5z M20.1,11.8v4.7c0.5-0.5,1.3-0.5,1.7,0c0,0,0,0,0,0v-4.6c-0.2,0.2-0.5,0.4-0.9,0.4C20.7,12.3,20.3,12.1,20.1,11.8
	L20.1,11.8z M35.6,11.8c0.5,0,0.9-0.4,0.9-0.9c0-0.8,0.7-1.1,1.3-1.1h0c0.6,0,1.3,0.3,1.3,1.1c0,0.5,0.4,0.9,0.9,0.9
	c0.5,0,0.9-0.4,0.9-0.9c0-1.6-1.3-2.9-2.9-2.9c-0.1,0-0.1,0-0.2,0h0c-1.6-0.1-3,1.1-3.1,2.7c0,0.1,0,0.1,0,0.2
	C34.7,11.5,35.1,11.9,35.6,11.8C35.6,11.9,35.6,11.9,35.6,11.8L35.6,11.8z M40.1,16.4c-0.5,0-0.9,0.4-0.9,0.9c0,0.8-0.7,1.1-1.3,1.1
	h0c-0.6,0-1.3-0.3-1.3-1.1c0-0.5-0.4-0.9-0.9-0.9c-0.5,0-0.9,0.4-0.9,0.9c0,1.6,1.3,2.9,2.9,2.9c0.1,0,0.1,0,0.2,0h0
	c1.6,0.1,3-1.1,3.1-2.6c0-0.1,0-0.1,0-0.2C41,16.9,40.6,16.5,40.1,16.4C40.1,16.5,40.1,16.5,40.1,16.4L40.1,16.4z M36.5,16.4v-4.5
	c-0.2,0.2-0.5,0.4-0.9,0.4c-0.3,0-0.7-0.1-0.9-0.4v4.7c0.2-0.2,0.5-0.4,0.9-0.4C36,16.2,36.3,16.3,36.5,16.4L36.5,16.4z M50.3,11.9
	c0.5,0,0.9-0.4,0.9-0.9c0-0.8,0.7-1.1,1.3-1.1h0c0.6,0,1.3,0.3,1.3,1.1c0,0.5,0.4,0.9,0.9,0.9c0.5,0,0.9-0.4,0.9-0.9
	c0-1.6-1.3-2.9-2.9-2.9c-0.1,0-0.1,0-0.2,0h-0.1c-1.6-0.1-3,1.1-3.1,2.7c0,0.1,0,0.1,0,0.2C49.4,11.5,49.8,11.9,50.3,11.9
	C50.3,11.9,50.3,11.9,50.3,11.9z M51,12.2c-0.3,0.2-0.7,0.2-1,0.1l3.5,4.8c0-0.4,0.2-0.7,0.5-0.9c0.3-0.2,0.7-0.2,1-0.1l-3.5-4.7
	C51.5,11.8,51.3,12.1,51,12.2L51,12.2z M54.8,16.5c-0.5,0-0.9,0.4-0.9,0.9c0,0.8-0.7,1.1-1.3,1.1h0c-0.6,0-1.3-0.3-1.3-1.1
	c0-0.5-0.4-0.9-0.9-0.9c-0.5,0-0.9,0.4-0.9,0.9c0,1.6,1.3,2.9,2.9,2.9c0.1,0,0.1,0,0.2,0h0c1.6,0.1,3-1.1,3.1-2.7c0-0.1,0-0.1,0-0.2
	C55.6,16.9,55.2,16.5,54.8,16.5z M28.8,16.5c-0.5,0-0.9,0.4-0.9,0.9c0,0.8-0.7,1.1-1.3,1.1h0c-0.6,0-1.3-0.3-1.3-1.1
	c0-0.5-0.4-0.9-0.9-0.9s-0.9,0.4-0.9,0.9c0,1.6,1.3,2.9,2.9,2.9c0.1,0,0.1,0,0.2,0h0c1.6,0.1,3-1.1,3.1-2.7c0-0.1,0-0.1,0-0.2
	C29.6,16.9,29.3,16.5,28.8,16.5L28.8,16.5z M28.8,8.2c-0.5,0-0.9,0.4-0.9,0.9v7.4c0.5-0.5,1.3-0.5,1.7,0c0,0,0,0,0,0V9.1
	C29.7,8.6,29.3,8.2,28.8,8.2L28.8,8.2z M25.2,16.5V9.1c0-0.5-0.4-0.9-0.9-0.9s-0.9,0.4-0.9,0.9v7.4c0.2-0.2,0.5-0.4,0.9-0.4
	C24.6,16.1,25,16.2,25.2,16.5L25.2,16.5z M33.1,12.4V9.1c0-0.5-0.4-0.9-0.9-0.9c-0.5,0-0.9,0.4-0.9,0.9v7.1l0,0v3.2
	c0,0.5,0.4,0.9,0.9,0.9l0,0c0.5,0,0.9-0.4,0.9-0.9V16l0,0L33.1,12.4z M66,12.4V9.1c0-0.5-0.4-0.9-0.9-0.9c-0.5,0-0.9,0.4-0.9,0.9
	v7.1l0,0v3.2c0,0.5,0.4,0.9,0.9,0.9l0,0c0.5,0,0.9-0.4,0.9-0.9V16l0,0L66,12.4z M69.2,13.7L68.9,13l-0.4-0.9l-1-2v6l0,0v3.2
	c0,0.5,0.4,0.9,0.9,0.9l0,0c0.5,0,0.9-0.4,0.9-0.9V16l0,0L69.2,13.7L69.2,13.7z M72.6,15.6L72.6,15.6L70.8,12l-0.4-0.9l-1.2-2.4
	C69,8.3,68.4,8.1,68,8.3c-0.4,0.2-0.6,0.8-0.4,1.2l0,0l1.2,2.4l0.4,0.9l1.8,3.7l0,0l1.6,3.2c0.2,0.4,0.8,0.7,1.2,0.5l0,0
	c0.4-0.2,0.6-0.8,0.4-1.3L72.6,15.6z M74.3,16.1v-7c0-0.5-0.4-0.9-0.9-0.9c-0.5,0-0.9,0.4-0.9,0.9v5.8l0.3,0.7l1.4,2.9V16.1
	L74.3,16.1z M43.7,13.1l-1.5,2.2c-0.2,0.4-0.1,0.9,0.3,1.1c0,0,0,0,0,0c0.3,0.3,0.8,0.2,1.2-0.1l1.6-2.3l0,0l1.7-2.5l0.4-0.6
	l1.2-1.7c0.2-0.4,0.1-0.9-0.3-1.1c0,0,0,0,0,0c-0.3-0.3-0.8-0.2-1.2,0.1l-1.2,1.7l-0.4,0.6L43.7,13.1L43.7,13.1z M47.7,17.3
	L47.7,17.3L46.5,15l-0.3-0.5l-0.4-0.8l-0.3,0.5l-0.8,1.2l0.2,0.4l1.2,2.3l0,0l1,2c0.3,0.3,0.7,0.4,1.1,0.1l0,0
	c0.4-0.2,0.7-0.6,0.5-0.9L47.7,17.3z M43.9,12.3V9c0-0.5-0.4-0.9-0.9-0.9c-0.5,0-0.9,0.4-0.9,0.9v5.8l1.3-1.9L43.9,12.3z M42.3,16.7
	l-0.2-0.2v2.9c0,0.5,0.4,0.9,0.9,0.9l0,0c0.5,0,0.9-0.4,0.9-0.9v-2.8c-0.2,0.2-0.5,0.3-0.8,0.3C42.8,16.9,42.6,16.8,42.3,16.7
	L42.3,16.7z M60.8,8.1L60.8,8.1h-1.2h-1.9c-0.5,0-0.8,0.4-0.8,0.9c0,0,0,0,0,0.1c-0.1,0.5,0.3,0.9,0.7,0.9c0,0,0,0,0.1,0h2.9
	c0.6,0.1,0.9,0.9,0.9,1.7v0.1c0,0.8-0.3,1.7-0.9,1.8h-2.9c-0.5,0-0.8,0.4-0.8,0.9c0,0,0,0,0,0.1c-0.1,0.5,0.3,0.9,0.7,0.9
	c0,0,0,0,0.1,0h3.1l0,0c1.3-0.2,2.2-1.6,2.2-3.6v-0.1C63,9.6,62.1,8.3,60.8,8.1z M58.7,15.6h-1c-0.3,0-0.6-0.1-0.8-0.3v0.9l0,0v3.2
	c0,0.5,0.4,0.9,0.9,0.9l0,0c0.5,0,0.9-0.4,0.9-0.9V16l0,0L58.7,15.6L58.7,15.6z M58.7,13v-2.8h-1c-0.3,0-0.6-0.1-0.8-0.3v3.4
	c0.2-0.2,0.5-0.3,0.8-0.3L58.7,13z"/>
</svg>
