<svg xmlns="http://www.w3.org/2000/svg" width="45.62" height="18.96" viewBox="0 0 45.62 18.96"><title>white</title><g id="Layer_2" data-name="Layer 2"><g id="Слой_1" data-name="Слой 1"><path d="M18.94,9.62,17.29,1A1.2,1.2,0,0,0,15.9,0L2,2.68A1.18,1.18,0,0,0,1,4.06l1.65,8.66a1.2,1.2,0,0,0,1.39.94L18,11a1.2,1.2,0,0,0,1-1.39" style="fill:#ccc"/><rect x="1.29" y="3.47" width="16.55" height="2.28" transform="translate(-0.7 1.87) rotate(-10.8)" style="fill:#4f4f4f"/><path d="M15.63,7.59H1.18A1.18,1.18,0,0,0,0,8.78v9A1.18,1.18,0,0,0,1.18,19H15.63a1.19,1.19,0,0,0,1.19-1.19v-9a1.19,1.19,0,0,0-1.19-1.19" style="fill:#fff"/><path d="M5.48,14.47H1.7a.19.19,0,0,1-.2-.19V11.74a.2.2,0,0,1,.2-.2H5.48a.2.2,0,0,1,.2.2v2.54a.19.19,0,0,1-.2.19" style="fill:#999"/><path d="M5.68,12.59v-.21H4.43v-.84H4.22v.84H2.75v-.84H2.54v.84h-1v.21h1v.84h-1v.21h1v.83h.21v-.83H4.22v.84h.21v-.84H5.68v-.21H5v-.84Zm-2.93,0h.84v.84H2.75Zm2.08.84h-1v-.84h1Z" style="fill:#fff"/><path d="M2.09,10.51H1.5V9.12H2a.73.73,0,0,1,.23,0,.27.27,0,0,1,.15.09.36.36,0,0,1,.09.24.27.27,0,0,1-.1.24l0,0,0,0a.43.43,0,0,1,.2.11.34.34,0,0,1,.07.22.37.37,0,0,1-.1.26.5.5,0,0,1-.39.13M1.8,9.68H2a.44.44,0,0,0,.18,0,.12.12,0,0,0,.06-.12c0-.06,0-.11,0-.12a.44.44,0,0,0-.19,0H1.8Zm0,.56H2a.44.44,0,0,0,.19,0s.07-.06.07-.13A.11.11,0,0,0,2.2,10a.61.61,0,0,0-.22,0H1.8v.31Z" style="fill:#1d1d1b"/><path d="M3.78,10.51l-.12-.3H3.09l-.13.3H2.64l.59-1.39h.29l.58,1.39Zm-.41-1-.17.4h.34Z" style="fill:#1d1d1b"/><polygon points="5.21 9.13 5.51 9.13 5.51 10.51 5.21 10.51 4.56 9.64 4.56 10.51 4.26 10.51 4.26 9.13 4.54 9.13 5.21 10.01 5.21 9.13" style="fill:#1d1d1b"/><path d="M5.84,9.12h.3v.57l.51-.57H7l-.54.62.26.36.28.41H6.67L6.28,10l-.14.16v.39h-.3V9.12Z" style="fill:#1d1d1b"/><path d="M16,11.26a4.21,4.21,0,0,1,.84.3V11.2a4.41,4.41,0,0,0-3.12-.13h0A4.56,4.56,0,0,0,11,13.37,4.75,4.75,0,0,0,12,19h.49a4.33,4.33,0,0,1-1.41-2l1.78-.58a8.56,8.56,0,0,0,.94,2A5.42,5.42,0,0,0,13,19h.49a5.85,5.85,0,0,1,.48-.34l.26.34h.43l0,0a4.49,4.49,0,0,1-.39-.46,8,8,0,0,1,1.39-.63L16,18.9a1.48,1.48,0,0,0,.29-.12l-.32-1a7.07,7.07,0,0,1,.88-.22v-.33a9.4,9.4,0,0,0-1,.25l-.57-1.82,1.55-.51v-.33l-1.64.53-.56-1.81a8.56,8.56,0,0,0,1.47-.67,8.26,8.26,0,0,1,.73,1.39v-.77a8.61,8.61,0,0,0-.46-.79c.16-.1.31-.21.46-.32v-.41a6.35,6.35,0,0,1-.65.47,5.66,5.66,0,0,0-.43-.52,2.94,2.94,0,0,0-1-.7A4.31,4.31,0,0,1,16,11.26Zm-2.33.19.57,1.84a8.14,8.14,0,0,1-1.48.31,4,4,0,0,1,0-.61A2,2,0,0,1,13.65,11.45ZM11.3,13.52a4.29,4.29,0,0,1,1.55-1.69,3.22,3.22,0,0,0-.37,1.11,4.78,4.78,0,0,0-.06.68,5.24,5.24,0,0,1-1.14-.06S11.29,13.53,11.3,13.52ZM11,16.67a4.33,4.33,0,0,1,.17-2.8,5.71,5.71,0,0,0,1.26.07,8.45,8.45,0,0,0,.35,2.15Zm4.55.86a8.23,8.23,0,0,0-1.47.67,8.17,8.17,0,0,1-.91-1.9L15,15.71Zm-.66-2.12L13.07,16a8,8,0,0,1-.33-2.08,8.52,8.52,0,0,0,1.58-.32Zm.64-3.31c.13.14.26.3.39.46a8.06,8.06,0,0,1-1.39.64l-.58-1.85a1,1,0,0,1,.42,0A2.54,2.54,0,0,1,15.52,12.1Z" style="fill:#757575"/><rect x="7.34" y="16.81" width="1.36" height="0.6" style="fill:#757575"/><rect x="4.41" y="16.81" width="1.36" height="0.6" style="fill:#757575"/><rect x="1.48" y="16.81" width="1.36" height="0.6" style="fill:#757575"/><path d="M24.17,5.43a2.24,2.24,0,0,0,.18-.95c0-1.23-.54-1.85-1.6-1.85H21.3V8.94h.9V6.25h.54l.84,2.69h1l-1-2.88A1.3,1.3,0,0,0,24.17,5.43Zm-.75-.54a.81.81,0,0,1-.1.3.57.57,0,0,1-.22.19.83.83,0,0,1-.38.07H22.2v-2h.47a.74.74,0,0,1,.64.25.93.93,0,0,1,.11.32c0,.12,0,.26,0,.42S23.43,4.77,23.42,4.89Zm2.26,3.67a1.7,1.7,0,0,0,.47.32,1.47,1.47,0,0,0,.56.11,1.56,1.56,0,0,0,.57-.11,1.86,1.86,0,0,0,.47-.32,1.47,1.47,0,0,0,.42-1V2.63h-.9v4.8a.71.71,0,0,1-.16.5.58.58,0,0,1-.8,0,.67.67,0,0,1-.16-.5V2.63h-.9V7.52a1.48,1.48,0,0,0,.11.57A1.7,1.7,0,0,0,25.68,8.56ZM31.23,2.7a1.56,1.56,0,0,0-.62-.12,1.59,1.59,0,0,0-.68.14,1.44,1.44,0,0,0-.48.36,1.7,1.7,0,0,0-.29.55,2.54,2.54,0,0,0-.1.68,2.19,2.19,0,0,0,.2,1,1.45,1.45,0,0,0,.79.64l.64.26a1.1,1.1,0,0,1,.27.14.5.5,0,0,1,.17.15.89.89,0,0,1,.07.26c0,.11,0,.24,0,.41s0,.27,0,.38a.66.66,0,0,1-.08.3.52.52,0,0,1-.2.19.74.74,0,0,1-.36.07.58.58,0,0,1-.49-.2.72.72,0,0,1-.15-.45V7.16H29v.33a1.41,1.41,0,0,0,.12.59,1.75,1.75,0,0,0,.32.48,1.66,1.66,0,0,0,.49.32,1.74,1.74,0,0,0,.61.11,1.81,1.81,0,0,0,.74-.14,1.33,1.33,0,0,0,.48-.39A1.47,1.47,0,0,0,32,7.88a3.43,3.43,0,0,0,.08-.74,3.87,3.87,0,0,0,0-.62A1.41,1.41,0,0,0,32,6a1.39,1.39,0,0,0-.29-.36,2,2,0,0,0-.49-.27l-.69-.27A2.4,2.4,0,0,1,30.2,5a.47.47,0,0,1-.15-.17A.57.57,0,0,1,30,4.61a2.91,2.91,0,0,1,0-.31A3,3,0,0,1,30,4a.74.74,0,0,1,.1-.26.66.66,0,0,1,.19-.18.6.6,0,0,1,.3-.07.54.54,0,0,1,.49.23.94.94,0,0,1,.15.53v.21h.9V4a1.38,1.38,0,0,0-.41-1A1.7,1.7,0,0,0,31.23,2.7ZM35,2.7a1.51,1.51,0,0,0-.61-.12,1.6,1.6,0,0,0-.69.14,1.31,1.31,0,0,0-.47.36,1.72,1.72,0,0,0-.3.55,2.54,2.54,0,0,0-.09.68,2.06,2.06,0,0,0,.2,1,1.39,1.39,0,0,0,.78.64l.65.26a1.67,1.67,0,0,1,.27.14.57.57,0,0,1,.16.15.89.89,0,0,1,.07.26c0,.11,0,.24,0,.41s0,.27,0,.38a.56.56,0,0,1-.08.3.46.46,0,0,1-.2.19.7.7,0,0,1-.36.07.58.58,0,0,1-.49-.2.71.71,0,0,1-.14-.45V7.16h-.91v.33a1.41,1.41,0,0,0,.12.59,1.75,1.75,0,0,0,.32.48,1.66,1.66,0,0,0,.49.32,1.74,1.74,0,0,0,.61.11,1.81,1.81,0,0,0,.74-.14,1.33,1.33,0,0,0,.48-.39,1.47,1.47,0,0,0,.26-.58,3.43,3.43,0,0,0,.08-.74,5.72,5.72,0,0,0,0-.62A1.69,1.69,0,0,0,35.72,6a1.39,1.39,0,0,0-.29-.36,1.86,1.86,0,0,0-.49-.27l-.69-.27L34,5a.59.59,0,0,1-.15-.17.57.57,0,0,1-.07-.22,2.91,2.91,0,0,1,0-.31,1.55,1.55,0,0,1,0-.31.73.73,0,0,1,.09-.26.66.66,0,0,1,.19-.18.66.66,0,0,1,.3-.07.54.54,0,0,1,.49.23.94.94,0,0,1,.15.53v.21h.9V4a1.34,1.34,0,0,0-.41-1A1.7,1.7,0,0,0,35,2.7Zm2.67-.07h-.9V8.94h.9Zm2,0-1.4,6.31h.9l.27-1.36h1.23L41,8.94h.91L40.48,2.63Zm-.07,4.1.44-2.28h0l.44,2.28Zm5.07-4.1v3.8h0l-1.36-3.8h-.87V8.94h.9V5.15h0l1.38,3.79h.85V2.63Zm-21,9a1.35,1.35,0,0,0-1-.42,1.64,1.64,0,0,0-.6.11,1.54,1.54,0,0,0-.47.31,1.31,1.31,0,0,0-.3.46,1.52,1.52,0,0,0-.1.57V16.1a1.69,1.69,0,0,0,.13.72,1.33,1.33,0,0,0,.35.45,1.23,1.23,0,0,0,.48.25,1.91,1.91,0,0,0,.52.07,1.39,1.39,0,0,0,.57-.12,1.6,1.6,0,0,0,.45-.32,1.67,1.67,0,0,0,.31-.47,1.42,1.42,0,0,0,.11-.55v-.39h-.91v.31a.69.69,0,0,1-.05.31.58.58,0,0,1-.13.2.69.69,0,0,1-.19.1l-.19,0a.46.46,0,0,1-.43-.19.81.81,0,0,1-.12-.46V12.82a1.19,1.19,0,0,1,.11-.53.45.45,0,0,1,.45-.21.48.48,0,0,1,.4.2.73.73,0,0,1,.15.46V13h.91v-.35a1.74,1.74,0,0,0-.11-.61A1.47,1.47,0,0,0,23.75,11.6Zm2.33-.37-1.41,6.31h.91l.26-1.36h1.23l.27,1.36h.9l-1.41-6.31ZM26,15.33l.44-2.28h0l.44,2.28ZM31.73,14a2.24,2.24,0,0,0,.18-.95c0-1.23-.53-1.85-1.6-1.85H28.86v6.31h.9V14.85h.54l.85,2.69h1l-1-2.88A1.3,1.3,0,0,0,31.73,14ZM31,13.49a.81.81,0,0,1-.1.3.45.45,0,0,1-.22.19.83.83,0,0,1-.38.07h-.52v-2h.47a.73.73,0,0,1,.64.25,1,1,0,0,1,.11.32c0,.12,0,.26,0,.42S31,13.37,31,13.49Zm3.17-2.26H32.81v6.31h1.26a1.68,1.68,0,0,0,1.23-.42,1.75,1.75,0,0,0,.43-1.31v-3a1.66,1.66,0,0,0-.4-1.2A1.56,1.56,0,0,0,34.15,11.23Zm.68,4.67a.92.92,0,0,1-.16.6.67.67,0,0,1-.54.19h-.42V12.08h.42a.64.64,0,0,1,.55.21.94.94,0,0,1,.15.57Zm4-4.59a1.36,1.36,0,0,0-.61-.13,1.6,1.6,0,0,0-.69.14,1.23,1.23,0,0,0-.47.37,1.57,1.57,0,0,0-.3.54,2.54,2.54,0,0,0-.09.68,2.13,2.13,0,0,0,.2,1,1.42,1.42,0,0,0,.78.63l.65.26.27.14a.49.49,0,0,1,.16.16.75.75,0,0,1,.07.25c0,.11,0,.24,0,.41s0,.27,0,.39a.55.55,0,0,1-.08.29.46.46,0,0,1-.2.19.7.7,0,0,1-.36.07.58.58,0,0,1-.49-.2.72.72,0,0,1-.15-.45v-.28h-.9v.34a1.4,1.4,0,0,0,.12.58,1.75,1.75,0,0,0,.32.48,1.66,1.66,0,0,0,.49.32,1.74,1.74,0,0,0,.61.11,1.81,1.81,0,0,0,.74-.14,1.15,1.15,0,0,0,.48-.39,1.47,1.47,0,0,0,.26-.58,3.43,3.43,0,0,0,.08-.74,5.53,5.53,0,0,0,0-.61,1.76,1.76,0,0,0-.14-.49,1.39,1.39,0,0,0-.29-.36,1.86,1.86,0,0,0-.49-.27L38,13.74a1.45,1.45,0,0,1-.28-.14.49.49,0,0,1-.15-.17.52.52,0,0,1-.07-.22,2.82,2.82,0,0,1,0-.31,1.55,1.55,0,0,1,0-.31.8.8,0,0,1,.09-.26.52.52,0,0,1,.19-.17.56.56,0,0,1,.3-.08.54.54,0,0,1,.49.23,1,1,0,0,1,.15.54v.2h.9v-.44a1.35,1.35,0,0,0-.41-1A1.49,1.49,0,0,0,38.79,11.31Z" style="fill:#fff"/></g></g></svg>