<?xml version="1.0" encoding="UTF-8"?>
<svg width="40px" height="11px" viewBox="0 0 40 11" version="1.1" xmlns="http://www.w3.org/2000/svg" xmlns:xlink="http://www.w3.org/1999/xlink">
    <!-- Generator: Sketch 53.2 (72643) - https://sketchapp.com -->
    <title>Artboard</title>
    <desc>Created with Sketch.</desc>
    <g id="Artboard" stroke="none" stroke-width="1" fill="none" fill-rule="evenodd">
        <g id="klarna" transform="translate(-3.000000, -7.000000)" fill="#FFFFFF" fill-rule="nonzero">
            <g id="Group" transform="translate(4.413600, 8.400000)">
                <path d="M36.38,6.2463 C35.79125,6.2463 35.314,6.72788 35.314,7.322 C35.314,7.916 35.79125,8.3977 36.38,8.3977 C36.96874,8.3977 37.4461,7.91603 37.4461,7.322 C37.4461,6.72784 36.96876,6.2463 36.38,6.2463 Z M32.8727,5.41464 C32.8727,4.60126 32.18373,3.94204 31.3338,3.94204 C30.48387,3.94204 29.7948,4.60129 29.7948,5.41464 C29.7948,6.22803 30.48378,6.88744 31.3338,6.88744 C32.18382,6.88744 32.8727,6.22803 32.8727,5.41464 Z M32.8784148,2.55244 L34.5768148,2.55244 L34.5768148,8.27664 L32.8784148,8.27664 L32.8784148,7.9108 C32.3985948,8.241 31.8194148,8.43511 31.1947148,8.43511 C29.5416148,8.43511 28.2014148,7.08281 28.2014148,5.41461 C28.2014148,3.74641 29.5416148,2.39421 31.1947148,2.39421 C31.8194148,2.39421 32.3986148,2.58831 32.8784148,2.91861 L32.8784148,2.55242 L32.8784148,2.55244 Z M19.2864148,3.29806 L19.2864148,2.55252 L17.5475148,2.55252 L17.5475148,8.27662 L19.2903148,8.27662 L19.2903148,5.60412 C19.2903148,4.70245 20.2588048,4.21782 20.9308148,4.21782 C20.9376966,4.21782 20.9441208,4.21848771 20.9510028,4.2185727 L20.9510028,2.5529727 C20.2612728,2.5529727 19.6269028,2.8509727 19.2864028,3.2981727 L19.2864148,3.29806 Z M14.9548148,5.41466 C14.9548148,4.60128 14.2657648,3.94206 13.4158148,3.94206 C12.5659048,3.94206 11.8768148,4.60131 11.8768148,5.41466 C11.8768148,6.22805 12.5658648,6.88746 13.4158148,6.88746 C14.2657948,6.88746 14.9548148,6.22805 14.9548148,5.41466 Z M14.9604334,2.55246 L16.6589334,2.55246 L16.6589334,8.27666 L14.9604334,8.27666 L14.9604334,7.91082 C14.4806134,8.24102 13.9014334,8.43513 13.2768334,8.43513 C11.6236334,8.43513 10.2834334,7.08283 10.2834334,5.41463 C10.2834334,3.74643 11.6236334,2.39423 13.2768334,2.39423 C13.9014734,2.39423 14.4806334,2.58833 14.9604334,2.91863 L14.9604334,2.55244 L14.9604334,2.55246 Z M25.1834334,2.3985 C24.5049734,2.3985 23.8628334,2.61105 23.4335334,3.19745 L23.4335334,2.5528 L21.7424334,2.5528 L21.7424334,8.2767 L23.4543334,8.2767 L23.4543334,5.2686 C23.4543334,4.39814 24.0328034,3.9719 24.7293334,3.9719 C25.4757934,3.9719 25.9049334,4.42186 25.9049334,5.2568 L25.9049334,8.2767 L27.6013334,8.2767 L27.6013334,4.6366 C27.6013334,3.3045 26.5517334,2.3986 25.1834334,2.3986 L25.1834334,2.3985 Z M7.8094334,8.2767 L9.5871334,8.2767 L9.5871334,0.0016 L7.8094334,0.0016 L7.8094334,8.2767 L7.8094334,8.2767 Z M0.0003334,8.2789581 L1.8827334,8.2789581 L1.8827334,5.81e-05 L0.0003334,5.81e-05 L0.0003334,8.2789581 Z M6.5843334,5.81e-05 C6.5843334,1.7923581 5.8921434,3.4596581 4.6587334,4.6989581 L7.2607334,8.2792581 L4.9357334,8.2792581 L2.1079334,4.3882581 L2.8377434,3.8367381 C4.0480434,2.9218981 4.7422434,1.5235381 4.7422434,3.81e-05 L6.5843434,3.81e-05 L6.5843334,5.81e-05 Z" id="Shape"></path>
            </g>
        </g>
    </g>
</svg>