<svg xmlns="http://www.w3.org/2000/svg" width="693" height="125" viewBox="0 0 693 125">
  <metadata><?xpacket begin="﻿" id="W5M0MpCehiHzreSzNTczkc9d"?>
<x:xmpmeta xmlns:x="adobe:ns:meta/" x:xmptk="Adobe XMP Core 5.6-c140 79.160451, 2017/05/06-01:08:21        ">
   <rdf:RDF xmlns:rdf="http://www.w3.org/1999/02/22-rdf-syntax-ns#">
      <rdf:Description rdf:about=""/>
   </rdf:RDF>
</x:xmpmeta>
                                                                                                    
                                                                                                    
                                                                                                    
                                                                                                    
                                                                                                    
                                                                                                    
                                                                                                    
                                                                                                    
                                                                                                    
                                                                                                    
                                                                                                    
                                                                                                    
                                                                                                    
                                                                                                    
                                                                                                    
                                                                                                    
                                                                                                    
                                                                                                    
                                                                                                    
                                                                                                    
                           
<?xpacket end="w"?></metadata>
<defs>
    <style>
      .cls-1 {
        fill: #fff;
        fill-rule: evenodd;
      }
    </style>
  </defs>
  <path id="white" class="cls-1" d="M45.043,324H102.1a34.318,34.318,0,0,1,9.545,1.3l0.05,0.015c21.7,6.311,37.236,19.966,47.188,40.21,0.513,1.042,1.629,2.41.478,3.412s-2.266-.368-3.287-0.958c-6.329-3.656-12.987-6.362-20.333-6.949-18.521-1.481-37.076-.313-55.612-0.667-2.223-.042-2.993,1.048-3.134,3.215-0.24,3.691,1.937,4,4.737,4q28.387-.07,56.774-0.023a37.169,37.169,0,0,1,7.054.531A17.544,17.544,0,0,1,159.978,385.6q0.019,29.1,0,58.207c0,5.144-.041,5.177-5.26,5.181q-25.4.017-50.8,0c-25.715-.013-52.831-18.327-62.538-42.244-0.406-1-1.429-2.207-.5-3.113,1.174-1.145,2.282.233,3.26,0.821,7.289,4.385,15.079,7.254,23.63,7.327,17.3,0.148,34.61.1,51.916,0.139,2.271,0.006,3.836-.557,3.875-3.334,0.042-2.98-1.648-3.475-4.06-3.569-15.683-.615-31.371-0.185-47.055-0.249-5.347-.022-10.689.5-16.042-0.079-8.8-.948-16.262-8.391-16.33-17.236-0.15-19.508,0-39.019.053-58.529A4.928,4.928,0,0,1,45.043,324ZM266.7,437q0-25.491,0-50.982c0-.57-0.008-1.14.011-1.709,0.042-1.266.024-2.618,1.844-2.554,1.619,0.056,1.635,1.29,1.651,2.459,0.021,1.5,0,3,0,4.358a0.721,0.721,0,0,0,1.145-.286c6.008-7.233,14.353-9.535,23.774-6.557,7.34,2.321,12.4,9.352,12.978,18.331,0.434,6.706-.644,13-5.07,18.455-6.494,8.008-24.449,8.576-30.962-.351a3.8,3.8,0,0,0-1.968-1.427V437H266.7Zm21.092-53.015c-9.253-.042-15.576,5.374-17.086,14.515a29.913,29.913,0,0,0-.062,7.914c1.378,13.967,14.454,17.135,23.128,14.076,8.3-2.925,12.209-11.5,10.412-22.407C302.715,389.194,296.7,384.024,287.787,383.982Zm-65.04-18.925c5.4-.252,10.733.306,15.635,2.952a14.653,14.653,0,0,1,7.88,11.8c0.135,1.139.526,2.659-1.271,2.974-1.942.34-2.047-1.149-2.265-2.5-1.033-6.421-4.9-9.986-11.129-11.294a40.146,40.146,0,0,0-17.991.209c-3.08.751-5.968,2.023-7.743,4.85-3.509,5.586-1.25,12.057,5.177,14.631a67.682,67.682,0,0,0,12.915,3.217,68.4,68.4,0,0,1,16.563,4.813c4.982,2.319,7.022,6.523,7.263,11.657,0.236,5.045-1.88,9.33-6.354,11.607-11.748,5.979-23.708,5.943-35.282-.428-5.366-2.953-7.165-8.308-7.148-14.3,0-1.088.265-1.862,1.523-1.932,1.327-.074,1.872.631,1.99,1.859a28.137,28.137,0,0,0,.464,3.949,13.026,13.026,0,0,0,9.082,9.743c8.411,2.75,16.9,3.093,25.234-.334,5.5-2.264,7.722-6.659,6.644-12.353a8.726,8.726,0,0,0-5.858-6.753c-4.951-1.97-10.193-2.832-15.352-4a86.394,86.394,0,0,1-13.1-3.661c-7.579-3.035-10.695-10.069-7.917-17.606,1.358-3.683,4.183-5.77,7.613-7.176A31.323,31.323,0,0,1,222.747,365.057ZM473,387.509c4.677-5.352,10.342-6.975,16.814-6.06a12.673,12.673,0,0,1,9.538,5.982c0.709,1.157,1.247,1.313,1.972.061,4.093-7.07,16.452-7.773,22.588-4.272,4.2,2.4,5.958,6.353,6.043,10.945,0.17,9.118.072,18.241,0.062,27.362,0,1.233.062,2.677-1.733,2.686s-1.744-1.422-1.748-2.664c-0.018-6.745-.01-13.491-0.012-20.237,0-1.425.017-2.851-.008-4.275-0.136-7.76-3.405-11.942-9.681-12.4-8.432-.621-14.338,3.436-15.239,10.979-0.992,8.315-.208,16.7-0.391,25.053-0.01.475,0,.951,0.02,1.425,0.048,1.11.023,2.169-1.478,2.228-1.479.058-2.022-.835-2.037-2.15-0.035-3.04-.037-6.08-0.04-9.121-0.007-5.415.026-10.831-.014-16.247-0.051-6.85-2.367-10.365-7.639-11.731-6.347-1.645-12.284.795-15.3,6.278a17.074,17.074,0,0,0-2.034,8.487q0.048,10.689-.016,21.377c-0.007,1.242.408,2.964-1.593,3.058-2.206.1-1.886-1.695-1.888-3.065q-0.032-17.814.007-35.629c0-1.322-.464-3.193,1.741-3.2s1.595,1.884,1.769,3.194C472.774,386.1,472.864,386.618,473,387.509Zm99.225,17.021c-5.573,0-11.146.038-16.719-.023-1.807-.02-2.461.494-2.309,2.479,0.694,9.039,6.262,14.321,15.281,14.691,7.689,0.315,14-1.735,17.764-9.037a2.118,2.118,0,0,1,2.895-1.055c1.526,0.653.529,1.785,0.157,2.635-2.97,6.781-8.533,9.931-15.534,10.747a29.74,29.74,0,0,1-9.309-.326C557.757,423.3,553.037,419.527,551,413c-2.931-9.394-2.6-18.45,4.651-26.012,5.822-6.075,16.309-7.549,24.839-3.823,7.163,3.129,11.085,10.006,11,18.935-0.019,1.969-.83,2.447-2.544,2.434-5.573-.041-11.146-0.015-16.72-0.015v0.011Zm-2.374-3.467q6.662,0,13.321,0c4.219-.007,4.825-0.819,3.669-4.878-2.246-7.888-9.063-12.205-18.252-11.559a16.439,16.439,0,0,0-15.251,14.085c-0.246,1.783.291,2.4,2.059,2.372C560.215,401.014,565.034,401.059,569.852,401.063Zm135.437-11.386c0-2.176-.028-3.935.01-5.693,0.026-1.2-.187-2.685,1.666-2.69,1.748-.006,1.818,1.351,1.822,2.627,0.017,5.03.011,10.06,0.012,15.09,0,7.4.019,14.8-.022,22.208-0.006,1.227.445,2.98-1.593,3.021-2.143.042-1.843-1.732-1.885-3.117s-0.01-2.794-.01-4.26c-1.257.142-1.571,1.053-2.115,1.631a21.51,21.51,0,0,1-25.22,4.553,17.617,17.617,0,0,1-9.222-10.649c-2.494-7.45-2.38-14.911,1.635-21.742,6.674-11.358,23.519-12.915,32.54-3.277C703.534,388.049,704.227,388.656,705.289,389.677ZM687.65,384.6a14.187,14.187,0,0,0-12.992,6.192c-5,7.146-5.23,14.863-1.57,22.652a13.942,13.942,0,0,0,10.945,8.1c11.375,1.863,20.581-5.317,21.16-16.913C705.784,392.81,699.183,384.425,687.65,384.6ZM427.877,425.1c-12.982.007-21.421-8.566-21.54-21.884-0.117-13.02,8.846-22.076,21.851-22.076,12.724,0,21.275,8.925,21.287,22.216C449.487,416.6,441.05,425.094,427.877,425.1Zm0.237-40.512c-10.772-.029-18.229,7.42-18.24,18.218-0.011,11.339,7.166,19.121,17.694,19.183,10.942,0.064,18.362-7.354,18.393-18.39C446,391.853,439.2,384.618,428.114,384.589Zm187.03,3.388c5.575-6.625,12.72-7.815,20.6-6.137,7.589,1.616,11.7,6.789,11.743,14.58,0.039,8.077.01,16.154,0,24.231a14.692,14.692,0,0,1-.146,2.269,1.561,1.561,0,0,1-1.855,1.35,1.418,1.418,0,0,1-1.419-1.479c-0.05-.758-0.066-1.519-0.066-2.278q-0.006-10.975,0-21.951c-0.013-10.717-8.13-16.613-18.41-13.384-7.072,2.222-10.795,7.677-10.891,16.156-0.069,6.176-.014,12.353-0.016,18.529,0,0.76-.009,1.521-0.017,2.281-0.013,1.154-.311,2.1-1.693,2.152s-1.764-.849-1.794-2.027c-0.019-.76-0.025-1.52-0.025-2.28q0-16.677,0-33.354c0-.665,0-1.33.016-2,0.024-1.239.258-2.339,1.838-2.3,1.408,0.036,1.592,1.041,1.675,2.17C614.764,385.615,614.528,386.771,615.144,387.977Zm-259.92-.54c6.163-8.584,23.23-8.134,28.787-1.77,2.157,2.47,3.611,5.124,3.638,8.4,0.076,9.114.071,18.229,0.1,27.344,0,1.147.162,2.382-1.555,2.455-1.751.074-2-1.074-2-2.424-0.009-8.166-.259-16.341.055-24.5,0.328-8.5-6.168-13.364-14.176-12.716-9.673.782-14.771,6.528-14.808,16.293-0.026,6.741.012,13.483-.028,20.224-0.008,1.248.366,2.956-1.626,3.039-2.232.093-1.853-1.74-1.857-3.082-0.036-12.154-.029-24.307-0.045-36.461,0-1.161-.193-2.422,1.548-2.411,1.455,0.01,1.961.924,1.974,2.238C355.233,385.194,355.224,386.316,355.224,387.437Zm373.9,7.7q0-12.256,0-24.513c0-.855.012-1.711,0.051-2.565a1.585,1.585,0,0,1,1.777-1.741,1.522,1.522,0,0,1,1.6,1.621c0.062,0.756.068,1.518,0.068,2.277q0,24.94,0,49.882c0,0.285.021,0.572-.006,0.854-0.128,1.343.38,3.2-1.737,3.274-2.268.082-1.725-1.856-1.732-3.151C729.106,412.426,729.128,403.78,729.128,395.134ZM332,402.415c0,5.983.017,11.966-.013,17.948-0.007,1.283.24,2.924-1.791,2.875s-1.684-1.722-1.687-2.975q-0.039-18.091,0-36.182c0-1.286-.239-2.925,1.789-2.876s1.677,1.721,1.685,2.977C332.02,390.259,332,396.337,332,402.415Z" transform="translate(-40 -324)"/>
</svg>
