<?xml version="1.0" encoding="UTF-8"?>
<svg width="269px" height="87px" viewBox="0 0 269 87" version="1.1" xmlns="http://www.w3.org/2000/svg" xmlns:xlink="http://www.w3.org/1999/xlink">
    <!-- Generator: Sketch 53.2 (72643) - https://sketchapp.com -->
    <title>tether_coinspaid</title>
    <desc>Created with Sketch.</desc>
    <g id="Page-1" stroke="none" stroke-width="1" fill="none" fill-rule="evenodd">
        <g id="tether_coinspaid" fill="#FFFFFF" fill-rule="nonzero">
            <path d="M48.4758974,37.825641 L48.4758974,45.0133333 C48.1312821,45.0133333 46.5066667,45.0133333 43.2574359,45.0133333 C40.0082051,45.0133333 38.334359,45.0133333 37.8420513,45.0133333 L37.8420513,37.825641 C27.3558974,38.3179487 19.4789744,40.1394872 19.4789744,42.3548718 C19.4789744,44.5702564 27.3558974,46.3425641 37.8420513,46.8348718 C38.5312821,46.8348718 40.4512821,46.8348718 43.2082051,46.8348718 C45.9651282,46.8348718 48.1312821,46.8348718 48.4758974,46.8348718 C58.9620513,46.3425641 66.7897436,44.5210256 66.7897436,42.3548718 C66.7897436,40.1887179 58.9620513,38.3179487 48.4758974,37.825641 Z" id="Path"></path>
            <path d="M43.1097436,2.82371258e-05 C19.3190159,2.82371258e-05 0.0328205128,19.2862236 0.0328205128,43.0769513 C0.0328205128,66.867679 19.3190159,86.1538744 43.1097436,86.1538744 C66.9004713,86.1538744 86.1866667,66.867679 86.1866667,43.0769513 C86.1997505,31.648235 81.6655037,20.6838474 73.5841756,12.6025193 C65.5028475,4.52119123 54.5384599,-0.0130555952 43.1097436,2.82371258e-05 Z M48.4758974,48.7877205 L48.4758974,69.3169513 L37.8420513,69.3169513 L37.8420513,48.7877205 C25.9282051,48.2461821 16.9682051,45.8831052 16.9682051,43.0769513 C16.9682051,40.2707975 25.9282051,37.8584898 37.8420513,37.5631052 L37.8420513,31.1631052 L23.0728205,31.1631052 L23.0728205,21.3169513 L62.9497436,21.3169513 L62.9497436,31.1631052 L48.1805128,31.1631052 L48.1805128,37.5631052 C60.0451282,38.1538744 69.0051282,40.4677205 69.0051282,43.3231052 C69.0051282,46.1784898 60.3405128,48.2461821 48.4758974,48.7877205 Z" id="Shape"></path>
            <polygon id="Path" points="137.189744 28.4225641 124.389744 28.4225641 124.389744 63.7702564 117.251282 63.7702564 117.251282 28.4225641 104.549744 28.4225641 104.549744 22.5641026 137.189744 22.5641026"></polygon>
            <path d="M152.894359,64.3610256 C148.942883,64.5246646 145.103698,63.024704 142.309744,60.225641 C139.505361,57.2978138 138.027846,53.3459061 138.22359,49.2964103 L138.22359,48.4102564 C138.174416,45.5857508 138.781084,42.7883368 139.995897,40.2379487 C141.089447,37.9499546 142.792953,36.0079581 144.918974,34.625641 C147.044178,33.3026713 149.505138,32.6190714 152.008205,32.6564103 C155.732814,32.3756429 159.374809,33.8506508 161.854359,36.6441026 C164.34534,39.8340169 165.572351,43.8305697 165.300513,47.8687179 L165.300513,50.6748718 L145.165128,50.6748718 C145.231641,52.903763 146.12688,55.0277611 147.675897,56.6317949 C149.159588,58.1149346 151.191501,58.9170056 153.288205,58.8471795 C156.31031,58.8986382 159.171026,57.486618 160.968205,55.0564103 L164.660513,58.5517949 C163.436603,60.3980639 161.735296,61.8782009 159.737436,62.8348718 C157.602827,63.8593186 155.261981,64.3813777 152.894359,64.3610256 Z M152.057436,38.1702564 C150.312921,38.1053909 148.63172,38.828488 147.478974,40.1394872 C146.233925,41.7309402 145.465743,43.6428595 145.26359,45.6533333 L158.358974,45.6533333 L158.358974,45.1117949 C158.337771,43.2200968 157.698029,41.3873199 156.537436,39.8933333 C155.369688,38.6888129 153.73137,38.0586907 152.057436,38.1702564 Z" id="Shape"></path>
            <path d="M179.085128,25.7641026 L179.085128,33.1979487 L184.451282,33.1979487 L184.451282,38.1210256 L179.085128,38.1210256 L179.085128,55.2041026 C178.982963,56.0985552 179.229852,56.9979369 179.774359,57.7148718 C180.441182,58.323078 181.339859,58.6106548 182.235897,58.5025641 C183.048759,58.498379 183.858349,58.3992455 184.648205,58.2071795 L184.648205,63.5241026 C183.176782,63.9585342 181.653018,64.1904113 180.118974,64.2133333 C174.851282,64.2133333 172.192821,61.2594872 172.192821,55.4502564 L172.192821,38.2687179 L167.269744,38.2687179 L167.269744,33.345641 L172.192821,33.345641 L172.192821,25.7641026 L179.085128,25.7641026 Z" id="Path"></path>
            <path d="M196.46359,36.545641 C198.557599,34.0139239 201.695889,32.5808321 204.980513,32.6564103 C211.478974,32.6564103 214.826667,36.3487179 214.826667,43.7825641 L214.826667,63.7702564 L208.032821,63.7702564 L208.032821,44.0779487 C208.179894,42.4765794 207.68395,40.8824752 206.654359,39.6471795 C205.535007,38.6920149 204.085299,38.2146719 202.617436,38.3179487 C200.031957,38.2311621 197.631045,39.6525018 196.46359,41.9610256 L196.46359,63.8194872 L189.620513,63.8194872 L189.620513,20.3979487 L196.46359,20.3979487 L196.46359,36.545641 Z" id="Path"></path>
            <path d="M235.306667,64.3610256 C231.355191,64.5246646 227.516006,63.024704 224.722051,60.225641 C221.917669,57.2978138 220.440154,53.3459061 220.635897,49.2964103 L220.635897,48.4102564 C220.571353,45.5896338 221.16113,42.7924052 222.358974,40.2379487 C223.452524,37.9499546 225.15603,36.0079581 227.282051,34.625641 C229.407255,33.3026713 231.868215,32.6190714 234.371282,32.6564103 C238.095891,32.3756429 241.737886,33.8506508 244.217436,36.6441026 C246.708416,39.8340169 247.935428,43.8305697 247.66359,47.8687179 L247.66359,50.6748718 L227.577436,50.6748718 C227.643949,52.903763 228.539188,55.0277611 230.088205,56.6317949 C231.571896,58.1149346 233.603809,58.9170056 235.700513,58.8471795 C238.718951,58.8824037 241.572676,57.4738344 243.380513,55.0564103 L247.072821,58.5517949 C245.848911,60.3980639 244.147604,61.8782009 242.149744,62.8348718 C240.015134,63.8593186 237.674289,64.3813777 235.306667,64.3610256 Z M234.469744,38.1702564 C232.725228,38.1053909 231.044028,38.828488 229.891282,40.1394872 C228.646233,41.7309402 227.878051,43.6428595 227.675897,45.6533333 L240.771282,45.6533333 L240.771282,45.1117949 C240.750079,43.2200968 240.110336,41.3873199 238.949744,39.8933333 C237.781996,38.6888129 236.143678,38.0586907 234.469744,38.1702564 Z" id="Shape"></path>
            <path d="M268.882051,39.4502564 C267.94824,39.3735228 267.009708,39.3735228 266.075897,39.4502564 C263.406949,39.1605149 260.850943,40.6069364 259.725128,43.0441026 L259.725128,63.9671795 L252.832821,63.9671795 L252.832821,33.1979487 L259.429744,33.1979487 L259.429744,36.6441026 C260.813059,34.1426635 263.463992,32.6089095 266.322051,32.6564103 C267.14507,32.6136061 267.967691,32.7479117 268.734359,33.0502564 L268.882051,39.4502564 Z" id="Path"></path>
        </g>
    </g>
</svg>