<?xml version="1.0" encoding="utf-8"?>
<!-- Generator: Adobe Illustrator 22.0.0, SVG Export Plug-In . SVG Version: 6.00 Build 0)  -->
<svg version="1.1" id="Capa_1" xmlns="http://www.w3.org/2000/svg" xmlns:xlink="http://www.w3.org/1999/xlink" x="0px" y="0px"
	 viewBox="0 0 837.8 415" style="enable-background:new 0 0 837.8 415;" xml:space="preserve">
<style type="text/css">
	.st0{fill:url(#SVGID_1_);}
	.st1{fill:url(#SVGID_2_);}
	.st2{fill:url(#SVGID_3_);}
	.st3{fill:#FFFFFF;}
	.st4{fill:url(#SVGID_4_);}
	.st5{fill:url(#SVGID_5_);}
	.st6{fill:url(#SVGID_6_);}
	.st7{fill:url(#SVGID_7_);}
	.st8{fill:url(#SVGID_8_);}
	.st9{fill:url(#SVGID_9_);}
	.st10{fill:url(#SVGID_10_);}
	.st11{fill:url(#SVGID_11_);}
	.st12{fill:url(#SVGID_12_);}
	.st13{fill:url(#SVGID_13_);}
	.st14{fill:url(#SVGID_14_);}
	.st15{fill:url(#SVGID_15_);}
	.st16{fill:url(#SVGID_16_);}
</style>
<g>
	<g>
		<linearGradient id="SVGID_1_" gradientUnits="userSpaceOnUse" x1="168.3788" y1="230.2636" x2="329.7123" y2="230.2636">
			<stop  offset="0" style="stop-color:#FFFFFF"/>
			<stop  offset="1" style="stop-color:#8C8C8C"/>
		</linearGradient>
		<path class="st0" d="M310.4,197c0.1,6.7,4.4,9.8,9.8,7c5.3-2.9,9.6-10.6,9.6-17.3c-0.1-6.7-4.4-9.8-9.8-7
			C314.6,182.5,310.3,190.3,310.4,197z M310.1,252c0.1,6.7,4.4,9.8,9.8,7c5.3-2.9,9.6-10.6,9.6-17.3c-0.1-6.7-4.4-9.8-9.8-7
			C314.3,237.5,310,245.3,310.1,252z M289.6,235c0.1,6.7,4.4,9.8,9.8,7c5.3-2.9,9.6-10.6,9.6-17.3c-0.1-6.7-4.4-9.8-9.8-7
			C293.8,220.5,289.6,228.3,289.6,235z M268.2,218.9c0.1,6.7,4.4,9.8,9.8,7c5.3-2.9,9.6-10.6,9.6-17.3c-0.1-6.7-4.4-9.8-9.8-7
			C272.4,204.4,268.2,212.2,268.2,218.9z M267.9,273.9c0.1,6.7,4.4,9.8,9.8,7c5.3-2.9,9.6-10.6,9.6-17.3c-0.1-6.7-4.4-9.8-9.8-7
			C272.1,259.4,267.9,267.1,267.9,273.9z M267.9,273.9c0.1,6.7,4.4,9.8,9.8,7c5.3-2.9,9.6-10.6,9.6-17.3c-0.1-6.7-4.4-9.8-9.8-7
			C272.1,259.4,267.9,267.1,267.9,273.9z M268.2,218.9c0.1,6.7,4.4,9.8,9.8,7c5.3-2.9,9.6-10.6,9.6-17.3c-0.1-6.7-4.4-9.8-9.8-7
			C272.4,204.4,268.2,212.2,268.2,218.9z M289.6,235c0.1,6.7,4.4,9.8,9.8,7c5.3-2.9,9.6-10.6,9.6-17.3c-0.1-6.7-4.4-9.8-9.8-7
			C293.8,220.5,289.6,228.3,289.6,235z M310.1,252c0.1,6.7,4.4,9.8,9.8,7c5.3-2.9,9.6-10.6,9.6-17.3c-0.1-6.7-4.4-9.8-9.8-7
			C314.3,237.5,310,245.3,310.1,252z M310.4,197c0.1,6.7,4.4,9.8,9.8,7c5.3-2.9,9.6-10.6,9.6-17.3c-0.1-6.7-4.4-9.8-9.8-7
			C314.6,182.5,310.3,190.3,310.4,197z M310.4,197c0.1,6.7,4.4,9.8,9.8,7c5.3-2.9,9.6-10.6,9.6-17.3c-0.1-6.7-4.4-9.8-9.8-7
			C314.6,182.5,310.3,190.3,310.4,197z M310.1,252c0.1,6.7,4.4,9.8,9.8,7c5.3-2.9,9.6-10.6,9.6-17.3c-0.1-6.7-4.4-9.8-9.8-7
			C314.3,237.5,310,245.3,310.1,252z M289.6,235c0.1,6.7,4.4,9.8,9.8,7c5.3-2.9,9.6-10.6,9.6-17.3c-0.1-6.7-4.4-9.8-9.8-7
			C293.8,220.5,289.6,228.3,289.6,235z M268.2,218.9c0.1,6.7,4.4,9.8,9.8,7c5.3-2.9,9.6-10.6,9.6-17.3c-0.1-6.7-4.4-9.8-9.8-7
			C272.4,204.4,268.2,212.2,268.2,218.9z M267.9,273.9c0.1,6.7,4.4,9.8,9.8,7c5.3-2.9,9.6-10.6,9.6-17.3c-0.1-6.7-4.4-9.8-9.8-7
			C272.1,259.4,267.9,267.1,267.9,273.9z M211.5,211.2c0.1,6.6,4.6,14.8,10,18.3c5.5,3.5,9.8,0.9,9.7-5.8c-0.1-6.6-4.6-14.8-10-18.3
			C215.8,202,211.5,204.6,211.5,211.2z M190,224c0.1,6.6,4.6,14.8,10,18.3c5.5,3.5,9.8,0.9,9.7-5.8c-0.1-6.6-4.6-14.8-10-18.3
			C194.2,214.8,189.9,217.3,190,224z M168.4,236.8c0.1,6.6,4.6,14.8,10,18.3c5.5,3.5,9.8,0.9,9.7-5.8c-0.1-6.6-4.6-14.8-10-18.3
			C172.7,227.5,168.3,230.1,168.4,236.8z M168.4,236.8c0.1,6.6,4.6,14.8,10,18.3c5.5,3.5,9.8,0.9,9.7-5.8c-0.1-6.6-4.6-14.8-10-18.3
			C172.7,227.5,168.3,230.1,168.4,236.8z M190,224c0.1,6.6,4.6,14.8,10,18.3c5.5,3.5,9.8,0.9,9.7-5.8c-0.1-6.6-4.6-14.8-10-18.3
			C194.2,214.8,189.9,217.3,190,224z M211.5,211.2c0.1,6.6,4.6,14.8,10,18.3c5.5,3.5,9.8,0.9,9.7-5.8c-0.1-6.6-4.6-14.8-10-18.3
			C215.8,202,211.5,204.6,211.5,211.2z M267.9,273.9c0.1,6.7,4.4,9.8,9.8,7c5.3-2.9,9.6-10.6,9.6-17.3c-0.1-6.7-4.4-9.8-9.8-7
			C272.1,259.4,267.9,267.1,267.9,273.9z M287.5,208.6c-0.1-6.7-4.4-9.8-9.8-7c-5.3,2.9-9.6,10.6-9.6,17.3c0.1,6.7,4.4,9.8,9.8,7
			C283.3,223,287.6,215.3,287.5,208.6z M289.6,235c0.1,6.7,4.4,9.8,9.8,7c5.3-2.9,9.6-10.6,9.6-17.3c-0.1-6.7-4.4-9.8-9.8-7
			C293.8,220.5,289.6,228.3,289.6,235z M310.1,252c0.1,6.7,4.4,9.8,9.8,7c5.3-2.9,9.6-10.6,9.6-17.3c-0.1-6.7-4.4-9.8-9.8-7
			C314.3,237.5,310,245.3,310.1,252z M329.7,186.7c-0.1-6.7-4.4-9.8-9.8-7c-5.3,2.9-9.6,10.6-9.6,17.3c0.1,6.7,4.4,9.8,9.8,7
			C325.5,201.1,329.8,193.4,329.7,186.7z M168.4,236.8c0.1,6.6,4.6,14.8,10,18.3c5.5,3.5,9.8,0.9,9.7-5.8c-0.1-6.6-4.6-14.8-10-18.3
			C172.7,227.5,168.3,230.1,168.4,236.8z M190,224c0.1,6.6,4.6,14.8,10,18.3c5.5,3.5,9.8,0.9,9.7-5.8c-0.1-6.6-4.6-14.8-10-18.3
			C194.2,214.8,189.9,217.3,190,224z M211.5,211.2c0.1,6.6,4.6,14.8,10,18.3c5.5,3.5,9.8,0.9,9.7-5.8c-0.1-6.6-4.6-14.8-10-18.3
			C215.8,202,211.5,204.6,211.5,211.2z M267.9,273.9c0.1,6.7,4.4,9.8,9.8,7c5.3-2.9,9.6-10.6,9.6-17.3c-0.1-6.7-4.4-9.8-9.8-7
			C272.1,259.4,267.9,267.1,267.9,273.9z M287.5,208.6c-0.1-6.7-4.4-9.8-9.8-7c-5.3,2.9-9.6,10.6-9.6,17.3c0.1,6.7,4.4,9.8,9.8,7
			C283.3,223,287.6,215.3,287.5,208.6z M289.6,235c0.1,6.7,4.4,9.8,9.8,7c5.3-2.9,9.6-10.6,9.6-17.3c-0.1-6.7-4.4-9.8-9.8-7
			C293.8,220.5,289.6,228.3,289.6,235z M310.1,252c0.1,6.7,4.4,9.8,9.8,7c5.3-2.9,9.6-10.6,9.6-17.3c-0.1-6.7-4.4-9.8-9.8-7
			C314.3,237.5,310,245.3,310.1,252z M329.7,186.7c-0.1-6.7-4.4-9.8-9.8-7c-5.3,2.9-9.6,10.6-9.6,17.3c0.1,6.7,4.4,9.8,9.8,7
			C325.5,201.1,329.8,193.4,329.7,186.7z M310.4,197c0.1,6.7,4.4,9.8,9.8,7c5.3-2.9,9.6-10.6,9.6-17.3c-0.1-6.7-4.4-9.8-9.8-7
			C314.6,182.5,310.3,190.3,310.4,197z M310.1,252c0.1,6.7,4.4,9.8,9.8,7c5.3-2.9,9.6-10.6,9.6-17.3c-0.1-6.7-4.4-9.8-9.8-7
			C314.3,237.5,310,245.3,310.1,252z M289.6,235c0.1,6.7,4.4,9.8,9.8,7c5.3-2.9,9.6-10.6,9.6-17.3c-0.1-6.7-4.4-9.8-9.8-7
			C293.8,220.5,289.6,228.3,289.6,235z M268.2,218.9c0.1,6.7,4.4,9.8,9.8,7c5.3-2.9,9.6-10.6,9.6-17.3c-0.1-6.7-4.4-9.8-9.8-7
			C272.4,204.4,268.2,212.2,268.2,218.9z M267.9,273.9c0.1,6.7,4.4,9.8,9.8,7c5.3-2.9,9.6-10.6,9.6-17.3c-0.1-6.7-4.4-9.8-9.8-7
			C272.1,259.4,267.9,267.1,267.9,273.9z M211.5,211.2c0.1,6.6,4.6,14.8,10,18.3c5.5,3.5,9.8,0.9,9.7-5.8c-0.1-6.6-4.6-14.8-10-18.3
			C215.8,202,211.5,204.6,211.5,211.2z M190,224c0.1,6.6,4.6,14.8,10,18.3c5.5,3.5,9.8,0.9,9.7-5.8c-0.1-6.6-4.6-14.8-10-18.3
			C194.2,214.8,189.9,217.3,190,224z M168.4,236.8c0.1,6.6,4.6,14.8,10,18.3c5.5,3.5,9.8,0.9,9.7-5.8c-0.1-6.6-4.6-14.8-10-18.3
			C172.7,227.5,168.3,230.1,168.4,236.8z M168.4,236.8c0.1,6.6,4.6,14.8,10,18.3c5.5,3.5,9.8,0.9,9.7-5.8c-0.1-6.6-4.6-14.8-10-18.3
			C172.7,227.5,168.3,230.1,168.4,236.8z M190,224c0.1,6.6,4.6,14.8,10,18.3c5.5,3.5,9.8,0.9,9.7-5.8c-0.1-6.6-4.6-14.8-10-18.3
			C194.2,214.8,189.9,217.3,190,224z M211.5,211.2c0.1,6.6,4.6,14.8,10,18.3c5.5,3.5,9.8,0.9,9.7-5.8c-0.1-6.6-4.6-14.8-10-18.3
			C215.8,202,211.5,204.6,211.5,211.2z M267.9,273.9c0.1,6.7,4.4,9.8,9.8,7c5.3-2.9,9.6-10.6,9.6-17.3c-0.1-6.7-4.4-9.8-9.8-7
			C272.1,259.4,267.9,267.1,267.9,273.9z M268.2,218.9c0.1,6.7,4.4,9.8,9.8,7c5.3-2.9,9.6-10.6,9.6-17.3c-0.1-6.7-4.4-9.8-9.8-7
			C272.4,204.4,268.2,212.2,268.2,218.9z M289.6,235c0.1,6.7,4.4,9.8,9.8,7c5.3-2.9,9.6-10.6,9.6-17.3c-0.1-6.7-4.4-9.8-9.8-7
			C293.8,220.5,289.6,228.3,289.6,235z M310.1,252c0.1,6.7,4.4,9.8,9.8,7c5.3-2.9,9.6-10.6,9.6-17.3c-0.1-6.7-4.4-9.8-9.8-7
			C314.3,237.5,310,245.3,310.1,252z M310.4,197c0.1,6.7,4.4,9.8,9.8,7c5.3-2.9,9.6-10.6,9.6-17.3c-0.1-6.7-4.4-9.8-9.8-7
			C314.6,182.5,310.3,190.3,310.4,197z"/>
		<g>
			<linearGradient id="SVGID_2_" gradientUnits="userSpaceOnUse" x1="231.5911" y1="146.9787" x2="268.7558" y2="146.9787">
				<stop  offset="0" style="stop-color:#FFFFFF"/>
				<stop  offset="1" style="stop-color:#8C8C8C"/>
			</linearGradient>
			<path class="st1" d="M237.7,153.8c7.1,3.3,17.9,3.3,25,0c8.1-3.8,8.1-9.9,0-13.6c-7.1-3.3-17.9-3.3-25,0
				C229.6,143.9,229.6,150,237.7,153.8z"/>
			<linearGradient id="SVGID_3_" gradientUnits="userSpaceOnUse" x1="122.3555" y1="207.5024" x2="377.9922" y2="207.5024">
				<stop  offset="0" style="stop-color:#FFFFFF"/>
				<stop  offset="1" style="stop-color:#8C8C8C"/>
			</linearGradient>
			<path class="st2" d="M122.4,207.5c0,17.3,3.4,34,10,49.8c6.4,15.2,15.7,28.9,27.4,40.6c11.7,11.7,25.4,21,40.6,27.4
				c15.8,6.7,32.5,10,49.7,10c17.3,0,34-3.4,49.8-10c15.2-6.4,28.9-15.7,40.6-27.4c11.7-11.7,21-25.4,27.4-40.6
				c6.7-15.8,10-32.5,10-49.8c0-17.3-3.4-34-10-49.7c-6.4-15.2-15.7-28.9-27.4-40.6c-11.7-11.7-25.4-21-40.6-27.4
				c-15.8-6.7-32.5-10-49.8-10c-17.3,0-34,3.4-49.7,10c-15.2,6.4-28.9,15.7-40.6,27.4c-11.7,11.7-21,25.4-27.4,40.6
				C125.7,173.5,122.4,190.2,122.4,207.5z M342.7,256.5l-88.3,51V205.3l88.3-50.5V256.5z M250.2,198.3l-88.5-51.1l88.5-37.1
				l88.9,37.3L250.2,198.3z M246.4,307.7l-88.7-51.2V154.2l88.7,51.3V307.7z"/>
		</g>
	</g>
	<g>
		<g>
			<path class="st3" d="M404.8,238.8c0,8.6,7,15.6,15.6,15.6h15.6v-9.3h-15.6v-8.7h24.3v26.6h-24.3c-13.4,0-24.3-10.9-24.3-24.3
				c0-13.4,10.9-24.3,24.3-24.3h24.3v8.7h-24.3C411.8,223.2,404.8,230.2,404.8,238.8z"/>
			<path class="st3" d="M504.1,263.1h-9.7l-4.4-8.7l-10.6-20.8l-10.6,20.8l-4.4,8.7h-9.7l4.4-8.7l20.3-39.9l20.3,39.9L504.1,263.1z"
				/>
			<path class="st3" d="M562.6,214.5v48.6h-8.7v-30.9l-8.5,6.5l-7.1,5.5l-7.1-5.5l-8.5-6.5v30.9H514v-48.6l8.7,6.7l15.6,12l15.6-12
				L562.6,214.5z"/>
			<path class="st3" d="M574.2,263.1v-48.6h8.7v48.6H574.2z"/>
			<path class="st3" d="M644.1,214.5v48.6l-8.7-6.7l-31.2-24.1v30.8h-8.7v-48.4l8.7,6.7l31.2,24.1v-30.9H644.1z"/>
			<path class="st3" d="M665.3,238.8c0,8.6,7,15.6,15.6,15.6h15.6v-9.3h-15.6v-8.7h24.3v26.6h-24.3c-13.4,0-24.3-10.9-24.3-24.3
				c0-13.4,10.9-24.3,24.3-24.3h24.3v8.7h-24.3C672.3,223.2,665.3,230.2,665.3,238.8z"/>
		</g>
		<g>
			<linearGradient id="SVGID_4_" gradientUnits="userSpaceOnUse" x1="396.1513" y1="297.1135" x2="405.7563" y2="297.1135">
				<stop  offset="0" style="stop-color:#FFFFFF"/>
				<stop  offset="1" style="stop-color:#8C8C8C"/>
			</linearGradient>
			<path class="st4" d="M396.2,285.6h3.6v19.8h6v3.3h-9.6V285.6z"/>
			<linearGradient id="SVGID_5_" gradientUnits="userSpaceOnUse" x1="417.2407" y1="297.1135" x2="420.8714" y2="297.1135">
				<stop  offset="0" style="stop-color:#FFFFFF"/>
				<stop  offset="1" style="stop-color:#8C8C8C"/>
			</linearGradient>
			<path class="st5" d="M417.2,285.6h3.6v23.1h-3.6V285.6z"/>
			<linearGradient id="SVGID_6_" gradientUnits="userSpaceOnUse" x1="432.4559" y1="297.1135" x2="444.9986" y2="297.1135">
				<stop  offset="0" style="stop-color:#FFFFFF"/>
				<stop  offset="1" style="stop-color:#8C8C8C"/>
			</linearGradient>
			<path class="st6" d="M438.9,304.4L438.9,304.4l2.8-18.8h3.3l-3.6,23.1H436l-3.6-23.1h3.7L438.9,304.4z"/>
			<linearGradient id="SVGID_7_" gradientUnits="userSpaceOnUse" x1="456.5818" y1="297.1135" x2="466.4842" y2="297.1135">
				<stop  offset="0" style="stop-color:#FFFFFF"/>
				<stop  offset="1" style="stop-color:#8C8C8C"/>
			</linearGradient>
			<path class="st7" d="M460.2,295.3h5v3.3h-5v6.8h6.3v3.3h-9.9v-23.1h9.9v3.3h-6.3V295.3z"/>
			<linearGradient id="SVGID_8_" gradientUnits="userSpaceOnUse" x1="492.6897" y1="297.1135" x2="505.3976" y2="297.1135">
				<stop  offset="0" style="stop-color:#FFFFFF"/>
				<stop  offset="1" style="stop-color:#8C8C8C"/>
			</linearGradient>
			<path class="st8" d="M505.4,308.7h-3.7l-0.6-4.2h-4.5l-0.6,4.2h-3.3l3.7-23.1h5.3L505.4,308.7z M497.1,301.3h3.5l-1.7-11.7h-0.1
				L497.1,301.3z"/>
			<linearGradient id="SVGID_9_" gradientUnits="userSpaceOnUse" x1="514.6708" y1="297.1135" x2="525.8934" y2="297.1135">
				<stop  offset="0" style="stop-color:#FFFFFF"/>
				<stop  offset="1" style="stop-color:#8C8C8C"/>
			</linearGradient>
			<path class="st9" d="M514.7,285.6h11.2v3.3h-3.8v19.8h-3.6v-19.8h-3.8V285.6z"/>
			<linearGradient id="SVGID_10_" gradientUnits="userSpaceOnUse" x1="552.395" y1="297.1135" x2="556.0257" y2="297.1135">
				<stop  offset="0" style="stop-color:#FFFFFF"/>
				<stop  offset="1" style="stop-color:#8C8C8C"/>
			</linearGradient>
			<path class="st10" d="M552.4,285.6h3.6v23.1h-3.6V285.6z"/>
			<linearGradient id="SVGID_11_" gradientUnits="userSpaceOnUse" x1="567.5108" y1="297.1135" x2="578.7334" y2="297.1135">
				<stop  offset="0" style="stop-color:#FFFFFF"/>
				<stop  offset="1" style="stop-color:#8C8C8C"/>
			</linearGradient>
			<path class="st11" d="M567.5,285.6h11.2v3.3h-3.8v19.8h-3.6v-19.8h-3.8V285.6z"/>
			<linearGradient id="SVGID_12_" gradientUnits="userSpaceOnUse" x1="589.6571" y1="297.1132" x2="600.4835" y2="297.1132">
				<stop  offset="0" style="stop-color:#FFFFFF"/>
				<stop  offset="1" style="stop-color:#8C8C8C"/>
			</linearGradient>
			<path class="st12" d="M595.1,285.3c3.5,0,5.3,2.1,5.3,5.8v0.7H597v-1c0-1.7-0.7-2.3-1.8-2.3c-1.2,0-1.8,0.6-1.8,2.3
				c0,1.7,0.7,2.9,3.1,5c3,2.7,4,4.6,4,7.2c0,3.7-1.8,5.8-5.4,5.8c-3.6,0-5.4-2.1-5.4-5.8v-1.4h3.4v1.7c0,1.7,0.7,2.2,1.9,2.2
				c1.2,0,1.9-0.6,1.9-2.2c0-1.7-0.7-2.9-3.1-5c-3-2.7-4-4.6-4-7.2C589.8,287.4,591.6,285.3,595.1,285.3z"/>
			<linearGradient id="SVGID_13_" gradientUnits="userSpaceOnUse" x1="627.48" y1="297.1135" x2="638.7026" y2="297.1135">
				<stop  offset="0" style="stop-color:#FFFFFF"/>
				<stop  offset="1" style="stop-color:#8C8C8C"/>
			</linearGradient>
			<path class="st13" d="M638.3,290.9v0.8c0,2.4-0.7,3.9-2.3,4.6v0.1c1.9,0.8,2.7,2.5,2.7,4.9v1.9c0,3.6-1.9,5.5-5.5,5.5h-5.7v-23.1
				h5.5C636.7,285.6,638.3,287.3,638.3,290.9z M631.1,288.9v6.1h1.4c1.4,0,2.2-0.6,2.2-2.4v-1.3c0-1.7-0.6-2.4-1.8-2.4H631.1z
				 M631.1,298.3v7.1h2.1c1.2,0,1.9-0.6,1.9-2.3v-2c0-2.1-0.7-2.8-2.3-2.8H631.1z"/>
			<linearGradient id="SVGID_14_" gradientUnits="userSpaceOnUse" x1="650.7813" y1="297.1135" x2="660.6837" y2="297.1135">
				<stop  offset="0" style="stop-color:#FFFFFF"/>
				<stop  offset="1" style="stop-color:#8C8C8C"/>
			</linearGradient>
			<path class="st14" d="M654.4,295.3h5v3.3h-5v6.8h6.3v3.3h-9.9v-23.1h9.9v3.3h-6.3V295.3z"/>
			<linearGradient id="SVGID_15_" gradientUnits="userSpaceOnUse" x1="672.2675" y1="297.1132" x2="683.0939" y2="297.1132">
				<stop  offset="0" style="stop-color:#FFFFFF"/>
				<stop  offset="1" style="stop-color:#8C8C8C"/>
			</linearGradient>
			<path class="st15" d="M677.7,285.3c3.5,0,5.3,2.1,5.3,5.8v0.7h-3.4v-1c0-1.7-0.7-2.3-1.8-2.3c-1.2,0-1.8,0.6-1.8,2.3
				c0,1.7,0.7,2.9,3.1,5c3,2.7,4,4.6,4,7.2c0,3.7-1.8,5.8-5.4,5.8c-3.6,0-5.4-2.1-5.4-5.8v-1.4h3.4v1.7c0,1.7,0.7,2.2,1.9,2.2
				c1.2,0,1.9-0.6,1.9-2.2c0-1.7-0.7-2.9-3.1-5c-3-2.7-4-4.6-4-7.2C672.4,287.4,674.2,285.3,677.7,285.3z"/>
			<linearGradient id="SVGID_16_" gradientUnits="userSpaceOnUse" x1="694.017" y1="297.1135" x2="705.2396" y2="297.1135">
				<stop  offset="0" style="stop-color:#FFFFFF"/>
				<stop  offset="1" style="stop-color:#8C8C8C"/>
			</linearGradient>
			<path class="st16" d="M694,285.6h11.2v3.3h-3.8v19.8h-3.6v-19.8H694V285.6z"/>
		</g>
		<g>
			<polygon class="st3" points="394.6,122.5 386.2,106.1 404,106.1 412.9,123.4 435.6,170.1 458.4,123.4 467.2,106.1 485.1,106.1 
				476.7,122.5 435.6,203.1 			"/>
			<rect x="492.1" y="106.1" class="st3" width="15.9" height="98.1"/>
			<polygon class="st3" points="523.4,122.5 515,106.1 532.8,106.1 541.7,123.4 564.5,170.1 587.2,123.4 596.1,106.1 613.9,106.1 
				605.5,122.5 564.5,203.1 			"/>
			<path class="st3" d="M666.4,204.2c-27.1,0-49.1-22-49.1-49.1c0-27.1,22-49.1,49.1-49.1c27.1,0,49.1,22,49.1,49.1
				C715.5,182.2,693.5,204.2,666.4,204.2z M666.4,121.9c-18.3,0-33.2,14.9-33.2,33.2s14.9,33.2,33.2,33.2
				c18.3,0,33.2-14.9,33.2-33.2S684.7,121.9,666.4,121.9z"/>
		</g>
	</g>
</g>
</svg>
