<svg xmlns="http://www.w3.org/2000/svg" width="353.81" height="130.52" viewBox="0 0 353.81 130.52">
  <defs>
    <style>
      .cls-1 {
        fill: #fff;
      }
    </style>
  </defs>
  <title>yandex_white</title>
  <g id="Layer_2" data-name="Layer 2">
    <g id="Layer_1-2" data-name="Layer 1">
      <g id="Layer_2-2" data-name="Layer 2">
        <g id="LOGO">
          <g id="_Group_" data-name=" Group ">
            <path id="_Compound_Path_" data-name=" Compound Path " class="cls-1" d="M28,129.37v-42L0,12.13H14.1l20.66,58L58.54,0h13L41,87.89v41.48Z"/>
            <path id="_Compound_Path_2" data-name=" Compound Path 2" class="cls-1" d="M111.17,129.37H100.35a39,39,0,0,1-1.15-6.56h-.82c-3.61,4.59-8.2,7.71-15.41,7.71-11.81,0-19.84-8.85-19.84-25.09,0-17.71,9-28.86,32.14-28.86h1.8V71.66c0-10.82-3.61-15.41-10.82-15.41-6.56,0-12.13,3.44-16.4,7.21L67.39,52.14C71.16,49,78.7,45.58,87.07,45.58c14.59,0,22.63,6.23,22.63,26.24v38.86A118.92,118.92,0,0,0,111.17,129.37ZM97.07,86.25H95.6c-15.91,0-19.35,7.05-19.35,17.71,0,9.51,3.12,15.74,9.67,15.74,4.43,0,8.85-3,11.15-6.56Zm41.32,43.12H125.6V46.57h12.79v7.21h.82c2.3-3.12,8.53-8.2,16.23-8.2,10.82,0,16.56,6.07,16.56,18.69v65.1H159V65.42c0-6.23-2.79-8.36-7.71-8.36-5.41,0-10,4.1-13,8.2Zm46.24-38.21c0-30.66,11.48-45.58,28-45.58a18.92,18.92,0,0,1,10.49,3.12V12.13H236V129.37h-9.51l-1-6.56h-.82c-3.61,4.59-8.2,7.71-14.92,7.71-16.26,0-25.12-13.77-25.12-39.35ZM223.16,60a12.48,12.48,0,0,0-9.67-3.93c-10.33,0-15.25,15.58-15.25,32.47,0,19.35,3.61,31.16,13,31.16a13.28,13.28,0,0,0,12-6.4Zm53.13,70.51c-17,0-27.55-13.61-27.55-39,0-26.56,7.38-45.91,24.92-45.91,13.77,0,22.79,10.33,22.79,38.37v7H262c0,18.69,5.25,28.53,15.41,28.53,7.21,0,12.46-3.28,15.74-5.58l3,9.84a31.11,31.11,0,0,1-19.86,6.73Zm-14.1-50h21.15c0-14.1-2.3-24.43-9.67-24.43C265.8,56.08,263,65.75,262.19,80.51ZM352,46.73l-15.41,38.7,17.22,43.94H340.57l-12.79-34.1-12.46,34.11H302.69l17.22-42.8L304.33,46.73h13.28l10.66,30,11.31-30Z"/>
          </g>
        </g>
      </g>
    </g>
  </g>
</svg>
