<?xml version="1.0" encoding="UTF-8"?>
<svg width="586px" height="384px" viewBox="0 0 586 384" version="1.1" xmlns="http://www.w3.org/2000/svg" xmlns:xlink="http://www.w3.org/1999/xlink">
    <!-- Generator: Sketch 48.2 (47327) - http://www.bohemiancoding.com/sketch -->
    <title>white</title>
    <desc>Created with Sketch.</desc>
    <defs></defs>
    <g id="Page-1" stroke="none" stroke-width="1" fill="none" fill-rule="evenodd">
        <g id="white" transform="translate(-0.004036, -0.769215)" fill="#FFFFFF">
            <g id="Group-3" transform="translate(150.000000, 0.104000)">
                <path d="M102.8083,57.2585 C100.2833,50.0835 97.8223,43.0295 95.8463,35.8215 C93.8173,28.4185 92.2993,20.9115 91.1563,13.3305 C90.5203,9.1095 90.6163,8.9855 94.6693,7.5745 C102.8663,4.7235 111.2273,2.4815 119.8163,1.1705 C123.7923,0.5635 123.9893,0.6925 124.5283,4.7665 C126.7973,21.9155 131.6043,38.3185 138.9163,53.9835 C139.7443,55.7555 140.1913,58.6475 142.0943,58.7395 C144.5133,58.8565 144.8283,55.7905 145.6983,53.9385 C152.9783,38.4445 157.7583,22.2055 159.9563,5.2165 C160.5503,0.6285 160.6803,0.5195 165.3003,1.2045 C173.9023,2.4815 182.2183,4.9115 190.4223,7.7115 C194.1583,8.9855 194.0873,9.1405 193.5003,13.1995 C191.5363,26.7745 188.0113,39.9445 183.3583,52.8335 C182.8353,54.2835 181.2393,56.0115 182.8023,57.3805 C184.0343,58.4575 185.6103,57.0595 186.9363,56.5085 C200.3393,50.9405 212.0643,42.8595 222.3903,32.7015 C222.8663,32.2345 223.3343,31.7605 223.8083,31.2915 C227.5883,27.5455 227.5773,27.5595 231.7983,31.0795 C238.0773,36.3135 244.1053,41.8095 249.3703,48.0835 C252.0303,51.2535 252.0013,51.3055 249.2523,54.1845 C229.1493,75.2335 204.8803,89.0535 176.6483,95.9875 C175.3533,96.3045 174.0363,96.5445 172.7623,96.9285 C169.7103,97.8515 169.4963,98.5085 171.8323,100.8935 C179.5563,108.7725 188.0873,115.6945 197.2683,121.8005 C200.1313,123.7045 200.2383,123.6295 203.5793,120.5065 C217.7043,107.3015 233.6413,96.8085 251.2203,88.8275 C256.3713,86.4885 261.6813,84.4825 266.9893,82.5165 C270.5883,81.1835 271.1873,81.4935 272.6703,85.0715 C275.9913,93.0855 278.8333,101.2645 280.6523,109.7675 C281.4693,113.5895 281.4193,113.7735 277.5283,115.1485 C269.0203,118.1565 260.8433,121.8555 253.0403,126.3945 C247.9933,129.3295 243.1333,132.5445 238.4483,136.0185 C237.1513,136.9805 235.0773,137.7675 235.2903,139.5555 C235.5573,141.7825 238.0653,141.6215 239.6893,142.1365 C251.6443,145.9225 263.8833,148.2945 276.3933,149.2565 C285.8083,149.9815 283.9793,149.6825 283.2343,157.6705 C282.5373,165.1395 281.0853,172.5065 278.9673,179.7165 C277.8383,183.5575 277.7313,183.7045 273.7463,183.4145 C260.0783,182.4185 246.6623,179.9725 233.5093,176.1135 C200.2033,166.3425 171.3963,149.0135 146.8473,124.5235 C142.0473,119.7355 142.9293,119.2055 137.7733,124.4015 C111.7063,150.6655 80.7473,168.4905 44.9463,177.8355 C34.1333,180.6575 23.1293,182.5205 11.9803,183.3755 C6.8403,183.7695 6.9123,183.6265 5.4683,178.8235 C3.1533,171.1265 1.9993,163.2225 1.0983,155.2725 C0.4983,149.9765 0.6003,149.8005 6.2063,149.4075 C18.3873,148.5555 30.3483,146.5295 42.0513,143.0315 C44.1253,142.4115 46.1833,141.7345 48.2243,141.0135 C49.9873,140.3895 50.1883,139.2255 48.8203,138.0635 C46.9183,136.4505 44.9213,134.9345 42.8653,133.5235 C31.8233,125.9475 20.1003,119.6855 7.4233,115.2705 C3.0163,113.7355 2.9773,113.6685 4.0203,109.2455 C5.9353,101.1235 8.3823,93.1725 11.7853,85.5315 C13.6793,81.2805 13.7463,81.1725 18.0753,82.6685 C32.4803,87.6475 45.9923,94.4165 58.6893,102.8515 C66.7603,108.2135 74.2643,114.2735 81.4403,120.7615 C84.6253,123.6425 84.6223,123.5955 88.1603,121.2345 C96.3593,115.7605 103.9623,109.5625 110.9463,102.6045 C111.7713,101.7815 112.6233,100.9765 113.3643,100.0815 C114.5413,98.6575 114.0083,97.6295 112.4283,97.0575 C111.4933,96.7185 110.5043,96.5255 109.5313,96.3005 C80.8333,89.6915 56.2523,75.7825 35.7223,54.6875 C35.2573,54.2095 34.8013,53.7235 34.3313,53.2515 C33.0913,52.0015 32.8553,50.7295 34.1123,49.3145 C40.6543,41.9485 47.6583,35.0725 55.4183,28.9815 C57.0183,27.7255 58.1093,28.4555 59.2673,29.6485 C63.2153,33.7145 67.3063,37.6205 71.7603,41.1465 C80.1793,47.8125 89.3303,53.1985 99.3073,57.1705 C100.1943,57.5245 101.1083,58.0915 102.8083,57.2585" id="Fill-1"></path>
            </g>
            <path d="M291.8406,282.9748 C287.6796,282.9748 283.5096,283.1468 279.3606,282.9228 C275.6856,282.7258 275.1636,282.0368 275.1516,278.2778 C275.1076,265.6208 274.9976,252.9608 275.2066,240.3078 C275.2736,236.2208 274.1006,233.0378 271.6046,229.8298 C257.8076,212.0978 244.1806,194.2318 230.5286,176.3868 C227.0386,171.8238 227.0986,171.7908 232.4216,169.2308 C239.3286,165.9098 246.0956,162.3388 252.5956,158.2598 C257.5146,155.1738 257.5466,155.2348 260.9456,159.6718 C270.1576,171.6958 279.3706,183.7188 288.5906,195.7358 C292.2786,200.5438 292.3766,200.5328 295.9566,195.8558 C305.3676,183.5618 314.7786,171.2678 324.2026,158.9838 C327.0826,155.2298 327.1436,155.1808 330.9776,157.5938 C338.3166,162.2128 345.9676,166.2358 353.7986,169.9458 C357.2036,171.5588 357.3066,172.0758 355.0246,175.0658 C340.8816,193.5908 326.7646,212.1348 312.4796,230.5478 C310.2916,233.3688 309.3256,236.1488 309.3616,239.6658 C309.4946,252.3218 309.4226,264.9798 309.4046,277.6358 C309.3986,282.1998 309.2446,282.5808 304.8146,282.8798 C300.5086,283.1708 296.1666,282.9438 291.8416,282.9438 C291.8416,282.9538 291.8406,282.9638 291.8406,282.9748" id="Fill-4"></path>
            <path d="M119.134,364.3615 C119.134,367.3585 119.048,370.3585 119.168,373.3505 C119.236,375.0475 118.583,376.2125 117.306,377.1795 C105.92,385.8125 90.198,385.9375 80.621,379.9645 C71.541,374.3005 67.939,365.8885 68.133,355.4515 C68.467,337.3825 84.496,326.5885 100.283,328.6475 C105.875,329.3775 110.959,331.0035 115.516,334.3185 C117.039,335.4265 117.382,336.5495 115.966,337.9785 C115.499,338.4495 115.135,339.0205 114.681,339.5065 C113.102,341.1925 112.194,343.8525 109.956,344.4735 C107.777,345.0785 106.259,342.6455 104.357,341.7195 C98.091,338.6675 90.671,339.4425 86.197,343.7565 C80.706,349.0505 79.249,357.0495 82.514,363.9685 C85.412,370.1095 91.329,373.3645 98.46,372.7575 C100.803,372.5575 103.066,372.0705 105.196,371.0455 C106.455,370.4395 107.28,369.6515 107.478,368.0875 C108.034,363.6725 107.412,362.8815 102.959,362.7795 C94.27,362.5805 95.739,364.3405 95.586,354.9315 C95.554,352.9855 95.812,351.8155 98.227,351.8715 C104.218,352.0115 110.215,351.9745 116.208,351.9015 C118.371,351.8745 119.178,352.7595 119.115,354.8725 C119.023,358.0325 119.092,361.1985 119.092,364.3615 L119.134,364.3615 Z" id="Fill-6"></path>
            <path d="M194.3713,364.1144 C194.3713,367.1134 194.2893,370.1154 194.4013,373.1094 C194.4713,374.9764 193.7153,376.1744 192.2873,377.3124 C182.7273,384.9364 167.1013,386.3204 156.3923,380.4044 C145.8563,374.5824 140.5593,361.0284 144.0733,348.8784 C148.0593,335.0924 160.7073,326.8804 175.0683,328.5614 C180.6573,329.2164 185.7553,330.8924 190.3353,334.1964 C192.1023,335.4704 192.3333,336.6914 190.7813,338.2434 C190.3113,338.7124 189.9363,339.2734 189.4963,339.7724 C188.0683,341.3894 186.9163,343.6234 185.1213,344.4464 C182.9873,345.4264 181.5083,342.7134 179.6263,341.8254 C173.0463,338.7234 164.6893,339.1594 159.6893,345.4824 C154.5463,351.9864 154.5223,361.1144 159.8693,367.6274 C164.1213,372.8054 173.6983,374.4564 180.1103,371.1154 C182.2143,370.0184 183.3783,365.9574 182.2303,363.7484 C181.8933,363.0994 181.3343,362.8094 180.6493,362.7734 C179.6523,362.7204 178.6423,362.8044 177.6573,362.6804 C175.4203,362.3984 172.3353,363.8974 171.1223,361.7844 C169.7743,359.4324 170.6823,356.2514 170.7233,353.4294 C170.7383,352.4174 171.4763,351.9834 172.3923,351.9774 C179.0543,351.9384 185.7163,351.9234 192.3793,351.9094 C193.8423,351.9064 194.4103,352.7104 194.3973,354.1204 C194.3673,357.4514 194.3873,360.7834 194.3873,364.1144 L194.3713,364.1144 Z" id="Fill-8"></path>
            <path d="M458.3298,328.8381 C464.9388,328.5181 470.5378,330.4421 475.7258,333.6611 C478.3958,335.3171 478.4328,335.6191 476.5218,338.3131 C475.0938,340.3271 474.2078,343.2651 471.9658,344.0281 C469.8488,344.7501 467.9928,342.0731 465.7838,341.4081 C463.8778,340.8341 462.0178,340.0861 460.0918,339.6021 C457.9088,339.0531 455.7478,339.4431 453.8238,340.5661 C450.7798,342.3431 450.7328,346.0671 453.8588,347.7331 C455.8848,348.8121 458.1928,349.3891 460.4128,350.0651 C464.5448,351.3211 468.7488,352.3171 472.5798,354.4551 C477.8018,357.3701 479.8968,361.7411 479.6968,367.6571 C479.4938,373.6481 477.3188,378.4031 471.9448,381.1741 C463.8568,385.3441 455.5318,384.6041 447.2868,381.5631 C444.1648,380.4111 441.2818,378.7281 438.6408,376.6601 C437.3248,375.6311 437.0628,374.6391 438.3648,373.3951 C439.0828,372.7081 439.6688,371.8861 440.3388,371.1481 C441.5618,369.8011 442.5718,367.9781 444.0978,367.2581 C446.0678,366.3291 447.0808,368.8511 448.6188,369.6761 C452.3628,371.6861 456.2198,372.9971 460.5008,372.9511 C462.0208,372.9361 463.4948,372.7411 464.8538,372.0421 C468.2978,370.2721 468.5188,366.6101 465.1978,364.6111 C462.3268,362.8841 458.9968,362.2781 455.8378,361.2711 C453.3088,360.4651 450.6958,359.8681 448.2458,358.8721 C442.8658,356.6831 439.6778,352.8111 439.3608,346.7781 C439.0208,340.2961 440.9238,334.9761 446.7388,331.5191 C450.4368,329.3201 454.4698,328.5531 458.3298,328.8381" id="Fill-10"></path>
            <path d="M0.0002,332.4894 C3.9082,331.6644 7.8962,332.2904 11.8362,332.0694 C13.7272,331.9634 14.3482,333.4824 15.1032,334.7304 C17.7712,339.1464 20.3782,340.7654 23.0242,345.1964 C23.8712,346.6134 24.7682,348.0004 25.6132,349.3544 C27.2872,349.3404 27.5352,348.0204 28.0902,347.1204 C31.1492,342.1624 34.2512,337.2254 37.1362,332.1664 C38.2462,330.2204 39.4722,329.1324 41.8032,329.2204 C45.1002,329.3464 48.4052,329.2534 51.5162,329.2534 C52.4792,331.0024 51.3662,331.8174 50.7972,332.7144 C45.5342,341.0064 40.2972,349.3154 34.9102,357.5264 C33.1082,360.2714 32.0972,363.0284 32.2692,366.3734 C32.4922,370.6914 32.3692,375.0304 32.3222,379.3594 C32.2822,383.0034 32.2352,383.0034 28.8042,383.1414 C20.1972,383.4884 19.6802,383.4484 20.3322,375.0984 C21.0342,366.1164 18.6222,361.4324 13.2902,354.3074 C9.0142,348.5944 5.5042,342.3044 1.7042,336.2404 C1.0172,335.1424 -0.0158,334.1724 0.0002,332.4894" id="Fill-12"></path>
            <path d="M546.2302,355.7804 C546.2302,348.2904 546.2032,340.7994 546.2412,333.3084 C546.2612,329.3614 546.3132,329.3614 549.9752,329.2714 C558.3982,329.0624 558.3952,329.0624 558.3992,337.5914 C558.4042,347.7444 558.3962,357.8974 558.4352,368.0514 C558.4492,371.8874 558.5012,371.9374 562.1892,371.9584 C568.6812,371.9954 575.1722,371.9284 581.6642,371.9754 C585.1342,372.0014 585.2252,372.0694 585.2012,375.6374 C585.1362,384.6714 586.1592,383.0834 577.9712,383.1514 C568.6512,383.2284 559.3302,383.1894 550.0082,383.1514 C546.2762,383.1354 546.2062,383.0764 546.1812,379.2484 C546.1312,371.4264 546.1672,363.6024 546.1672,355.7804 L546.2302,355.7804 Z" id="Fill-14"></path>
            <path d="M517.8796,356.133 C517.8836,363.799 517.9086,371.464 517.8726,379.129 C517.8536,383.083 517.8036,383.083 514.1536,383.169 C505.5166,383.375 505.4936,383.375 505.4786,374.572 C505.4536,361.075 505.4516,347.577 505.4656,334.08 C505.4706,329.321 505.5026,329.321 509.9696,329.27 C517.8756,329.179 517.8756,329.179 517.8756,337.137 C517.8756,343.469 517.8756,349.801 517.8796,356.133" id="Fill-16"></path>
            <path d="M323.5837,354.3254 C318.9377,356.0854 314.0787,355.0594 309.3107,355.1474 C308.0387,355.1714 307.8417,354.0344 307.8317,352.9964 C307.8127,351.1754 307.8257,349.3524 307.8257,347.0384 C307.9627,339.0394 306.5777,340.4364 315.2337,340.2844 C317.8927,340.2374 320.5367,340.3314 323.0947,341.1734 C326.0927,342.1594 327.8397,344.3094 328.0867,347.3054 C328.3307,350.2634 326.5637,353.1964 323.5837,354.3254 M329.5717,364.4454 C330.5707,363.7064 330.9347,363.3534 331.3647,363.1324 C338.8897,359.2614 341.6717,351.3124 340.0817,343.1224 C338.5467,335.2184 333.3787,330.8764 324.1807,329.7214 C315.3927,328.6174 306.5387,329.4824 297.7197,329.2404 C295.5027,329.1794 295.4487,330.6224 295.4507,332.2374 C295.4667,348.2344 295.4817,364.2314 295.4377,380.2274 C295.4327,382.2634 295.9687,383.3464 298.2427,383.1964 C300.3987,383.0544 302.5817,383.0454 304.7367,383.1994 C307.1697,383.3744 307.9667,382.3734 307.8727,380.0124 C307.7287,376.3504 307.8187,372.6804 307.8397,369.0144 C307.8447,368.0334 307.8507,367.0354 308.9947,366.5184 C311.8757,365.2194 316.6727,366.6164 318.5857,369.4014 C321.2277,373.2474 323.8317,377.1164 326.4447,380.9804 C327.1907,382.0824 327.8197,383.2124 329.4757,383.1814 C333.3837,383.1104 337.2927,383.1584 342.3477,383.1584 C337.7177,376.3774 333.7297,370.5354 329.5717,364.4454" id="Fill-18"></path>
            <path d="M257.3972,357.9103 C256.7272,366.1123 250.7622,371.5813 242.0492,371.9633 C241.0522,372.0073 240.0512,371.9693 239.0522,371.9693 C231.8242,371.9243 232.8152,372.7183 232.7612,365.5103 C232.7122,358.8503 232.7502,352.1903 232.7432,345.5303 C232.7362,339.5093 232.5812,340.2953 238.2452,340.3123 C240.2352,340.3193 242.2592,340.3663 244.2092,340.7203 C252.8402,342.2833 258.1072,349.2183 257.3972,357.9103 M247.2912,329.9113 C239.1782,328.5683 230.9922,329.5423 222.8452,329.2513 C220.6582,329.1733 220.5442,330.5773 220.5462,332.2043 C220.5712,348.1983 220.6192,364.1923 220.5422,380.1863 C220.5312,382.7413 221.6432,383.2783 223.8702,383.1893 C227.0302,383.0633 230.1992,383.1573 233.3652,383.1573 L233.3652,383.1393 C236.6972,383.1393 240.0412,383.3193 243.3582,383.1023 C251.8422,382.5483 259.4082,379.6923 264.6452,372.7043 C277.2082,355.9403 267.9782,333.3343 247.2912,329.9113" id="Fill-20"></path>
            <path d="M383.2273,360.1847 C385.4613,354.8007 387.4053,350.1187 389.7083,344.5657 C392.3923,350.1457 394.3133,354.9157 396.0403,360.1847 L383.2273,360.1847 Z M416.7663,378.9017 C410.5933,364.3447 404.4273,349.7857 398.2273,335.2417 C394.8913,327.4157 396.3033,329.3567 388.4653,328.9097 C385.2663,328.7267 383.7693,329.9737 382.5803,332.8257 C376.2383,348.0347 369.7103,363.1657 363.2563,378.3287 C362.6403,379.7787 361.7753,381.1937 362.0993,383.1757 C365.3103,383.1757 368.3003,383.0757 371.2793,383.2107 C373.2983,383.3027 374.3013,382.4387 374.9283,380.6147 C375.6843,378.4137 376.7053,376.3067 377.5243,374.1257 C378.2463,372.2057 379.3733,371.2057 381.5993,371.2567 C387.0923,371.3837 392.5913,371.3537 398.0873,371.2797 C400.0353,371.2527 401.1933,372.0107 401.8603,373.8177 C402.7253,376.1577 403.7013,378.4557 404.6523,380.7637 C405.1673,382.0157 405.7143,383.1837 407.4253,383.1557 C410.8743,383.0977 414.3263,383.1377 417.6483,383.1377 C418.1553,381.2107 417.2753,380.1007 416.7663,378.9017 Z" id="Fill-22"></path>
        </g>
    </g>
</svg>