<?xml version="1.0"?>
<svg xmlns="http://www.w3.org/2000/svg" xmlns:xlink="http://www.w3.org/1999/xlink" xmlns:svgjs="http://svgjs.com/svgjs" version="1.1" width="512" height="512" x="0" y="0" viewBox="0 0 512 512" style="enable-background:new 0 0 512 512" xml:space="preserve" class=""><g>
<g xmlns="http://www.w3.org/2000/svg">
	<g>
		<g>
			<path d="M432,0H80C35.817,0,0,35.817,0,80v256c0,44.183,35.817,80,80,80h313.44l91.2,91.36c3.02,2.995,7.107,4.665,11.36,4.64     c8.837,0,16-7.163,16-16V80C512,35.817,476.183,0,432,0z M480,457.44l-68.64-68.8c-3.019-2.995-7.107-4.665-11.36-4.64H80     c-26.51,0-48-21.49-48-48V80c0-26.51,21.49-48,48-48h352c26.51,0,48,21.49,48,48V457.44z" fill="#ffffff" data-original="#000000" style="" class=""/>
			<circle cx="256" cy="208" r="32" fill="#ffffff" data-original="#000000" style="" class=""/>
			<circle cx="368" cy="208" r="32" fill="#ffffff" data-original="#000000" style="" class=""/>
			<circle cx="144" cy="208" r="32" fill="#ffffff" data-original="#000000" style="" class=""/>
		</g>
	</g>
</g>
<g xmlns="http://www.w3.org/2000/svg">
</g>
<g xmlns="http://www.w3.org/2000/svg">
</g>
<g xmlns="http://www.w3.org/2000/svg">
</g>
<g xmlns="http://www.w3.org/2000/svg">
</g>
<g xmlns="http://www.w3.org/2000/svg">
</g>
<g xmlns="http://www.w3.org/2000/svg">
</g>
<g xmlns="http://www.w3.org/2000/svg">
</g>
<g xmlns="http://www.w3.org/2000/svg">
</g>
<g xmlns="http://www.w3.org/2000/svg">
</g>
<g xmlns="http://www.w3.org/2000/svg">
</g>
<g xmlns="http://www.w3.org/2000/svg">
</g>
<g xmlns="http://www.w3.org/2000/svg">
</g>
<g xmlns="http://www.w3.org/2000/svg">
</g>
<g xmlns="http://www.w3.org/2000/svg">
</g>
<g xmlns="http://www.w3.org/2000/svg">
</g>
</g></svg>
