<?xml version="1.0" encoding="utf-8"?>
<!-- Generator: Adobe Illustrator 16.0.0, SVG Export Plug-In . SVG Version: 6.00 Build 0)  -->
<!DOCTYPE svg PUBLIC "-//W3C//DTD SVG 1.1//EN" "http://www.w3.org/Graphics/SVG/1.1/DTD/svg11.dtd">
<svg version="1.1" id="Layer_1" xmlns="http://www.w3.org/2000/svg" xmlns:xlink="http://www.w3.org/1999/xlink" x="0px" y="0px"
	 width="26px" height="26px" viewBox="13 13 26 26" enable-background="new 13 13 26 26" xml:space="preserve">
<path id="Combined-Shape" fill="#FFFFFF" d="M37.917,13C38.515,13,39,13.485,39,14.083v23.834C39,38.515,38.515,39,37.917,39H14.083
	C13.485,39,13,38.515,13,37.917V14.083C13,13.485,13.485,13,14.083,13H37.917z M36.834,36.834v-1.625H15.167v1.625H36.834z
	 M36.834,33.042V18.958H15.167v14.084H36.834z M36.834,16.791v-1.625H15.167v1.625H36.834z M22.003,22.116
	c0.204,0.283,0.259,0.646,0.149,0.976l-2.167,6.5c-0.151,0.453-0.575,0.74-1.028,0.74c-0.113,0-0.229-0.018-0.343-0.055
	c-0.568-0.189-0.875-0.803-0.685-1.37l1.691-5.075h-1.747c-0.598,0-1.083-0.485-1.083-1.083s0.485-1.083,1.083-1.083h3.25
	C21.473,21.667,21.8,21.833,22.003,22.116z M28.504,22.116c0.203,0.283,0.259,0.646,0.148,0.976l-2.167,6.5
	c-0.151,0.453-0.574,0.74-1.028,0.74c-0.113,0-0.229-0.018-0.343-0.055c-0.567-0.189-0.874-0.803-0.685-1.37l1.691-5.075h-1.747
	c-0.598,0-1.083-0.485-1.083-1.083s0.485-1.083,1.083-1.083h3.25C27.973,21.667,28.3,21.833,28.504,22.116z M35.004,22.116
	c0.204,0.283,0.259,0.646,0.148,0.976l-2.166,6.5c-0.151,0.453-0.574,0.74-1.028,0.74c-0.113,0-0.229-0.018-0.343-0.055
	c-0.567-0.189-0.873-0.803-0.685-1.37l1.691-5.075h-1.747c-0.599,0-1.083-0.485-1.083-1.083s0.484-1.083,1.083-1.083h3.25
	C34.474,21.667,34.801,21.833,35.004,22.116z"/>
</svg>
