<?xml version="1.0" encoding="UTF-8"?>
<svg width="52px" height="52px" viewBox="0 0 52 52" version="1.1" xmlns="http://www.w3.org/2000/svg" xmlns:xlink="http://www.w3.org/1999/xlink">
    <!-- Generator: Sketch 54.1 (76490) - https://sketchapp.com -->
    <title>icon / payments</title>
    <desc>Created with Sketch.</desc>
    <g id="icon-/-payments" stroke="none" stroke-width="1" fill="none" fill-rule="evenodd">
        <path d="M46.6243125,28.1844281 C48.1941328,29.5105297 48.4554688,31.8206156 47.2269922,33.4580687 L41.0422422,41.790225 C39.3433438,44.0552797 36.6447344,45.4045844 33.8197969,45.4045844 L14.3982656,45.4045844 C14.3247891,45.4045844 14.2532031,45.3969359 14.1830781,45.3851625 C13.6564531,46.8956 12.2188047,47.9827094 10.5311641,47.9827094 L5.2890625,47.9827094 C4.57715625,47.9827094 4,47.4055531 4,46.6936469 L4,28.5610922 C4,27.8491859 4.57715625,27.2720297 5.2890625,27.2720297 L10.53125,27.2720297 C11.8355234,27.2720297 12.9903516,27.9218031 13.6910859,28.9140375 C14.2432344,28.4418109 14.8390391,28.0473578 15.4644922,27.7300766 C13.1284531,25.1414672 11.8203125,21.7862953 11.8203125,18.2487641 C11.8203125,10.4166781 18.1785703,3.98339686 25.9997422,3.98339686 C33.8415391,3.98339686 40.2651094,10.4345531 40.2651094,18.2487641 C40.2651094,22.0274359 38.7718594,25.5881703 36.0606172,28.2749203 C35.4655859,28.8645375 34.8282734,29.3956312 34.1559844,29.8657094 C35.7410156,30.0028656 37.0558594,31.0994281 37.5135625,32.5709359 L41.3022031,28.5037719 C42.7010938,27.0019281 45.0425469,26.8482719 46.6243125,28.1844281 Z M11.8202266,44.1156078 L11.8202266,31.1393031 C11.8202266,30.4285141 11.2419531,29.8502406 10.5311641,29.8502406 L6.578125,29.8502406 L6.578125,45.4046703 L10.5311641,45.4046703 C11.2419531,45.4046703 11.8202266,44.8263969 11.8202266,44.1156078 Z M14.3982656,18.24885 C14.3982656,21.544725 15.7871016,24.6483578 18.2270391,26.8523969 C20.7792109,26.4760766 23.4624375,27.1893578 25.5155703,28.9961078 L26.121,29.5289203 C26.2949375,29.6820609 26.5056563,29.7839828 26.7303828,29.8269516 C32.8356406,29.4511469 37.6869844,24.4022328 37.6869844,18.24885 C37.6869844,11.8043969 32.4441094,6.56152186 25.9996563,6.56152186 C19.6026406,6.56152186 14.3982656,11.8043969 14.3982656,18.24885 Z M45.1607969,31.9162641 C45.5965,31.3352406 45.4690547,30.5324125 44.9055625,30.1085687 C44.3913125,29.7216781 43.6499297,29.7657641 43.1886172,30.2610219 L37.5134766,36.3532172 C36.7846406,37.1357641 35.7532188,37.5845297 34.6838984,37.5845297 C25.0006328,37.5845297 25.2562969,37.5845297 24.5726641,37.5845297 C23.8607578,37.5845297 23.2836016,37.0073734 23.2836016,36.2954672 C23.2836016,35.5835609 23.8607578,35.0064047 24.5726641,35.0064047 C25.4969219,35.0064047 32.9037031,35.0064047 33.8198828,35.0064047 C34.5306719,35.0064047 35.1089453,34.4281312 35.1089453,33.7173422 C35.1089453,33.0065531 34.5306719,32.4282797 33.8198828,32.4282797 C33.1397734,32.4282797 27.090375,32.4282797 25.9996563,32.4282797 C25.4390859,32.4282797 24.2505703,31.3171937 23.8122891,30.9315062 C21.3850703,28.7953578 17.7239609,28.7953578 15.2965703,30.9315062 L14.3982656,31.7220453 L14.3982656,42.8267172 L33.8198828,42.8267172 C35.8377813,42.8267172 37.7652734,41.8629281 38.9760469,40.2485922 L45.1607969,31.9162641 Z M25.9996562,16.9597016 C28.1320234,16.9597016 29.8667578,18.6945219 29.8668437,20.8268891 C29.8668437,22.3835609 28.9405234,23.7817641 27.507,24.3888266 C27.4347266,24.4195062 27.3618516,24.4470922 27.2887187,24.4730453 L27.2887187,25.9830531 C27.2887187,26.6949594 26.7115625,27.2721156 25.9996562,27.2721156 C25.28775,27.2721156 24.7105937,26.6949594 24.7105937,25.9830531 L24.7105937,24.4812953 C24.0409687,24.2564828 23.3939453,23.8580766 22.8119766,23.2942406 C22.3007344,22.7988969 22.2877578,21.9828344 22.7831875,21.4715062 C23.2785312,20.9602641 24.0945937,20.9473734 24.6059219,21.4427172 C25.2335234,22.0508109 25.9242891,22.2592953 26.5016172,22.014975 C26.9797734,21.8124203 27.2887187,21.3461234 27.2887187,20.8268891 C27.2887187,20.1161 26.7104453,19.5378266 25.9996562,19.5378266 C23.867375,19.5378266 22.1325547,17.8030922 22.1325547,15.670725 C22.1325547,14.0511469 23.1546953,12.5905531 24.6760469,12.0364281 C24.6874766,12.0322172 24.6989922,12.0286937 24.7105078,12.0246547 L24.7105078,10.5145609 C24.7105078,9.80265468 25.2876641,9.22549843 25.9995703,9.22549843 C26.7114766,9.22549843 27.2886328,9.80265468 27.2886328,10.5145609 L27.2886328,12.0116781 C28.1392422,12.2980219 28.9503203,12.8683891 29.6471875,13.6982016 C30.1050625,14.2433031 30.03425,15.0564437 29.4891484,15.5143187 C28.9440469,15.9721937 28.1309062,15.9013812 27.6730313,15.3562797 C26.991375,14.5446 26.2205156,14.2176078 25.5584531,14.4586625 C25.0513359,14.6433422 24.7105937,15.1304359 24.7105937,15.6706391 C24.7105937,16.3814281 25.2888672,16.9597016 25.9996562,16.9597016 Z" id="Combined-Shape" fill="#FFFFFF" fill-rule="nonzero"></path>
    </g>
</svg>