<?xml version="1.0" encoding="utf-8"?>
<!-- Generator: Adobe Illustrator 16.0.0, SVG Export Plug-In . SVG Version: 6.00 Build 0)  -->
<!DOCTYPE svg PUBLIC "-//W3C//DTD SVG 1.1//EN" "http://www.w3.org/Graphics/SVG/1.1/DTD/svg11.dtd">
<svg version="1.1" id="Layer_1" xmlns="http://www.w3.org/2000/svg" xmlns:xlink="http://www.w3.org/1999/xlink" x="0px" y="0px"
	 width="26.381px" height="26px" viewBox="12.81 13 26.381 26" enable-background="new 12.81 13 26.381 26" xml:space="preserve">
<path id="Shape" fill="#FFFFFF" d="M36.802,19.63h-1.156h-1.801c1.054-0.662,1.745-1.75,1.745-2.979c0-2.013-1.845-3.65-4.114-3.65
	c-1.924,0-4.204,3.298-5.476,5.43C24.728,16.299,22.448,13,20.523,13c-2.269,0-4.114,1.638-4.114,3.65
	c0,1.23,0.691,2.318,1.745,2.979h-1.623h-1.333c-1.317,0-2.389,1.072-2.389,2.389v3.787c0,0.938,0.545,1.749,1.333,2.139v8.667
	c0,1.317,1.072,2.389,2.389,2.389h19.113c1.317,0,2.39-1.071,2.39-2.389v-8.763c0.691-0.419,1.156-1.176,1.156-2.042v-3.787
	C39.19,20.702,38.119,19.63,36.802,19.63z M14.986,25.806v-3.787c0-0.117,0.096-0.212,0.212-0.212h9.712v4.21l-9.712,0
	C15.082,26.018,14.986,25.923,14.986,25.806z M27.089,21.807h9.713c0.117,0,0.213,0.095,0.213,0.212v3.787
	c0,0.117-0.096,0.211-0.213,0.211h-9.713V21.807z M31.476,15.176c1.051,0,1.938,0.675,1.938,1.474s-0.887,1.474-1.938,1.474h-2.688
	C29.889,16.534,30.425,15.176,31.476,15.176z M20.494,15.175c1.02-0.002,1.615,1.36,2.718,2.95h-2.688
	c-1.05,0-1.938-0.675-1.938-1.474S19.473,15.176,20.494,15.175z M16.32,36.611v-8.417h8.592v8.63h-8.38
	C16.415,36.824,16.32,36.729,16.32,36.611z M35.646,36.824h-8.557v-8.63h8.769v8.417C35.857,36.729,35.762,36.824,35.646,36.824z"/>
</svg>
