<?xml version="1.0" encoding="UTF-8"?>
<svg width="52px" height="52px" viewBox="0 0 52 52" version="1.1" xmlns="http://www.w3.org/2000/svg" xmlns:xlink="http://www.w3.org/1999/xlink">
    <!-- Generator: Sketch 54.1 (76490) - https://sketchapp.com -->
    <title>icon / tournament</title>
    <desc>Created with Sketch.</desc>
    <g id="icon-/-tournament" stroke="none" stroke-width="1" fill="none" fill-rule="evenodd">
        <path d="M43.3269726,16.864157 L46.0095238,6 L35.0100258,8.53462385 L25.9532859,19.3212059 L16.871815,8.55997316 L5.99047619,6.00458122 L8.54967772,16.8852305 L19.932659,26.4916961 L17.588709,29.2831724 L16.0074509,27.7014376 L14.351084,29.3586094 L16.0074509,31.0154759 L10.3858788,36.638743 C9.28702812,36.7077663 8.20802338,37.1603887 7.36991697,37.9987478 C5.54318079,39.8257293 5.54318079,42.7989264 7.36991697,44.6262134 C9.19665307,46.4535004 12.168954,46.4538058 13.9956902,44.6262134 C14.8334913,43.7881597 15.2859772,42.7088295 15.3552851,41.6093422 L20.9768572,35.9860751 L22.6332242,37.6429415 L24.2895912,35.9860751 L22.7031427,34.3991482 L25.9822914,31.6110315 L29.2705997,34.40037 L27.6853725,35.9860751 L29.3417395,37.6429415 L30.9981064,35.9860751 L36.6172361,41.6068989 C36.6874599,42.747617 37.1640661,43.8110657 37.9792735,44.6262134 C39.8099788,46.4577761 42.7737307,46.4580816 44.6050467,44.6262134 C46.4357521,42.7949561 46.4363628,39.8303105 44.6050467,37.9984424 C43.7898394,37.1832947 42.7270166,36.7062393 41.586337,36.6359943 L35.9675128,31.0151704 L37.6238797,29.358304 L35.9675128,27.7014376 L34.3825909,29.286532 L32.0114672,26.484977 L43.3269726,16.864157 Z M35.9675128,34.3292086 L34.3111457,35.9863805 L32.6544735,34.3295141 L34.3111457,32.6723423 L35.9675128,34.3292086 Z M37.2553571,38.9314796 L35.9675128,37.6432469 L37.6238797,35.9860751 L38.9117241,37.2743078 C38.5758709,37.4731318 38.2626115,37.7153244 37.9792735,37.9987478 C37.6959355,38.2818658 37.4541212,38.5955252 37.2553571,38.9314796 Z M42.9483745,42.969347 C42.0330218,43.8849756 40.5512985,43.8852811 39.6356405,42.969347 C38.7202878,42.0537183 38.7202878,40.5715483 39.6356405,39.6556142 C40.5512985,38.7399856 42.0330218,38.7396802 42.9483745,39.6556142 C43.8640324,40.5715483 43.8640324,42.0534129 42.9483745,42.969347 Z M10.6524241,15.5942491 L9.13681014,9.15064218 L15.5818334,10.6639644 L24.4242378,21.1420792 L21.4394187,24.6973938 L10.6524241,15.5942491 Z M13.0626289,37.275224 L14.351084,35.9860751 L16.0077562,37.6432469 L14.7193012,38.9320904 C14.5226744,38.5985792 14.2814708,38.2846145 13.9956902,37.9987478 C13.7099097,37.7125757 13.3960396,37.4716047 13.0626289,37.275224 Z M16.0074509,34.3292086 L17.6638179,32.6723423 L19.3204902,34.3292086 L17.6641232,35.9860751 L16.0074509,34.3292086 Z M12.3393232,42.969347 C11.4261078,43.8828378 9.93980468,43.8828378 9.02628394,42.969347 C8.1130685,42.0558562 8.1130685,40.569105 9.02628394,39.6556142 C9.93980468,38.741818 11.4258024,38.741818 12.3393232,39.6556142 C13.2525386,40.569105 13.2525386,42.0558562 12.3393232,42.969347 Z M19.2514876,30.9464525 L36.2997021,10.6422801 L42.8213609,9.13934191 L41.2339965,15.5682889 L21.04128,32.7367845 L19.2514876,30.9464525 Z M32.7204228,30.9495066 L30.9327677,32.7377006 L27.7910136,30.0732763 L30.22656,28.002575 L32.7204228,30.9495066 Z" id="Shape" fill="#FFFFFF" fill-rule="nonzero"></path>
    </g>
</svg>