<?xml version="1.0" encoding="utf-8"?>
<!-- Generator: Adobe Illustrator 16.0.0, SVG Export Plug-In . SVG Version: 6.00 Build 0)  -->
<!DOCTYPE svg PUBLIC "-//W3C//DTD SVG 1.1//EN" "http://www.w3.org/Graphics/SVG/1.1/DTD/svg11.dtd">
<svg version="1.1" id="Layer_1" xmlns="http://www.w3.org/2000/svg" xmlns:xlink="http://www.w3.org/1999/xlink" x="0px" y="0px"
	 width="25.977px" height="26px" viewBox="0 0 25.977 26" enable-background="new 0 0 25.977 26" xml:space="preserve">
<path id="Shape" fill="#FFFFFF" d="M25.976,1.09c0-1.088-1.418-1.519-2.014-0.547L18.8,9.479l-4.854-8.914
	c-0.463-0.717-1.43-0.786-1.887-0.016L6.97,9.484L1.999,0.559c-0.505-0.828-1.998-0.594-1.998,0.74v19.388c0,0,0,0,0,0.004
	C0.001,24.17,6.523,26,12.989,26c6.464,0,12.987-1.822,12.987-5.309c0,0,0,0,0-0.004V1.09z M7.9,12.236l5.078-8.919l4.845,8.896
	c0.5,0.851,1.387,0.84,1.881,0.027l4.063-7.027v12.38c-2.459-1.455-6.63-2.209-10.777-2.209c-4.182,0-8.383,0.766-10.831,2.242
	V5.283l3.866,6.942C6.476,12.997,7.443,12.997,7.9,12.236z M12.989,23.895c-7.018,0-10.831-2.045-10.831-3.148
	c0-1.105,3.813-3.15,10.831-3.15c7.018,0,10.832,2.045,10.832,3.15C23.821,21.85,20.006,23.895,12.989,23.895z"/>
</svg>
